<svg width="107" height="100" viewBox="0 0 107 100" fill="none" xmlns="http://www.w3.org/2000/svg">
<path d="M95.9091 88.3636L81.4545 65.8485L97.5454 66.0909L82.8182 55.1515L99.3636 50.0909L85.1515 42.0303L104.121 25.0303L75.5758 30.2424L80.9697 9.39394L64.6061 22.8788L60.697 10.3636L52.9091 22.2121L38.9697 0L40.7879 25.8485L27.7575 21.6667L32.697 34.8485L10.0303 31.1818L26.0909 46.3939L0 53.6061L27.7879 59.6667L14.3333 73.5455L32.1818 71.4545L24.3939 95.9697L45.3333 77.9697L49.0909 93.1212L58.8788 79.3939L71.6667 97.0606L71.4848 75.7879L95.9091 88.3636Z" fill="white"/>
</svg>
