<svg width="24" height="24" viewBox="0 0 24 24" fill="none" xmlns="http://www.w3.org/2000/svg">
<path d="M17.2979 2.19408C15.8822 0.779156 14.0009 0 12.0001 0C7.86904 0 4.50806 3.36094 4.50806 7.49208V16.508C4.50806 20.6391 7.86904 24 12.0001 24C16.1312 24 19.4922 20.6391 19.4922 16.5079V7.49208C19.4922 5.49136 18.713 3.60998 17.2979 2.19408ZM18.2224 16.5079C18.2224 19.9389 15.4312 22.7302 12.0001 22.7302C8.56912 22.7302 5.7779 19.9389 5.7779 16.5079V7.49208C5.7779 4.06106 8.56917 1.26984 12.0001 1.26984C13.6617 1.26984 15.2244 1.917 16.4 3.09202C17.5752 4.26783 18.2224 5.8305 18.2224 7.49208V16.5079Z" fill="black"/>
<path d="M12.0006 3.93651C11.65 3.93651 11.3657 4.22076 11.3657 4.57143V6.06351C11.3657 6.41419 11.65 6.69844 12.0006 6.69844C12.3513 6.69844 12.6356 6.41419 12.6356 6.06351V4.57143C12.6356 4.22076 12.3513 3.93651 12.0006 3.93651Z" fill="black"/>
<path d="M12.0006 7.12964C11.65 7.12964 11.3657 7.41389 11.3657 7.76456V7.95239C11.3657 8.30306 11.65 8.58731 12.0006 8.58731C12.3513 8.58731 12.6356 8.30306 12.6356 7.95239V7.76456C12.6356 7.41389 12.3513 7.12964 12.0006 7.12964Z" fill="black"/>
</svg>
