<svg width="182" height="77" viewBox="0 0 182 77" fill="none" xmlns="http://www.w3.org/2000/svg">
<g clip-path="url(#clip0_1444_11555)">
<path d="M181.496 76.9999H0.00634766V0H181.503L181.496 76.9999ZM6.53409 70.4656H174.962V6.53428H6.54063L6.53409 70.4656Z" fill="#010101"/>
<path d="M51.0195 47.8701C50.5254 48.8207 49.8051 49.6352 48.922 50.242C47.9282 50.9121 46.8213 51.3969 45.6549 51.6729C44.2632 51.9998 42.8371 52.1578 41.4076 52.1434H28.2344V24.4185H41.0874C43.9364 24.4185 46.1709 25.0719 47.7914 26.3787C48.5814 26.9955 49.2138 27.7909 49.6364 28.6997C50.059 29.6085 50.2598 30.6046 50.2223 31.6062V31.6847C50.2339 32.3949 50.1346 33.1025 49.9282 33.7821C49.7447 34.366 49.4785 34.9206 49.1375 35.4288C48.8203 35.9145 48.4377 36.3542 48.0006 36.7356C47.5694 37.1021 47.1008 37.4219 46.6023 37.6896C48.0456 38.193 49.3442 39.0408 50.3857 40.1596C51.3691 41.3843 51.8626 42.9304 51.7709 44.4983V44.5768C51.7944 45.7299 51.5436 46.872 51.0391 47.9092L51.0195 47.8701ZM44.2041 32.6583C44.2274 32.2359 44.141 31.8146 43.9532 31.4356C43.7654 31.0566 43.4827 30.7327 43.1326 30.4954C42.2403 29.9517 41.2021 29.6961 40.1594 29.7635H34.1414V35.6443H39.7675C40.8791 35.6985 41.9855 35.4598 42.9758 34.9518C43.3627 34.7273 43.6791 34.3989 43.8892 34.004C44.0994 33.6091 44.195 33.1633 44.165 32.717L44.2041 32.6583ZM45.7463 43.7665C45.76 43.341 45.6695 42.9184 45.4827 42.5358C45.296 42.1531 45.0187 41.8219 44.6747 41.571C43.9603 41.0308 42.8125 40.7585 41.2312 40.7542H34.1806V46.8311H41.4271C42.5312 46.8899 43.6297 46.6362 44.5962 46.0992C44.9741 45.8563 45.28 45.5169 45.4823 45.1158C45.6845 44.7148 45.7756 44.2669 45.7463 43.8187V43.7665Z" fill="black"/>
<path d="M63.1997 24.4185H57.0967V52.15H63.1997V24.4185Z" fill="black"/>
<path d="M93.0093 45.57C92.5013 47.0432 91.6683 48.3832 90.572 49.4906C89.4856 50.5521 88.1715 51.352 86.7297 51.8297C85.1067 52.363 83.4066 52.6236 81.6984 52.6009C77.9738 52.6009 75.0421 51.5707 72.9033 49.5102C70.7644 47.4497 69.6948 44.3742 69.6948 40.2837V24.4185H75.8044V40.1007C75.8044 42.3747 76.3337 44.0845 77.3922 45.2302C77.9579 45.8172 78.6437 46.2753 79.4026 46.573C80.1615 46.8707 80.9758 47.001 81.7898 46.9552C82.598 47.0006 83.4069 46.8765 84.1642 46.5907C84.9216 46.3048 85.6107 45.8636 86.1873 45.2955C87.2372 44.1846 87.7644 42.5206 87.7688 40.3033V24.4185H93.8717V40.0615C93.9086 41.9329 93.6214 43.7967 93.0223 45.57" fill="black"/>
<path d="M116.911 52.1434L110.972 43.2699H106.176V52.1434H100.079V24.4185H112.756C116.053 24.4185 118.621 25.2221 120.46 26.8296C122.298 28.437 123.215 30.6827 123.211 33.5665V33.6449C123.297 35.607 122.719 37.5409 121.57 39.1337C120.46 40.5562 118.969 41.6347 117.271 42.244L124.047 52.1434H116.911ZM117.036 33.8866C117.075 33.326 116.981 32.7641 116.761 32.2472C116.54 31.7302 116.2 31.2729 115.768 30.9135C114.736 30.1973 113.494 29.8478 112.239 29.9204H106.176V37.8857H112.357C113.606 37.9678 114.842 37.5862 115.827 36.814C116.226 36.458 116.542 36.0179 116.751 35.5253C116.96 35.0327 117.057 34.4998 117.036 33.9651V33.8866Z" fill="black"/>
<path d="M142.624 41.0939V52.1434H136.521V41.2116L125.87 24.4185H132.999L139.612 35.5463L146.349 24.4185H153.281L142.624 41.0939Z" fill="black"/>
</g>
<defs>
<clipPath id="clip0_1444_11555">
<rect width="181.496" height="77" fill="white"/>
</clipPath>
</defs>
</svg>
