<svg width="97" height="40" viewBox="0 0 97 40" fill="none" xmlns="http://www.w3.org/2000/svg">
<g clip-path="url(#clip0_1442_11481)">
<path d="M96.1538 39.9999H0.00341797V0H96.1573L96.1538 39.9999ZM3.46171 36.6055H92.692V3.39443H3.46518L3.46171 36.6055Z" fill="white"/>
<path d="M27.0292 24.8676C26.7674 25.3614 26.3858 25.7846 25.918 26.0997C25.3915 26.4479 24.8051 26.6997 24.1871 26.8431C23.4498 27.0129 22.6943 27.095 21.937 27.0875H14.958V12.6849H21.7673C23.2767 12.6849 24.4605 13.0244 25.319 13.7033C25.7375 14.0237 26.0726 14.4369 26.2965 14.909C26.5203 15.3811 26.6267 15.8985 26.6069 16.4188V16.4596C26.613 16.8285 26.5604 17.1961 26.451 17.5492C26.3539 17.8525 26.2128 18.1406 26.0322 18.4046C25.8641 18.6569 25.6614 18.8853 25.4298 19.0835C25.2014 19.2738 24.9531 19.4399 24.6891 19.579C25.4537 19.8405 26.1417 20.281 26.6934 20.8622C27.2144 21.4983 27.4759 22.3015 27.4273 23.116V23.1568C27.4397 23.7558 27.3069 24.3491 27.0396 24.8879L27.0292 24.8676ZM23.4185 16.9654C23.4308 16.746 23.3851 16.5271 23.2856 16.3302C23.1861 16.1333 23.0363 15.9651 22.8508 15.8418C22.3781 15.5593 21.8281 15.4266 21.2757 15.4616H18.0875V18.5165H21.0681C21.657 18.5447 22.2431 18.4207 22.7678 18.1568C22.9727 18.0402 23.1404 17.8696 23.2517 17.6645C23.363 17.4593 23.4137 17.2277 23.3978 16.9958L23.4185 16.9654ZM24.2355 22.7359C24.2428 22.5148 24.1949 22.2953 24.0959 22.0965C23.997 21.8978 23.8501 21.7257 23.6678 21.5953C23.2894 21.3147 22.6812 21.1733 21.8435 21.171H18.1082V24.3279H21.9473C22.5323 24.3584 23.1142 24.2266 23.6263 23.9476C23.8264 23.8215 23.9885 23.6451 24.0957 23.4368C24.2028 23.2285 24.2511 22.9958 24.2355 22.763V22.7359Z" fill="white"/>
<path d="M33.4823 12.6851H30.249V27.091H33.4823V12.6851Z" fill="white"/>
<path d="M49.2745 23.6728C49.0054 24.4381 48.5641 25.1341 47.9832 25.7094C47.4077 26.2608 46.7115 26.6764 45.9477 26.9246C45.0878 27.2016 44.1871 27.337 43.2821 27.3252C41.3089 27.3252 39.7558 26.79 38.6226 25.7196C37.4895 24.6492 36.9229 23.0515 36.9229 20.9266V12.6849H40.1596V20.8316C40.1596 22.0128 40.44 22.9011 41.0008 23.4962C41.3005 23.8012 41.6638 24.0391 42.0659 24.1938C42.468 24.3484 42.8993 24.4161 43.3306 24.3923C43.7588 24.4159 44.1873 24.3515 44.5885 24.203C44.9897 24.0545 45.3548 23.8252 45.6603 23.5301C46.2165 22.9531 46.4958 22.0887 46.4981 20.9368V12.6849H49.7314V20.8112C49.7509 21.7833 49.5988 22.7515 49.2814 23.6728" fill="white"/>
<path d="M61.938 27.0875L58.7913 22.4779H56.2504V27.0875H53.0205V12.6849H59.7364C61.4834 12.6849 62.8439 13.1024 63.8178 13.9375C64.7917 14.7725 65.2775 15.9391 65.2752 17.4371V17.4779C65.3212 18.4972 65.015 19.5018 64.4063 20.3292C63.8181 21.0682 63.0283 21.6284 62.1284 21.945L65.7183 27.0875H61.938ZM62.0038 17.6035C62.0249 17.3122 61.9749 17.0204 61.8581 16.7518C61.7414 16.4832 61.5611 16.2457 61.3322 16.059C60.7854 15.687 60.1273 15.5054 59.4629 15.5431H56.2504V19.6809H59.5252C60.1869 19.7236 60.8414 19.5253 61.3634 19.1242C61.5751 18.9392 61.7422 18.7106 61.853 18.4547C61.9637 18.1988 62.0153 17.922 62.0038 17.6442V17.6035Z" fill="white"/>
<path d="M75.56 21.3477V27.0876H72.3267V21.4087L66.6841 12.6851H70.4609L73.9642 18.4658L77.5332 12.6851H81.2062L75.56 21.3477Z" fill="white"/>
</g>
<defs>
<clipPath id="clip0_1442_11481">
<rect width="96.1538" height="40" fill="white"/>
</clipPath>
</defs>
</svg>
