<svg width="174" height="215" viewBox="0 0 174 215" fill="none" xmlns="http://www.w3.org/2000/svg">
<path d="M2.80005 179.7L35.4001 141.5C52.2001 155.6 68 163.8 85.4 163.8C104.2 163.8 115.7 154.4 115.7 139.7V139.1C115.7 124.4 103.4 115.3 85.4 115.3C72.8 115.3 62.2 119.7 52.5 125.6L18.7 106.8L24.6 2.5H162.2V49.5H69.5L67.7 80.7C77.1 76.3 86.8 73.4 100.6 73.4C137.6 73.4 171.1 94 171.1 138.6V139.2C171.1 185.1 136.1 212.4 86.2 212.4C49.8 212.3 24.2 199.6 2.80005 179.7Z" stroke="black" stroke-width="4" stroke-miterlimit="10"/>
</svg>
