<svg width="170" height="210" viewBox="0 0 170 210" fill="none" xmlns="http://www.w3.org/2000/svg">
<path d="M0.800049 177.2L33.4001 139C50.2001 153.1 66.0001 161.3 83.4001 161.3C102.2 161.3 113.7 151.9 113.7 137.2V136.6C113.7 121.9 101.4 112.8 83.4001 112.8C70.8001 112.8 60.2001 117.2 50.5 123.1L16.7001 104.3L22.5 0H160.1V47H67.5L65.7 78.2C75.1 73.8 84.8 70.9 98.6001 70.9C135.6 70.9 169.1 91.5 169.1 136.1V136.7C169.1 182.6 134.1 209.9 84.2 209.9C47.8 209.9 22.2 197.2 0.800049 177.2Z" fill="#29C0E2"/>
</svg>
