<svg width="153" height="262" viewBox="0 0 153 262" fill="none" xmlns="http://www.w3.org/2000/svg">
<path d="M127.3 111.4C112.1 98.2 91.3 90.9 68.7 90.9C45.6 90.9 29.9 99 17.6 107.8C22.9 69.3 44.4 61 61.9 61C81.3 61 95.2 68.4 110.1 79.4L111.8 80.6L146.3 28.7L144.8 27.6C118.6 8.3 93.6 0 60.8 0C37.7 0 17.2 5.3 0.1 15.5V20.1C17 9.4 37.5 3.9 60.8 3.9C92 3.9 116 11.6 140.8 29.7L110.7 75C95.8 64.2 81.6 57 61.9 57C34 57 16.7 76.4 13.1 111.6L12.6 116.1L16.2 113.4C28.5 104.1 44.3 94.6 68.6 94.6C90.3 94.6 110.2 101.5 124.7 114.2C140.4 127.9 148.6 147.2 148.6 170V170.7C148.6 196.7 138.8 218.9 120.3 234.8C102.8 249.9 78.5 258.1 51.9 258.1C31.6 258.1 14.6 254.5 0 247V251.4C14.7 258.6 31.7 262 51.9 262C79.5 262 104.7 253.4 122.9 237.7C142.3 221 152.5 197.8 152.5 170.6V169.9C152.5 146.1 143.8 125.8 127.3 111.4Z" fill="black"/>
<path d="M85.5 174.8V174C85.5 154 70.2 140.1 48.4 140.1C27 140.1 12 153.9 12 173.6V174.3C12 194.5 27.3 208.5 49.1 208.5C70.9 208.6 85.5 195 85.5 174.8ZM15.9 174.4V173.7C15.9 156 28.9 144.1 48.4 144.1C67.9 144.1 81.6 156.4 81.6 174.1V174.8C81.6 192.7 68.6 204.8 49.1 204.8C29.6 204.7 15.9 192.3 15.9 174.4Z" fill="black"/>
</svg>
