<svg width="153" height="284" viewBox="0 0 153 284" fill="none" xmlns="http://www.w3.org/2000/svg">
<g clip-path="url(#clip0_2228_619)">
<path d="M127.2 132.6C112 119.4 91.1999 112.1 68.5999 112.1C45.4999 112.1 29.7999 120.2 17.4999 129C22.8999 90.6 44.3999 82.3 61.7999 82.3C81.1999 82.3 95.0999 89.7 110 100.7L111.7 101.9L146.1 50L144.6 48.9C118.6 29.5 93.4999 21.2 60.7999 21.2C37.6999 21.2 17.1999 26.5 0.0999023 36.7V41.2999C16.9999 30.6999 37.4999 25.1 60.7999 25.1C91.9999 25.1 116 32.8 140.8 50.9L110.7 96.2C95.7999 85.3999 81.5999 78.1999 61.8999 78.1999C33.8999 78.3999 16.5999 97.8 12.9999 133L12.4999 137.5L16.0999 134.8C28.3999 125.5 44.1999 116 68.4999 116C90.1999 116 110.1 122.9 124.6 135.6C140.3 149.3 148.5 168.6 148.5 191.4V192.1C148.5 218.1 138.7 240.3 120.2 256.2C102.7 271.3 78.3999 279.5 51.7999 279.5C31.4999 279.5 14.4999 275.9 -0.100098 268.4V272.8C14.5999 280 31.5999 283.4 51.7999 283.4C79.3999 283.4 104.6 274.8 122.8 259.1C142.2 242.4 152.4 219.2 152.4 192V191.3C152.4 167.4 143.7 147 127.2 132.6Z" fill="#A125F4"/>
<path d="M85.3999 196V195.3C85.3999 175.3 70.0999 161.4 48.2999 161.4C26.8999 161.4 11.8999 175.2 11.8999 194.9V195.6C11.8999 215.8 27.1999 229.8 48.9999 229.8C70.7999 229.9 85.3999 216.3 85.3999 196ZM15.7999 195.6V194.9C15.7999 177.2 28.7999 165.3 48.2999 165.3C67.7999 165.3 81.4999 177.6 81.4999 195.3V196C81.4999 213.9 68.4999 226 48.9999 226C29.4999 226 15.7999 213.5 15.7999 195.6Z" fill="#A125F4"/>
</g>
<defs>
<clipPath id="clip0_2228_619">
<rect width="152.4" height="283.5" fill="white"/>
</clipPath>
</defs>
</svg>
