<svg width="116" height="28" viewBox="0 0 116 28" fill="none" xmlns="http://www.w3.org/2000/svg">
<path d="M24.55 25.1918L15.1668 1.00049H10.3352C10.5798 1.31198 10.7378 1.69713 10.7893 2.10836C10.8409 2.51959 10.7839 2.93877 10.6253 3.31398L0.361816 27.4942H3.73296C3.8568 26.76 4.05478 26.0442 4.32313 25.3604L7.25419 17.7908H17.0775L20.0085 25.3604C20.2863 26.0294 20.4361 26.7562 20.4486 27.4942H25.7205C25.5604 27.1235 24.8801 25.8432 24.55 25.1918ZM8.42451 15.3198L12.2359 5.44788L16.0471 15.3198H8.42451Z" fill="black"/>
<path d="M26.4707 1.00049C26.6758 1.69168 26.774 2.41724 26.7608 3.14563V24.866C26.7283 25.7495 26.6313 26.6285 26.4707 27.4942H41.5657L42.436 24.3719C41.4846 24.6908 40.498 24.8571 39.5051 24.866H31.0123V3.14563C31.0123 2.60655 31.3023 1.5845 31.3023 1.00049H26.4707Z" fill="black"/>
<path d="M94.4938 1.0004C94.984 1.58441 95.7442 2.35932 96.1043 2.80856L102.697 13.5116V24.8659C102.697 25.4949 102.467 27.0336 102.407 27.4941H107.248C107.041 26.6379 106.943 25.753 106.958 24.8659V13.635L113.55 3.28031C113.92 2.66261 114.991 1.38222 115.161 0.966675H111.79C111.4 1.97746 111.25 2.40427 110.909 3.11182L105.908 10.8385L101.216 3.11182C100.84 2.44339 100.544 1.72208 100.336 0.966675L94.4938 1.0004ZM45.3971 1.0004C45.5329 1.6513 45.6298 2.31166 45.6872 2.97705C45.6872 3.54983 44.0766 24.6976 44.0766 24.6976C43.9947 25.6557 43.7962 26.5966 43.4865 27.4941H46.5675C46.4275 26.6275 46.3772 25.7455 46.4174 24.8659C46.3574 24.0349 47.7379 5.4478 47.7379 5.4478L57.2612 27.9882L66.6444 4.78521L68.405 24.8659C68.405 25.5847 68.345 27.0336 68.405 27.4941H73.0965C72.8133 26.5876 72.6155 25.6503 72.5063 24.6976L70.6057 3.14554C70.6057 2.60646 70.6057 1.58441 70.6057 1.0004H65.7641L58.2915 19.4304L50.5189 1.0004H45.3971Z" fill="black"/>
<path d="M110.079 26.9662C110.538 26.9662 110.987 26.8135 111.368 26.5272C111.75 26.2409 112.048 25.8339 112.223 25.3578C112.399 24.8817 112.445 24.3576 112.355 23.8522C112.266 23.3467 112.045 22.8826 111.72 22.5182C111.396 22.1538 110.982 21.9056 110.532 21.8051C110.082 21.7045 109.615 21.7562 109.191 21.9534C108.767 22.1506 108.404 22.4846 108.149 22.9131C107.894 23.3415 107.758 23.8452 107.758 24.3605C107.758 25.0516 108.003 25.7145 108.438 26.2031C108.873 26.6917 109.464 26.9662 110.079 26.9662ZM110.079 26.6179C109.681 26.6314 109.289 26.5113 108.952 26.2727C108.615 26.0342 108.349 25.6881 108.189 25.2791C108.028 24.87 107.979 24.4164 108.05 23.9764C108.12 23.5363 108.306 23.1298 108.583 22.8089C108.86 22.488 109.216 22.2672 109.606 22.1749C109.996 22.0827 110.401 22.1231 110.77 22.2909C111.139 22.4588 111.455 22.7466 111.678 23.1173C111.901 23.488 112.02 23.9247 112.02 24.3718C112.032 24.6663 111.991 24.9604 111.899 25.2366C111.807 25.5127 111.666 25.7651 111.484 25.9783C111.303 26.1914 111.085 26.361 110.843 26.4767C110.602 26.5925 110.342 26.652 110.079 26.6517V26.6179ZM110.449 24.4729C110.909 24.4729 111.259 24.2484 111.259 23.6868C111.259 23.1253 111.029 22.9117 110.349 22.9117H109.219V25.8431H109.539V24.5067H110.119L110.849 25.8431H111.229L110.449 24.4729ZM109.539 24.1922V23.1703H110.269C110.589 23.1703 110.919 23.1702 110.919 23.6756C110.919 24.181 110.379 24.1922 110.019 24.1922H109.539Z" fill="black"/>
<path d="M98.055 25.1918L88.6718 1.00049H83.8401C84.0739 1.30502 84.2255 1.67824 84.2769 2.07614C84.3283 2.47405 84.2774 2.88011 84.1302 3.24667L73.8767 27.438H77.2378C77.3617 26.7038 77.5597 25.988 77.828 25.3042L80.7591 17.7346H90.5824L93.5134 25.3042C93.7911 25.9732 93.941 26.7 93.9535 27.438H99.2253C99.0653 27.1235 98.3851 25.8432 98.055 25.1918ZM81.9294 15.3198L85.7408 5.44788L89.5521 15.3198H81.9294Z" fill="black"/>
</svg>
