<svg version="1.2" xmlns="http://www.w3.org/2000/svg" viewBox="0 0 128 47" width="128" height="47"><style>.s0{fill:#000000}</style><path fill-rule="evenodd" class="s0" d="m107.1 32.8c1.1-8.8 11.5-8.5 11.3-0.4q0 0.6-0.7 0.6h-10.4q-0.2 0-0.2-0.2zm5.3-6.9c-14.6 1.3-13.3 23.8 4.7 20.2c2.3-0.6 4.7-2.2 5.7-4.8l-0.5-0.1c-2.8 6.5-16.6 5.9-15.3-7.4q0-0.2 0.2-0.2h15.2c-0.1-2-2.1-8.4-10-7.7z" /><path class="s0" d="m78.4 26l3.3-0.4c0.2 0 0.2 0.1 0.2 0.2v2c0 0.6 0.4 0.2 0.8 0c3.3-2.2 5.6-2.5 7.7-2.4c4.9 0.3 6.2 2.6 6.2 6.5c0 4.6 0 9.3 0 13.9h-3.5q0-6.9 0-13.9c0-3.7-1.4-5.6-5.5-5.4c-2.9 0.2-5.7 1.6-5.7 6.2v13.1h-3.6c0.1-5.3 0.1-10.6 0.1-15.9z" /><path class="s0" d="m49.8 26h0.8l-1.4 3.3l-7.1 16.6h-1.1l-7.9-16.9l-1.3-3.1h3.9l1.3 3l6 12.9l0.2-0.5l5-11.6z" /><path class="s0" d="m62.6 16.2l2.9 7.8l-0.3 0.2l-8.8-8z" /><path fill-rule="evenodd" class="s0" d="m57.3 32.8c1.1-8.8 11.4-8.5 11.2-0.4q0 0.6-0.6 0.6h-10.4q-0.3 0-0.2-0.2zm5.3-6.9c-14.6 1.3-13.3 23.8 4.6 20.2c2.4-0.6 4.8-2.2 5.7-4.8l-0.4-0.1c-2.8 6.5-16.6 5.9-15.3-7.4q-0.1-0.2 0.2-0.2h15.2c-0.1-2-2.1-8.4-10-7.7z" /><path fill-rule="evenodd" class="s0" d="m4.8 45.9h-1.5q6.8-16.2 13.4-32.5l1.4 0.1l14.6 32.4h-6.1l-5.8-13.1h-10.7zm15.6-14zm-5-11.2c-0.1-0.2-0.1-0.2-0.2 0c0 0-4.7 11.2-4.7 11.2h9.9z" /><path class="s0" d="m91.5 9.2l-3.2-6.1l-1.3 5.8h-1.2l2.1-8.8l3.6 7l3.6-7l2 8.8h-1.2l-1.3-5.8z" /><path fill-rule="evenodd" class="s0" d="m105.2 0.1l4.5 8.7h-1.2l-1.3-2.6h-3.9l-1.3 2.6h-1.2zm0 2.2l-1.6 3.1h3.1z" /><path fill-rule="evenodd" class="s0" d="m14.6 0.1l4.5 8.7h-1.3l-1.3-2.5h-3.8l-1.3 2.5h-1.3zm0 2.3l-1.6 3.1h3.2z" /><path class="s0" d="m114.3 8.9v-8.4h1v7.5h3.2v0.9z" /><path class="s0" d="m122.6 8.9v-8.4h5.1v0.9h-4v2.4h4v1h-4v3.2h4v0.9z" /><path class="s0" d="m0.5 8.9v-8.5h5.3v1h-4.1v2.4h4.1v0.9h-4.1v3.2h4.1v1z" /><path fill-rule="evenodd" class="s0" d="m76 8.9v-8.4h2.1q0.9 0 1.3 0.1q0.4 0.1 0.7 0.3q0.4 0.3 0.6 0.8q0.2 0.5 0.2 1.1q0 1-0.6 1.5q-0.6 0.6-1.8 0.6h-0.2l3.5 4h-1.4l-3.2-4h-0.2v4zm1-7.6v2.8h0.8q1.3 0 1.7-0.3q0.4-0.3 0.4-1q0-0.8-0.4-1.2q-0.4-0.3-1.7-0.3z" /><path class="s0" d="m65.6 8.9v-8.4h5.1v0.9h-3.9v2.4h3.9v0.9h-3.9v3.3h3.9v0.9z" /><path class="s0" d="m52.9 8.9v-8.5h1.2v3.3h5v-3.3h1.2v8.5h-1.2v-4.3h-5v4.3z" /><path class="s0" d="m44.9 8.9v-7.5h-2.3v-1h5.7v1h-2.3v7.5z" /><path class="s0" d="m23.5 0.4h1.1v5.3q0 1.3 0.6 1.9q0.6 0.6 1.9 0.6q1.3 0 1.9-0.6q0.6-0.6 0.6-1.9v-5.3h1.1v5.3q0 1.7-0.9 2.5q-0.9 0.9-2.7 0.9q-1.8 0-2.7-0.9q-0.9-0.8-0.9-2.5z" /></svg>