<svg width="108" height="75" viewBox="0 0 108 75" fill="none" xmlns="http://www.w3.org/2000/svg">
<path d="M99.7074 34.8158L53.7718 47.2484L7.83618 34.8158H99.7074Z" fill="#D00021"/>
<path fill-rule="evenodd" clip-rule="evenodd" d="M101.788 3.27937C101.782 3.84274 101.925 4.39527 102.2 4.86695C102.474 5.33863 102.867 5.70811 103.329 5.92834C103.791 6.14858 104.301 6.20963 104.794 6.10383C105.287 5.99802 105.741 5.73018 106.098 5.33417C106.455 4.93816 106.699 4.43194 106.799 3.87986C106.899 3.32777 106.85 2.75477 106.66 2.23361C106.469 1.71244 106.145 1.26659 105.728 0.952854C105.311 0.63912 104.821 0.471687 104.319 0.471647C103.988 0.468687 103.66 0.539025 103.354 0.678662C103.048 0.8183 102.769 1.02444 102.534 1.28531C102.299 1.54618 102.112 1.8566 101.984 2.19878C101.856 2.54097 101.789 2.90823 101.788 3.27937V3.27937ZM102.248 3.27937C102.264 2.82381 102.398 2.38347 102.635 2.01316C102.872 1.64284 103.201 1.35887 103.58 1.19661C103.96 1.03435 104.373 1.00091 104.77 1.10051C105.166 1.2001 105.527 1.42836 105.809 1.75679C106.091 2.08521 106.28 2.49926 106.354 2.9476C106.427 3.39595 106.382 3.8588 106.223 4.27839C106.064 4.69799 105.799 5.05587 105.461 5.30757C105.122 5.55927 104.725 5.69357 104.319 5.69391C104.04 5.69414 103.764 5.63124 103.508 5.50883C103.251 5.38642 103.019 5.20704 102.826 4.98156C102.632 4.75607 102.481 4.48906 102.382 4.19655C102.283 3.90404 102.237 3.59215 102.248 3.27937V3.27937ZM103.339 4.93029H103.799V3.51518H104.279L105.079 4.93029H105.569L104.729 3.48145C104.834 3.48485 104.938 3.46362 105.034 3.41921C105.131 3.37481 105.219 3.30818 105.291 3.22358C105.364 3.13897 105.42 3.03832 105.456 2.928C105.491 2.81767 105.506 2.70023 105.499 2.58306C105.499 1.95413 105.169 1.63957 104.499 1.63957H103.359V4.93029H103.339ZM103.799 2.05511H104.399C104.709 2.05511 105.049 2.12257 105.049 2.56058C105.049 2.99859 104.679 3.09964 104.269 3.09964H103.799V2.05511Z" fill="#273F4F"/>
<path d="M3.74463 27.482H16.2789V24.8427H8.72631V14.6114H15.0085V11.9609H8.72631V3.12217H16.0588V0.47168H3.74463V27.482Z" fill="#273F4F"/>
<path fill-rule="evenodd" clip-rule="evenodd" d="M54.9021 16.0826C55.0221 12.3876 55.9725 9.74835 57.8431 9.74835C59.4937 9.74835 60.3039 12.2866 60.3639 16.0826H54.9021ZM64.5854 18.0817C64.5854 17.3293 64.5854 17.1383 64.5854 16.6666C64.5854 11.1747 61.9245 8.05261 57.7731 8.05261C53.2915 8.05261 50.2305 11.8037 50.2305 17.8122C50.2305 24.2026 53.3615 27.9986 58.2332 27.9986C60.0489 28.0401 61.8267 27.4129 63.2949 26.2129L63.615 23.6522C62.5183 24.7713 61.0955 25.4024 59.6137 25.4268C56.5526 25.4268 54.862 22.5853 54.862 18.0817H64.5854Z" fill="#273F4F"/>
<path d="M48.86 9.59124C47.443 8.58847 45.7929 8.08029 44.1185 8.13116C39.2868 8.13116 35.9957 12.1967 35.9957 18.3625C35.9957 24.1689 39.1968 27.92 43.8384 27.92C45.3581 28.0421 46.8718 27.6045 48.1498 26.6734L48.59 24.1802C47.6588 25.023 46.4834 25.4508 45.2888 25.3818C42.4479 25.3818 40.7873 22.8662 40.7873 18.0032C40.7873 13.1402 42.2478 10.3324 44.5586 10.2201C45.2385 10.1812 45.9172 10.319 46.5419 10.6229C47.1665 10.9268 47.7202 11.3886 48.1599 11.9722L48.86 9.59124V9.59124Z" fill="#273F4F"/>
<path d="M77.3197 8.20976C77.0764 8.1957 76.8327 8.1957 76.5895 8.20976C74.5888 8.20976 73.2883 9.70358 71.9879 13.3761V8.60295H67.7665V27.5045H71.9879V17.3967C71.9498 16.3763 72.272 15.3802 72.8846 14.6252C73.4972 13.8701 74.3505 13.4172 75.259 13.3648C75.9212 13.3514 76.5722 13.5584 77.1296 13.96L77.3197 8.23225V8.20976Z" fill="#273F4F"/>
<path d="M28.5832 27.5045H32.8046V8.59167H28.5832V19.3733C28.5832 22.7426 27.7129 24.5845 25.8022 24.5845C23.8916 24.5845 23.1514 23.0346 23.1514 20.6649V8.59167H18.9299V21.1927C18.9299 26.5386 21.2707 27.8527 23.9316 27.8527C24.9 27.8418 25.8475 27.5349 26.6723 26.965C27.4971 26.3952 28.168 25.5839 28.6132 24.6182V27.5045H28.5832Z" fill="#273F4F"/>
<path d="M88.9137 27.5045H93.1351V17.1272C93.1351 11.9834 94.8357 11.5117 95.826 11.5117C97.1065 11.5117 98.3469 12.4888 98.3469 16.0041V27.5045H102.568V14.4542C102.568 9.2543 99.8074 8.15369 97.7867 8.15369C96.8247 8.20046 95.8899 8.5273 95.0744 9.10225C94.2589 9.67721 93.5906 10.4804 93.1351 11.433V8.59171H88.9137V27.5045V27.5045Z" fill="#273F4F"/>
<path d="M80.1107 0.47168H84.4921V5.39082H80.1107V0.47168Z" fill="#273F4F"/>
<path d="M80.0807 27.4821H84.5222V8.56921H80.0807V27.4821Z" fill="#273F4F"/>
<path d="M4.99517 65.0943H4.31494C4.31494 64.4654 4.31494 63.4432 4.31494 62.7469V61.9833C4.31494 61.287 4.31494 60.411 4.31494 59.7933H4.65502H4.98516C4.98516 60.411 4.98516 61.287 4.98516 61.9833V62.7469C4.98516 63.4432 4.98516 64.4428 4.98516 64.7461C5.58716 64.7507 6.18874 64.7096 6.78577 64.6227C6.77243 64.7796 6.77243 64.9374 6.78577 65.0943H4.99517Z" fill="#273F4F"/>
<path d="M8.65637 65.1055H8.31628C8.31628 64.4766 8.31628 63.4545 8.31628 62.7582V61.9945C8.31628 61.2982 8.31628 60.4223 8.31628 59.8046H8.65637H8.98651C8.98651 60.4223 8.98651 61.2982 8.98651 61.9945V62.7582C8.98651 63.4545 8.98651 64.4766 8.98651 65.1055H8.65637Z" fill="#273F4F"/>
<path d="M11.6573 60.1753C11.6573 60.5234 11.6573 61.2981 11.6573 61.9383V62.1744C12.1352 62.1882 12.6134 62.1618 13.0878 62.0957V62.5561C12.6126 62.5018 12.1347 62.483 11.6573 62.4999V62.7919C11.6573 63.477 11.6574 64.4991 11.7074 65.128H11.3773H11.0371C11.0371 64.4991 11.0971 63.4769 11.0971 62.7806V62.017C11.0971 61.3207 11.0971 60.4447 11.0371 59.827H11.6874C12.1175 59.827 12.7777 59.827 13.2178 59.827C13.2142 59.9056 13.2142 59.9843 13.2178 60.0628C13.214 60.1339 13.214 60.2051 13.2178 60.2762C12.701 60.195 12.1791 60.1613 11.6573 60.1753V60.1753Z" fill="#273F4F"/>
<path d="M15.5486 65.0943H14.8584C14.8584 64.4654 14.9184 63.4432 14.9184 62.7469V61.9833C14.9184 61.287 14.9184 60.411 14.8584 59.7933H15.5087C15.9488 59.7933 16.609 59.7933 17.0392 59.7933C17.0347 59.8681 17.0347 59.9431 17.0392 60.0179C17.0344 60.0927 17.0344 60.1677 17.0392 60.2425C16.5289 60.1625 16.0137 60.1288 15.4986 60.1416C15.4986 60.4897 15.4986 61.2647 15.4986 61.8936V62.1407C15.9799 62.1544 16.4614 62.128 16.9392 62.062C16.9346 62.1405 16.9346 62.2193 16.9392 62.2978C16.9342 62.3726 16.9342 62.4476 16.9392 62.5224C16.4606 62.4683 15.9794 62.4495 15.4986 62.4662V62.7582C15.4986 63.4433 15.4986 64.4428 15.4986 64.7461C16.0276 64.7536 16.5563 64.7125 17.0792 64.6227C17.0659 64.7796 17.0659 64.9374 17.0792 65.0943C16.6691 65.1167 16.0988 65.0943 15.5486 65.0943Z" fill="#273F4F"/>
<path d="M18.5398 62.5786V62.0732H20.1804V62.5786H18.5398Z" fill="#273F4F"/>
<path d="M25.6422 60.7706H25.5321C25.4276 60.5331 25.2596 60.338 25.0515 60.2132C24.8434 60.0883 24.6057 60.0397 24.3718 60.0742C23.3714 60.0742 22.5911 60.7816 22.5911 62.4887C22.5911 64.1958 23.3814 64.8923 24.4218 64.8923C24.6624 64.9004 24.9017 64.8493 25.1229 64.7426C25.3441 64.6358 25.5418 64.4761 25.7022 64.2745H25.7623C25.7623 64.398 25.7623 64.6788 25.7022 64.7686C25.2901 65.0825 24.7993 65.2401 24.3017 65.218C23.9812 65.2136 23.6646 65.1383 23.37 64.9965C23.0753 64.8547 22.8085 64.6492 22.5846 64.3916C22.3607 64.134 22.1843 63.8294 22.0652 63.4953C21.9462 63.1611 21.887 62.8039 21.8909 62.444C21.8949 62.0841 21.9619 61.7285 22.0882 61.3977C22.2145 61.0669 22.3976 60.7675 22.627 60.5162C22.8565 60.2648 23.1277 60.0666 23.4254 59.9329C23.723 59.7993 24.0412 59.7327 24.3617 59.7372C24.8635 59.7293 25.3601 59.8524 25.8123 60.0966C25.7375 60.315 25.6806 60.5407 25.6422 60.7706V60.7706Z" fill="#273F4F"/>
<path d="M30.8139 65.1055H30.4838C30.4838 64.4766 30.4838 63.4657 30.4838 62.7694V62.4215H27.993V62.7694C27.993 63.4545 27.993 64.4766 28.043 65.1055H27.7129H27.3728C27.3728 64.4766 27.4228 63.4545 27.4228 62.7582V61.9945C27.4228 61.2982 27.4228 60.4223 27.3728 59.8046H27.7129H28.043C28.043 60.4223 27.993 61.0512 27.993 61.7475V62.062H30.4838V61.7475C30.4838 61.0512 30.4838 60.4223 30.4838 59.8046H30.8139H31.144C31.144 60.4223 31.144 61.2982 31.144 61.9945V62.7582C31.144 63.4545 31.144 64.4766 31.144 65.1055H30.8139Z" fill="#273F4F"/>
<path d="M36.8459 65.128H36.4559H36.1257C35.9957 64.6001 35.7556 63.8026 35.5156 63.0726H33.865C33.5849 63.8588 33.3349 64.6451 33.2148 65.128H32.9747H32.7246C33.4548 63.376 34.2151 61.5003 34.8853 59.7034H34.9954C35.5856 61.5115 36.5459 64.3194 36.876 65.128H36.8459ZM34.7453 60.6356C34.5452 61.1298 34.1651 62.1294 33.975 62.691H35.3755C35.2855 62.3203 34.9453 61.2646 34.7453 60.6806V60.6356Z" fill="#273F4F"/>
<path d="M42.0078 65.173C41.3776 64.2521 40.1072 62.6461 39.0068 61.2759C38.958 61.2212 38.9144 61.1608 38.8767 61.096V61.096V62.399C38.867 63.3103 38.9037 64.2214 38.9867 65.128H38.7467H38.4966C38.5566 64.4991 38.5766 63.3312 38.5766 62.399V62.0171C38.5766 61.04 38.5766 60.1527 38.5766 59.7709H38.6867C39.587 60.9838 40.9275 62.6684 41.7678 63.6455C41.7678 63.6455 41.8278 63.7467 41.8778 63.8029V62.4887C41.8778 61.5565 41.8778 60.4673 41.7678 59.8496H42.0078H42.2479C42.2479 60.4673 42.1679 61.6464 42.1679 62.5786V63.1964C42.1679 63.9825 42.1679 64.7126 42.1679 65.1955L42.0078 65.173Z" fill="#273F4F"/>
<path d="M47.9297 60.0742C47.8655 60.2954 47.8121 60.5205 47.7697 60.7482H47.6696C47.5588 60.493 47.3796 60.2832 47.1571 60.1482C46.9347 60.0133 46.6801 59.9598 46.4292 59.9955C45.3589 59.9955 44.6387 60.7931 44.6387 62.4441C44.6387 63.9265 45.2989 64.8473 46.5093 64.8473C46.8242 64.8675 47.1381 64.7939 47.4195 64.634C47.435 64.019 47.4116 63.4033 47.3495 62.792H48.0198C48.0198 63.1626 48.0198 63.6344 48.0198 64.005C48.0198 64.3757 48.0198 64.634 48.0198 64.8586C47.528 65.0537 47.0108 65.1562 46.4892 65.1618C46.1549 65.1859 45.8197 65.1327 45.5044 65.0056C45.1891 64.8784 44.9004 64.68 44.656 64.4226C44.4117 64.1653 44.2169 63.8545 44.0838 63.5093C43.9507 63.1641 43.882 62.792 43.882 62.4158C43.882 62.0397 43.9507 61.6675 44.0838 61.3223C44.2169 60.9772 44.4117 60.6663 44.656 60.409C44.9004 60.1517 45.1891 59.9535 45.5044 59.8263C45.8197 59.6992 46.1549 59.6458 46.4892 59.6698C46.9898 59.686 47.4813 59.824 47.9297 60.0742Z" fill="#273F4F"/>
<path d="M50.2705 65.1055H49.9204C49.9204 64.4766 49.9804 63.4545 49.9804 62.7582V61.9945C49.9804 61.2982 49.9804 60.4223 49.9204 59.8046H50.2705H50.5906C50.5906 60.4223 50.5406 61.2982 50.5406 61.9945V62.7582C50.5406 63.4545 50.5406 64.4766 50.5906 65.1055H50.2705Z" fill="#273F4F"/>
<path d="M56.1827 65.173C55.5524 64.2521 54.292 62.6461 53.1816 61.2759C53.1328 61.2212 53.0892 61.1608 53.0515 61.096V62.399C53.0396 63.3107 53.0797 64.2221 53.1716 65.128H52.9315H52.6714C52.7314 64.4991 52.7514 63.3312 52.7514 62.399V62.0171C52.7514 61.04 52.7514 60.1527 52.7514 59.7709H52.8514C53.7518 60.9838 55.0923 62.6684 55.9326 63.6455L56.0526 63.8029V62.4887C56.0577 61.6073 56.021 60.7265 55.9426 59.8496H56.1827H56.4327C56.3727 60.4673 56.3527 61.6464 56.3527 62.5786V63.1964C56.3527 63.9825 56.3527 64.7126 56.3527 65.1955L56.1827 65.173Z" fill="#273F4F"/>
<path d="M62.1145 60.0742C62.041 60.2922 61.9874 60.5181 61.9545 60.7482H61.8445C61.7349 60.4919 61.5558 60.2809 61.333 60.1458C61.1102 60.0106 60.855 59.958 60.604 59.9955C59.5337 59.9955 58.8134 60.7931 58.8134 62.4441C58.8134 63.9265 59.4736 64.8473 60.6841 64.8473C61.0021 64.8673 61.3193 64.7939 61.6044 64.634C61.6148 64.019 61.5915 63.4038 61.5344 62.792H62.1946C62.1946 63.1626 62.1946 63.6344 62.1946 64.005C62.1946 64.3757 62.1946 64.634 62.1946 64.8586C61.7028 65.0537 61.1857 65.1562 60.6641 65.1618C60.3297 65.1859 59.9945 65.1327 59.6792 65.0056C59.3639 64.8784 59.0752 64.68 58.8308 64.4226C58.5865 64.1653 58.3917 63.8545 58.2586 63.5093C58.1254 63.1641 58.0568 62.792 58.0568 62.4158C58.0568 62.0397 58.1254 61.6675 58.2586 61.3223C58.3917 60.9772 58.5865 60.6663 58.8308 60.409C59.0752 60.1517 59.3639 59.9535 59.6792 59.8263C59.9945 59.6992 60.3297 59.6458 60.6641 59.6698C61.1677 59.6875 61.6621 59.8255 62.1145 60.0742V60.0742Z" fill="#273F4F"/>
<path d="M67.0063 62.7582H66.7162C66.7162 63.432 66.7162 64.4541 66.7162 65.0831H66.3961H66.0459C66.0459 64.4541 66.1059 63.4323 66.1059 62.736V61.9721C66.1059 61.2758 66.1059 60.3998 66.0459 59.7821H66.6662H67.1263H67.5064C68.0366 59.7821 68.7869 59.928 68.7869 61.1185C68.8369 62.5336 67.7965 62.7582 67.0063 62.7582ZM67.1563 60.1078C67.0166 60.0918 66.8758 60.0918 66.7361 60.1078C66.7361 60.5795 66.7361 61.5004 66.7361 61.9721V62.4215H66.9962C67.6565 62.4215 68.2167 62.2304 68.2167 61.1298C68.1967 60.3436 67.7265 60.0741 67.1563 60.0741V60.1078Z" fill="#273F4F"/>
<path d="M72.7182 65.2403C72.0655 65.2403 71.4396 64.949 70.9781 64.4309C70.5166 63.9128 70.2573 63.21 70.2573 62.4773C70.2573 61.7445 70.5166 61.0421 70.9781 60.5239C71.4396 60.0058 72.0655 59.7145 72.7182 59.7145C73.0419 59.6932 73.3658 59.7511 73.6676 59.884C73.9695 60.0169 74.242 60.2218 74.4664 60.4845C74.6909 60.7471 74.8619 61.0614 74.9676 61.4055C75.0734 61.7496 75.1114 62.1151 75.079 62.4773C75.1047 62.8379 75.062 63.2004 74.9538 63.5411C74.8456 63.8819 74.6744 64.1932 74.4513 64.4542C74.2283 64.7152 73.9585 64.9203 73.6597 65.0558C73.361 65.1913 73.0401 65.2542 72.7182 65.2403V65.2403ZM72.7182 59.9953C71.7179 59.9953 71.0276 60.8151 71.0276 62.4773C71.0276 64.1395 71.7279 64.9371 72.7182 64.9371C73.7085 64.9371 74.4188 64.1058 74.4188 62.4773C74.4188 60.8488 73.7185 59.9953 72.7182 59.9953Z" fill="#273F4F"/>
<path d="M81.141 65.1281H80.901H80.6609C80.3308 63.8365 79.8006 61.8485 79.4705 60.7928C79.1104 61.9721 78.6002 63.7579 78.2201 65.1281H77.98H77.73C77.4098 63.7354 76.7296 61.0401 76.3395 59.8496C76.466 59.8592 76.593 59.8592 76.7196 59.8496H77.0297C77.2798 61.0401 77.7699 63.0616 78.12 64.342C78.4301 63.3312 79.0404 61.0625 79.3405 59.8496H79.5805H79.8106C80.1507 61.231 80.7309 63.3312 81.051 64.342C81.3311 63.3424 81.9513 60.9727 82.1614 59.8496H82.3814H82.6415C82.3314 60.9278 81.5212 63.7354 81.141 65.1281Z" fill="#273F4F"/>
<path d="M84.9323 65.0943H84.2521C84.2521 64.4654 84.2521 63.4432 84.2521 62.7469V61.9833C84.2521 61.287 84.2521 60.411 84.2521 59.7933H84.8923C85.3324 59.7933 85.9927 59.7933 86.4228 59.7933V60.2425C85.9159 60.1628 85.4041 60.1292 84.8923 60.1416C84.8923 60.4897 84.8923 61.2647 84.8923 61.8936V62.1407C85.3702 62.1541 85.8483 62.1277 86.3228 62.062C86.3182 62.1405 86.3182 62.2193 86.3228 62.2978C86.3178 62.3726 86.3178 62.4476 86.3228 62.5224C85.8476 62.4684 85.3697 62.4496 84.8923 62.4662V62.7582C84.8923 63.4433 84.8923 64.4428 84.8923 64.7461C85.4179 64.7537 85.9433 64.7125 86.4628 64.6227C86.4495 64.7796 86.4495 64.9374 86.4628 65.0943C86.0527 65.1167 85.4925 65.0943 84.9323 65.0943Z" fill="#273F4F"/>
<path d="M91.3344 65.1168H91.0143H90.5741C90.0545 64.2343 89.4935 63.3832 88.8936 62.5674C88.8766 62.5575 88.8577 62.5523 88.8386 62.5523C88.8194 62.5523 88.8006 62.5575 88.7835 62.5674V62.8032C88.7835 63.4995 88.7835 64.5216 88.7835 65.1506H88.4734H88.1333C88.1333 64.5216 88.1833 63.4995 88.1833 62.8032V62.0396C88.1833 61.3433 88.1833 60.4673 88.1833 59.8496H88.7135H89.0836H89.4538C90.194 59.8496 90.8042 60.1305 90.8042 61.0514C90.8042 61.245 90.7699 61.4365 90.7033 61.6151C90.6367 61.7937 90.5392 61.9558 90.4163 62.0917C90.2934 62.2275 90.1477 62.3347 89.9876 62.4067C89.8275 62.4788 89.6563 62.5142 89.4838 62.5112C89.7939 62.9941 90.9443 64.589 91.3444 65.1056L91.3344 65.1168ZM89.1437 60.1079H88.8135C88.8135 60.5796 88.8135 61.5004 88.8135 61.9834V62.2754H89.0336C89.6338 62.2754 90.224 62.0956 90.224 61.0848C90.224 60.0741 89.6238 60.0742 89.1437 60.0742V60.1079Z" fill="#273F4F"/>
<path d="M96.9565 65.2403C96.3038 65.2403 95.6779 64.949 95.2164 64.4309C94.7549 63.9128 94.4956 63.21 94.4956 62.4773C94.4956 61.7445 94.7549 61.0421 95.2164 60.5239C95.6779 60.0058 96.3038 59.7145 96.9565 59.7145C97.2802 59.6932 97.6041 59.7511 97.9059 59.884C98.2078 60.0169 98.4803 60.2218 98.7047 60.4845C98.9292 60.7471 99.1003 61.0614 99.206 61.4055C99.3118 61.7496 99.3497 62.1151 99.3173 62.4773C99.343 62.8379 99.3004 63.2004 99.1922 63.5411C99.084 63.8819 98.9127 64.1932 98.6897 64.4542C98.4666 64.7152 98.1969 64.9203 97.8981 65.0558C97.5994 65.1913 97.2785 65.2542 96.9565 65.2403V65.2403ZM96.9565 59.9953C95.9561 59.9953 95.2659 60.8151 95.2659 62.4773C95.2659 64.1395 95.9662 64.9371 96.9565 64.9371C97.9469 64.9371 98.6571 64.1058 98.6571 62.4773C98.6571 60.8488 97.9469 59.9953 96.9565 59.9953Z" fill="#273F4F"/>
<path d="M101.778 60.1753C101.778 60.5234 101.778 61.2981 101.778 61.9383V62.1744C102.256 62.1878 102.734 62.1614 103.209 62.0957C103.205 62.1743 103.205 62.2529 103.209 62.3315C103.205 62.4063 103.205 62.4812 103.209 62.5561C102.733 62.5021 102.255 62.4833 101.778 62.4999V62.7919C101.778 63.477 101.778 64.4991 101.778 65.128H101.458H101.118C101.118 64.4991 101.118 63.4769 101.118 62.7806V62.017C101.118 61.3207 101.118 60.4447 101.118 59.827H101.758C102.198 59.827 102.858 59.827 103.289 59.827V60.2762C102.788 60.1977 102.283 60.1641 101.778 60.1753V60.1753Z" fill="#273F4F"/>
<path d="M1.94419 74.4048H0.193604C0.193604 73.7647 0.253621 72.9224 0.253621 72.2261V71.3051C0.253621 70.6088 0.253624 69.7665 0.193604 69.1263H1.94419C3.50472 69.1263 4.31498 69.789 4.31498 71.6645C4.34621 72.0264 4.30687 72.3914 4.19977 72.7344C4.09267 73.0775 3.92037 73.3903 3.69478 73.6511C3.46919 73.9118 3.19573 74.1142 2.89342 74.2444C2.59112 74.3746 2.26723 74.4293 1.94419 74.4048V74.4048ZM1.81414 69.4184C1.47944 69.4171 1.1451 69.4432 0.813807 69.4968C0.813807 69.9797 0.813807 70.766 0.813807 71.2938V72.2148C0.813807 72.7202 0.813807 73.5624 0.813807 74.0229C1.08388 74.0824 1.35893 74.1089 1.63409 74.1016C2.57441 74.1016 3.63476 73.6749 3.63476 71.6533C3.64477 69.8676 2.8745 69.4184 1.81414 69.4184Z" fill="#273F4F"/>
<path d="M6.83578 74.3823H6.14563C6.14563 73.7646 6.20565 72.7425 6.20565 72.0462V71.3051C6.20565 70.6088 6.20565 69.744 6.14563 69.1263H6.79579H8.32628C8.31291 69.2757 8.31291 69.4261 8.32628 69.5755C7.81642 69.4905 7.30114 69.4531 6.78578 69.4633C6.78578 69.8227 6.78578 70.5862 6.78578 71.2264V71.4734C7.26691 71.481 7.748 71.455 8.22621 71.395C8.22148 71.4698 8.22148 71.5448 8.22621 71.6196C8.22124 71.6981 8.22124 71.7769 8.22621 71.8554C7.74768 71.8013 7.2665 71.7825 6.78578 71.7992V72.0912C6.78578 72.7763 6.78578 73.7758 6.78578 74.0791C7.31517 74.0889 7.84426 74.0439 8.36627 73.9445C8.36248 74.0268 8.36248 74.1092 8.36627 74.1915C8.36261 74.2663 8.36261 74.3412 8.36627 74.4161L6.83578 74.3823Z" fill="#273F4F"/>
<path d="M13.238 74.3936H12.9179C12.768 74.382 12.6176 74.382 12.4677 74.3936C11.9553 73.5045 11.3976 72.6495 10.7971 71.8329C10.7971 71.8329 10.7371 71.8329 10.6771 71.8329V72.0687C10.6771 72.7538 10.6771 73.7871 10.7271 74.4048H10.0769C10.0769 73.7871 10.0769 72.765 10.0769 72.0687V71.3051C10.0769 70.6088 10.0769 69.744 10.0769 69.1263H11.3673C12.1076 69.1263 12.7178 69.4182 12.7178 70.3391C12.7178 70.5327 12.6835 70.7245 12.6169 70.9031C12.5503 71.0817 12.4528 71.2438 12.3299 71.3797C12.207 71.5155 12.0612 71.6227 11.9011 71.6947C11.741 71.7667 11.5698 71.8021 11.3974 71.7992C11.7075 72.2821 12.8479 73.877 13.258 74.3936H13.238ZM11.0472 69.3959C10.9374 69.3857 10.8269 69.3857 10.7171 69.3959C10.7171 69.8676 10.7171 70.7884 10.7171 71.2713V71.5746H10.9472C11.5474 71.5746 12.1376 71.3948 12.1376 70.3728C12.1376 69.3508 11.5274 69.3959 11.0472 69.3959Z" fill="#273F4F"/>
<path d="M19.6101 74.3936H19.26C19.26 73.4277 19.1 71.7207 18.9899 70.4965C18.6398 71.1703 17.7095 73.1919 17.2594 74.3711H17.1493C16.7592 73.248 15.9389 71.5185 15.5588 70.7211L15.4687 70.5077C15.3287 71.833 15.1886 73.5176 15.1886 74.3936H14.6885C14.9486 72.7314 15.2187 70.5862 15.3287 68.9915H15.3687C15.9489 70.3167 16.9492 72.4955 17.3094 73.248C17.6495 72.5292 18.6398 70.4515 19.31 68.9915H19.41C19.5601 71.1253 19.7802 73.585 19.9202 74.3936H19.6101Z" fill="#273F4F"/>
<path d="M25.5222 74.4047H24.8019C24.6718 73.8769 24.4318 73.0794 24.1917 72.3606H22.5411C22.261 73.1468 22.011 73.9218 21.8909 74.4047H21.3707C22.101 72.6415 22.8612 70.777 23.5314 68.9801H23.6415C24.2317 70.777 25.192 73.5849 25.5222 74.4047ZM23.4214 69.9124C23.2213 70.4065 22.8413 71.4062 22.6512 71.9677H24.0916C23.9616 71.5971 23.6215 70.5526 23.4214 69.9686V69.9124Z" fill="#273F4F"/>
<path d="M28.1731 69.4632C28.1731 69.7664 28.1731 70.1706 28.1731 70.384V72.0686C28.1731 72.7537 28.1731 73.787 28.2231 74.4047H27.5529C27.5529 73.787 27.6129 72.7649 27.6129 72.0686V70.384C27.6129 70.1706 27.6129 69.7664 27.6129 69.4632C27.1543 69.465 26.6964 69.5024 26.2424 69.5754V69.115C26.6326 69.115 27.3628 69.115 27.913 69.115C28.4632 69.115 29.2134 69.115 29.5936 69.115C29.5895 69.1898 29.5895 69.2648 29.5936 69.3396C29.5895 69.4181 29.5895 69.4968 29.5936 69.5754C29.123 69.5003 28.6484 69.463 28.1731 69.4632Z" fill="#273F4F"/>
<path d="M33.0247 74.5283C32.3721 74.5283 31.7461 74.2371 31.2846 73.7189C30.8231 73.2008 30.5638 72.4981 30.5638 71.7653C30.5638 71.0326 30.8231 70.3298 31.2846 69.8117C31.7461 69.2936 32.3721 69.0025 33.0247 69.0025C33.3475 68.9814 33.6704 69.0389 33.9715 69.1712C34.2725 69.3034 34.5445 69.5072 34.7688 69.7686C34.9931 70.03 35.1643 70.3428 35.2708 70.6855C35.3772 71.0282 35.4164 71.3928 35.3855 71.7541C35.4127 72.1155 35.3711 72.4794 35.2636 72.8215C35.1561 73.1636 34.9851 73.4761 34.7619 73.7384C34.5387 74.0007 34.2684 74.2068 33.9689 74.343C33.6694 74.4791 33.3476 74.5424 33.0247 74.5283ZM33.0247 69.2833C32.0244 69.2833 31.3341 70.0919 31.3341 71.7541C31.3341 73.4162 32.0444 74.2251 33.0247 74.2251C34.0051 74.2251 34.7253 73.3826 34.7253 71.7541C34.7253 70.1256 34.0251 69.2833 33.0247 69.2833Z" fill="#273F4F"/>
<path d="M37.8863 74.3823H37.2061C37.2061 73.7646 37.2661 72.7425 37.2661 72.0462V71.3051C37.2661 70.6088 37.2661 69.744 37.2061 69.1263H37.8763C37.8763 69.744 37.8763 70.6088 37.8763 71.3051V72.0799C37.8763 72.7763 37.8763 73.7646 37.8763 74.0791C38.4787 74.086 39.0806 74.0411 39.6769 73.9445C39.6731 74.0268 39.6731 74.1092 39.6769 74.1915C39.6732 74.2663 39.6732 74.3412 39.6769 74.4161L37.8863 74.3823Z" fill="#273F4F"/>
<path d="M43.1182 74.5283C42.4655 74.5283 41.8396 74.2371 41.3781 73.7189C40.9166 73.2008 40.6573 72.4981 40.6573 71.7653C40.6573 71.0326 40.9166 70.3298 41.3781 69.8117C41.8396 69.2936 42.4655 69.0025 43.1182 69.0025C43.4409 68.9814 43.7639 69.0389 44.065 69.1712C44.366 69.3034 44.638 69.5072 44.8623 69.7686C45.0866 70.03 45.2578 70.3428 45.3642 70.6855C45.4707 71.0282 45.5098 71.3928 45.479 71.7541C45.5061 72.1155 45.4646 72.4794 45.3571 72.8215C45.2496 73.1636 45.0785 73.4761 44.8553 73.7384C44.6321 74.0007 44.3618 74.2068 44.0623 74.343C43.7629 74.4791 43.441 74.5424 43.1182 74.5283ZM43.1182 69.2833C42.1178 69.2833 41.4276 70.0919 41.4276 71.7541C41.4276 73.4162 42.1278 74.2251 43.1182 74.2251C44.1085 74.2251 44.8188 73.3826 44.8188 71.7541C44.8188 70.1256 44.1185 69.2833 43.1182 69.2833Z" fill="#273F4F"/>
<path d="M51.0909 69.3621C51.0148 69.5792 50.9611 69.8054 50.9308 70.0361H50.8207C50.7084 69.783 50.5285 69.5754 50.3062 69.4425C50.0838 69.3096 49.8301 69.258 49.5803 69.2947C48.5099 69.2947 47.7897 70.0808 47.7897 71.743C47.7897 73.2142 48.4499 74.1465 49.6604 74.1465C49.9781 74.1611 50.2941 74.0879 50.5807 73.9332C50.5911 73.3145 50.5677 72.6955 50.5106 72.0799H50.8408H51.1708C51.1708 72.4618 51.1708 72.9336 51.1708 73.3042C51.1708 73.6748 51.1708 73.9332 51.1708 74.1578C50.6771 74.3429 50.1609 74.4414 49.6403 74.4498C49.3086 74.4938 48.9722 74.4534 48.6562 74.3319C48.3401 74.2104 48.0525 74.0109 47.8143 73.7479C47.5762 73.4848 47.3937 73.1651 47.2804 72.8123C47.167 72.4595 47.1257 72.0826 47.1595 71.7095C47.1318 71.3384 47.1768 70.9647 47.2915 70.6152C47.4062 70.2657 47.5876 69.9488 47.8232 69.6865C48.0587 69.4242 48.3425 69.2232 48.6548 69.0973C48.967 68.9714 49.3 68.9236 49.6303 68.9577C50.1374 68.9732 50.6355 69.1112 51.0909 69.3621V69.3621Z" fill="#273F4F"/>
<path d="M53.3816 74.3936H53.0315C53.0315 73.7759 53.0915 72.7538 53.0915 72.0575V71.3051C53.0915 70.6088 53.0915 69.744 53.0315 69.1263H53.7017C53.7017 69.744 53.6517 70.6088 53.6517 71.3051V72.0799C53.6517 72.765 53.6517 73.7984 53.7017 74.4161L53.3816 74.3936Z" fill="#273F4F"/>
<path d="M59.2936 70.047H59.1836C59.0861 69.798 58.9194 69.5914 58.7084 69.4578C58.4974 69.3241 58.2534 69.2708 58.0132 69.3059C57.0128 69.3059 56.2325 70.0136 56.2325 71.7095C56.2325 73.4053 57.0228 74.124 58.0632 74.124C58.3076 74.1477 58.5537 74.1084 58.7825 74.0091C59.0114 73.9098 59.217 73.7533 59.3837 73.5512H59.4537C59.4425 73.7215 59.419 73.8904 59.3837 74.0565C58.9753 74.3703 58.4876 74.528 57.9932 74.5059C57.3458 74.497 56.7281 74.1995 56.276 73.6792C55.8239 73.159 55.5744 72.4584 55.5823 71.7317C55.5903 71.0049 55.8551 70.3114 56.3184 69.8038C56.7818 69.2962 57.4058 69.0162 58.0532 69.0251C58.5505 69.0194 59.0426 69.1384 59.4937 69.3733C59.4113 69.5917 59.3444 69.8168 59.2936 70.047Z" fill="#273F4F"/>
<path d="M64.8255 74.4047H64.0953C63.9652 73.8769 63.7251 73.0794 63.495 72.3606H61.8445C61.5903 73.0262 61.3732 73.7089 61.1943 74.4047H60.6841C61.4243 72.6415 62.1746 70.777 62.8548 68.9801H62.9549C63.5451 70.777 64.5154 73.5849 64.8455 74.4047H64.8255ZM62.7248 69.9124C62.5247 70.4065 62.1446 71.4062 61.9545 71.9677H63.385C63.255 71.5971 62.9249 70.5526 62.7248 69.9686V69.9124Z" fill="#273F4F"/>
<path d="M67.0963 74.3823H66.406C66.406 73.7646 66.466 72.7425 66.466 72.0462V71.3051C66.466 70.6088 66.466 69.744 66.406 69.1263H67.0762C67.0762 69.744 67.0262 70.6088 67.0262 71.3051V72.0799C67.0262 72.7763 67.0262 73.7646 67.0262 74.0791C67.6286 74.086 68.2306 74.0411 68.8268 73.9445C68.8231 74.0268 68.8231 74.1092 68.8268 74.1915C68.8232 74.2663 68.8232 74.3412 68.8268 74.4161L67.0963 74.3823Z" fill="#273F4F"/>
<path d="M73.1283 74.4946C72.7384 74.4996 72.3524 74.4076 71.9979 74.2251C71.9979 74.0117 72.0679 73.6746 72.118 73.4162H72.218C72.3075 73.6322 72.4558 73.8106 72.6415 73.9257C72.8271 74.0408 73.0406 74.0868 73.251 74.0568C73.4615 74.0268 73.6579 73.9225 73.8121 73.759C73.9662 73.5954 74.0701 73.3809 74.1086 73.1467C74.1086 72.4953 73.7685 72.2597 73.1883 71.9677C72.6081 71.6757 72.128 71.4061 72.128 70.4851C72.1301 70.2815 72.1696 70.0806 72.2439 69.8948C72.3183 69.709 72.4259 69.5424 72.5601 69.4054C72.6943 69.2684 72.8523 69.164 73.024 69.0985C73.1958 69.0331 73.3777 69.0081 73.5585 69.0251C73.9035 69.0294 74.244 69.1135 74.5588 69.2721C74.4818 69.4935 74.4249 69.7231 74.3888 69.9573H74.2887C74.2286 69.749 74.1042 69.5713 73.938 69.4566C73.7718 69.3419 73.5746 69.2975 73.3818 69.3313C73.1891 69.3651 73.0134 69.475 72.8862 69.6412C72.7591 69.8073 72.6889 70.0191 72.6882 70.2381C72.6882 70.8446 72.9983 71.0916 73.4484 71.305C74.1687 71.6531 74.6689 71.945 74.6689 72.8659C74.6707 73.0891 74.6314 73.3103 74.5535 73.5155C74.4755 73.7207 74.3606 73.9057 74.2159 74.0587C74.0712 74.2116 73.8999 74.3294 73.7127 74.4044C73.5256 74.4795 73.3266 74.5102 73.1283 74.4946Z" fill="#273F4F"/>
<path d="M79.7705 74.3936H79.4504C79.2938 74.3828 79.1368 74.3828 78.9803 74.3936C78.4301 73.5176 77.6598 72.3943 77.1497 71.7317C77.1075 71.7155 77.0617 71.7155 77.0196 71.7317V72.0912C77.0196 72.7763 77.0196 73.8096 77.0196 74.4273H76.3894C76.3894 73.8096 76.4394 72.7875 76.4394 72.0912V71.3051C76.4394 70.6088 76.4394 69.744 76.3894 69.1263H77.0496C77.0496 69.744 77.0496 70.6088 77.0496 71.3051V71.5521C77.0992 71.5622 77.15 71.5622 77.1997 71.5521C77.8747 70.8021 78.5125 70.0111 79.1102 69.1826H79.6804C79.0902 69.789 78.1399 70.8784 77.6798 71.4287C78.34 72.3497 79.2403 73.6748 79.8405 74.3598L79.7705 74.3936Z" fill="#273F4F"/>
<path d="M81.6712 74.3936H81.3311C81.3311 73.7759 81.3311 72.7538 81.3311 72.0575V71.3051C81.3311 70.6088 81.3311 69.744 81.3311 69.1263H82.0013C82.0013 69.744 81.9513 70.6088 81.9513 71.3051V72.0799C81.9513 72.765 81.9513 73.7984 82.0013 74.4161L81.6712 74.3936Z" fill="#273F4F"/>
<path d="M87.5932 74.4497C86.963 73.54 85.7026 71.934 84.5422 70.5639C84.491 70.5074 84.4472 70.443 84.4121 70.3728V71.6757C84.4001 72.5836 84.4402 73.4914 84.5322 74.3935H84.032C84.092 73.7758 84.112 72.5967 84.112 71.6757V71.305C84.112 70.3279 84.112 69.4407 84.112 69.0588H84.222C85.1224 70.2605 86.4628 71.9563 87.3031 72.9222C87.3443 72.9744 87.3812 73.031 87.4131 73.0908V71.7654C87.4183 70.8878 87.3815 70.0107 87.3031 69.1375H87.7933C87.7333 69.7552 87.7032 70.9344 87.7032 71.8553V72.4843C87.7032 73.2705 87.7032 74.0005 87.7032 74.4722L87.5932 74.4497Z" fill="#273F4F"/>
<path d="M93.2853 70.0469H93.1852C93.0852 69.8002 92.918 69.5956 92.7076 69.4623C92.4973 69.3291 92.2547 69.2743 92.0148 69.3058C91.0145 69.3058 90.2242 70.0135 90.2242 71.7094C90.2242 73.4052 91.0144 74.1239 92.0548 74.1239C92.2954 74.132 92.5348 74.0809 92.756 73.9742C92.9772 73.8675 93.1749 73.7077 93.3353 73.5061H93.3953C93.3871 73.6761 93.3671 73.845 93.3353 74.0115C92.9269 74.3252 92.4392 74.4829 91.9448 74.4609C91.2974 74.4534 90.6792 74.1575 90.2261 73.6383C89.7731 73.1191 89.5223 72.4191 89.5289 71.6924C89.5356 70.9656 89.7991 70.2715 90.2615 69.7629C90.7239 69.2542 91.3474 68.9726 91.9948 68.98C92.4952 68.9745 92.9906 69.0935 93.4453 69.3283C93.3796 69.5642 93.3262 69.8041 93.2853 70.0469V70.0469Z" fill="#273F4F"/>
<path d="M98.817 74.4047H98.0968C97.9667 73.8769 97.7267 73.0794 97.4866 72.3606H95.836C95.5559 73.1468 95.3058 73.9218 95.1857 74.4047H94.6855C95.4158 72.6415 96.1761 70.777 96.8463 68.9801H96.9464C97.5466 70.777 98.5069 73.5849 98.837 74.4047H98.817ZM96.7163 69.9124C96.5162 70.4065 96.1361 71.4062 95.946 71.9677H97.3965C97.2565 71.5971 96.9164 70.5526 96.7163 69.9686V69.9124Z" fill="#273F4F"/>
<path d="M103.569 74.3936H103.249C103.099 74.382 102.948 74.382 102.798 74.3936C102.283 73.5071 101.725 72.6523 101.128 71.8329C101.128 71.8329 101.068 71.8329 101.008 71.8329V72.0687C101.008 72.7538 101.008 73.7871 101.008 74.4048H100.398C100.398 73.7871 100.398 72.765 100.398 72.0687V71.3051C100.398 70.6088 100.398 69.744 100.398 69.1263H101.668C102.408 69.1263 103.008 69.4182 103.008 70.3391C103.01 70.5322 102.977 70.7237 102.911 70.9023C102.846 71.0808 102.749 71.2431 102.627 71.3791C102.505 71.5151 102.36 71.6223 102.2 71.6944C102.041 71.7666 101.87 71.8022 101.698 71.7992C102.008 72.2821 103.149 73.877 103.559 74.3936H103.569ZM101.398 69.3959C101.288 69.3853 101.178 69.3853 101.068 69.3959C101.068 69.8676 101.068 70.7884 101.068 71.2713V71.5746H101.298C101.898 71.5746 102.488 71.3948 102.488 70.3728C102.488 69.3508 101.858 69.3959 101.398 69.3959Z" fill="#273F4F"/>
<path d="M105.819 74.3823H105.129C105.129 73.7646 105.189 72.7425 105.189 72.0462V71.3051C105.189 70.6088 105.189 69.744 105.129 69.1263H105.779H107.31C107.296 69.2757 107.296 69.4261 107.31 69.5755C106.8 69.4905 106.285 69.4531 105.769 69.4633C105.769 69.8227 105.769 70.5862 105.769 71.2264V71.4734C106.251 71.481 106.732 71.455 107.21 71.395C107.205 71.4698 107.205 71.5448 107.21 71.6196C107.205 71.6981 107.205 71.7769 107.21 71.8554C106.731 71.8013 106.25 71.7825 105.769 71.7992V72.0912C105.769 72.7763 105.769 73.7758 105.769 74.0791C106.295 74.0893 106.821 74.0444 107.34 73.9445V74.4161L105.819 74.3823Z" fill="#273F4F"/>
</svg>
