<svg width="110" height="53" viewBox="0 0 110 53" fill="none" xmlns="http://www.w3.org/2000/svg">
<path d="M10.9116 0.522949V29.7795H8.91091V16.3023H2.90888V29.7795H0.908203V0.522949H2.90888V14H8.91091V0.522949H10.9116Z" fill="#0F0E07"/>
<path d="M17.5438 2.7803V14.0112H22.2054V16.2574H17.5338V27.4883H24.2061V29.7345H15.5631V0.477905H23.896V2.72409L17.5438 2.7803Z" fill="#0F0E07"/>
<path d="M36.0001 27.5221V29.7683H27.6973V0.511719H29.6979V27.4659L36.0001 27.5221Z" fill="#0F0E07"/>
<path d="M39.3912 29.7795V0.522949H41.3919V29.7795H39.3912Z" fill="#0F0E07"/>
<path d="M45.8435 5.72288C45.8435 4.23357 46.3704 2.80527 47.3084 1.75216C48.2464 0.699061 49.5187 0.107422 50.8452 0.107422C52.1717 0.107422 53.4439 0.699061 54.3819 1.75216C55.3199 2.80527 55.8469 4.23357 55.8469 5.72288V24.5795C55.8469 26.0688 55.3199 27.4972 54.3819 28.5503C53.4439 29.6034 52.1717 30.1949 50.8452 30.1949C49.5187 30.1949 48.2464 29.6034 47.3084 28.5503C46.3704 27.4972 45.8435 26.0688 45.8435 24.5795V5.72288ZM47.8442 24.5795C47.8442 25.4731 48.1603 26.3301 48.7231 26.9619C49.2859 27.5938 50.0493 27.9488 50.8452 27.9488C51.6411 27.9488 52.4044 27.5938 52.9672 26.9619C53.53 26.3301 53.8462 25.4731 53.8462 24.5795V5.72288C53.8462 4.82929 53.53 3.97228 52.9672 3.34042C52.4044 2.70856 51.6411 2.3536 50.8452 2.3536C50.0493 2.3536 49.2859 2.70856 48.7231 3.34042C48.1603 3.97228 47.8442 4.82929 47.8442 5.72288V24.5795Z" fill="#0F0E07"/>
<path d="M68.151 10.3163V5.72288C68.151 4.82929 67.8349 3.97228 67.2721 3.34042C66.7093 2.70856 65.9459 2.3536 65.15 2.3536C64.3541 2.3536 63.5908 2.70856 63.028 3.34042C62.4652 3.97228 62.149 4.82929 62.149 5.72288V24.5795C62.149 25.4731 62.4652 26.3301 63.028 26.9619C63.5908 27.5938 64.3541 27.9488 65.15 27.9488C65.9459 27.9488 66.7093 27.5938 67.2721 26.9619C67.8349 26.3301 68.151 25.4731 68.151 24.5795V20.5925H70.1517V24.5795C70.1517 26.0688 69.6248 27.4972 68.6868 28.5503C67.7488 29.6034 66.4765 30.1949 65.15 30.1949C63.8235 30.1949 62.5513 29.6034 61.6133 28.5503C60.6753 27.4972 60.1483 26.0688 60.1483 24.5795V5.72288C60.1483 4.23357 60.6753 2.80527 61.6133 1.75216C62.5513 0.699061 63.8235 0.107422 65.15 0.107422C66.4765 0.107422 67.7488 0.699061 68.6868 1.75216C69.6248 2.80527 70.1517 4.23357 70.1517 5.72288V10.058L68.151 10.3163Z" fill="#0F0E07"/>
<path d="M84.0965 29.7795H82.0958L81.0954 22.2771H75.8136L74.8133 29.7795H72.8126L76.814 0.522949H80.2151L84.0965 29.7795ZM76.0937 20.0309H80.7653L78.4645 3.02742H78.3845L76.0937 20.0309Z" fill="#0F0E07"/>
<path d="M97.1409 29.7794H95.1402V20.0758C95.1428 19.5735 95.0567 19.0757 94.8867 18.611C94.7167 18.1464 94.4663 17.7243 94.1499 17.3691C93.8336 17.0139 93.4576 16.7328 93.0437 16.542C92.6299 16.3512 92.1864 16.2544 91.739 16.2574H89.3082V29.7345H87.3075V0.477905H91.749C93.18 0.483823 94.551 1.12477 95.5629 2.26084C96.5748 3.39691 97.1456 4.93599 97.1509 6.54262V10.1477C96.4489 10.7084 95.8765 11.4497 95.4816 12.3093C95.0866 13.1689 94.8806 14.1221 94.8806 15.0893C94.8806 16.0566 95.0866 17.0099 95.4816 17.8695C95.8765 18.7291 96.4489 19.4701 97.1509 20.0308L97.1409 29.7794ZM91.739 14C92.1856 14.0029 92.6282 13.9066 93.0414 13.7164C93.4546 13.5263 93.8301 13.2461 94.1463 12.8921C94.4626 12.5381 94.7132 12.1173 94.8838 11.654C95.0544 11.1906 95.1415 10.694 95.1402 10.1927V6.58759C95.1415 6.08625 95.0544 5.58947 94.8838 5.12615C94.7132 4.66282 94.4626 4.24201 94.1463 3.88803C93.8301 3.53405 93.4546 3.25395 93.0414 3.06381C92.6282 2.87367 92.1856 2.77733 91.739 2.7803H89.3082V14.0112L91.739 14Z" fill="#0F0E07"/>
<path d="M103.363 2.7803V14.0112H108.035V16.2574H103.363V27.4883H109.995V29.7345H101.352V0.477905H109.695V2.72409L103.363 2.7803Z" fill="#0F0E07"/>
<path d="M109.955 34.3503H0.848145V52.9038H109.955V34.3503Z" fill="#EBAA33"/>
<path fill-rule="evenodd" clip-rule="evenodd" d="M54.1263 43.7395H53.7562H53.3961H53.0359L52.6858 43.8182L52.3357 43.9191L51.9956 44.0315V44.1774V44.3348V44.5031V45.4803V45.7386L52.0456 45.9857L52.0956 46.2215L52.1556 46.4348L52.2357 46.6372L52.3257 46.828L52.4157 46.9963L52.5358 47.1425L52.6558 47.2884L52.7859 47.4008L52.9359 47.5132L53.096 47.5916L53.266 47.6703L53.4461 47.7265H53.6362H53.8362H54.2163H54.4364H54.6365H54.8265L55.0066 47.6703L55.1667 47.5916L55.3167 47.502L55.4568 47.3895L55.5768 47.2771L55.6969 47.1425L55.7869 46.9851L55.8769 46.828L55.9469 46.6484L56.007 46.4685L56.057 46.2552V46.0419V45.8061V45.3454V45.1434V44.9638V44.7839L55.9969 44.6268L55.9169 44.4694L55.8269 44.3348L55.7269 44.2111L55.6068 44.099L55.4768 44.009L55.3367 43.9191L55.1767 43.8519H55.0066H54.8265H54.6265H54.4164L54.1263 43.7395ZM55.9169 39.2471L55.5368 39.4605L55.1767 39.6628L54.8265 39.8874L54.4964 40.1119L54.1963 40.3365L53.9062 40.5723L53.6362 40.8193L53.3861 41.0667L53.146 41.325L52.9359 41.5945L52.7458 41.864L52.5658 42.1336L52.4157 42.4143L52.7058 42.3131L52.9959 42.2232L53.296 42.156H53.5961H53.8962H54.5164H54.8265H55.1267H55.4067H55.6668L55.9169 42.2345L56.157 42.3244L56.3771 42.4256L56.5871 42.5377L56.7772 42.6614L56.9573 42.8072L57.1273 42.9646L57.2774 43.133L57.4174 43.3129L57.5375 43.5149L57.6375 43.7283L57.7375 43.9416L57.8176 44.1886L57.8776 44.4359V44.7055V44.975V45.267V45.8957V46.2102V46.5135V46.7943L57.8076 47.0638L57.7275 47.3221L57.6375 47.5579L57.5275 47.794L57.4074 48.0073L57.2774 48.2094L57.1273 48.389L56.9673 48.5688L56.7872 48.726L56.5972 48.8721L56.3871 49.0067L56.167 49.1191L55.9369 49.22L55.6868 49.31L55.4267 49.3887L55.1466 49.4561H54.8566H54.5565H54.2363H53.5861H53.276H52.9859L52.7158 49.3999L52.4457 49.3325L52.1957 49.2425L51.9556 49.1416L51.7355 49.018L51.5254 48.8833L51.3354 48.7372L51.1453 48.5688L50.9852 48.389L50.8252 48.1869L50.6851 47.9736L50.5551 47.749L50.4451 47.502L50.335 47.2437L50.255 46.9629L50.175 46.6709L50.1149 46.3564L50.0649 46.0419V45.6937V45.3454V44.5818V44.1886L50.1149 43.8069L50.175 43.4362L50.265 43.0768L50.365 42.7063L50.4851 42.3581L50.6351 42.0099L50.7952 41.6617L50.9652 41.325L51.1653 40.988L51.3854 40.6622L51.6255 40.3477L51.8755 40.0332L52.1456 39.7187L52.4457 39.4155L52.7559 39.1235L53.086 38.8205L53.4361 38.5397L53.7962 38.2589L54.1863 37.9891L54.5965 37.7084L55.0166 37.4501L55.9169 39.2471ZM40.1516 47.1987L40.5117 47.3333L40.8818 47.4458L41.2519 47.5467L41.6321 47.6253L42.0122 47.6928H42.4023H42.7924H43.6528H43.8628H44.0529H44.223L44.393 47.6253L44.5331 47.5579L44.6631 47.4682L44.7831 47.3671L44.8732 47.2659L44.9632 47.1425L45.0332 47.0076L45.0832 46.873V46.7156V46.5472V46.154V45.9407V45.7499V45.5812V45.4241L45.0132 45.2783L44.9332 45.1434L44.8331 45.0309L44.7331 44.93L44.6131 44.8513L44.483 44.7839H44.343H44.1829H44.0229H41.2119V42.9084H44.0729H44.223H44.373L44.5031 42.841L44.6231 42.7623L44.7331 42.6614L44.8231 42.549L44.9032 42.4143L44.9732 42.2794L45.0332 42.1111V41.9424V41.7516V41.5495V41.1676V41.0217V40.8756L44.9832 40.7522L44.9132 40.6398L44.8231 40.5273L44.7331 40.4377L44.6131 40.3477L44.483 40.269L44.343 40.2019L44.1729 40.1457H44.0029H43.8128H43.6028H43.3827H42.7424H42.3523H41.9622L41.582 40.2131L41.2019 40.2915L40.8318 40.3927L40.4617 40.5051L40.1016 40.6398V38.6856L40.5117 38.5507L40.9418 38.4385L41.372 38.3486L41.8021 38.2811H42.2423H42.6924H43.7928H44.0929H44.373L44.6431 38.3374L44.9032 38.4048L45.1433 38.4723L45.3733 38.5619L45.5834 38.6743L45.7835 38.7868L45.9635 38.9101L46.1336 39.045L46.2936 39.2022L46.4337 39.3595L46.5537 39.5391L46.6638 39.7187L46.7638 39.9211L46.8438 40.1232L46.9039 40.3477L46.9539 40.5835V40.8306V41.0889V41.6282V41.8865V42.1223L46.9039 42.3581L46.8438 42.5827L46.7638 42.7848L46.6738 42.9759L46.5637 43.1667L46.4537 43.3351L46.3137 43.4924L46.1736 43.6383L46.0135 43.7732L45.8335 43.8966L45.6534 44.009L45.8335 44.1102L46.0135 44.2223L46.1736 44.3572L46.3137 44.5031L46.4537 44.6605L46.5637 44.8289L46.6738 45.0085L46.7638 45.2108L46.8438 45.4129L46.9039 45.6375L46.9539 45.8733V46.1206V46.3789V46.9292V47.2099V47.4682L46.9039 47.7153L46.8438 47.9398L46.7638 48.1644L46.6638 48.3777L46.5537 48.5688L46.4337 48.7484L46.2936 48.9283L46.1336 49.0854L45.9635 49.2313L45.7835 49.355L45.5834 49.4786L45.3733 49.5908L45.1433 49.6807L44.9032 49.7594L44.6431 49.8266L44.373 49.894H44.0929H43.7928H43.4727H42.6924H42.2423H41.8021L41.372 49.8153L40.9418 49.7257L40.5117 49.6245L40.1016 49.4899L40.1516 47.1987ZM65.9603 39.6178L67.0507 39.0563H67.1107V38.9439L65.9703 37.8208H65.5102H65.2001L64.9 37.877L64.5999 37.9444L64.3098 38.0341L64.0197 38.1353L63.7396 38.2589L63.4695 38.3936L63.2094 38.5507L62.9493 38.7193L62.7092 38.9101L62.4691 39.1122L62.2491 39.3258L62.029 39.5504L61.8289 39.7862L61.6389 40.0445L61.4588 40.3028L61.2987 40.5835L61.1487 40.8643L61.0087 41.1676L60.8886 41.4708L60.7786 41.7741L60.6785 42.0998L60.6085 42.4256L60.5385 42.7623V43.1105V43.4587V44.1661V44.5144V44.8626L60.6085 45.1996L60.6785 45.5253L60.7786 45.8508L60.8886 46.154L61.0087 46.4685L61.1487 46.7605L61.2987 47.0413L61.4588 47.3221L61.6389 47.5804L61.8289 47.8387L62.029 48.0747L62.2491 48.2993L62.4691 48.5126L62.7092 48.7147L62.9493 48.9058L63.2094 49.0742L63.4695 49.2313L63.7396 49.3662L64.0197 49.4899L64.3098 49.5908L64.5999 49.6807L64.9 49.7481H65.2001H65.5102H66.1504H66.4605H66.7606L67.0607 49.6807L67.3508 49.5908L67.6409 49.4899L67.921 49.3662L68.1911 49.2313L68.4512 49.0742L68.7113 48.9058L68.9514 48.7147L69.1914 48.5126L69.4115 48.2993L69.6316 48.0747L69.8316 47.8387L70.0217 47.5804L70.2018 47.3221L70.3618 47.0413L70.5219 46.7605L70.6519 46.4685L70.782 46.154L70.892 45.8508L70.982 45.5253L71.0621 45.1996L71.1221 44.8626V44.5144V44.1661V43.4587V43.1105V42.7735L71.0621 42.4368L70.982 42.1111L70.892 41.7966L70.782 41.4821L70.6619 41.1788L70.5219 40.8868L70.3718 40.5948L70.2218 40.0894L70.0417 39.8312L69.8617 39.5729L69.6516 39.3371L69.4415 39.1122L69.2214 38.8989L68.9913 38.6968L68.7513 38.506L68.4912 38.3374L68.2311 38.1802L67.961 38.0453L67.6909 37.922L67.4008 37.8095L67.1107 37.7196L68.1111 38.8427V39.0113H68.051L66.9807 39.5729L67.2008 39.6738L67.4208 39.7862L67.6209 39.9211L67.821 40.067L68.011 40.2244L68.1911 40.3927L68.3612 40.5835L68.5212 40.7859L68.6612 40.988L68.7913 41.2125L68.9113 41.4483L69.0214 41.6841L69.1114 41.9312L69.1814 42.2007L69.2414 42.4593V42.7288V43.0096V43.5824V43.8519V44.1214L69.1814 44.391L69.1114 44.6493L69.0214 44.8963L68.9213 45.1321L68.8013 45.3679L68.6713 45.5925L68.5312 45.7948L68.3711 45.9969L68.2011 46.1878L68.031 46.3564L67.841 46.5135L67.6409 46.6596L67.4408 46.7943L67.2208 46.9179L67.0007 47.0076L66.7806 47.0975L66.5405 47.165H66.3004H66.0503H65.5502H65.3001H65.06L64.8299 47.0975L64.5999 47.0076L64.3798 46.9179L64.1597 46.7943L63.9596 46.6596L63.7596 46.5135L63.5695 46.3564L63.3995 46.1878L63.2294 45.9969L63.0694 45.7948L62.9293 45.5925L62.7992 45.3679L62.6792 45.1321L62.5792 44.8963L62.4891 44.6493L62.4191 44.391L62.3591 44.1214V43.8519V43.5824V43.0096V42.7401V42.4593L62.4191 42.2007L62.4891 41.9424L62.5792 41.6954L62.6792 41.4596L62.7992 41.2238L62.9293 41.0105L63.0694 40.7969L63.2294 40.5948L63.3995 40.4039L63.5695 40.2353L63.7596 40.0782L63.9596 39.9323L64.1597 39.7974L64.3798 39.685L64.5999 39.5841L64.8299 39.4942L65.06 39.4267H65.3001H65.5502H65.9403L65.9603 39.6178ZM73.963 37.7308H73.763H73.5829H73.4129L73.2528 37.7871L73.1128 37.8545L72.9827 37.9332L72.8627 38.0341L72.7526 38.1465L72.6626 38.2699L72.5726 38.4048L72.5126 38.5619L72.4525 38.7418L72.4025 38.9214V39.1235V39.3371V39.7974V40.0108V40.2131V40.4039L72.4625 40.5723L72.5326 40.7297L72.6126 40.8643L72.7126 40.988L72.8227 41.1001L72.9327 41.2013L73.0627 41.28L73.2128 41.3474H73.3728H73.5429H73.723H74.1131H74.2932H74.4632H74.6233L74.7633 41.28L74.8934 41.2013L75.0134 41.1001L75.1234 40.988L75.2135 40.8643L75.3035 40.7297L75.3735 40.5723V40.4039L75.4236 40.2131V40.0108V39.7974V39.3371V39.1235V38.9214L75.3735 38.7418V38.5619L75.3035 38.4048L75.2135 38.2699L75.1234 38.1465L75.0134 38.0341L74.8934 37.9332L74.7633 37.8545L74.6233 37.7871L74.4632 37.7308H74.2932H74.1131H73.963ZM73.963 38.2589H73.813H73.673H73.5529H73.4329L73.3328 38.3261L73.2428 38.4161L73.1628 38.5172L73.1028 38.6406L73.0427 38.7755V38.9214V39.09V39.2809V39.6738V39.8649V40.0332V40.1906L73.1028 40.3253L73.1628 40.4489L73.2428 40.5611L73.3328 40.651L73.4329 40.7184L73.5529 40.7747H73.673H73.813H74.1131H74.2531H74.3832L74.4932 40.7184L74.5933 40.651L74.6933 40.5611L74.7633 40.4489L74.8333 40.3253L74.8834 40.1906L74.9334 40.0332V39.8649V39.09V38.9214L74.8834 38.7755L74.8333 38.6406L74.7633 38.5172L74.6933 38.4161L74.5933 38.3261L74.4932 38.2589H74.3832H74.2531H74.1131H73.963Z" fill="#0F0E07"/>
</svg>
