<svg width="110" height="39" viewBox="0 0 110 39" fill="none" xmlns="http://www.w3.org/2000/svg">
<path d="M31.5711 8.39258H11.6343V15.7825H31.5711V8.39258Z" fill="#FF000D"/>
<path d="M42.8048 15.7826H0.380371V23.1725H42.8048V15.7826Z" fill="#312D39"/>
<path d="M42.8048 1.00269H0.380371V8.39262H42.8048V1.00269Z" fill="#312D39"/>
<path d="M54.3186 0.980225H49.3269V23.1613H54.3186V0.980225Z" fill="#312D39"/>
<path d="M55.459 17.9951C55.9594 19.6803 56.9326 21.1382 58.2328 22.1505C59.533 23.1628 61.0902 23.6751 62.6714 23.6106C66.5528 23.6106 69.8839 20.6454 69.8839 16.1081C69.8839 9.15619 60.9509 9.87513 60.9509 6.73047C60.9419 6.47665 60.9806 6.22357 61.0646 5.98769C61.1486 5.75181 61.2759 5.53839 61.4382 5.36143C61.6006 5.18448 61.7943 5.04798 62.0068 4.9607C62.2192 4.87342 62.4457 4.83731 62.6714 4.85486C64.1119 4.85486 64.8622 5.97803 65.3824 7.3145L69.3837 5.45013C68.867 3.95186 67.9437 2.67395 66.7445 1.79721C65.5453 0.920468 64.1309 0.489313 62.7014 0.564718C59.2803 0.564718 56.3193 3.51842 56.3193 6.854C56.3193 15.4119 65.0823 12.93 65.0823 17.4448C65.0292 17.9861 64.7908 18.483 64.4176 18.8308C64.0443 19.1787 63.5653 19.3502 63.0816 19.309C61.1609 19.309 60.3907 18.0062 59.6704 16.1306L55.459 17.9951Z" fill="#312D39"/>
<path d="M71.3445 23.1611H77.3465C83.3486 23.1611 85.7494 18.0511 85.7494 11.7281C85.7494 5.22545 82.8684 0.980225 76.7463 0.980225H71.3445V23.1611ZM76.3462 4.91104H76.7663C80.0675 4.91104 80.3976 8.95417 80.3976 11.5148C80.3976 14.4461 80.3976 19.2415 76.9064 19.2415H76.3462V4.91104Z" fill="#312D39"/>
<path d="M92.3416 0.980225H87.3499V23.1613H92.3416V0.980225Z" fill="#312D39"/>
<path d="M104.876 0.991455V12.9187H104.826L99.1338 0.991455H94.9724V23.1613H98.9738V10.796H99.0238L104.876 23.1613H108.877V0.991455H104.876Z" fill="#312D39"/>
<path d="M0.300293 28.3163H0.960517V37.593H6.17229V38.2781H0.300293V28.3163Z" fill="#312D39"/>
<path d="M7.25271 33.3252C7.25271 31.9968 7.72276 30.7229 8.55946 29.7835C9.39615 28.8441 10.531 28.3163 11.7142 28.3163C12.8975 28.3163 14.0323 28.8441 14.869 29.7835C15.7057 30.7229 16.1757 31.9968 16.1757 33.3252C16.1918 33.9967 16.0877 34.6649 15.8695 35.2904C15.6514 35.9158 15.3237 36.4858 14.9058 36.9665C14.4879 37.4472 13.9883 37.829 13.4367 38.089C12.885 38.349 12.2925 38.4821 11.6942 38.4803C11.0999 38.4837 10.5111 38.3524 9.96301 38.0945C9.41489 37.8366 8.91871 37.4574 8.50411 36.9794C8.08952 36.5013 7.76502 35.9343 7.55001 35.3123C7.33499 34.6903 7.23388 34.0258 7.25271 33.3589V33.3252ZM15.4855 33.3589C15.5119 32.7838 15.4338 32.2087 15.2559 31.6686C15.078 31.1284 14.8041 30.6345 14.4509 30.217C14.0976 29.7994 13.6724 29.467 13.2011 29.2398C12.7297 29.0126 12.2222 28.8954 11.7092 28.8954C11.1963 28.8954 10.6887 29.0126 10.2174 29.2398C9.74606 29.467 9.32083 29.7994 8.96757 30.217C8.61432 30.6345 8.34043 31.1284 8.16256 31.6686C7.98469 32.2087 7.90657 32.7838 7.93294 33.3589C7.91148 33.9355 7.99332 34.5111 8.1736 35.0515C8.35388 35.592 8.62894 36.0864 8.98248 36.5053C9.33601 36.9242 9.76084 37.259 10.2318 37.4902C10.7028 37.7214 11.2103 37.8443 11.7242 37.8513C12.2378 37.8476 12.7453 37.7268 13.216 37.4962C13.6867 37.2657 14.1108 36.9303 14.4625 36.5102C14.8142 36.0901 15.0863 35.5941 15.2621 35.0524C15.438 34.5107 15.514 33.9346 15.4855 33.3589" fill="#312D39"/>
<path d="M17.146 28.3163H17.8762L21.3474 37.4807L24.8386 28.3163H25.5288L21.6275 38.3455H21.0473L17.146 28.3163Z" fill="#312D39"/>
<path d="M27.4094 28.3163H33.7216V29.0014H28.0696V32.9097H33.1514V33.5948H28.0696V37.593H33.7816V38.2781H27.4094V28.3163Z" fill="#312D39"/>
<path d="M42.5847 34.336L38.7935 28.3163H39.6137L42.9349 33.6622L46.266 28.3163H47.0463L43.245 34.3248V38.2781H42.5847V34.336Z" fill="#312D39"/>
<path d="M47.6263 33.3252C47.5978 32.6482 47.6919 31.9718 47.9029 31.3368C48.114 30.7018 48.4376 30.1215 48.8543 29.631C49.2709 29.1406 49.7719 28.7503 50.3268 28.4835C50.8818 28.2168 51.4792 28.0791 52.0829 28.0791C52.6865 28.0791 53.2839 28.2168 53.8389 28.4835C54.3938 28.7503 54.8948 29.1406 55.3114 29.631C55.7281 30.1215 56.0517 30.7018 56.2628 31.3368C56.4739 31.9718 56.568 32.6482 56.5394 33.3252V33.3252C56.568 34.0022 56.4739 34.6787 56.2628 35.3137C56.0517 35.9486 55.7281 36.5289 55.3114 37.0194C54.8948 37.5099 54.3938 37.9004 53.8389 38.1672C53.2839 38.4339 52.6865 38.5713 52.0829 38.5713C51.4792 38.5713 50.8818 38.4339 50.3268 38.1672C49.7719 37.9004 49.2709 37.5099 48.8543 37.0194C48.4376 36.5289 48.114 35.9486 47.9029 35.3137C47.6919 34.6787 47.5978 34.0022 47.6263 33.3252ZM55.8591 33.3252C55.8806 32.7486 55.7988 32.1731 55.6185 31.6326C55.4382 31.0922 55.1631 30.5981 54.8096 30.1791C54.4561 29.7602 54.0312 29.4252 53.5603 29.194C53.0893 28.9627 52.5818 28.8399 52.0679 28.8329C51.5547 28.8381 51.0479 28.9599 50.5779 29.1909C50.1078 29.422 49.6843 29.7577 49.3329 30.1775C48.9814 30.5973 48.7093 31.0925 48.5329 31.6335C48.3565 32.1744 48.2795 32.7499 48.3066 33.3252V33.3252C48.2851 33.9018 48.367 34.4774 48.5472 35.0178C48.7275 35.5582 49.0026 36.0527 49.3561 36.4716C49.7096 36.8905 50.1345 37.2255 50.6054 37.4567C51.0764 37.688 51.5839 37.8106 52.0979 37.8176C52.6114 37.8139 53.1189 37.6933 53.5896 37.4628C54.0603 37.2322 54.4844 36.8966 54.8361 36.4765C55.1879 36.0564 55.4599 35.5606 55.6357 35.0189C55.8116 34.4772 55.8876 33.9009 55.8591 33.3252" fill="#312D39"/>
<path d="M58.6501 34.1338V28.3163H59.3104V34.0666C59.3104 36.4139 60.4307 37.7614 62.3114 37.7614C64.192 37.7614 65.3124 36.5372 65.3124 34.1338V28.3163H65.9726V34.0442C65.9726 36.908 64.4921 38.4353 62.3314 38.4353C60.1707 38.4353 58.7002 36.9191 58.7002 34.1338" fill="#312D39"/>
<path d="M68.4136 28.3162H72.1048C73.0172 28.2623 73.9118 28.6134 74.5957 29.2934C75.0306 29.7867 75.275 30.4523 75.2759 31.1464C75.2759 32.8086 74.1655 33.7632 72.675 33.9879L75.596 38.2444H74.7657L71.9348 34.1112H69.1038V38.2444H68.4436L68.4136 28.3162ZM72.0648 33.4825C73.5453 33.4825 74.6557 32.6402 74.6557 31.2363C74.6557 29.8999 73.7154 29.0573 72.1048 29.0573H69.1038V33.5497L72.0648 33.4825Z" fill="#312D39"/>
<path d="M80.8076 36.8182L81.2377 36.2679C81.6491 36.7466 82.1438 37.1253 82.691 37.3803C83.2383 37.6353 83.8264 37.7611 84.4188 37.7502C85.7493 37.7502 86.6596 36.9078 86.6596 35.7735C86.6596 34.7178 86.1694 34.1115 84.1587 33.651C82.148 33.1905 81.1577 32.3595 81.1577 30.8545C81.1577 29.3833 82.3581 28.2376 84.0087 28.2376C85.1083 28.2108 86.1776 28.6431 87.0097 29.4507L86.5896 30.0347C85.8662 29.2938 84.9176 28.8919 83.9386 28.9116C82.6382 28.9116 81.7779 29.7538 81.7779 30.7871C81.7779 31.8315 82.2581 32.4716 84.3588 32.9546C86.4595 33.4375 87.2698 34.2576 87.2698 35.7063C87.2698 37.3124 86.0394 38.4241 84.3288 38.4241C82.9981 38.4391 81.7155 37.8664 80.7576 36.8294" fill="#312D39"/>
<path d="M89.4907 28.3163H90.151V34.8639L95.7929 28.3163H96.7032L92.8219 32.7188L96.8632 38.2781H96.0029L92.3517 33.2354L90.151 35.7399V38.2781H89.4907V28.3163Z" fill="#312D39"/>
<path d="M99.294 28.3163H98.6338V38.2781H99.294V28.3163Z" fill="#312D39"/>
<path d="M102.015 28.3163H102.635L108.757 36.9753V28.3163H109.397V38.2781H108.897L102.655 29.4281V38.2781H102.015V28.3163Z" fill="#312D39"/>
</svg>
