<svg width="140" height="41" viewBox="0 0 140 41" fill="none" xmlns="http://www.w3.org/2000/svg">
<path d="M85.8214 0.43042H66.7649V30.3608H85.8214V0.43042Z" fill="#0097DF"/>
<path d="M9.36536 30.3607V28.5862H2.55305V15.3899H0.712402V30.3607H9.36536Z" fill="#1F201D"/>
<path d="M70.5563 30.3607V15.3899H68.6956V21.7803H61.7432V15.3899H59.9026V30.3607H61.7432V23.5997H68.6956V30.3607H70.5563Z" fill="#1F201D"/>
<path d="M81.3699 30.3607V28.5862H74.0174V23.5098H80.8997V21.7354H74.0174V17.1644H81.3699V15.3899H72.1467V30.3607H81.3699Z" fill="#1F201D"/>
<path d="M68.3256 38.9187V38.458H65.3245V36.0997H68.1355V35.6391H65.3245V33.4941H68.3256V33.0337H64.8344V38.9187H68.3256ZM63.584 34.7071C63.597 34.874 63.5767 35.0421 63.5244 35.199C63.4722 35.3559 63.3893 35.4975 63.2819 35.6138C63.1744 35.7301 63.0452 35.8181 62.9036 35.871C62.762 35.924 62.6117 35.9406 62.4636 35.9198H60.5629V33.4941H62.4636C62.6108 33.4832 62.7583 33.5067 62.8971 33.5629C63.0358 33.6191 63.1627 33.707 63.2698 33.8209C63.3769 33.9348 63.4619 34.0723 63.5194 34.2248C63.5769 34.3773 63.6057 34.5415 63.604 34.7071H63.584ZM64.5843 38.9187L62.8637 36.313C63.1947 36.2399 63.4926 36.0397 63.7063 35.7465C63.9199 35.4534 64.0358 35.0858 64.0341 34.7071C64.0346 34.4776 63.993 34.2504 63.9119 34.0397C63.8308 33.829 63.712 33.6392 63.5628 33.4823C63.4136 33.3253 63.2373 33.2044 63.0447 33.1272C62.8522 33.05 62.6475 33.0183 62.4436 33.0337H60.0728V38.9187H60.5429V36.3355H62.3735L64.0441 38.8849L64.5843 38.9187ZM59.2125 38.9187V33.0337H58.7423V38.9187H59.2125ZM57.762 35.9873C57.7047 36.4112 57.5405 36.8079 57.2888 37.1304C57.0371 37.4529 56.7085 37.6878 56.3417 37.8074C55.975 37.9269 55.5854 37.9262 55.2191 37.8052C54.8527 37.6841 54.5248 37.4476 54.2742 37.1241C54.0236 36.8005 53.8607 36.4032 53.8048 35.9791C53.7489 35.5549 53.8023 35.1218 53.9587 34.7307C54.1151 34.3395 54.3679 34.0066 54.6873 33.7715C55.0067 33.5365 55.3794 33.409 55.7613 33.4041C56.0507 33.4085 56.3361 33.4808 56.5993 33.6161C56.8624 33.7514 57.0975 33.9469 57.2896 34.19C57.4816 34.4331 57.6264 34.7184 57.7147 35.0279C57.8029 35.3374 57.8326 35.6642 57.802 35.9873H57.762ZM58.2421 35.9873C58.1994 35.4491 58.0182 34.9365 57.7206 34.5119C57.4229 34.0872 57.0216 33.7689 56.5657 33.5958C56.1098 33.4227 55.6189 33.4024 55.1527 33.5371C54.6866 33.6718 54.2655 33.9558 53.9406 34.3545C53.6157 34.7532 53.4012 35.2493 53.3231 35.7825C53.245 36.3157 53.3067 36.8629 53.5008 37.3574C53.6948 37.8519 54.0128 38.2723 54.4159 38.5674C54.8191 38.8626 55.29 39.0196 55.7713 39.0196C56.1193 39.0203 56.4637 38.9411 56.7834 38.7868C57.1031 38.6324 57.3913 38.4062 57.6302 38.1221C57.8692 37.8381 58.0538 37.5022 58.1728 37.1351C58.2918 36.7679 58.3426 36.3773 58.3222 35.9873H58.2421ZM53.6606 33.4941V33.0337H49.6192V33.4941H51.4198V38.9187H51.89V33.4941H53.6606ZM49.189 36.8633H46.9383L48.0587 33.6961L49.189 36.8633ZM50.4095 38.9412L48.2287 33.0562H47.8886L45.7179 38.9412H46.198L46.7783 37.3015H49.3491L49.9293 38.9412H50.4095ZM44.8976 34.7296C44.9107 34.8965 44.8904 35.0645 44.8381 35.2215C44.7858 35.3784 44.7029 35.52 44.5955 35.6363C44.4881 35.7526 44.3588 35.8406 44.2172 35.8935C44.0756 35.9465 43.9253 35.9631 43.7772 35.9423H41.8866V33.5165H43.7772C43.9243 33.5026 44.0724 33.5229 44.2121 33.5763C44.3519 33.6297 44.4803 33.7151 44.5893 33.8269C44.6983 33.9387 44.7855 34.0747 44.8454 34.2262C44.9053 34.3776 44.9367 34.5413 44.9376 34.7071L44.8976 34.7296ZM45.898 38.9412L44.1873 36.3355C44.5165 36.2601 44.8121 36.0586 45.0238 35.7657C45.2354 35.4728 45.3499 35.1067 45.3478 34.7296C45.3482 34.5 45.3066 34.2729 45.2255 34.0622C45.1445 33.8515 45.0256 33.6617 44.8764 33.5048C44.7272 33.3478 44.5509 33.2268 44.3584 33.1497C44.1658 33.0725 43.9612 33.0408 43.7572 33.0562H41.3864V38.9412H41.8666V36.3355H43.6872L45.3677 38.8849L45.898 38.9412ZM40.4561 36.0098C40.3988 36.4337 40.2346 36.8304 39.9829 37.1529C39.7313 37.4754 39.4026 37.7103 39.0359 37.8299C38.6691 37.9494 38.2795 37.9487 37.9132 37.8277C37.5468 37.7066 37.2189 37.4701 36.9683 37.1466C36.7177 36.823 36.5549 36.4257 36.4989 36.0015C36.443 35.5774 36.4964 35.1443 36.6528 34.7531C36.8092 34.362 37.062 34.029 37.3814 33.794C37.7009 33.559 38.0735 33.4315 38.4554 33.4266C38.7442 33.4299 39.0292 33.5005 39.2926 33.6336C39.5559 33.7668 39.7917 33.9595 39.9854 34.2001C40.179 34.4407 40.3261 34.7239 40.4174 35.0315C40.5088 35.339 40.5424 35.6644 40.5161 35.9873L40.4561 36.0098ZM40.9262 36.0098C40.8835 35.4715 40.7023 34.959 40.4047 34.5343C40.107 34.1097 39.7058 33.7913 39.2498 33.6183C38.7939 33.4452 38.303 33.4249 37.8369 33.5596C37.3708 33.6943 36.9496 33.9783 36.6247 34.377C36.2999 34.7756 36.0853 35.2718 36.0072 35.8049C35.9291 36.3381 35.9908 36.8854 36.1849 37.3799C36.3789 37.8744 36.6969 38.2948 37.1 38.5899C37.5032 38.8851 37.9741 39.0421 38.4554 39.0421C38.8035 39.0399 39.1475 38.9578 39.4663 38.8008C39.785 38.6437 40.0718 38.4149 40.3089 38.1287C40.546 37.8426 40.7283 37.505 40.8448 37.1367C40.9613 36.7684 41.0095 36.3772 40.9862 35.9873L40.9262 36.0098ZM35.3143 34.6059C35.3143 35.3584 34.7442 35.729 34.0839 35.729H32.4634V33.5615H34.1139C34.8842 33.4941 35.3744 33.831 35.3744 34.5834L35.3143 34.6059ZM35.4744 37.3015C35.4758 37.4632 35.4461 37.6233 35.3873 37.7709C35.3285 37.9185 35.242 38.0501 35.1337 38.1567C35.0255 38.2633 34.898 38.3425 34.7599 38.3887C34.6219 38.4349 34.4766 38.4472 34.334 38.4246H32.4634V36.066H34.314C34.4694 36.0256 34.6311 36.0274 34.7857 36.0715C34.9403 36.1155 35.0833 36.2004 35.2027 36.3191C35.3222 36.4378 35.4146 36.587 35.4723 36.7539C35.53 36.9209 35.5513 37.1009 35.5344 37.279L35.4744 37.3015ZM35.9546 37.3015C35.9622 36.9675 35.8667 36.6407 35.6844 36.3766C35.5021 36.1126 35.2442 35.9276 34.9542 35.8527C35.1944 35.7599 35.4032 35.586 35.5518 35.3547C35.7005 35.1235 35.7817 34.8461 35.7845 34.5609C35.7845 33.6625 35.2243 33.0562 34.0939 33.0562H31.9832V38.9412H34.354C34.563 38.9699 34.7751 38.9481 34.976 38.8775C35.177 38.807 35.3622 38.6891 35.5194 38.5318C35.6765 38.3745 35.802 38.1814 35.8874 37.9653C35.9728 37.7492 36.0161 37.5154 36.0146 37.279L35.9546 37.3015ZM30.6227 36.8633H28.362L29.4923 33.6961L30.6227 36.8633ZM31.8432 38.9412L29.6624 33.0562H29.3123L27.1416 38.9412H27.6217L28.2019 37.3015H30.7828L31.363 38.9412H31.8432ZM27.2316 38.9412V38.4805H24.4706V33.0562H24.0005V38.9412H27.2316Z" fill="#1F201D"/>
<path d="M128.786 38.9189V38.4582H125.785V36.0999H128.606V35.6393H125.785V33.4943H128.786V33.0339H125.345V38.9189H128.786ZM124.565 36.8635V33.0339H124.094V36.8973C124.095 37.1263 124.053 37.3531 123.972 37.5633C123.891 37.7734 123.772 37.9624 123.623 38.1185C123.473 38.2746 123.297 38.3944 123.104 38.4703C122.912 38.5462 122.707 38.5764 122.504 38.5594C122.299 38.5836 122.092 38.5584 121.897 38.4851C121.701 38.4119 121.522 38.2925 121.372 38.135C121.221 37.9774 121.102 37.7853 121.023 37.5718C120.944 37.3583 120.907 37.1283 120.913 36.8973V33.0339H120.433V36.8635C120.47 37.4507 120.703 38.0005 121.086 38.402C121.47 38.8035 121.975 39.0269 122.499 39.0269C123.023 39.0269 123.528 38.8035 123.911 38.402C124.295 38.0005 124.528 37.4507 124.565 36.8635V36.8635ZM119.563 35.9763C119.507 36.401 119.345 36.799 119.094 37.1232C118.843 37.4474 118.515 37.6842 118.148 37.8054C117.781 37.9266 117.391 37.9271 117.024 37.807C116.657 37.687 116.328 37.4515 116.077 37.1281C115.825 36.8048 115.661 36.4072 115.605 35.9826C115.548 35.558 115.601 35.1241 115.758 34.7322C115.914 34.3404 116.167 34.0071 116.487 33.7718C116.807 33.5364 117.18 33.4089 117.562 33.4043C117.849 33.4136 118.13 33.4888 118.389 33.6253C118.649 33.7618 118.88 33.957 119.07 34.1981C119.259 34.4393 119.403 34.7214 119.491 35.0273C119.579 35.3332 119.61 35.6562 119.583 35.9763H119.563ZM120.033 35.9763C119.989 35.4503 119.813 34.9493 119.525 34.5315C119.237 34.1138 118.849 33.7967 118.406 33.6171C117.964 33.4375 117.485 33.4031 117.026 33.5176C116.566 33.632 116.145 33.8905 115.812 34.2634C115.479 34.6362 115.247 35.1078 115.143 35.6231C115.04 36.1384 115.069 36.6762 115.227 37.1737C115.385 37.6711 115.666 38.1078 116.037 38.4327C116.408 38.7577 116.854 38.9572 117.322 39.0085V40.5698H117.802V39.0085C118.45 38.9185 119.044 38.5553 119.462 37.9921C119.88 37.4289 120.091 36.7081 120.053 35.9763H120.033ZM114.591 38.9189V33.0339H114.121V38.9189H114.591ZM113.431 38.7615V36.3357H113.001V38.436C112.629 38.521 112.25 38.566 111.87 38.5707C111.559 38.5908 111.248 38.5387 110.956 38.4174C110.663 38.2961 110.397 38.1083 110.172 37.8657C109.948 37.6232 109.77 37.3309 109.651 37.0078C109.532 36.6846 109.473 36.3372 109.48 35.9875C109.467 35.6363 109.521 35.2863 109.638 34.9604C109.756 34.6345 109.933 34.3403 110.159 34.0972C110.385 33.8541 110.654 33.6677 110.949 33.5502C111.245 33.4327 111.558 33.3867 111.87 33.4156C112.308 33.4153 112.744 33.4681 113.171 33.573L113.251 33.146C112.802 33.0204 112.342 32.9564 111.88 32.9552C111.51 32.9187 111.136 32.9705 110.784 33.1074C110.433 33.2442 110.111 33.4629 109.84 33.7493C109.569 34.0356 109.355 34.383 109.211 34.7687C109.068 35.1545 108.999 35.5698 109.009 35.9875C109.014 36.4019 109.093 36.8111 109.242 37.1904C109.391 37.5697 109.606 37.9113 109.875 38.1953C110.144 38.4793 110.461 38.6996 110.807 38.8432C111.153 38.9868 111.522 39.0507 111.89 39.031C112.419 39.0205 112.944 38.9298 113.451 38.7615H113.431ZM108.549 35.9875C108.492 36.4114 108.328 36.8081 108.076 37.1306C107.824 37.4531 107.496 37.688 107.129 37.8076C106.762 37.9271 106.373 37.9265 106.006 37.8054C105.64 37.6843 105.312 37.4479 105.061 37.1243C104.811 36.8007 104.648 36.4034 104.592 35.9793C104.536 35.5551 104.59 35.1221 104.746 34.7309C104.902 34.3397 105.155 34.0068 105.475 33.7718C105.794 33.5367 106.167 33.4092 106.549 33.4043C106.836 33.4135 107.118 33.4892 107.378 33.6264C107.638 33.7636 107.87 33.9596 108.06 34.202C108.25 34.4444 108.393 34.728 108.48 35.0352C108.568 35.3425 108.598 35.6665 108.569 35.9875H108.549ZM109.019 35.9875C108.977 35.4493 108.795 34.9367 108.498 34.5121C108.2 34.0875 107.799 33.7691 107.343 33.596C106.887 33.4229 106.396 33.4026 105.93 33.5373C105.464 33.672 105.043 33.956 104.718 34.3547C104.393 34.7534 104.178 35.2495 104.1 35.7827C104.022 36.3159 104.084 36.8631 104.278 37.3576C104.472 37.8521 104.79 38.2725 105.193 38.5676C105.596 38.8628 106.067 39.0198 106.549 39.0198C106.891 39.0114 107.229 38.9256 107.542 38.7673C107.855 38.6089 108.136 38.3813 108.368 38.0982C108.601 37.8151 108.78 37.4823 108.895 37.1196C109.011 36.757 109.06 36.3719 109.039 35.9875H109.019ZM104.368 38.9189V38.4582H101.637V33.0339H101.167V38.9189H104.368ZM100.216 35.9875C100.159 36.4114 99.9948 36.8081 99.7432 37.1306C99.4915 37.4531 99.1629 37.688 98.7961 37.8076C98.4294 37.9271 98.0398 37.9265 97.6734 37.8054C97.3071 37.6843 96.9792 37.4479 96.7286 37.1243C96.478 36.8007 96.3151 36.4034 96.2592 35.9793C96.2033 35.5551 96.2567 35.1221 96.4131 34.7309C96.5694 34.3397 96.8223 34.0068 97.1417 33.7718C97.4611 33.5367 97.8338 33.4092 98.2157 33.4043C98.5029 33.4135 98.7854 33.4892 99.0454 33.6264C99.3055 33.7636 99.5376 33.9596 99.7272 34.202C99.9168 34.4444 100.06 34.728 100.147 35.0352C100.235 35.3425 100.265 35.6665 100.236 35.9875H100.216ZM100.686 35.9875C100.644 35.4493 100.463 34.9367 100.165 34.5121C99.8673 34.0875 99.466 33.7691 99.0101 33.596C98.5541 33.4229 98.0632 33.4026 97.5971 33.5373C97.131 33.672 96.7098 33.956 96.385 34.3547C96.0601 34.7534 95.8455 35.2495 95.7675 35.7827C95.6894 36.3159 95.7511 36.8631 95.9452 37.3576C96.1392 37.8521 96.4571 38.2725 96.8603 38.5676C97.2634 38.8628 97.7344 39.0198 98.2157 39.0198C98.5586 39.0114 98.8965 38.9256 99.2091 38.7673C99.5218 38.6089 99.8027 38.3813 100.035 38.0982C100.268 37.8151 100.447 37.4823 100.562 37.1196C100.678 36.757 100.727 36.3719 100.707 35.9875H100.686ZM96.115 33.4943V33.0339H92.0436V33.4943H93.8442V38.9189H94.3343V33.4943H96.115ZM91.6635 36.8635H89.4027L90.5331 33.6964L91.6635 36.8635ZM92.8838 38.9414L90.7031 33.0564H90.363L88.1822 38.9414H88.6624L89.2526 37.3017H91.8235L92.4037 38.9414H92.8838ZM88.0422 38.9414V33.0564H87.5921L85.5914 37.4701L83.5907 33.0564H83.1405V38.9414H83.5907V34.0333L85.4113 38.1662H85.7114L87.532 34.0333V38.9414H88.0422ZM81.9601 34.7298C81.9732 34.8967 81.9529 35.0647 81.9006 35.2217C81.8483 35.3786 81.7655 35.5202 81.658 35.6365C81.5506 35.7528 81.4214 35.8408 81.2798 35.8937C81.1382 35.9467 80.9878 35.9633 80.8398 35.9425H78.9391V33.5168H80.8398C80.9853 33.506 81.1312 33.5288 81.2686 33.5837C81.4059 33.6385 81.5319 33.7244 81.6387 33.8359C81.7455 33.9474 81.8308 34.082 81.8896 34.2318C81.9483 34.3817 81.9791 34.5436 81.9802 34.7073L81.9601 34.7298ZM82.9605 38.9414L81.3299 36.3357C81.6609 36.2626 81.9589 36.0621 82.1725 35.769C82.3861 35.4758 82.502 35.1085 82.5003 34.7298C82.5008 34.5002 82.4591 34.2731 82.3781 34.0624C82.297 33.8517 82.1782 33.6619 82.029 33.505C81.8798 33.348 81.7035 33.2271 81.511 33.1499C81.3184 33.0727 81.1138 33.041 80.9098 33.0564H78.539V38.9414H79.0091V36.3357H80.8398L82.5103 38.8852L82.9605 38.9414ZM77.8787 38.9414V38.4807H74.8777V36.1224H77.6987V35.6618H74.8777V33.5168H77.8787V33.0564H74.4275V38.9414H77.8787ZM73.5673 35.9987C73.5496 36.3506 73.4694 36.6951 73.3313 37.0116C73.1933 37.3281 73 37.6102 72.7632 37.8416C72.5264 38.0729 72.2507 38.2487 71.9524 38.3584C71.6541 38.4682 71.3393 38.5098 71.0264 38.4807H70.3862V33.5168H71.0264C71.3409 33.4813 71.6584 33.5174 71.9602 33.6229C72.2619 33.7284 72.5415 33.9011 72.7825 34.1307C73.0234 34.3603 73.2206 34.6422 73.3623 34.9593C73.504 35.2764 73.5874 35.6222 73.6073 35.9763L73.5673 35.9987ZM74.0474 35.9987C74.0474 34.3029 72.747 33.0564 70.9564 33.0564H69.9561V38.9414H70.9564C72.787 38.9189 74.0875 37.6721 74.0875 35.9763L74.0474 35.9987Z" fill="#1F201D"/>
<path d="M17.5182 24.9697H12.5165L15.0074 17.6362L17.5182 24.9697ZM21.1794 30.3606L15.8176 15.39H14.3071L8.94531 30.3606H10.7659L12.1064 26.5647H18.1084L19.4288 30.3606H21.1794Z" fill="#1F201D"/>
<path d="M32.9334 19.8375C32.9514 20.212 32.8981 20.5862 32.7771 20.9357C32.6561 21.2852 32.4701 21.6019 32.2316 21.8644C31.9931 22.1268 31.7074 22.3291 31.3938 22.458C31.0801 22.5868 30.7456 22.6392 30.4126 22.6115H26.0111V17.0973H30.4126C30.7405 17.082 31.0677 17.1416 31.3744 17.2727C31.6811 17.4039 31.9609 17.6037 32.1967 17.8601C32.4325 18.1164 32.6193 18.4239 32.746 18.7638C32.8727 19.1037 32.9364 19.4691 32.9334 19.8375V19.8375ZM36.1846 30.3607L32.0131 23.9817C32.8221 23.7307 33.534 23.1854 34.0372 22.4314C34.5405 21.6773 34.8067 20.7572 34.7941 19.815C34.7945 19.2097 34.686 18.6105 34.4749 18.0534C34.2639 17.4963 33.9548 16.9929 33.5661 16.5733C33.1774 16.1537 32.7172 15.8266 32.2131 15.6117C31.709 15.3968 31.1714 15.2985 30.6327 15.3227H24.1604V30.2936H26.0111V24.2062H30.0125L34.0138 30.2936L36.1846 30.3607Z" fill="#1F201D"/>
<path d="M46.248 22.8586C46.248 26.2279 44.4273 28.7661 41.6264 28.7661C38.8254 28.7661 36.9748 26.2503 36.9748 22.8586C36.9748 19.4669 38.8154 16.9174 41.6264 16.9174C44.4373 16.9174 46.248 19.4556 46.248 22.8586ZM48.0886 22.8586C48.0143 21.4394 47.5715 20.0758 46.8147 18.936C46.058 17.7962 45.0204 16.9303 43.8302 16.445C42.64 15.9597 41.3493 15.8764 40.1175 16.2053C38.8856 16.5343 37.7665 17.2611 36.8984 18.2961C36.0303 19.331 35.4513 20.6289 35.2327 22.0292C35.0141 23.4295 35.1656 24.8708 35.6685 26.1755C36.1713 27.4802 37.0035 28.591 38.0623 29.3707C39.1211 30.1504 40.3602 30.5651 41.6264 30.5631C42.5047 30.546 43.3711 30.3317 44.1745 29.9328C44.9779 29.5339 45.7021 28.9585 46.3043 28.2405C46.9065 27.5224 47.3747 26.6765 47.6811 25.7522C47.9876 24.8279 48.1261 23.844 48.0886 22.8586V22.8586Z" fill="#1F201D"/>
<path d="M58.8622 15.7267C57.7501 15.33 56.5877 15.1403 55.421 15.1651C51.1096 15.1651 48.0286 18.5345 48.0286 22.8809C48.0286 27.2272 51.1096 30.6076 55.421 30.6076C56.5805 30.5995 57.7329 30.4027 58.8422 30.0236L58.482 28.3614C57.5204 28.6381 56.5335 28.789 55.5411 28.8108C52.0699 28.8108 49.8692 26.3849 49.8692 22.8809C49.8692 19.3768 52.0699 16.9622 55.5411 16.9622C56.5335 16.9641 57.5218 17.1074 58.482 17.3888L58.8622 15.7267Z" fill="#1F201D"/>
<path d="M139.66 15.39H137.759L133.648 22.499L129.526 15.39H127.626L132.727 24.3747V30.3944H134.578V24.3747L139.66 15.39ZM127.065 24.9697H122.064L124.545 17.6362L127.065 24.9697ZM130.727 30.3606L125.345 15.39H123.794L118.433 30.3606H120.253L121.594 26.5647H127.596L128.916 30.3606H130.727ZM119.453 26.5422C119.453 24.4308 118.613 23.5773 115.161 22.0499C112 20.646 111.16 20.1743 111.16 18.6806C111.16 17.1869 112.08 16.8835 114.441 16.8835C115.895 16.9019 117.343 17.113 118.753 17.5125L119.093 15.8729C117.567 15.3821 115.989 15.1253 114.401 15.1093C111.12 15.1093 109.339 16.2323 109.339 18.6806C109.339 21.1289 110.46 22.0499 113.961 23.4762C116.962 24.7341 117.652 25.3405 117.652 26.531C117.652 27.7215 116.412 28.7772 114.241 28.7772C112.534 28.727 110.846 28.3707 109.239 27.7215L108.839 29.3162C110.554 30.1037 112.388 30.5155 114.241 30.5293C117.432 30.6079 119.453 28.9232 119.453 26.5422V26.5422ZM107.199 22.8585C107.199 26.2277 105.368 28.7659 102.567 28.7659C99.7661 28.7659 97.9256 26.2502 97.9256 22.8585C97.9256 19.4667 99.7661 16.9173 102.567 16.9173C105.368 16.9173 107.199 19.4892 107.199 22.8585ZM109.039 22.8585C108.965 21.4398 108.522 20.0766 107.766 18.937C107.01 17.7974 105.973 16.9313 104.783 16.4457C103.594 15.96 102.303 15.876 101.072 16.2041C99.8402 16.5322 98.721 17.2579 97.8525 18.2918C96.984 19.3257 96.4041 20.6223 96.1844 22.0219C95.9647 23.4215 96.1148 24.8628 96.6161 26.1677C97.1175 27.4726 97.9482 28.5843 99.0057 29.3653C100.063 30.1464 101.301 30.5627 102.567 30.563C103.446 30.5459 104.313 30.3314 105.117 29.9326C105.921 29.5339 106.645 28.9587 107.248 28.2409C107.851 27.523 108.32 26.6772 108.628 25.7528C108.936 24.8285 109.075 23.8444 109.039 22.8585V22.8585ZM94.5944 19.8824C94.6158 20.2599 94.5662 20.6383 94.4487 20.9929C94.3313 21.3474 94.1487 21.6701 93.9128 21.9402C93.6769 22.2103 93.393 22.4219 93.0795 22.5607C92.7661 22.6995 92.4302 22.7626 92.0936 22.746H87.702V17.0522H92.0936C92.4283 17.0474 92.7603 17.1188 93.0697 17.2625C93.379 17.4061 93.6591 17.6188 93.8929 17.8876C94.1268 18.1565 94.3096 18.4762 94.4302 18.8267C94.5507 19.1773 94.6066 19.5515 94.5944 19.9271V19.8824ZM96.455 19.8824C96.4557 19.2731 96.3459 18.67 96.1325 18.1097C95.919 17.5495 95.6062 17.0438 95.2132 16.6236C94.8202 16.2034 94.3551 15.8774 93.8463 15.6653C93.3375 15.4532 92.7956 15.3596 92.2536 15.39H85.8615V30.3606H87.702V24.4757H92.2536C92.7999 24.5064 93.346 24.4112 93.8582 24.1957C94.3704 23.9802 94.8378 23.6491 95.2315 23.2229C95.6253 22.7966 95.937 22.2841 96.1474 21.7173C96.3579 21.1504 96.4625 20.5411 96.455 19.9271V19.8824Z" fill="#1F201D"/>
</svg>
