<svg width="110" height="41" viewBox="0 0 110 41" fill="none" xmlns="http://www.w3.org/2000/svg">
<path d="M107.761 7.25874C108.541 6.32665 109.046 5.14622 109.205 3.87946C109.365 2.6127 109.171 1.32172 108.651 0.18335C107.392 0.376693 106.241 1.0856 105.419 2.17399C104.597 3.26237 104.163 4.65341 104.199 6.07958V6.16938C104.279 9.79696 105.98 11.9869 108.971 13.256C109.397 12.2487 109.509 11.1099 109.29 10.0223C109.07 8.93475 108.532 7.96149 107.761 7.25874V7.25874Z" fill="#92989D"/>
<path d="M99.8079 0.18335C99.3048 1.32632 99.1207 2.61312 99.2795 3.87548C99.4384 5.13785 99.9328 6.31695 100.698 7.25874C99.9269 7.96149 99.3884 8.93475 99.1689 10.0223C98.9494 11.1099 99.0617 12.2487 99.4878 13.256C102.489 11.9869 104.179 9.79696 104.259 6.16938V6.07958C104.296 4.65341 103.861 3.26237 103.04 2.17399C102.218 1.0856 101.067 0.376693 99.8079 0.18335V0.18335Z" fill="#92989D"/>
<path d="M34.4157 32.854H33.9556V39.031H34.4157V32.854Z" fill="#343E47"/>
<path d="M36.0462 33.0225H35.5861V33.7188H36.0462V33.0225Z" fill="#343E47"/>
<path d="M36.0462 34.8307H35.5861V39.0311H36.0462V34.8307Z" fill="#343E47"/>
<path d="M37.3967 35.8752C37.3967 35.3473 37.7268 35.1787 38.2069 35.1787C38.4929 35.1841 38.775 35.2527 39.0372 35.3808V34.9205C38.741 34.8044 38.4305 34.7401 38.1169 34.7296C37.4967 34.7296 36.8965 35.0441 36.8965 35.8527C36.8965 37.0769 38.6971 36.9195 38.6971 37.919C38.6885 38.0305 38.6599 38.1389 38.6131 38.2376C38.5663 38.3364 38.5021 38.4235 38.4246 38.4937C38.3471 38.564 38.2577 38.6159 38.1619 38.6465C38.066 38.677 37.9656 38.6857 37.8668 38.6717C37.5192 38.671 37.1765 38.5787 36.8665 38.4021V38.9187C37.1871 39.0488 37.5259 39.1133 37.8668 39.1096C38.427 39.1096 39.1772 38.8063 39.1772 37.919C39.1772 36.5376 37.3266 36.6389 37.3266 35.8527" fill="#343E47"/>
<path d="M41.338 38.6942C40.9579 38.6942 40.8379 38.3796 40.8379 37.9977V35.2799H41.6881V34.8305H40.8379V33.6403L40.3777 33.8199V34.8305H39.6375V35.2799H40.3777V37.7282C40.3777 38.5031 40.3777 39.132 41.228 39.132C41.4189 39.129 41.6081 39.0909 41.7882 39.0196V38.593C41.6556 38.6579 41.5127 38.6924 41.368 38.6942" fill="#343E47"/>
<path d="M42.7485 36.6388C42.7261 36.2824 42.8287 35.9302 43.0343 35.6575C43.2398 35.3847 43.5321 35.213 43.8489 35.1787C44.5391 35.1787 44.7992 35.9088 44.7992 36.6388H42.7485ZM43.8188 34.7296C42.8685 34.7296 42.2383 35.6505 42.2383 36.9758C42.2383 38.301 42.6985 39.222 43.9389 39.222C44.3114 39.2212 44.6808 39.1452 45.0293 38.9974V38.4693C44.7204 38.6552 44.3789 38.7626 44.0289 38.7838C43.2187 38.7838 42.7985 38.0651 42.7985 37.1666H45.2693V36.9083C45.2693 35.7853 44.8392 34.8193 43.7788 34.8193" fill="#343E47"/>
<path d="M47.8302 34.7296C47.5733 34.7056 47.3165 34.7759 47.0982 34.9298C46.8799 35.0837 46.712 35.313 46.6198 35.5832V35.5832V34.8305H46.1697C46.1697 35.1675 46.1697 35.5045 46.1697 35.819V39.0309H46.6298V36.7175C46.6298 36.01 46.8999 35.1788 47.7401 35.1788C48.3804 35.1788 48.6305 35.6953 48.6305 36.4814V39.0309H49.0906V36.3356C49.0906 35.4146 48.7405 34.7184 47.8102 34.7184" fill="#343E47"/>
<path d="M50.7312 34.8307H50.271V39.0311H50.7312V34.8307Z" fill="#343E47"/>
<path d="M50.7312 33.0225H50.271V33.7188H50.7312V33.0225Z" fill="#343E47"/>
<path d="M53.5422 34.7296C53.285 34.7037 53.0274 34.7732 52.8088 34.9273C52.5902 35.0815 52.4226 35.3119 52.3318 35.5832V35.5832V34.8305H51.8816C51.8816 35.1675 51.8816 35.5045 51.8816 35.819V39.0309H52.3418V36.7175C52.3418 36.01 52.6018 35.1788 53.4521 35.1788C54.0923 35.1788 54.3424 35.6953 54.3424 36.4814V39.0309H54.8026V36.3356C54.8026 35.4146 54.4425 34.7184 53.5222 34.7184" fill="#343E47"/>
<path d="M57.3435 38.5819C56.5632 38.5819 56.2631 37.7508 56.2631 36.9197C56.2631 36.0886 56.4932 35.1676 57.3734 35.1676C58.2537 35.1676 58.4838 35.9089 58.4838 36.9197C58.4838 37.6946 58.1837 38.5819 57.3435 38.5819ZM58.4838 35.3025C58.3538 35.0958 58.1763 34.9323 57.9703 34.8295C57.7643 34.7267 57.5373 34.6883 57.3134 34.7185C56.2131 34.7185 55.7729 35.6507 55.7729 36.9647C55.7729 37.8968 56.1531 39.0647 57.3435 39.0647C57.5861 39.0793 57.8266 39.0081 58.0312 38.861C58.2358 38.7139 58.3941 38.4984 58.4838 38.2449V38.2449C58.4838 39.4354 58.3738 40.4014 57.1934 40.4014C56.8113 40.4017 56.4346 40.3017 56.0931 40.1094V40.626C56.4577 40.7642 56.8387 40.8398 57.2234 40.8505C58.5038 40.8505 58.974 39.8958 58.974 38.7277V34.8644H58.5138L58.4838 35.3025Z" fill="#343E47"/>
<path d="M63.3656 38.6942C62.9955 38.6942 62.8655 38.3796 62.8655 37.9977V35.2799H63.7157V34.8305H62.8655V33.6403L62.4053 33.8199V34.8305H61.675V35.2799H62.4053V37.7282C62.4053 38.5031 62.4053 39.132 63.2555 39.132C63.4465 39.129 63.6357 39.0909 63.8157 39.0196V38.593C63.6839 38.6605 63.5405 38.695 63.3956 38.6942" fill="#343E47"/>
<path d="M66.0063 38.6942C65.196 38.6942 64.7659 37.908 64.7659 36.9309C64.7659 35.9538 65.196 35.1788 66.0063 35.1788C66.8166 35.1788 67.2467 35.965 67.2467 36.9309C67.2467 37.8967 66.8166 38.6942 66.0063 38.6942ZM66.0063 34.7297C65.6038 34.6727 65.1954 34.7544 64.8352 34.9641C64.475 35.1738 64.1802 35.5016 63.9898 35.9038C63.7993 36.3059 63.7223 36.7636 63.7689 37.216C63.8154 37.6685 63.9835 38.0945 64.2506 38.4373C64.5178 38.7801 64.8715 39.0235 65.2647 39.1354C65.658 39.2473 66.0723 39.2223 66.4526 39.0638C66.833 38.9053 67.1614 38.6208 67.3944 38.2478C67.6273 37.8749 67.7537 37.4313 67.7569 36.9758C67.7948 36.6949 67.7776 36.4079 67.7066 36.1352C67.6356 35.8624 67.5125 35.6106 67.3458 35.3968C67.1792 35.1829 66.973 35.0124 66.7417 34.8972C66.5103 34.782 66.2594 34.7248 66.0063 34.7297Z" fill="#343E47"/>
<path d="M71.7183 38.3347L70.7179 34.8306H70.2178L71.5482 39.0871L71.4482 39.4578C71.2981 39.9969 71.1681 40.3676 70.778 40.3676C70.6586 40.3688 70.5401 40.3459 70.4279 40.3002V40.7493C70.5914 40.7953 70.7595 40.818 70.928 40.8167C71.4482 40.8167 71.7083 40.244 71.9284 39.6936L73.4189 34.8643H72.9387L71.7183 38.3347Z" fill="#343E47"/>
<path d="M75.3896 38.6942C74.5793 38.6942 74.1492 37.908 74.1492 36.9309C74.1492 35.9538 74.5793 35.1788 75.3896 35.1788C76.1999 35.1788 76.63 35.965 76.63 36.9309C76.63 37.8967 76.1999 38.6942 75.3896 38.6942ZM75.3896 34.7297C74.9871 34.6727 74.5787 34.7544 74.2185 34.9641C73.8583 35.1738 73.5635 35.5016 73.3731 35.9038C73.1826 36.3059 73.1056 36.7636 73.1522 37.216C73.1987 37.6685 73.3668 38.0945 73.6339 38.4373C73.9011 38.7801 74.2548 39.0235 74.648 39.1354C75.0413 39.2473 75.4556 39.2223 75.8359 39.0638C76.2163 38.9053 76.5447 38.6208 76.7777 38.2478C77.0106 37.8749 77.137 37.4313 77.1402 36.9758C77.1763 36.6952 77.1579 36.409 77.0863 36.1371C77.0146 35.8652 76.8914 35.614 76.725 35.4006C76.5587 35.1872 76.3533 35.0169 76.1228 34.901C75.8923 34.7852 75.6422 34.7268 75.3896 34.7297" fill="#343E47"/>
<path d="M80.9315 34.8306H80.4713V37.1554C80.4713 37.863 80.2013 38.6942 79.361 38.6942C78.7208 38.6942 78.4707 38.1774 78.4707 37.3912V34.8306H78.0105V37.5149C78.0105 38.4471 78.3606 39.1321 79.291 39.1321C79.5461 39.1533 79.8007 39.0833 80.0181 38.9319C80.2356 38.7806 80.4047 38.5558 80.5013 38.2898V38.2898V39.0309H80.9515C80.9367 38.7017 80.9367 38.372 80.9515 38.0427L80.9315 34.8306Z" fill="#343E47"/>
<path d="M82.542 35.639V34.8304H82.0818C82.0995 35.1446 82.0995 35.4598 82.0818 35.7739V39.0308H82.542V36.9532C82.542 36.2007 82.742 35.2798 83.4823 35.2798C83.5918 35.262 83.703 35.262 83.8124 35.2798V34.7408C83.7061 34.7277 83.5987 34.7277 83.4923 34.7408C83.2629 34.7545 83.0431 34.8486 82.8637 35.0097C82.6843 35.1709 82.5543 35.3908 82.492 35.639" fill="#343E47"/>
<path d="M86.7634 35.8752C86.7634 35.3473 87.0935 35.1787 87.5737 35.1787C87.8563 35.1852 88.135 35.2539 88.394 35.3808V34.9205C88.0943 34.8041 87.7806 34.7398 87.4637 34.7296C86.8535 34.7296 86.2532 35.0441 86.2532 35.8527C86.2532 37.0769 88.0439 36.9195 88.0439 37.919C88.0353 38.0305 88.0067 38.1389 87.9598 38.2376C87.913 38.3364 87.8489 38.4235 87.7714 38.4937C87.6939 38.564 87.6045 38.6159 87.5087 38.6465C87.4128 38.677 87.3124 38.6857 87.2136 38.6717C86.8657 38.6731 86.5227 38.5807 86.2133 38.4021V38.9187C86.5339 39.0488 86.8727 39.1133 87.2136 39.1096C87.7838 39.1096 88.524 38.8063 88.524 37.919C88.524 36.5376 86.6835 36.6389 86.6835 35.8527" fill="#343E47"/>
<path d="M92.1653 34.8306H91.565L89.8945 36.5602V32.854H89.4343V39.0422H89.8945V36.8747L91.7452 39.0422H92.3753L90.3346 36.695L92.1653 34.8306Z" fill="#343E47"/>
<path d="M93.5657 34.8307H93.1056V39.0311H93.5657V34.8307Z" fill="#343E47"/>
<path d="M93.5657 33.0225H93.1056V33.7188H93.5657V33.0225Z" fill="#343E47"/>
<path d="M96.3767 34.7296C96.1198 34.7056 95.8629 34.7759 95.6446 34.9298C95.4263 35.0837 95.2585 35.313 95.1662 35.5832V34.8305H94.7161C94.7161 35.1675 94.7161 35.5045 94.7161 35.819V39.0309H95.1762V36.7175C95.1762 36.01 95.4363 35.1788 96.2866 35.1788C96.9269 35.1788 97.177 35.6953 97.177 36.4814V39.0309H97.6371V36.3356C97.6371 35.4146 97.287 34.7184 96.3567 34.7184" fill="#343E47"/>
<path d="M95.7865 23.6783V24.734C95.2666 25.3935 94.6226 25.9149 93.9012 26.2607C93.1797 26.6064 92.3989 26.7678 91.615 26.7331C91.3184 26.7593 91.0202 26.7109 90.7424 26.5914C90.4645 26.4718 90.2139 26.284 90.0088 26.0419C89.8038 25.7998 89.6493 25.5094 89.5568 25.1919C89.4644 24.8743 89.4362 24.5375 89.4743 24.2062C89.4738 23.5698 89.6747 22.9541 90.0411 22.4686C90.4076 21.9831 90.9158 21.6597 91.475 21.5558C91.9354 21.4106 92.4081 21.3202 92.8854 21.2863C93.8525 21.2238 94.8225 21.2461 95.7865 21.3535C95.7865 22.1396 95.7865 22.8809 95.7865 23.6783V23.6783ZM98.0472 24.8014C98.0472 22.5552 98.0472 20.3091 98.0472 18.1416C98.0683 17.7114 98.0683 17.2801 98.0472 16.8499C98.0155 15.9739 97.7309 15.1334 97.2365 14.4548C96.7422 13.7762 96.0647 13.2964 95.3063 13.0877C94.5595 12.867 93.7864 12.7799 93.0155 12.8294C92.5753 12.8294 92.1552 12.8292 91.755 12.9303C90.7773 13.066 89.8171 13.3301 88.8941 13.7167C88.744 13.7841 88.494 13.9186 88.434 14.0646C88.2939 14.4577 88.684 15.2665 88.7941 15.6371C90.2758 15.3143 91.7774 15.119 93.2856 15.0531C95.4663 15.0531 95.8165 16.1761 95.8165 18.0292C95.8165 18.411 95.8165 19.1524 95.8165 19.5679C93.661 19.1763 91.4523 19.4001 89.3942 20.2191C88.6895 20.5677 88.0974 21.1515 87.6984 21.8909C87.2993 22.6303 87.1125 23.4896 87.1635 24.3523C87.1635 27.3173 89.0041 28.766 91.535 28.766C93.1345 28.7484 94.6792 28.1093 95.9065 26.9577C95.9065 27.5866 96.3067 28.6648 97.0669 28.6648C97.5287 28.6811 97.9865 28.5654 98.3973 28.3281C98.2091 27.6161 98.1015 26.8801 98.0772 26.1378C98.0772 25.6998 98.0772 25.2507 98.0772 24.8014" fill="#343E47"/>
<path d="M13.4485 19.4891C13.4709 18.467 13.711 17.4656 14.1488 16.569C14.3782 16.1475 14.7001 15.7994 15.0836 15.5575C15.4672 15.3156 15.8996 15.1882 16.3395 15.1876H16.6997C17.1568 15.1538 17.6138 15.2541 18.026 15.4785C18.4381 15.703 18.7912 16.0441 19.0504 16.4681C19.533 17.3905 19.7853 18.4419 19.7807 19.5116L13.4485 19.4891ZM20.4509 14.3903C19.9562 13.8557 19.3687 13.4412 18.725 13.1726C18.0813 12.904 17.3953 12.7872 16.7097 12.8293C16.5231 12.8183 16.3361 12.8183 16.1495 12.8293C15.3753 12.8435 14.6138 13.0528 13.9212 13.4416C13.2287 13.8303 12.6228 14.3887 12.1481 15.0755C11.2233 16.7571 10.7831 18.7181 10.8877 20.6909C10.8547 21.743 10.9388 22.7956 11.1378 23.8244C11.3157 24.7478 11.6557 25.6219 12.1381 26.396C12.7346 27.3036 13.5608 27.9885 14.5089 28.3614C15.4976 28.7359 16.5368 28.9147 17.58 28.8895C18.8488 28.8512 20.1073 28.6207 21.3212 28.2043C21.4649 28.1682 21.5949 28.0828 21.6935 27.96C21.7921 27.8373 21.8542 27.6832 21.8714 27.5191C21.9309 26.9746 21.9309 26.424 21.8714 25.8795C20.4677 26.2646 19.0337 26.4942 17.59 26.5647C16.7507 26.6075 15.9142 26.4266 15.1491 26.0368C14.0988 25.4304 13.4985 24.0601 13.4985 21.7128H21.4113C21.9115 21.7128 22.1615 21.3983 22.1715 21.0501C22.2166 19.8164 22.1157 18.5817 21.8714 17.3779C21.6599 16.284 21.1939 15.2724 20.521 14.4465" fill="#343E47"/>
<path d="M49.971 16.5465C50.2027 16.1249 50.5264 15.7768 50.9116 15.535C51.2967 15.2933 51.7305 15.1659 52.1717 15.1651H52.5218C52.9789 15.1313 53.436 15.2316 53.8481 15.4561C54.2603 15.6805 54.6133 16.0216 54.8726 16.4456C55.3552 17.368 55.6075 18.4194 55.6029 19.4891H49.2707C49.298 18.4678 49.5378 17.4677 49.971 16.569V16.5465ZM47.9703 26.3401C48.5642 27.2459 49.3866 27.9306 50.3311 28.3055C51.3202 28.6779 52.3591 28.8565 53.4021 28.8333C54.6678 28.7954 55.9229 28.5648 57.1334 28.1481C57.2788 28.1141 57.4112 28.0297 57.5117 27.9068C57.6122 27.7839 57.6758 27.6288 57.6936 27.4632C57.7484 26.9184 57.7484 26.3681 57.6936 25.8232C56.2898 26.2084 54.8558 26.438 53.4121 26.5085C52.5728 26.5513 51.7364 26.3704 50.9713 25.9806C49.971 25.3742 49.3308 24.0039 49.3308 21.6566H57.2334C57.7336 21.6566 57.9836 21.3423 57.9936 20.9942C58.0387 19.7605 57.9378 18.5255 57.6936 17.3217C57.482 16.2278 57.0161 15.2162 56.3431 14.3903C55.8484 13.8557 55.2609 13.4412 54.6172 13.1726C53.9735 12.904 53.2875 12.7872 52.6019 12.8293C52.4153 12.8183 52.2283 12.8183 52.0417 12.8293C51.267 12.8403 50.5045 13.0479 49.8115 13.4369C49.1185 13.8259 48.513 14.3862 48.0404 15.0755C47.1114 16.7555 46.6677 18.7168 46.7699 20.6909C46.7401 21.7435 46.8274 22.7961 47.03 23.8244C47.2079 24.7478 47.548 25.6219 48.0303 26.396" fill="#343E47"/>
<path d="M29.9342 19.4893C29.484 19.2872 29.0139 19.1413 28.5637 18.9952C27.9204 18.8183 27.2964 18.562 26.7031 18.2313C26.3598 18.0438 26.0881 17.7242 25.9375 17.3304C25.7869 16.9365 25.7675 16.4949 25.8828 16.0863C26.1829 15.2103 27.5434 15.0307 28.6338 15.0307C29.7655 15.0422 30.8939 15.1702 32.0049 15.4127L32.365 15.4798C32.5335 15.0546 32.661 14.6104 32.7451 14.1547C32.7756 13.9882 32.748 13.8149 32.668 13.6707C32.5879 13.5265 32.4615 13.4224 32.315 13.3798C31.0505 13.0064 29.751 12.8028 28.4437 12.7733C27.5276 12.7504 26.6136 12.883 25.7327 13.1665C24.9325 13.3977 24.2416 13.9643 23.8021 14.7499C23.4983 15.464 23.3679 16.2555 23.4241 17.0444C23.4803 17.8332 23.7211 18.5915 24.1222 19.2423C25.0324 20.228 26.1741 20.902 27.4134 21.1852C28.7138 21.6345 29.9342 22.0612 30.4144 23.1281C30.6224 23.5482 30.7008 24.0337 30.6375 24.509C30.5742 24.9843 30.3726 25.4229 30.0642 25.7563C29.3117 26.2723 28.4319 26.5043 27.5534 26.4187C26.1042 26.3433 24.666 26.0987 23.2619 25.6888C23.1992 26.2482 23.1992 26.8141 23.2619 27.3735C23.2841 27.5336 23.3498 27.6821 23.4501 27.7987C23.5504 27.9153 23.6803 27.9944 23.8221 28.0249C25.0358 28.4426 26.2944 28.6729 27.5634 28.7099C28.8829 28.7877 30.1975 28.4739 31.3747 27.8001C31.937 27.4375 32.3979 26.9058 32.7054 26.2649C33.0129 25.624 33.1549 24.8992 33.1153 24.1725C33.1515 23.0228 32.7934 21.9012 32.1149 21.0391C31.5069 20.3156 30.7518 19.7685 29.9142 19.4444" fill="#343E47"/>
<path d="M6.98629 19.4892C6.53804 19.2959 6.0805 19.131 5.61582 18.9951C4.97298 18.8162 4.34918 18.56 3.75519 18.2312C3.41375 18.0418 3.14416 17.7211 2.99546 17.3274C2.84677 16.9338 2.82885 16.4934 2.94491 16.0862C3.23501 15.2102 4.60548 15.0305 5.69586 15.0305C6.82761 15.0421 7.95604 15.17 9.06703 15.4125L9.41713 15.4797C9.586 15.0535 9.71671 14.6097 9.80728 14.1545C9.8353 13.9883 9.80662 13.8163 9.72693 13.6727C9.64724 13.5292 9.52238 13.4246 9.37713 13.3796C8.10934 13.0055 6.8064 12.8018 5.49578 12.7731C4.5797 12.7511 3.66591 12.8837 2.78488 13.1663C1.98725 13.4038 1.29813 13.9688 0.854154 14.7498C0.551774 15.4648 0.423069 16.257 0.481039 17.0458C0.539009 17.8347 0.781613 18.5924 1.18429 19.2421C2.09453 20.2278 3.23616 20.9018 4.47541 21.1851C5.76586 21.6343 6.99628 22.061 7.47645 23.128C7.68614 23.5475 7.76556 24.0336 7.70218 24.5094C7.63879 24.9852 7.43621 25.4238 7.12635 25.7561C6.37747 26.272 5.50081 26.5041 4.62548 26.4186C3.17301 26.343 1.73147 26.0985 0.324002 25.6887C0.267325 26.2484 0.267325 26.8135 0.324002 27.3733C0.343288 27.5347 0.408034 27.6849 0.508819 27.8021C0.609605 27.9193 0.741146 27.9975 0.884194 28.0248C2.09788 28.4424 3.35649 28.6728 4.62548 28.7097C5.94497 28.7865 7.25926 28.4727 8.43681 27.7999C8.99908 27.4373 9.45999 26.9057 9.76753 26.2647C10.0751 25.6238 10.217 24.899 10.1774 24.1724C10.2066 23.0239 9.84942 21.9051 9.17705 21.0389C8.56517 20.3153 7.80682 19.7683 6.96632 19.4442" fill="#343E47"/>
<path d="M42.9786 24.4082C42.9463 24.6768 42.8625 24.9345 42.7329 25.1633C42.6034 25.3921 42.4313 25.5867 42.2284 25.7336C41.6771 26.2089 41.0027 26.4691 40.3077 26.4748C39.8253 26.5075 39.3421 26.431 38.8867 26.2497C38.4312 26.0683 38.013 25.7858 37.6568 25.4191C36.857 24.0696 36.4196 22.4902 36.3965 20.8695C36.3734 19.2487 36.7658 17.6546 37.5268 16.277C38.2918 15.5513 39.2785 15.1889 40.2777 15.2663C41.2099 15.2554 42.1326 15.478 42.9786 15.9178V24.4082ZM45.2094 25.5313V7.35974H42.9786V13.6492C42.1375 13.2451 41.2474 12.984 40.3377 12.8743C40.0778 12.858 39.8173 12.858 39.5574 12.8743C38.7904 12.8295 38.0239 12.9717 37.3106 13.2916C36.5974 13.6115 35.9544 14.1014 35.426 14.7273C34.4369 16.0701 33.8957 17.7579 33.8955 19.5004C33.8361 20.6259 33.883 21.7553 34.0356 22.8697C34.1621 23.9129 34.457 24.9214 34.9059 25.8458C35.3957 26.7264 36.0865 27.4439 36.9066 27.9236C37.7439 28.451 38.6874 28.7294 39.6475 28.7322C40.8696 28.8477 42.0887 28.4737 43.0886 27.6765C43.1356 27.9041 43.2357 28.1134 43.3787 28.2831C43.5035 28.4208 43.6524 28.528 43.816 28.5976C43.9796 28.6672 44.1543 28.6976 44.3291 28.6872C44.6328 28.6855 44.9341 28.6248 45.2194 28.5076L45.5495 28.384L45.4695 27.991C45.3275 27.2071 45.2505 26.4099 45.2393 25.61" fill="#343E47"/>
<path d="M86.2832 25.5876V20.5112C86.4241 18.6749 86.138 16.829 85.4529 15.1541C85.0736 14.5062 84.5672 13.9646 83.9724 13.5706C83.1289 13.059 82.1798 12.8072 81.2215 12.8407C79.7229 12.8582 78.2479 13.2614 76.91 14.0197C75.8905 13.1699 74.6362 12.7525 73.3688 12.8407C71.8681 12.8646 70.3823 13.1798 68.9773 13.7727C68.7352 13.8833 68.5011 14.0148 68.2771 14.1659C67.907 14.3905 67.967 14.7724 67.967 15.0869V28.856H70.2778V15.9517C71.2657 15.5388 72.3056 15.3036 73.3588 15.2552C73.7228 15.2059 74.092 15.2501 74.4386 15.3844C74.7852 15.5186 75.1001 15.7393 75.3595 16.0301C75.7668 16.7935 75.9488 17.6818 75.8797 18.5683V28.856H78.2805V16.2884C79.1805 15.6472 80.2163 15.2868 81.2815 15.244C81.7164 15.2291 82.1473 15.3414 82.5319 15.5697C83.8324 16.3447 83.9024 18.6807 83.9024 21.1852V27.1376C83.8429 27.5707 83.9246 28.0132 84.1325 28.3841C84.2371 28.5386 84.3716 28.6645 84.5258 28.7521C84.68 28.8396 84.85 28.8867 85.0228 28.8897V28.8897C85.5018 28.8797 85.9717 28.7409 86.3932 28.4853C86.2942 27.535 86.2608 26.5774 86.2932 25.6213" fill="#343E47"/>
<path d="M66.2165 15.536L66.5366 15.6034C66.666 15.2873 66.7633 14.9556 66.8267 14.615C66.8573 14.4581 66.8512 14.2952 66.8092 14.1417C66.7671 13.9882 66.6905 13.8494 66.5866 13.7389C65.9875 13.3249 65.2877 13.1325 64.5859 13.1886C63.4809 13.2648 62.4278 13.7419 61.5849 14.5478V13.3235C61.5849 13.0765 61.5049 12.7506 60.7446 12.8966C59.9843 13.0426 59.1941 13.3235 59.1941 13.8064V28.8447H61.5849V17.2431C62.4826 16.1587 63.7195 15.5065 65.0361 15.4236C65.4447 15.4203 65.8528 15.4542 66.2565 15.5247" fill="#343E47"/>
</svg>
