<svg width="113" height="45" viewBox="0 0 113 45" fill="none" xmlns="http://www.w3.org/2000/svg">
<path d="M98.5747 0.768311H111.319L109.859 3.59838H101.356V13.0324H109.508L108.058 15.8851H101.356V25.5437H112.559L111.109 28.3962H98.5747V0.768311ZM108.058 15.8851H101.356H108.058ZM98.5747 0.768311H111.319H98.5747ZM101.316 13.0324H109.468H101.316ZM98.5347 0.768311H111.279Z" fill="#1F201D"/>
<path d="M43.706 0.678345H40.905V28.3962H43.706V0.678345Z" fill="#1F201D"/>
<path d="M22.0185 0.768188H19.2275V28.3962H22.0185V0.768188Z" fill="#1F201D"/>
<path d="M29.1509 17.1653C31.0176 16.795 32.7522 15.8369 34.1526 14.4025C35.4036 12.9093 36.0856 10.9266 36.0532 8.87698C36.0876 6.85028 35.404 4.89116 34.1526 3.43001C32.2345 1.50793 29.7176 0.51476 27.1502 0.667118H23.749V3.51981H27.0001C31.0015 3.51981 33.3123 5.57505 33.3123 8.97802C33.3123 16.0872 23.749 14.7282 23.749 14.7282L38.6641 34.5956H42.3154L29.1509 17.1653Z" fill="#1F201D"/>
<path d="M69.1647 28.3961H72.1657L60.9018 0.56604H58.301L47.0471 28.3961H49.9081L54.1896 17.6821H64.9132L69.1647 28.3961ZM55.3199 14.8406L59.5714 4.1936L63.7828 14.8406H55.3199Z" fill="#1F201D"/>
<path d="M92.0323 16.0421V23.2975C89.9935 25.0809 87.4845 26.0528 84.8999 26.0603C78.8979 26.0603 75.1466 21.1747 75.1466 14.5822V14.5036C75.1466 8.33787 79.0479 3.17155 84.5198 3.17155C87.2968 3.06877 89.9974 4.2033 92.0323 6.3275L93.8329 3.9578C91.3042 1.43485 87.9994 0.117459 84.6198 0.285267C77.2173 0.285267 72.2356 7.02379 72.2356 14.5822V14.6609C72.2356 22.5225 77.0372 28.868 84.7999 28.868C88.4519 28.8617 91.9766 27.3603 94.7132 24.6452V13.0323L92.0323 16.0421Z" fill="#1F201D"/>
<path d="M11.0848 25.9816C6.35321 25.9816 3.64228 22.4327 3.64228 16.9969V0.768311H0.871338V17.6147C0.871338 24.2297 4.49258 28.9914 10.7447 28.9914C11.992 29.0329 13.2336 28.7871 14.3932 28.2695C15.5527 27.7519 16.6056 26.9733 17.487 25.9816V22.444C16.7407 23.5548 15.7726 24.4533 14.6607 25.0678C13.5488 25.6822 12.324 25.9952 11.0848 25.9816V25.9816Z" fill="#1F201D"/>
<path d="M2.13168 41.5027H5.04268V40.4358H2.13168V38.6501H5.47282V37.5831H1.11133V44.5463H5.58286V43.4906H2.13168V41.5027Z" fill="#1F201D"/>
<path d="M12.2951 37.5833L9.92432 44.5464H11.0347L11.7049 42.5023H13.8057L14.4559 44.5464H15.5663L13.2955 37.5833H12.2951ZM13.4755 41.4691H12.0551L12.7853 39.2229L13.4755 41.4691Z" fill="#1F201D"/>
<path d="M23.8992 41.7048V41.7835C23.91 42.0777 23.8865 42.3722 23.8291 42.6595C23.7508 42.9707 23.5778 43.2411 23.3402 43.4237C23.1025 43.6064 22.8154 43.6896 22.5287 43.659C22.3407 43.6741 22.1521 43.6392 21.9783 43.5573C21.8046 43.4753 21.6504 43.3486 21.5284 43.1874C21.2822 42.7541 21.1829 42.2359 21.2483 41.7273V37.5607H20.2479V41.8844C20.1713 42.5416 20.3177 43.2073 20.6581 43.7489C20.8919 44.0675 21.1897 44.3192 21.5271 44.4832C21.8645 44.6472 22.2318 44.7187 22.5987 44.6921C23.1189 44.7498 23.6405 44.5988 24.0708 44.2658C24.5012 43.9327 24.8125 43.4392 24.9495 42.8729C24.9998 42.6107 25.0266 42.3436 25.0296 42.0755V37.5832H23.9692L23.8992 41.7048Z" fill="#1F201D"/>
<path d="M36.4033 38.6388H38.1939V44.5463H39.2443V38.6388H41.0349V37.5719H36.4033V38.6388Z" fill="#1F201D"/>
<path d="M49.9481 40.4245H46.9571V37.5719H45.9067V44.5463H46.9571V41.4915H49.9481V44.5463H51.0085V37.5719H49.9481V40.4245Z" fill="#1F201D"/>
<path d="M57.7806 41.5027H60.6916V40.4358H57.7806V38.6501H61.1317V37.5831H56.7603V44.5463H61.2318V43.4906H57.7806V41.5027Z" fill="#1F201D"/>
<path d="M71.4354 39.6719C71.4501 39.3565 71.3968 39.0418 71.2801 38.7544C71.1635 38.4671 70.9868 38.2155 70.7652 38.021C70.2193 37.6392 69.5716 37.4844 68.9345 37.5831H66.5637V44.5462H67.5641V41.7048H68.9045L70.5351 44.5462H71.7755L70.0749 41.6036C70.4761 41.5316 70.8386 41.2931 71.0905 40.9354C71.3425 40.5776 71.4656 40.1267 71.4354 39.6719V39.6719ZM70.4351 39.6719C70.4461 39.8907 70.3864 40.1067 70.2669 40.2801C70.1474 40.4534 69.9763 40.5724 69.7848 40.6154C69.554 40.6632 69.3192 40.6821 69.0846 40.6716H67.6341V38.5938H69.1246C69.4737 38.5368 69.8294 38.6246 70.1249 38.8408C70.2228 38.95 70.2977 39.0823 70.3444 39.228C70.3912 39.3737 70.4085 39.529 70.3951 39.6831L70.4351 39.6719Z" fill="#1F201D"/>
<path d="M79.7882 42.7943L78.0476 37.5831H76.8071V44.5463H77.8375L77.7675 39.7058L79.388 44.5463H80.1883L81.8389 39.6272L81.7488 44.5463H82.7892V37.5831H81.5488L79.7882 42.7943Z" fill="#1F201D"/>
<path d="M89.8415 37.5833L87.4707 44.5464H88.5911L89.2613 42.5023H91.352L92.0022 44.5464H93.1126L90.8518 37.5833H89.8415ZM91.0319 41.4691H89.6014L90.3317 39.2229L91.0319 41.4691Z" fill="#1F201D"/>
<path d="M98.8646 37.5719H97.8242V44.5463H101.756V43.4681H98.8646V37.5719Z" fill="#1F201D"/>
<path d="M107.668 43.4906V41.5027H110.579V40.4358H107.668V38.6501H111.019V37.5831H106.647V44.5463H111.119V43.4906H107.668Z" fill="#1F201D"/>
</svg>
