<svg width="395" height="115" viewBox="0 0 395 115" fill="none" xmlns="http://www.w3.org/2000/svg">
<g clip-path="url(#clip0_2235_1656)">
<path d="M10.3014 87.1853H70.339V69.7448H30.5958V58.0121H66.111V41.84H30.5958V30.6359H69.8105V13.1954H10.3014V87.1853ZM80.8024 87.1853H101.097V46.5965L132.701 87.1853H150.67V13.1954H130.376V52.3043L99.9341 13.1954H80.8024V87.1853ZM163.793 87.1853H223.831V69.7448H184.088V58.0121H219.603V41.84H184.088V30.6359H223.302V13.1954H163.793V87.1853ZM234.294 87.1853H254.8V64.7769H263.573H263.785L278.688 87.1853H302.365L284.713 61.3945C293.909 57.4836 299.934 49.9789 299.934 38.669V38.4576C299.934 31.1644 297.714 25.4566 293.381 21.2286C288.413 16.155 280.591 13.1954 269.281 13.1954H234.294V87.1853ZM254.8 48.7105V30.953H268.224C275.095 30.953 279.323 33.9126 279.323 39.726V39.9374C279.323 45.3281 275.306 48.7105 268.33 48.7105H254.8ZM47.5078 217.665C70.339 217.665 87.4624 200.436 87.4624 179.19V178.979C87.4624 157.733 70.5504 140.716 47.7192 140.716C24.888 140.716 7.76464 157.945 7.76464 179.19V179.402C7.76464 200.647 24.6766 217.665 47.5078 217.665ZM47.7192 199.168C36.515 199.168 28.7989 189.866 28.7989 179.19V178.979C28.7989 168.303 36.3036 159.213 47.5078 159.213C58.8177 159.213 66.5338 168.515 66.5338 179.19V179.402C66.5338 190.077 59.0291 199.168 47.7192 199.168Z" fill="#29C0E2"/>
<path d="M8.12849 92.4005H6.62849V93.9005H8.12849V92.4005ZM68.8629 92.4005V93.9005H70.3629V92.4005H68.8629ZM68.8629 74.7576H70.3629V73.2576H68.8629V74.7576ZM28.6584 74.7576H27.1584V76.2576H28.6584V74.7576ZM28.6584 62.8887V61.3887H27.1584V62.8887H28.6584ZM64.5858 62.8887V64.3887H66.0858V62.8887H64.5858ZM64.5858 46.5289H66.0858V45.0289H64.5858V46.5289ZM28.6584 46.5289H27.1584V48.0289H28.6584V46.5289ZM28.6584 35.1947V33.6947H27.1584V35.1947H28.6584ZM68.3283 35.1947V36.6947H69.8283V35.1947H68.3283ZM68.3283 17.5517H69.8283V16.0517H68.3283V17.5517ZM8.12849 17.5517V16.0517H6.62849V17.5517H8.12849ZM8.12849 93.9005H68.8629V90.9005H8.12849V93.9005ZM70.3629 92.4005V74.7576H67.3629V92.4005H70.3629ZM68.8629 73.2576H28.6584V76.2576H68.8629V73.2576ZM30.1584 74.7576V62.8887H27.1584V74.7576H30.1584ZM28.6584 64.3887H64.5858V61.3887H28.6584V64.3887ZM66.0858 62.8887V46.5289H63.0858V62.8887H66.0858ZM64.5858 45.0289H28.6584V48.0289H64.5858V45.0289ZM30.1584 46.5289V35.1947H27.1584V46.5289H30.1584ZM28.6584 36.6947H68.3283V33.6947H28.6584V36.6947ZM69.8283 35.1947V17.5517H66.8283V35.1947H69.8283ZM68.3283 16.0517H8.12849V19.0517H68.3283V16.0517ZM6.62849 17.5517V92.4005H9.62849V17.5517H6.62849ZM79.4478 92.4005H77.9478V93.9005H79.4478V92.4005ZM99.9778 92.4005V93.9005H101.478V92.4005H99.9778ZM99.9778 51.3406L101.161 50.4191L98.4778 46.9727V51.3406H99.9778ZM131.949 92.4005L130.765 93.3221L131.216 93.9005H131.949V92.4005ZM150.126 92.4005V93.9005H151.626V92.4005H150.126ZM150.126 17.5517H151.626V16.0517H150.126V17.5517ZM129.596 17.5517V16.0517H128.097V17.5517H129.596ZM129.596 57.1147L128.413 58.036L131.096 61.4838V57.1147H129.596ZM98.8016 17.5517L99.9853 16.6304L99.5349 16.0517H98.8016V17.5517ZM79.4478 17.5517V16.0517H77.9478V17.5517H79.4478ZM79.4478 93.9005H99.9778V90.9005H79.4478V93.9005ZM101.478 92.4005V51.3406H98.4778V92.4005H101.478ZM98.7942 52.2622L130.765 93.3221L133.132 91.479L101.161 50.4191L98.7942 52.2622ZM131.949 93.9005H150.126V90.9005H131.949V93.9005ZM151.626 92.4005V17.5517H148.626V92.4005H151.626ZM150.126 16.0517H129.596V19.0517H150.126V16.0517ZM128.097 17.5517V57.1147H131.096V17.5517H128.097ZM130.78 56.1933L99.9853 16.6304L97.6179 18.4731L128.413 58.036L130.78 56.1933ZM98.8016 16.0517H79.4478V19.0517H98.8016V16.0517ZM77.9478 17.5517V92.4005H80.9478V17.5517H77.9478ZM163.402 92.4005H161.902V93.9005H163.402V92.4005ZM224.137 92.4005V93.9005H225.637V92.4005H224.137ZM224.137 74.7576H225.637V73.2576H224.137V74.7576ZM183.932 74.7576H182.432V76.2576H183.932V74.7576ZM183.932 62.8887V61.3887H182.432V62.8887H183.932ZM219.859 62.8887V64.3887H221.359V62.8887H219.859ZM219.859 46.5289H221.359V45.0289H219.859V46.5289ZM183.932 46.5289H182.432V48.0289H183.932V46.5289ZM183.932 35.1947V33.6947H182.432V35.1947H183.932ZM223.602 35.1947V36.6947H225.102V35.1947H223.602ZM223.602 17.5517H225.102V16.0517H223.602V17.5517ZM163.402 17.5517V16.0517H161.902V17.5517H163.402ZM163.402 93.9005H224.137V90.9005H163.402V93.9005ZM225.637 92.4005V74.7576H222.637V92.4005H225.637ZM224.137 73.2576H183.932V76.2576H224.137V73.2576ZM185.432 74.7576V62.8887H182.432V74.7576H185.432ZM183.932 64.3887H219.859V61.3887H183.932V64.3887ZM221.359 62.8887V46.5289H218.359V62.8887H221.359ZM219.859 45.0289H183.932V48.0289H219.859V45.0289ZM185.432 46.5289V35.1947H182.432V46.5289H185.432ZM183.932 36.6947H223.602V33.6947H183.932V36.6947ZM225.102 35.1947V17.5517H222.102V35.1947H225.102ZM223.602 16.0517H163.402V19.0517H223.602V16.0517ZM161.902 17.5517V92.4005H164.902V17.5517H161.902ZM234.721 92.4005H233.221V93.9005H234.721V92.4005ZM255.465 92.4005V93.9005H256.965V92.4005H255.465ZM255.465 69.732V68.232H253.965V69.732H255.465ZM264.554 69.732L265.803 68.9013L265.358 68.232H264.554V69.732ZM279.631 92.4005L278.382 93.2312L278.827 93.9005H279.631V92.4005ZM303.582 92.4005V93.9005H306.427L304.82 91.5533L303.582 92.4005ZM285.725 66.3104L285.138 64.93L283.454 65.6466L284.488 67.1576L285.725 66.3104ZM294.493 25.6782L293.422 26.7276L293.434 26.7399L293.446 26.7519L294.493 25.6782ZM234.721 17.5517V16.0517H233.221V17.5517H234.721ZM255.465 53.4792H253.965V54.9792H255.465V53.4792ZM255.465 35.5155V34.0155H253.965V35.5155H255.465ZM234.721 93.9005H255.465V90.9005H234.721V93.9005ZM256.965 92.4005V69.732H253.965V92.4005H256.965ZM255.465 71.232H264.34V68.232H255.465V71.232ZM264.34 71.232H264.554V68.232H264.34V71.232ZM263.305 70.5627L278.382 93.2312L280.88 91.5698L265.803 68.9013L263.305 70.5627ZM279.631 93.9005H303.582V90.9005H279.631V93.9005ZM304.82 91.5533L286.963 65.4632L284.488 67.1576L302.344 93.2477L304.82 91.5533ZM286.313 67.6907C296.105 63.5261 302.623 55.4301 302.623 43.3211H299.623C299.623 54.0944 293.951 61.1821 285.138 64.93L286.313 67.6907ZM302.623 43.3211V43.1073H299.623V43.3211H302.623ZM302.623 43.1073C302.623 35.4008 300.264 29.2127 295.541 24.6045L293.446 26.7519C297.491 30.6978 299.623 36.0578 299.623 43.1073H302.623ZM295.565 24.6287C290.165 19.1135 281.804 16.0517 270.114 16.0517V19.0517C281.307 19.0517 288.771 21.9779 293.422 26.7276L295.565 24.6287ZM270.114 16.0517H234.721V19.0517H270.114V16.0517ZM233.221 17.5517V92.4005H236.221V17.5517H233.221ZM256.965 53.4792V35.5155H253.965V53.4792H256.965ZM255.465 37.0155H269.045V34.0155H255.465V37.0155ZM269.045 37.0155C272.335 37.0155 274.772 37.7283 276.353 38.9386C277.873 40.1021 278.772 41.8537 278.772 44.3904H281.772C281.772 41.0461 280.533 38.3602 278.177 36.5565C275.882 34.7995 272.705 34.0155 269.045 34.0155V37.0155ZM278.772 44.3904V44.6042H281.772V44.3904H278.772ZM278.772 44.6042C278.772 46.9255 277.926 48.6971 276.414 49.921C274.864 51.1764 272.457 51.9792 269.152 51.9792V54.9792C272.903 54.9792 276.057 54.0711 278.303 52.2523C280.587 50.402 281.772 47.7362 281.772 44.6042H278.772ZM269.152 51.9792H255.465V54.9792H269.152V51.9792ZM349.213 95.3975C373.103 95.3975 391.132 77.3311 391.132 54.9761H388.132C388.132 75.6057 371.516 92.3975 349.213 92.3975V95.3975ZM391.132 54.9761V54.7623H388.132V54.9761H391.132ZM391.132 54.7623C391.132 32.4071 373.317 14.5548 349.427 14.5548V17.5548C371.73 17.5548 388.132 34.1329 388.132 54.7623H391.132ZM349.427 14.5548C325.537 14.5548 307.509 32.6212 307.509 54.9761H310.509C310.509 34.3465 327.125 17.5548 349.427 17.5548V14.5548ZM307.509 54.9761V55.19H310.509V54.9761H307.509ZM307.509 55.19C307.509 77.5452 325.324 95.3975 349.213 95.3975V92.3975C326.911 92.3975 310.509 75.8193 310.509 55.19H307.509ZM349.427 73.6853C339.052 73.6853 331.787 65.084 331.787 54.9761H328.787C328.787 66.4675 337.134 76.6853 349.427 76.6853V73.6853ZM331.787 54.9761V54.7623H328.787V54.9761H331.787ZM331.787 54.7623C331.787 44.6523 338.84 36.267 349.213 36.267V33.267C336.918 33.267 328.787 43.2731 328.787 54.7623H331.787ZM349.213 36.267C359.701 36.267 366.96 44.8741 366.96 54.9761H369.96C369.96 43.4789 361.608 33.267 349.213 33.267V36.267ZM366.96 54.9761V55.19H369.96V54.9761H366.96ZM366.96 55.19C366.96 65.2941 359.913 73.6853 349.427 73.6853V76.6853C361.824 76.6853 369.96 66.6851 369.96 55.19H366.96Z" fill="black"/>
</g>
<defs>
<clipPath id="clip0_2235_1656">
<rect width="395" height="115" fill="white"/>
</clipPath>
</defs>
</svg>
