<svg width="65" height="65" viewBox="0 0 65 65" fill="none" xmlns="http://www.w3.org/2000/svg">
<path d="M63.6173 11.5232C62.5315 8.02941 60.6104 5.19477 57.6031 3.2391C54.3873 1.17357 50.8793 0.382518 47.1412 0.756073C42.4009 1.23949 38.7048 3.6566 35.8229 7.56796C34.4237 9.47966 33.2962 11.5672 32.7531 13.9403C32.6698 14.27 32.5234 14.1161 32.4817 13.9844C31.7926 11.6331 30.8112 9.50163 29.3912 7.56796C26.5092 3.6566 22.8131 1.23949 18.0729 0.756073C14.3348 0.382518 10.8266 1.17357 7.61075 3.2391C4.60369 5.1728 2.66164 8.00743 1.59664 11.5232C0.82397 13.9844 0.510747 16.5333 0.740441 19.1261C0.907497 21.0158 1.42958 22.8617 2.16047 24.6197C4.26958 29.7614 7.44372 34.1561 10.8267 38.4192C13.7501 42.1108 27.5743 58.9208 31.542 63.7989C31.5837 63.8428 31.6048 63.8867 31.6465 63.9308C31.7301 64.0186 31.7926 64.1286 31.8762 64.2164C32.1892 64.5019 32.7531 64.8097 33.3798 64.2164C33.484 64.0844 33.5884 63.9528 33.7137 63.7989C37.7023 58.9208 51.4848 42.1108 54.4081 38.4192C57.7912 34.1561 60.9654 29.7614 63.0745 24.6197C63.7845 22.8617 64.3273 21.0378 64.4945 19.1261C64.7034 16.5333 64.3693 13.9844 63.6173 11.5232Z" fill="#202230"/>
</svg>
