<svg width="37" height="26" viewBox="0 0 37 26" fill="none" xmlns="http://www.w3.org/2000/svg">
<path d="M35.69 4.22021C35.4857 3.46041 35.0853 2.76729 34.5289 2.21094C33.9726 1.65459 33.2798 1.25412 32.52 1.0498C29.71 0.299805 18.47 0.299805 18.47 0.299805C18.47 0.299805 7.22997 0.299805 4.46997 1.0498C3.70832 1.25259 3.01347 1.65253 2.45526 2.20898C1.89705 2.76544 1.49516 3.4592 1.28998 4.22021C0.539978 7.01021 0.539978 12.8398 0.539978 12.8398C0.539978 12.8398 0.539978 18.67 1.28998 21.46C1.49516 22.221 1.89705 22.9147 2.45526 23.4712C3.01347 24.0276 3.70832 24.4271 4.46997 24.6299C7.26997 25.3799 18.47 25.3799 18.47 25.3799C18.47 25.3799 29.71 25.3799 32.52 24.6299C33.2798 24.4256 33.9726 24.0251 34.5289 23.4688C35.0853 22.9124 35.4857 22.2198 35.69 21.46C36.44 18.67 36.44 12.8398 36.44 12.8398C36.44 12.8398 36.44 6.98022 35.69 4.22021ZM14.88 18.2202V7.47998L24.21 12.8501L14.88 18.2202Z" fill="#FF7065"/>
</svg>
