<svg width="64" height="105" viewBox="0 0 64 105" fill="none" xmlns="http://www.w3.org/2000/svg">
<path d="M43.6 99.64C43.0685 97.2282 42.8533 94.7574 42.96 92.29C43.0372 87.9595 43.6417 83.6544 44.76 79.47C45.76 78.47 46.15 77.89 46.05 77.54C46.0315 77.4673 45.9907 77.4021 45.9333 77.3537C45.8759 77.3053 45.8049 77.276 45.73 77.27H45.65C45.46 77.27 45.15 77.42 44.65 78.73C44.59 78.91 44.52 79.1 44.46 79.31C43.93 79.84 43.35 80.37 43.01 80.68L42.54 81.11C39.78 83.7 36.66 86.11 32.62 86.11C32.1449 86.1116 31.6703 86.0781 31.2 86.01C28.45 85.64 25.04 83.65 22.67 82.01C20.886 80.8567 19.2122 79.5411 17.67 78.08C16.4125 76.8678 15.2616 75.5496 14.23 74.14C12.1099 71.4251 10.639 68.261 9.93002 64.89C9.78002 63.89 9.61003 62.89 9.44003 61.94C8.54997 57.4353 8.01169 52.8682 7.83005 48.28C8.25689 48.4143 8.70265 48.4784 9.15002 48.47C10.5323 48.4826 11.8916 48.116 13.08 47.41C13.6859 48.3162 14.495 49.0683 15.443 49.6065C16.3909 50.1447 17.4514 50.4541 18.54 50.51C19.9115 50.4984 21.2573 50.137 22.45 49.46C22.9256 49.1615 23.4621 48.9735 24.0201 48.91C24.3045 48.9188 24.5812 49.0053 24.82 49.16C24.8905 49.35 24.9506 49.5436 25 49.74L25.07 50.03L25.2701 49.81C25.8013 49.1392 26.0618 48.2935 26 47.44C25.9836 46.4565 25.6543 45.5038 25.06 44.72C23.9817 43.7443 22.7112 43.0052 21.33 42.55C19.5542 41.836 17.6636 41.4498 15.75 41.41C15.4636 41.3944 15.1765 41.3944 14.89 41.41C13.2576 41.4401 11.664 41.9136 10.28 42.78C10.8149 41.9875 11.5125 41.3181 12.3264 40.8163C13.1403 40.3146 14.0517 39.992 15 39.87C15.5162 39.7915 16.0379 39.7547 16.56 39.76C18.577 39.8152 20.5735 40.1794 22.48 40.84C26.96 42.27 29.07 45.43 28.91 50.5C28.91 55.3 28.47 58.88 27.57 60.32C27.1 61.07 26.75 62.95 27.57 63.65C27.752 63.823 27.9894 63.9258 28.2401 63.94C28.3921 63.9216 28.5385 63.8711 28.6695 63.7918C28.8006 63.7125 28.9132 63.6062 29 63.48C29.24 63.22 29.39 63.08 29.62 63.17C29.8832 63.2977 30.1286 63.459 30.35 63.65C30.7863 64.0692 31.3487 64.3328 31.95 64.4C32.4636 64.3736 32.9487 64.156 33.31 63.79C33.553 63.5205 33.8887 63.3527 34.25 63.32C34.53 63.32 34.83 63.54 35.25 63.99C34.6536 64.0445 34.0762 64.2285 33.558 64.529C33.0399 64.8295 32.5935 65.2394 32.25 65.73C32.0325 66.2657 31.9359 66.8428 31.967 67.4201C31.9981 67.9975 32.1562 68.5608 32.43 69.07C32.43 69.2 32.52 69.3 32.54 69.37L32.61 69.6L32.82 69.42C33.5759 68.9626 34.437 68.7077 35.32 68.68C36.3733 68.7524 37.3898 69.097 38.2701 69.68C38.9245 70.0654 39.6228 70.3709 40.35 70.59C39.68 70.75 38.97 70.97 38.23 71.21C36.4396 71.8638 34.563 72.2513 32.66 72.36C32.6871 72.2147 32.7038 72.0677 32.71 71.92C32.7975 71.4655 32.7939 70.9981 32.6995 70.5449C32.6051 70.0918 32.4217 69.6618 32.16 69.28C31.9205 69.0548 31.6369 68.8817 31.3271 68.7715C31.0173 68.6614 30.688 68.6166 30.36 68.64C29.1346 68.6882 27.931 68.9805 26.82 69.5C25.8688 69.9317 24.8571 70.215 23.82 70.34L22.34 70.46L23.81 70.65C25.1974 70.8759 26.5649 71.2102 27.9 71.65C29.3011 72.1569 30.7584 72.4927 32.2401 72.65C32.1777 72.9453 32.0452 73.2212 31.8537 73.4544C31.6623 73.6876 31.4175 73.8713 31.14 73.99C30.8227 74.1184 30.4822 74.1797 30.14 74.17C28.1319 73.9524 26.2533 73.0729 24.8 71.67L23.67 70.67L24.57 71.88C25.5523 73.1907 26.7253 74.3469 28.05 75.31C29.2958 76.3181 30.8214 76.9186 32.42 77.03C35.54 77.03 37.92 74.53 40.0201 72.33L41.09 71.23L40.86 71.01C40.51 71.36 40.16 71.73 39.79 72.12C37.74 74.28 35.41 76.72 32.41 76.72C30.85 76.72 28.28 75.72 25.7 72.78C26.9952 73.7586 28.5421 74.3482 30.16 74.48C30.5296 74.484 30.8964 74.4161 31.2401 74.28C31.5729 74.1372 31.8655 73.9148 32.0922 73.6323C32.3189 73.3498 32.4727 73.0159 32.54 72.66H32.64C34.5697 72.5498 36.473 72.159 38.29 71.5C39.2464 71.1691 40.2257 70.9084 41.22 70.72L42.65 70.51L41.21 70.41C40.2077 70.2892 39.2446 69.9477 38.39 69.41C37.4593 68.817 36.3919 68.4727 35.29 68.41C34.393 68.4316 33.5159 68.6792 32.7401 69.13V69.03C32.4846 68.5639 32.3343 68.0476 32.2997 67.5172C32.2652 66.9868 32.3472 66.4553 32.54 65.96C32.8941 65.4775 33.3519 65.0805 33.8798 64.7984C34.4077 64.5163 34.9921 64.3562 35.59 64.33L35.87 64.28L35.68 64.07C35.19 63.5 34.76 63.07 34.28 63.07C34.058 63.0782 33.84 63.1312 33.6389 63.2257C33.4379 63.3202 33.258 63.4543 33.11 63.62C32.8041 63.9309 32.3951 64.1194 31.96 64.15C31.43 64.081 30.9377 63.8383 30.56 63.46C30.3107 63.2487 30.0351 63.0706 29.7401 62.93C29.6573 62.9156 29.5728 62.9156 29.4901 62.93C29.347 62.9478 29.2094 62.9964 29.0869 63.0724C28.9643 63.1483 28.8597 63.2498 28.78 63.37C28.6 63.56 28.4501 63.73 28.2401 63.73C28.0674 63.7068 27.9065 63.6298 27.78 63.51C27.1 62.95 27.4 61.25 27.78 60.59C28.33 59.71 29.24 57.24 29.16 50.59C29.32 45.37 27.16 42.11 22.5201 40.64C20.5881 39.9687 18.5645 39.5978 16.5201 39.54C15.9882 39.5401 15.4569 39.5768 14.93 39.65C10.09 40.35 9.52004 43.99 9.51004 44.02V44.21L9.61005 44.05C10.39 42.78 12.12 42.05 14.91 41.81C15.19 41.81 15.47 41.81 15.76 41.81C19.76 41.81 24.11 44.08 24.81 45C25.3003 45.6232 25.6 46.3749 25.6727 47.1644C25.7454 47.954 25.5882 48.7478 25.22 49.45C25.1844 49.3274 25.141 49.2071 25.09 49.09C24.95 47.34 23.45 45.76 21.19 44.98C20.194 44.65 19.1492 44.4911 18.1 44.51C16.8516 44.5017 15.6108 44.7045 14.43 45.11C13.8903 45.3155 13.3767 45.584 12.9 45.91C12.2341 46.4204 11.436 46.7292 10.6 46.8H10.0201L10.53 47.07C10.8383 47.2329 11.1814 47.3186 11.53 47.32C12.2339 47.2688 12.9174 47.0603 13.53 46.71C13.8529 46.5436 14.1871 46.3999 14.53 46.28C15.9043 45.8098 17.3476 45.5732 18.8 45.58C20.2153 45.567 21.6043 45.9628 22.8 46.72C23.5775 47.2176 24.2144 47.9062 24.65 48.72C24.4579 48.6489 24.2549 48.6117 24.05 48.61C23.4433 48.6705 22.8584 48.8689 22.34 49.19C21.1878 49.836 19.8909 50.18 18.57 50.19C17.5252 50.1303 16.5086 49.8282 15.6009 49.3075C14.6931 48.7867 13.919 48.0618 13.34 47.19C13.27 47.09 13.25 47.07 13.22 47.05L13.12 46.99L13.03 47.07C11.879 47.7967 10.5411 48.172 9.18002 48.15C8.69713 48.175 8.21493 48.0895 7.77005 47.9L7.54004 47.79V48.05C7.70499 52.7326 8.24673 57.3944 9.16003 61.99C9.33003 62.99 9.50002 63.99 9.65002 64.94C10.3689 68.3614 11.8602 71.5732 14.01 74.33C15.0497 75.7576 16.2071 77.0956 17.47 78.33C19.03 79.8163 20.7238 81.1553 22.53 82.33C24.93 83.95 28.39 85.96 31.19 86.33C31.6776 86.3925 32.1685 86.4259 32.66 86.43C36.81 86.43 39.99 83.98 42.8 81.35L43.2701 80.91L44.33 79.91C43.3097 83.954 42.7494 88.1003 42.66 92.27C42.5543 94.7682 42.7762 97.2695 43.32 99.71C43.91 102.04 44.88 103.57 46.21 104.25L46.35 103.96C45.12 103.34 44.2 101.89 43.6 99.64ZM44.9901 78.78C45.4201 77.6 45.65 77.57 45.66 77.57C45.67 77.57 45.75 77.62 45.75 77.63C45.75 77.64 45.7001 78.04 45.0201 78.78H44.9901ZM22.9901 46.41C21.746 45.6138 20.297 45.1969 18.82 45.21C17.337 45.2091 15.864 45.4524 14.46 45.93C14.1191 46.0626 13.7853 46.2128 13.46 46.38C12.9068 46.7044 12.2887 46.9025 11.65 46.96C11.567 46.9705 11.483 46.9705 11.4 46.96C12.0335 46.7828 12.6321 46.4987 13.17 46.12C13.6287 45.8106 14.1179 45.5492 14.63 45.34C15.7795 44.9504 16.9864 44.7577 18.2 44.77C19.2174 44.7512 20.2309 44.8999 21.2 45.21C22.6005 45.627 23.7905 46.5598 24.53 47.82C24.1034 47.2597 23.5782 46.7819 22.98 46.41H22.9901ZM32.46 71.94C32.46 72.1 32.46 72.25 32.41 72.39C30.9375 72.2366 29.4897 71.9007 28.1 71.39C27.05 71.07 25.98 70.74 24.9 70.52C25.6148 70.3334 26.3163 70.0996 27 69.82C28.0677 69.3109 29.228 69.025 30.41 68.98C30.6949 68.9556 30.9818 68.991 31.2521 69.084C31.5225 69.177 31.7705 69.3255 31.98 69.52C32.2165 69.8713 32.38 70.2666 32.4608 70.6823C32.5415 71.098 32.5379 71.5257 32.45 71.94H32.46Z" fill="black"/>
<path d="M58.4 45.44C58.2015 45.3516 57.985 45.311 57.7679 45.3214C57.5508 45.3318 57.3392 45.393 57.15 45.5C56.2615 46.0273 55.5991 46.8642 55.29 47.85C54.5917 48.0135 53.8772 48.0974 53.16 48.1C52.6074 48.1481 52.0507 48.0843 51.5232 47.9125C50.9958 47.7407 50.5083 47.4644 50.09 47.1L50 47.02L49.89 47.08C49.89 47.08 49.89 47.08 49.77 47.22C49.1916 48.0923 48.4177 48.8177 47.5098 49.3385C46.6019 49.8593 45.585 50.1611 44.54 50.22C43.2194 50.2083 41.9229 49.8644 40.77 49.22C40.2517 48.8989 39.6668 48.7005 39.06 48.64C38.8552 48.6425 38.6523 48.6797 38.46 48.75C38.8956 47.9362 39.5325 47.2476 40.31 46.75C41.5058 45.9928 42.8947 45.597 44.31 45.61C45.7591 45.6043 47.199 45.8409 48.57 46.31C48.9121 46.4321 49.2461 46.5757 49.57 46.74C50.1665 47.086 50.8327 47.2944 51.52 47.35C51.869 47.3511 52.2126 47.2652 52.52 47.1L53.03 46.83H52.46C51.6206 46.7611 50.8187 46.4522 50.15 45.94C49.6757 45.616 49.1657 45.3476 48.63 45.14C47.4458 44.7345 46.2017 44.5317 44.95 44.54C43.9009 44.5211 42.8561 44.68 41.86 45.01C39.6 45.79 38.11 47.37 37.96 49.12C37.9124 49.2374 37.8724 49.3576 37.84 49.48C37.15 48.41 37.32 46.48 38.25 45.01C39.2277 43.9208 40.4983 43.1362 41.91 42.75C43.5659 42.1547 45.3105 41.8437 47.07 41.83C47.44 41.83 47.8 41.83 48.14 41.88C49.76 42.02 53.14 42.73 54.14 44.46L54.6 45.2L54.43 44.35C54.2516 43.6141 53.9138 42.9263 53.4403 42.3354C52.9668 41.7444 52.3693 41.2646 51.69 40.93C49.7811 39.9435 47.6586 39.4421 45.51 39.47C44.2877 39.4509 43.0709 39.6368 41.91 40.02C41.41 40.2 40.91 40.4 40.43 40.6C38.9808 41.3108 37.4021 41.7191 35.79 41.8H35.68C32.7953 41.7693 29.9713 40.9683 27.5 39.48C24.9828 37.9947 22.849 35.9397 21.27 33.48C20.7926 32.74 20.4159 31.9396 20.15 31.1C21.15 29.91 21.49 28.83 21.07 27.89C20.85 27.39 20.57 27.29 20.37 27.29H20.26C20.0173 27.396 19.8111 27.5709 19.667 27.7932C19.523 28.0155 19.4475 28.2752 19.45 28.54C19.4406 29.3731 19.5586 30.2027 19.8 31C18.9638 31.8652 18.0271 32.6272 17.01 33.27C15.7227 34.0633 14.3868 34.7747 13.01 35.4C10.72 36.48 8.57003 37.51 7.27004 39.25C5.83004 41.19 5.65002 43.76 6.72002 47.33C6.94002 48.04 6.24002 50 5.35002 52.48C3.80002 56.78 1.47003 63.27 1.61003 69.65C1.62359 72.9091 2.47041 76.1105 4.07002 78.95C6.11343 82.2814 9.07543 84.9517 12.6 86.64L12.75 86.36C9.28013 84.6973 6.36355 82.0689 4.35002 78.79C2.77542 75.9967 1.94228 72.8466 1.93001 69.64C1.79001 63.33 4.11001 56.86 5.65001 52.58C6.60001 49.95 7.28002 48.05 7.04002 47.24C6.04002 43.77 6.16002 41.29 7.54002 39.44C8.78002 37.76 10.91 36.75 13.16 35.68C14.5385 35.0507 15.8746 34.3325 17.16 33.53C18.1512 32.9113 19.0673 32.1797 19.89 31.35C20.1589 32.1549 20.5249 32.9239 20.98 33.64C22.5865 36.1392 24.7583 38.2254 27.32 39.73C29.8365 41.2455 32.7126 42.0603 35.65 42.09H35.77C37.4222 42.0052 39.0407 41.5904 40.53 40.87C41 40.68 41.53 40.48 42 40.3C43.1237 39.9208 44.3043 39.7382 45.49 39.76C47.576 39.7362 49.636 40.2237 51.49 41.18C52.5315 41.7153 53.3627 42.5853 53.85 43.65C52.41 42.26 49.59 41.65 48.11 41.55C47.7403 41.5299 47.3697 41.5299 47 41.55C43.05 41.55 38.87 43.34 37.92 44.88C36.84 46.64 36.75 48.88 37.73 49.96L37.92 50.18L38 49.89C38.0448 49.6923 38.105 49.4984 38.18 49.31C38.4182 49.1539 38.6953 49.0673 38.98 49.06C39.5347 49.124 40.0679 49.312 40.54 49.61C41.7328 50.287 43.0786 50.6484 44.45 50.66C45.536 50.6037 46.594 50.2951 47.54 49.7588C48.486 49.2224 49.294 48.473 49.9 47.57C50.8614 48.3155 52.0678 48.6724 53.28 48.57C53.9852 48.5502 54.6861 48.453 55.37 48.28H55.46V48.18C55.7347 47.248 56.3483 46.4525 57.18 45.95C57.3285 45.8575 57.4978 45.8036 57.6724 45.7931C57.847 45.7826 58.0215 45.8159 58.18 45.89C59.6 46.56 58.78 49.27 58.68 49.58C58.58 49.89 58.49 50.17 58.4 50.45C57.9813 51.5493 57.6927 52.6937 57.54 53.86C57.54 54.17 57.54 54.46 57.47 54.74C57.492 55.7955 57.2146 56.8356 56.67 57.74C56.5133 57.5742 56.3241 57.4424 56.1142 57.3529C55.9043 57.2634 55.6782 57.2182 55.45 57.22C55.2323 57.2233 55.0164 57.2604 54.81 57.33C54.3858 57.4706 54.0147 57.7375 53.7466 58.095C53.4785 58.4525 53.3261 58.8835 53.31 59.33C53.3107 59.6394 53.3729 59.9454 53.4931 60.2304C53.6133 60.5154 53.789 60.7736 54.01 60.99V61.05C54.1387 61.9106 54.3463 62.7575 54.63 63.58C53.1904 66.2261 52.4052 69.1784 52.34 72.19C52.34 78.07 53.9 78.94 54.83 78.94C55.76 78.94 57.32 78.07 57.32 72.19C57.2202 69.4479 56.5885 66.7512 55.46 64.25L55.15 63.56V64.19C55.12 64.7266 54.9697 65.2495 54.71 65.72C54.4544 66.1124 54.3029 66.5634 54.2697 67.0305C54.2364 67.4975 54.3226 67.9654 54.52 68.39C54.64 68.62 54.77 68.84 54.88 69.04C55.1909 69.4128 55.3913 69.8651 55.4585 70.3458C55.5256 70.8265 55.4569 71.3164 55.26 71.76C55.1 72.12 54.93 72.45 54.76 72.76C54.3236 73.3144 54.0716 73.9914 54.0393 74.6961C54.007 75.4009 54.1961 76.0981 54.58 76.69C54.8358 77.0652 54.9939 77.4983 55.04 77.95H55.35C55.3072 77.4433 55.1388 76.9553 54.86 76.53C54.6535 76.201 54.5047 75.8391 54.42 75.46C54.2985 74.5623 54.5199 73.6517 55.04 72.91C55.21 72.59 55.39 72.26 55.55 71.91C55.7641 71.4218 55.8409 70.8844 55.7721 70.3558C55.7034 69.8272 55.4918 69.3273 55.16 68.91C55.04 68.71 54.92 68.5 54.8 68.27C54.6267 67.8877 54.554 67.4674 54.589 67.049C54.624 66.6307 54.7655 66.2282 55 65.88C55.1643 65.5392 55.2982 65.1845 55.4 64.82C56.3634 67.1279 56.902 69.5907 56.99 72.09C56.99 76.18 56.2 78.53 54.82 78.53C53.44 78.53 52.65 76.18 52.65 72.09C52.7171 69.1097 53.4954 66.1886 54.92 63.57V63.51V63.42C54.672 62.6818 54.4781 61.9265 54.34 61.16C54.4694 61.2406 54.6068 61.3076 54.75 61.36C54.9374 61.4218 55.1328 61.4555 55.33 61.46C55.6273 61.4473 55.9175 61.3658 56.1778 61.2217C56.4381 61.0777 56.6614 60.8751 56.83 60.63C57.0974 60.304 57.2271 59.8866 57.1916 59.4665C57.1561 59.0464 56.9583 58.6566 56.64 58.38C56.3806 58.1413 56.0425 58.0061 55.69 58C55.2472 58.0143 54.8274 58.2008 54.52 58.52C54.2999 58.7687 54.1352 59.0614 54.0369 59.3787C53.9386 59.6959 53.909 60.0305 53.95 60.36C53.7185 60.0284 53.593 59.6344 53.59 59.23C53.6046 58.8485 53.7362 58.4808 53.967 58.1766C54.1977 57.8725 54.5165 57.6467 54.88 57.53C55.054 57.4711 55.2363 57.4407 55.42 57.44C55.635 57.4396 55.8471 57.4891 56.0397 57.5845C56.2323 57.68 56.4001 57.8188 56.53 57.99L56.66 58.16L56.78 57.99C57.4482 57.0019 57.7972 55.8327 57.78 54.64C57.78 54.38 57.78 54.08 57.84 53.77C57.9956 52.629 58.2774 51.5089 58.68 50.43C58.77 50.15 58.87 49.85 58.96 49.56C59.1829 48.8788 59.2976 48.1668 59.3 47.45C59.3632 47.0637 59.3116 46.6673 59.1516 46.31C58.9916 45.9527 58.7303 45.6502 58.4 45.44ZM40.14 46.44C39.5713 46.8159 39.0708 47.286 38.66 47.83C39.3995 46.5698 40.5896 45.637 41.99 45.22C42.9593 44.9106 43.9727 44.762 44.99 44.78C46.2036 44.7677 47.4106 44.9604 48.56 45.35C49.0732 45.5571 49.5626 45.8186 50.02 46.13C50.5604 46.5108 51.1626 46.795 51.8 46.97C51.717 46.9799 51.6331 46.9799 51.55 46.97C50.9081 46.9126 50.2868 46.7146 49.73 46.39C49.4057 46.2208 49.0718 46.0705 48.73 45.94C47.3257 45.4639 45.8529 45.2207 44.37 45.22C42.8737 45.1921 41.4023 45.6061 40.14 46.41V46.44ZM20.09 30.65C19.8999 29.9425 19.8057 29.2126 19.81 28.48C19.81 28.09 20.11 27.59 20.38 27.54H20.43C20.61 27.54 20.75 27.77 20.83 27.96C21.18 28.69 20.93 29.6 20.09 30.62V30.65ZM54.85 58.72C54.9675 58.5921 55.1095 58.489 55.2675 58.4169C55.4255 58.3448 55.5964 58.305 55.77 58.3C56.0554 58.2992 56.3304 58.4064 56.54 58.6C56.797 58.8242 56.9564 59.1397 56.9844 59.4796C57.0124 59.8194 56.9068 60.1568 56.69 60.42C56.515 60.7046 56.2483 60.921 55.9339 61.0337C55.6194 61.1464 55.2759 61.1486 54.96 61.04C54.756 60.967 54.5665 60.8587 54.4 60.72C54.318 60.3696 54.3159 60.0052 54.3938 59.6538C54.4717 59.3024 54.6276 58.973 54.85 58.69V58.72Z" fill="black"/>
<path d="M61.31 20.19C61.0159 19.7795 60.642 19.4324 60.2108 19.1696C59.7795 18.9067 59.2997 18.7334 58.8 18.66C58.5941 18.6355 58.386 18.6355 58.18 18.66C58.1159 17.0661 57.7209 15.503 57.02 14.07C55.2877 10.4098 52.6642 7.24298 49.39 4.86002C47.4178 3.41503 45.2448 2.26621 42.94 1.45001C40.3138 0.538451 37.5596 0.0490301 34.78 0H34.29C29.43 0 25.35 1.54 22.81 4.34C21.5962 5.63855 20.7835 7.26032 20.47 9.01001C19.6809 8.57811 18.8075 8.32224 17.91 8.26001C17.6036 8.24433 17.2965 8.24433 16.99 8.26001C13.12 8.26001 8.82005 10.26 5.49005 13.58C2.44005 16.58 0.490033 21.76 0.0700334 27.68C-0.299967 33.29 0.810033 38.8 3.07003 42.42C4.04131 44.0006 4.69043 45.7576 4.98004 47.59C5.17004 48.5508 5.15974 49.5405 4.94982 50.4972C4.73991 51.4539 4.33488 52.357 3.76004 53.15L4.01004 53.34C4.61 52.5148 5.03333 51.5747 5.25357 50.5784C5.4738 49.5822 5.48622 48.5512 5.29003 47.55C4.98828 45.6695 4.30787 43.8698 3.29003 42.26C1.09003 38.69 2.11895e-05 33.26 0.370021 27.7C0.750021 21.86 2.69003 16.79 5.69003 13.8C8.97003 10.53 13.18 8.57001 16.97 8.57001C17.2674 8.57085 17.5645 8.58753 17.86 8.62C18.759 8.67128 19.6329 8.9352 20.41 9.39001C20.36 9.83194 20.36 10.2781 20.41 10.72C20.41 11.0446 20.5045 11.3622 20.6821 11.6339C20.8597 11.9057 21.1127 12.1198 21.41 12.25C21.5154 12.2825 21.6284 12.2806 21.7327 12.2447C21.8369 12.2087 21.9271 12.1405 21.99 12.05C22.28 11.65 22.06 10.84 21.41 9.89999C21.2322 9.63868 21.0086 9.41171 20.75 9.23001C21.0277 7.48976 21.8221 5.87314 23.03 4.59C25.6 1.77 29.78 0.250016 34.76 0.360016C37.5087 0.407048 40.2326 0.889702 42.83 1.79001C45.1036 2.59154 47.2466 3.72369 49.19 5.14999C52.4163 7.50309 55.0045 10.624 56.72 14.23C57.415 15.6459 57.8002 17.1936 57.85 18.77C57.1888 18.9889 56.5914 19.3666 56.11 19.87C55.9028 20.0495 55.7438 20.2781 55.6478 20.5349C55.5517 20.7917 55.5215 21.0685 55.56 21.34C55.5834 21.4397 55.6342 21.531 55.7066 21.6034C55.7791 21.6759 55.8703 21.7266 55.97 21.75C56.38 21.83 56.97 21.49 57.56 20.75C57.941 20.2529 58.1514 19.6462 58.16 19.02C58.3623 18.9904 58.5678 18.9904 58.77 19.02C59.2255 19.0853 59.6628 19.2433 60.0549 19.484C60.4471 19.7248 60.7857 20.0434 61.05 20.42C62.34 22.07 62.91 25.64 62.68 30.47C62.5 34.15 60.3 39.78 57.3 42.31L57.51 42.55C59.172 40.9981 60.4727 39.1 61.32 36.99C62.2491 34.9365 62.8142 32.7371 62.99 30.49C63.31 24.11 62.25 21.36 61.31 20.19ZM57.85 19.11C57.8283 19.6319 57.6468 20.1346 57.33 20.55C56.65 21.36 56.25 21.44 56.1 21.44H56.05C56.0049 21.4292 55.9638 21.4054 55.9319 21.3717C55.8999 21.338 55.8784 21.2957 55.87 21.25C55.8471 21.0344 55.878 20.8165 55.96 20.6158C56.0421 20.415 56.1726 20.2378 56.34 20.1C56.7544 19.6416 57.272 19.2885 57.85 19.07V19.11ZM21.16 10.11C21.79 11.03 21.91 11.68 21.75 11.91C21.7315 11.9381 21.7063 11.961 21.6766 11.9768C21.6469 11.9925 21.6137 12.0005 21.58 12H21.5C21.2 11.92 20.83 11.49 20.75 10.73C20.7148 10.3709 20.7148 10.0091 20.75 9.64999C20.9011 9.76019 21.0387 9.88773 21.16 10.03V10.11Z" fill="black"/>
<path d="M18.7301 49.7C18.3807 49.7026 18.0343 49.6364 17.7106 49.5051C17.3868 49.3739 17.0921 49.1801 16.8433 48.935C16.5944 48.6898 16.3963 48.3981 16.2602 48.0764C16.1241 47.7546 16.0527 47.4093 16.0501 47.0599C16.0484 46.4769 16.242 45.9101 16.6 45.45L16.79 45.5999C16.4609 46.0155 16.2812 46.5298 16.28 47.0599C16.2767 47.4439 16.3636 47.8234 16.5338 48.1676C16.7041 48.5118 16.9528 48.8112 17.2601 49.0416C17.5673 49.272 17.9243 49.4269 18.3024 49.4939C18.6806 49.5609 19.0692 49.5381 19.4368 49.4273C19.8045 49.3165 20.141 49.1208 20.4191 48.8561C20.6973 48.5913 20.9093 48.2649 21.0381 47.9031C21.1669 47.5413 21.2088 47.1543 21.1605 46.7734C21.1122 46.3924 20.975 46.0281 20.7601 45.7099L20.9501 45.58C21.2491 46.0156 21.4095 46.5315 21.41 47.0599C21.4074 47.4093 21.336 47.7546 21.1999 48.0764C21.0638 48.3981 20.8657 48.6898 20.6168 48.935C20.368 49.1801 20.0733 49.3739 19.7495 49.5051C19.4258 49.6364 19.0794 49.7026 18.7301 49.7Z" fill="black"/>
<path d="M18.73 48.5001C19.5419 48.5001 20.2 47.8419 20.2 47.0301C20.2 46.2182 19.5419 45.5601 18.73 45.5601C17.9182 45.5601 17.26 46.2182 17.26 47.0301C17.26 47.8419 17.9182 48.5001 18.73 48.5001Z" fill="black"/>
<path d="M20.29 47.3099C20.29 47.4088 20.2607 47.5055 20.2058 47.5877C20.1508 47.6699 20.0727 47.734 19.9814 47.7719C19.89 47.8097 19.7895 47.8196 19.6925 47.8003C19.5955 47.781 19.5064 47.7334 19.4365 47.6635C19.3666 47.5935 19.3189 47.5045 19.2996 47.4075C19.2804 47.3105 19.2902 47.2099 19.3281 47.1186C19.3659 47.0272 19.43 46.9491 19.5122 46.8942C19.5945 46.8392 19.6911 46.8099 19.79 46.8099C19.8561 46.8086 19.9217 46.8206 19.983 46.8452C20.0442 46.8698 20.0999 46.9066 20.1466 46.9534C20.1933 47.0001 20.2301 47.0557 20.2548 47.117C20.2794 47.1783 20.2914 47.2439 20.29 47.3099Z" fill="white"/>
<path d="M18.3799 46.62C18.3799 46.7287 18.3367 46.833 18.2599 46.9099C18.183 46.9868 18.0787 47.03 17.9699 47.03C17.862 47.0274 17.7592 46.9834 17.6828 46.9071C17.6065 46.8307 17.5625 46.7279 17.5599 46.62C17.5599 46.5112 17.6031 46.4069 17.68 46.33C17.7569 46.2532 17.8612 46.21 17.9699 46.21C18.0787 46.21 18.183 46.2532 18.2599 46.33C18.3367 46.4069 18.3799 46.5112 18.3799 46.62Z" fill="white"/>
<path d="M44 49.8199C43.3545 49.8206 42.7302 49.59 42.24 49.1699C41.9762 48.9434 41.76 48.6667 41.6038 48.356C41.4476 48.0454 41.3545 47.7068 41.33 47.3599C41.2896 46.778 41.4483 46.1997 41.78 45.7199L41.97 45.8499C41.6436 46.3348 41.5071 46.9228 41.5864 47.5019C41.6657 48.081 41.9553 48.6106 42.4 48.9899C42.8902 49.4104 43.5256 49.6222 44.17 49.5799C44.8131 49.5413 45.4146 49.2489 45.8421 48.7669C46.2696 48.285 46.4883 47.653 46.45 47.0099C46.4235 46.4922 46.2501 45.9927 45.95 45.5699L46.13 45.4199C46.4601 45.8842 46.6541 46.4314 46.69 46.9999C46.7283 47.7034 46.4871 48.3935 46.0188 48.9198C45.5505 49.4461 44.8932 49.7661 44.19 49.8099L44 49.8199Z" fill="black"/>
<path d="M45.4801 46.9801C45.4971 47.2697 45.4281 47.5578 45.2818 47.8082C45.1354 48.0586 44.9183 48.2602 44.6576 48.3874C44.397 48.5147 44.1045 48.562 43.8171 48.5234C43.5296 48.4849 43.2599 48.3621 43.0421 48.1706C42.8242 47.9791 42.6679 47.7275 42.5928 47.4473C42.5176 47.1672 42.5271 46.8711 42.6199 46.5963C42.7126 46.3215 42.8847 46.0802 43.1142 45.903C43.3438 45.7257 43.6207 45.6203 43.91 45.6001C44.3011 45.5754 44.686 45.7069 44.9803 45.9656C45.2746 46.2243 45.4544 46.5891 45.4801 46.9801Z" fill="black"/>
<path d="M45.6 47.25C45.6054 47.3152 45.5978 47.3808 45.5775 47.4429C45.5572 47.5051 45.5246 47.5626 45.4818 47.612C45.4389 47.6614 45.3865 47.7017 45.3279 47.7305C45.2692 47.7594 45.2053 47.7762 45.14 47.78C45.0743 47.7846 45.0084 47.7762 44.946 47.7553C44.8836 47.7344 44.8259 47.7015 44.7762 47.6583C44.7265 47.6151 44.6858 47.5626 44.6564 47.5037C44.6271 47.4448 44.6096 47.3806 44.605 47.315C44.6004 47.2493 44.6088 47.1834 44.6296 47.121C44.6505 47.0586 44.6835 47.0009 44.7267 46.9512C44.7699 46.9015 44.8224 46.8608 44.8813 46.8314C44.9402 46.8021 45.0043 46.7846 45.07 46.78C45.136 46.7745 45.2024 46.7825 45.2652 46.8034C45.328 46.8243 45.3859 46.8578 45.4354 46.9017C45.485 46.9456 45.5251 46.9991 45.5533 47.059C45.5816 47.1189 45.5975 47.1838 45.6 47.25Z" fill="white"/>
<path d="M43.6 46.69C43.6056 46.7982 43.5692 46.9044 43.4984 46.9864C43.4276 47.0684 43.3278 47.1198 43.22 47.13C43.1128 47.1355 43.0078 47.0988 42.9274 47.0278C42.8471 46.9567 42.7977 46.857 42.79 46.75C42.7859 46.6961 42.7925 46.642 42.8094 46.5907C42.8263 46.5393 42.8532 46.4919 42.8885 46.451C42.9238 46.4101 42.9669 46.3766 43.0152 46.3524C43.0635 46.3282 43.1161 46.3138 43.17 46.31C43.2765 46.307 43.3802 46.3446 43.46 46.4151C43.5398 46.4857 43.5899 46.5839 43.6 46.69Z" fill="white"/>
</svg>
