<svg width="64" height="105" viewBox="0 0 64 105" fill="none" xmlns="http://www.w3.org/2000/svg">
<path d="M43.6299 99.6401C43.0945 97.2288 42.8759 94.7579 42.9799 92.2901C43.0596 87.959 43.6674 83.6539 44.7899 79.4701C45.7899 78.4701 46.1699 77.8901 46.0799 77.5401C46.0582 77.4672 46.0152 77.4026 45.9564 77.3544C45.8975 77.3063 45.8256 77.2769 45.7499 77.2701H45.6799C45.4799 77.2701 45.1699 77.4201 44.6799 78.7301L44.4899 79.3101C43.9699 79.8401 43.3899 80.3701 43.0399 80.6801L42.5799 81.1101C39.8099 83.7001 36.6999 86.1101 32.6499 86.1101C32.1748 86.1109 31.7002 86.0775 31.2299 86.0101C28.4899 85.6401 25.0799 83.6501 22.6999 82.0101C20.9158 80.8567 19.2421 79.5411 17.6999 78.0801C16.4506 76.8629 15.3034 75.5451 14.2699 74.1401C12.1421 71.4298 10.6704 68.2639 9.96991 64.8901C9.80991 63.8901 9.63992 62.8901 9.47992 61.9401C8.58661 57.4356 8.04499 52.8685 7.85992 48.2801C8.29023 48.4142 8.7393 48.4783 9.18994 48.4701C10.572 48.4811 11.9309 48.1146 13.1199 47.4101C13.7248 48.3149 14.5324 49.0662 15.4785 49.6044C16.4245 50.1425 17.4831 50.4526 18.5699 50.5101C19.9447 50.4997 21.294 50.1382 22.4899 49.4601C22.9621 49.162 23.4952 48.974 24.0499 48.9101C24.3344 48.9189 24.611 49.0053 24.8499 49.1601C24.9204 49.35 24.9805 49.5436 25.0299 49.7401L25.0999 50.0301L25.2999 49.8101C25.8305 49.1384 26.094 48.2943 26.0399 47.4401C26.0187 46.4574 25.6899 45.5061 25.0999 44.7201C24.0199 43.7468 22.7499 43.0079 21.3699 42.55C19.5936 41.8377 17.7033 41.4516 15.7899 41.4101C15.5001 41.3947 15.2097 41.3947 14.9199 41.4101C13.2874 41.4401 11.6939 41.9137 10.3099 42.7801C10.8458 41.9885 11.5436 41.3197 12.3573 40.818C13.171 40.3164 14.082 39.9932 15.0299 39.8701C15.5462 39.7922 16.0678 39.7555 16.5899 39.7601C18.61 39.816 20.6098 40.1801 22.5199 40.8401C26.9999 42.2701 29.0999 45.4301 28.9499 50.5001C28.9999 55.3001 28.5099 58.8801 27.6099 60.3201C27.1399 61.0701 26.7899 62.9501 27.6099 63.6501C27.7862 63.8254 28.0215 63.9288 28.2699 63.9401C28.4234 63.9218 28.5712 63.8714 28.7039 63.7921C28.8366 63.7129 28.9511 63.6065 29.0399 63.4801C29.2799 63.2201 29.4299 63.0801 29.6599 63.1701C29.923 63.2977 30.1684 63.4591 30.3899 63.6501C30.8236 64.0731 31.3874 64.3374 31.9899 64.4001C32.5031 64.3717 32.9875 64.1544 33.3499 63.7901C33.5916 63.519 33.928 63.3508 34.2899 63.3201C34.5699 63.3201 34.8699 63.5401 35.2899 63.9901C34.6941 64.0472 34.1177 64.2322 33.6 64.5325C33.0822 64.8328 32.6354 65.2413 32.2899 65.7301C32.0771 66.2668 31.983 66.8432 32.014 67.4198C32.0451 67.9963 32.2006 68.5593 32.4699 69.0701C32.517 69.1671 32.5571 69.2673 32.5899 69.3701L32.6599 69.6001L32.8699 69.4201C33.6249 68.9605 34.4865 68.7055 35.3699 68.6801C36.4229 68.7543 37.4389 69.0987 38.3199 69.6801C38.9744 70.0654 39.6727 70.371 40.3999 70.5901C39.7299 70.7501 39.0199 70.9701 38.2699 71.2101C36.4829 71.8637 34.6096 72.2512 32.7099 72.3601C32.7099 72.2201 32.7099 72.0701 32.7599 71.9201C32.9291 71.0007 32.7278 70.0516 32.1999 69.2801C31.9615 69.0561 31.6796 68.8837 31.3716 68.7736C31.0636 68.6635 30.7362 68.618 30.4099 68.6401C29.1844 68.6882 27.9809 68.9806 26.8699 69.5001C25.9184 69.9307 24.9068 70.2139 23.8699 70.3401L22.3999 70.4601L23.8599 70.6501C25.2508 70.8747 26.6217 71.2091 27.9599 71.6501C29.3573 72.1579 30.8114 72.4937 32.2899 72.6501C32.2276 72.9453 32.0951 73.2212 31.9036 73.4544C31.7122 73.6877 31.4674 73.8714 31.1899 73.9901C30.8727 74.1187 30.5321 74.18 30.1899 74.1701C28.1787 73.9531 26.2966 73.0737 24.8399 71.6701L23.7099 70.6701L24.6099 71.8801C25.5983 73.1888 26.7743 74.3445 28.0999 75.3101C29.3429 76.3162 30.8647 76.9166 32.4599 77.0301C35.5899 77.0301 37.9699 74.5301 40.0599 72.3301L41.1199 71.2301L40.8999 71.0101L39.8899 72.1901C37.8399 74.3501 35.5199 76.7901 32.5199 76.7901C30.9599 76.7901 28.3899 75.7901 25.8099 72.8501C27.1015 73.8283 28.6451 74.418 30.2599 74.55C30.6296 74.5561 30.9969 74.4882 31.3399 74.3501C31.6751 74.2093 31.9702 73.9877 32.1989 73.705C32.4275 73.4223 32.5824 73.0873 32.6499 72.7301H32.7399C34.6728 72.6194 36.5793 72.2286 38.3999 71.5701C39.3559 71.238 40.3353 70.9772 41.3299 70.7901L42.7599 70.5801L41.3099 70.4801C40.3107 70.3591 39.3509 70.0176 38.4999 69.4801C37.5649 68.8882 36.4946 68.5441 35.3899 68.4801C34.4958 68.5002 33.6216 68.748 32.8499 69.2001V69.1001C32.5918 68.6349 32.44 68.1183 32.4055 67.5875C32.3709 67.0567 32.4543 66.5248 32.6499 66.0301C33.0999 65.2101 34.1299 64.6601 35.6999 64.4001L35.9699 64.3501L35.7899 64.1401C35.2999 63.5701 34.8699 63.1401 34.3899 63.1401C34.1678 63.1477 33.9495 63.2004 33.7484 63.2949C33.5473 63.3895 33.3675 63.5239 33.2199 63.6901C32.9018 63.9966 32.4815 64.1747 32.0399 64.1901C31.5061 64.1239 31.0098 63.881 30.6299 63.5001C30.384 63.2891 30.1118 63.1109 29.8199 62.9701C29.7372 62.9564 29.6527 62.9564 29.5699 62.9701C29.4269 62.9879 29.2893 63.0364 29.1667 63.1124C29.0442 63.1883 28.9396 63.2899 28.8599 63.4101C28.6799 63.6001 28.5199 63.7701 28.3199 63.7701C28.1473 63.7468 27.9864 63.6698 27.8599 63.55C27.1799 62.99 27.4799 61.2901 27.8599 60.6301C28.4099 59.7501 29.3199 57.2801 29.2499 50.6301C29.4099 45.4101 27.2499 42.1501 22.5999 40.6801C20.6682 40.0078 18.6445 39.6368 16.5999 39.5801C16.0713 39.5801 15.5434 39.6169 15.0199 39.6901C10.1799 40.3901 9.60991 44.0301 9.59991 44.0601V44.2501L9.69989 44.0901C10.4799 42.8201 12.2199 42.0901 15.0099 41.8501C15.2799 41.8501 15.5699 41.8501 15.8499 41.8501C19.8499 41.8501 24.1999 44.1201 24.9099 45.0401C25.401 45.6631 25.7002 46.4155 25.7712 47.2056C25.8423 47.9957 25.682 48.7894 25.3099 49.4901L25.1899 49.1301C25.0399 47.3801 23.5499 45.8 21.2899 45.0201C20.2939 44.69 19.249 44.5311 18.1999 44.55C16.9482 44.5417 15.7041 44.7445 14.5199 45.1501C13.9843 45.3576 13.4743 45.6261 12.9999 45.9501C12.3313 46.4622 11.5294 46.7711 10.6899 46.8401H10.1199L10.6299 47.1101C10.9373 47.2752 11.281 47.3611 11.6299 47.3601C12.3341 47.3105 13.018 47.1019 13.6299 46.7501C13.9539 46.5858 14.2879 46.4422 14.6299 46.3201C16.0007 45.8498 17.4407 45.6132 18.8899 45.6201C20.3053 45.6064 21.6944 46.0023 22.8899 46.7601C23.6721 47.252 24.3104 47.9419 24.7399 48.7601C24.5513 48.6889 24.3515 48.6517 24.1499 48.6501C23.5431 48.7105 22.9583 48.9089 22.4399 49.2301C21.284 49.8757 19.9839 50.2196 18.6599 50.2301C17.6165 50.1704 16.6013 49.8681 15.6951 49.3474C14.789 48.8266 14.0168 48.1016 13.4399 47.2301C13.3599 47.1301 13.3499 47.1101 13.3199 47.0901L13.2199 47.0301L13.1299 47.1101C11.9761 47.8386 10.6343 48.214 9.2699 48.1901C8.79023 48.2153 8.31124 48.1297 7.86993 47.9401L7.63989 47.8301V48.0901C7.79989 52.773 8.34169 57.4352 9.25989 62.0301L9.74994 64.9801C10.4614 68.402 11.9497 71.6147 14.0999 74.3701C15.1447 75.7965 16.3054 77.1343 17.5699 78.3701C19.1276 79.859 20.8217 81.1982 22.6299 82.3701C25.0299 83.9901 28.4799 86.0001 31.2899 86.3701C31.7775 86.4329 32.2683 86.4663 32.7599 86.4701C36.9099 86.4701 40.0799 84.0201 42.8999 81.3901L43.3599 80.9501C43.6899 80.6601 44.0699 80.3101 44.4199 79.9501C43.4035 83.9945 42.8466 88.1407 42.7599 92.3101C42.6542 94.8082 42.8761 97.3095 43.4199 99.7501C44.0099 102.08 44.9799 103.61 46.3099 104.29L46.4599 104C45.1199 103.34 44.1999 101.89 43.6299 99.6401ZM45.0399 78.7801C45.4599 77.6001 45.6899 77.5701 45.7099 77.5701C45.7299 77.5701 45.7899 77.6201 45.7999 77.6301C45.8099 77.6401 45.6999 78.0401 45.0399 78.7801ZM23.0399 46.4101C21.7958 45.6139 20.3469 45.1969 18.8699 45.2101C17.387 45.2099 15.914 45.4531 14.5099 45.9301C14.1681 46.0606 13.8342 46.2108 13.5099 46.3801C12.9525 46.7032 12.3315 46.9011 11.6899 46.9601C11.6069 46.9699 11.523 46.9699 11.4399 46.9601C12.0774 46.785 12.6796 46.5008 13.2199 46.1201C13.6773 45.8086 14.1668 45.5471 14.6799 45.3401C15.8294 44.9504 17.0363 44.7577 18.2499 44.7701C19.2673 44.752 20.2807 44.9006 21.2499 45.2101C22.6504 45.627 23.8404 46.5598 24.5799 47.8201C24.135 47.2583 23.5932 46.7807 22.9799 46.4101H23.0399ZM32.4999 71.9401C32.5108 72.0899 32.5108 72.2403 32.4999 72.3901C31.0277 72.2346 29.5802 71.8987 28.1899 71.3901C27.1899 71.0701 26.0699 70.74 24.9899 70.5201C25.7084 70.335 26.4133 70.1011 27.0999 69.8201C28.1676 69.3109 29.3279 69.0251 30.5099 68.9801C30.7946 68.9575 31.081 68.9937 31.3511 69.0866C31.6212 69.1795 31.8693 69.3271 32.0799 69.5201C32.5147 70.2476 32.6441 71.1175 32.4399 71.9401H32.4999Z" fill="black"/>
<path d="M58.3899 45.44C58.1931 45.3517 57.9783 45.3111 57.7628 45.3215C57.5473 45.3319 57.3373 45.3931 57.1499 45.5C56.2557 46.0232 55.5889 46.8612 55.2799 47.85C54.5852 48.0145 53.8739 48.0984 53.1599 48.1C52.6059 48.1466 52.0481 48.0821 51.5192 47.9104C50.9903 47.7387 50.501 47.4632 50.0799 47.1L50 47.02L49.8899 47.08C49.8899 47.08 49.8399 47.08 49.7699 47.22C49.1898 48.0907 48.4155 48.8148 47.508 49.3354C46.6004 49.856 45.5844 50.1588 44.54 50.22C43.2161 50.2083 41.9164 49.8644 40.7599 49.22C40.2446 48.9003 39.6633 48.702 39.06 48.64C38.8551 48.6417 38.6521 48.6789 38.4599 48.75C38.8955 47.9362 39.5325 47.2476 40.31 46.75C41.5057 45.9928 42.8947 45.597 44.31 45.61C45.7624 45.6032 47.2057 45.8398 48.5799 46.31C48.9214 46.4337 49.2553 46.5772 49.5799 46.74C50.1926 47.0903 50.876 47.2988 51.5799 47.35C51.9286 47.3486 52.2717 47.2628 52.5799 47.1L53.0899 46.83H52.5099C51.671 46.7589 50.8697 46.4502 50.1999 45.94C49.7267 45.6141 49.2165 45.3455 48.68 45.14C47.4992 44.7345 46.2583 44.5317 45.0099 44.54C43.9576 44.522 42.9097 44.6809 41.9099 45.01C39.6499 45.79 38.1599 47.37 38.0199 49.12C37.969 49.2371 37.9256 49.3574 37.8899 49.48C37.5684 48.762 37.4381 47.973 37.5117 47.1898C37.5853 46.4065 37.8603 45.6556 38.31 45.01C39.2858 43.9186 40.5571 43.1336 41.9699 42.75C43.6256 42.154 45.3703 41.8429 47.13 41.83C47.49 41.83 47.8499 41.83 48.1999 41.88C49.8099 42.02 53.1999 42.73 54.1999 44.46L54.6499 45.2L54.48 44.35C54.3035 43.6133 53.9664 42.9246 53.4927 42.3334C53.019 41.7422 52.4205 41.2629 51.74 40.93C49.8323 39.94 47.709 39.4384 45.56 39.47C44.3409 39.4509 43.1273 39.6368 41.9699 40.02C41.4599 40.2 40.97 40.4 40.49 40.6C39.0372 41.3108 37.4552 41.7191 35.8399 41.8H35.73C32.8487 41.7675 30.0283 40.9666 27.56 39.48C25.0398 37.995 22.9026 35.9401 21.32 33.48C20.8456 32.7397 20.4723 31.9393 20.2099 31.1C21.2099 29.91 21.55 28.83 21.13 27.89C20.9 27.39 20.63 27.29 20.43 27.29H20.32C20.0777 27.3976 19.8715 27.5727 19.726 27.7944C19.5806 28.016 19.5021 28.2749 19.5 28.54C19.4955 29.3728 19.6134 30.2016 19.8499 31C19.001 31.8361 18.058 32.571 17.04 33.19C15.7504 33.9793 14.4147 34.6906 13.04 35.32C10.75 36.4 8.58996 37.43 7.29996 39.17C5.85996 41.11 5.67997 43.68 6.74997 47.25C6.95997 47.96 6.25997 49.92 5.36997 52.4C3.82997 56.7 1.48993 63.19 1.63993 69.57C1.64553 72.8288 2.48923 76.0314 4.08994 78.87C6.13334 82.2014 9.09538 84.8717 12.62 86.56L12.7599 86.28C9.2878 84.6206 6.37039 81.9914 4.35996 78.71C2.78536 75.9166 1.95225 72.7666 1.93998 69.56C1.79998 63.25 4.11995 56.78 5.65995 52.5C6.59995 49.87 7.28995 47.97 7.03995 47.16C6.03995 43.69 6.15995 41.21 7.53995 39.36C8.78995 37.68 10.9099 36.67 13.1599 35.6C14.5563 34.9744 15.9093 34.2561 17.2099 33.45C18.1978 32.831 19.1106 32.0994 19.93 31.27C20.2065 32.0735 20.5756 32.842 21.0299 33.56C22.6364 36.0592 24.8082 38.1454 27.37 39.65C29.8836 41.1638 32.7559 41.9785 35.69 42.01H35.82C37.4692 41.9263 39.0846 41.5114 40.57 40.79C41.05 40.6 41.57 40.4 42.04 40.22C43.1673 39.8416 44.351 39.659 45.54 39.68C47.6256 39.6586 49.6851 40.146 51.54 41.1C52.5791 41.6385 53.4094 42.5075 53.8999 43.57C52.4599 42.18 49.6299 41.57 48.1499 41.47C47.7835 41.4499 47.4164 41.4499 47.05 41.47C43.05 41.47 38.9199 43.26 37.9699 44.8C36.8799 46.56 36.7999 48.8 37.7699 49.88L37.9699 50.1L38.04 49.81C38.0894 49.6136 38.1495 49.42 38.2199 49.23C38.4588 49.0753 38.7355 48.9888 39.0199 48.98C39.5778 49.0435 40.1144 49.2315 40.5899 49.53C41.7827 50.207 43.1285 50.5684 44.5 50.58C45.586 50.5237 46.6439 50.2151 47.5899 49.6788C48.5359 49.1424 49.3439 48.393 49.9499 47.49C50.9073 48.2357 52.1108 48.5928 53.32 48.49C54.0285 48.4708 54.7327 48.3735 55.42 48.2H55.5099V48.1C55.7811 47.1662 56.3956 46.3695 57.23 45.87C57.3784 45.7775 57.5477 45.7236 57.7223 45.7131C57.897 45.7026 58.0715 45.7359 58.23 45.81C59.64 46.48 58.83 49.19 58.73 49.5C58.63 49.81 58.54 50.09 58.44 50.37C58.0246 51.4697 57.7393 52.6141 57.5899 53.78C57.5899 54.09 57.5399 54.38 57.5199 54.66C57.5419 55.7155 57.2645 56.7556 56.7199 57.66C56.5632 57.4942 56.3741 57.3624 56.1642 57.2729C55.9542 57.1834 55.7281 57.1382 55.5 57.14C55.2822 57.1425 55.0661 57.1796 54.86 57.25C54.4342 57.388 54.0615 57.6543 53.793 58.0123C53.5245 58.3704 53.3732 58.8027 53.36 59.25C53.3583 59.5597 53.4195 59.8664 53.5398 60.1518C53.6601 60.4371 53.8371 60.695 54.06 60.91V60.97C54.1904 61.8293 54.3945 62.6757 54.67 63.5C53.2403 66.1495 52.4589 69.1002 52.3899 72.11C52.3899 77.99 53.95 78.86 54.88 78.86C55.81 78.86 57.36 77.99 57.36 72.11C57.2583 69.3692 56.6302 66.6735 55.5099 64.17L55.19 63.48V64.24C55.1551 64.7757 55.005 65.2976 54.75 65.77C54.4944 66.1624 54.3428 66.6134 54.3096 67.0804C54.2764 67.5475 54.3625 68.0154 54.56 68.44C54.68 68.67 54.8 68.89 54.92 69.09C55.2292 69.4637 55.4278 69.9165 55.4932 70.3972C55.5586 70.8779 55.4882 71.3673 55.29 71.81C55.1399 72.17 54.96 72.5 54.8 72.81C54.3636 73.3644 54.1115 74.0414 54.0793 74.7462C54.047 75.4509 54.2361 76.1481 54.62 76.74C54.8729 77.1158 55.0276 77.549 55.07 78H55.3899C55.3423 77.4944 55.1743 77.0075 54.8999 76.58C54.6904 76.2514 54.5382 75.8896 54.4499 75.51C54.3284 74.6123 54.5498 73.7017 55.07 72.96C55.24 72.64 55.4199 72.31 55.5799 71.96C55.794 71.4718 55.8708 70.9344 55.8021 70.4058C55.7334 69.8772 55.5217 69.3773 55.19 68.96C55.08 68.76 54.9499 68.55 54.8399 68.32C54.6651 67.9385 54.5908 67.5186 54.6241 67.1003C54.6573 66.682 54.797 66.2791 55.0299 65.93C55.1985 65.591 55.3326 65.2359 55.43 64.87C56.3968 67.1772 56.9388 69.6401 57.0299 72.14C57.0299 76.23 56.24 78.58 54.86 78.58C53.48 78.58 52.68 76.23 52.68 72.14C52.7424 69.1578 53.5245 66.2348 54.9599 63.62V63.56V63.47C54.7157 62.7314 54.5252 61.9761 54.3899 61.21C54.5185 61.2921 54.6561 61.3592 54.8 61.41C55.1765 61.5427 55.5871 61.5427 55.9636 61.4099C56.3401 61.2771 56.66 61.0196 56.87 60.68C57.1385 60.3552 57.2699 59.9386 57.2363 59.5185C57.2027 59.0984 57.0067 58.708 56.69 58.43C56.4178 58.1796 56.0597 58.0436 55.69 58.05C55.2476 58.0663 54.8285 58.2526 54.5199 58.57C54.3035 58.8211 54.1412 59.114 54.0431 59.4306C53.945 59.7472 53.9133 60.0806 53.9499 60.41C53.722 60.0773 53.6 59.6834 53.5999 59.28C53.6145 58.8985 53.7461 58.5308 53.9769 58.2266C54.2077 57.9225 54.5264 57.6968 54.8899 57.58C55.0639 57.5211 55.2463 57.4907 55.43 57.49C55.6448 57.4904 55.8566 57.5402 56.0491 57.6356C56.2416 57.731 56.4095 57.8693 56.54 58.04L56.67 58.21L56.79 58.04C57.4635 57.0545 57.8131 55.8835 57.79 54.69C57.79 54.43 57.79 54.13 57.86 53.82C58.0108 52.6781 58.2926 51.5574 58.6999 50.48C58.7999 50.2 58.9 49.9 58.99 49.61C59.2128 48.9288 59.3275 48.2168 59.3299 47.5C59.3998 47.1019 59.3473 46.6919 59.1795 46.3242C59.0117 45.9564 58.7364 45.6482 58.3899 45.44ZM40.1399 46.44C39.5686 46.8126 39.0676 47.2832 38.6599 47.83C39.4056 46.5485 40.6159 45.6031 42.04 45.19C43.0091 44.8799 44.0226 44.7312 45.04 44.75C46.2503 44.7369 47.4542 44.9297 48.5999 45.32C49.1163 45.5271 49.6091 45.7886 50.07 46.1C50.6056 46.4826 51.2049 46.767 51.8399 46.94C51.7569 46.9505 51.6729 46.9505 51.5899 46.94C50.9512 46.8825 50.3331 46.6844 49.7799 46.36C49.4547 46.1928 49.1209 46.0426 48.7799 45.91C47.3758 45.4331 45.9029 45.1898 44.42 45.19C42.9036 45.1611 41.4132 45.586 40.1399 46.41V46.44ZM20.0899 30.65C19.895 29.9435 19.8008 29.2129 19.81 28.48C19.81 28.09 20.11 27.59 20.37 27.54C20.56 27.54 20.6999 27.77 20.7799 27.96C21.1799 28.69 20.9299 29.6 20.0899 30.62V30.65ZM54.8399 58.69C54.9593 58.5618 55.1031 58.4586 55.2627 58.3865C55.4224 58.3144 55.5948 58.2748 55.7699 58.27C56.0549 58.2712 56.3293 58.3781 56.54 58.57C56.7954 58.7956 56.953 59.1118 56.9791 59.4516C57.0052 59.7914 56.898 60.1281 56.68 60.39C56.5433 60.5987 56.3583 60.7713 56.1407 60.8931C55.923 61.015 55.6793 61.0825 55.43 61.09C55.27 61.0886 55.1113 61.0616 54.9599 61.01C54.7518 60.9395 54.5585 60.831 54.3899 60.69C54.3147 60.344 54.316 59.9857 54.3937 59.6403C54.4714 59.2948 54.6237 58.9705 54.8399 58.69Z" fill="black"/>
<path d="M61.31 20.19C61.0159 19.7795 60.642 19.4324 60.2107 19.1696C59.7795 18.9067 59.2997 18.7334 58.8 18.66C58.5941 18.6352 58.3859 18.6352 58.18 18.66C58.1169 17.0648 57.7182 15.5008 57.01 14.07C55.2809 10.4077 52.6568 7.24014 49.38 4.86002C47.4114 3.41491 45.2417 2.26604 42.94 1.45001C40.3135 0.539268 37.5595 0.0498704 34.78 0H34.28C29.43 0 25.35 1.54 22.81 4.34C21.5885 5.63318 20.7746 7.25737 20.47 9.01001C19.6808 8.57811 18.8075 8.32224 17.91 8.26001C17.61 8.26001 17.3 8.26001 16.99 8.26001C13.12 8.26001 8.82002 10.26 5.49002 13.58C2.43002 16.58 0.490033 21.76 0.0700334 27.68C-0.299967 33.29 0.810033 38.8 3.07003 42.42C4.04843 43.9981 4.70122 45.7559 4.99002 47.59C5.178 48.5515 5.16581 49.5415 4.95419 50.4981C4.74256 51.4548 4.336 52.3575 3.75997 53.15L4.00997 53.34C4.61329 52.5164 5.03941 51.5766 5.26144 50.5801C5.48346 49.5836 5.49661 48.5518 5.30001 47.55C4.99347 45.6707 4.31341 43.872 3.30001 42.26C1.10001 38.69 2.11895e-05 33.26 0.370021 27.7C0.760021 21.86 2.69998 16.79 5.69998 13.8C8.96998 10.53 13.19 8.57001 16.98 8.57001C17.2773 8.57144 17.5744 8.58811 17.87 8.62C18.7662 8.66941 19.6373 8.93352 20.41 9.39001C20.3649 9.8322 20.3649 10.2778 20.41 10.72C20.52 11.63 20.98 12.15 21.41 12.25C21.5155 12.2809 21.628 12.2783 21.7319 12.2425C21.8358 12.2066 21.926 12.1394 21.99 12.05C22.27 11.65 22.05 10.84 21.41 9.89999C21.2295 9.64092 21.0064 9.41439 20.75 9.23001C21.0277 7.48976 21.8221 5.87314 23.03 4.59C25.6 1.77 29.77 0.250016 34.76 0.360016C37.5053 0.408102 40.2257 0.890742 42.82 1.79001C45.0976 2.5893 47.2443 3.72158 49.19 5.14999C52.4163 7.50309 55.0045 10.624 56.72 14.23C57.4054 15.6493 57.7901 17.195 57.85 18.77C57.1857 18.9885 56.585 19.3662 56.1 19.87C55.8949 20.0512 55.7375 20.28 55.6416 20.5364C55.5457 20.7927 55.5142 21.0687 55.55 21.34C55.5752 21.4405 55.6278 21.532 55.702 21.6044C55.7761 21.6768 55.8689 21.7272 55.97 21.75C56.38 21.83 56.97 21.49 57.56 20.75C57.941 20.2529 58.1514 19.6462 58.16 19.02C58.3622 18.9902 58.5677 18.9902 58.77 19.02C59.2255 19.0853 59.6628 19.2433 60.0549 19.484C60.447 19.7248 60.7857 20.0434 61.05 20.42C62.33 22.07 62.91 25.64 62.67 30.47C62.5 34.15 60.29 39.78 57.3 42.31L57.5 42.55C59.1654 40.9989 60.4695 39.1008 61.32 36.99C62.2446 34.9349 62.8094 32.7363 62.99 30.49C63.3 24.11 62.25 21.36 61.31 20.19ZM57.84 19.11C57.8264 19.6318 57.6479 20.1359 57.33 20.55C56.64 21.36 56.24 21.44 56.1 21.44H56.04C55.9967 21.4275 55.9578 21.403 55.9277 21.3694C55.8976 21.3358 55.8776 21.2944 55.87 21.25C55.845 21.0352 55.8739 20.8175 55.9543 20.6167C56.0346 20.4159 56.1637 20.2383 56.33 20.1C56.7471 19.6447 57.2639 19.2922 57.84 19.07V19.11ZM21.16 10.11C21.79 11.03 21.9 11.68 21.74 11.91C21.7239 11.938 21.7005 11.9611 21.6723 11.9769C21.6442 11.9928 21.6123 12.0007 21.58 12H21.49C21.19 11.92 20.83 11.49 20.74 10.73C20.7048 10.3709 20.7048 10.0091 20.74 9.64999C20.8928 9.76176 21.0336 9.88911 21.16 10.03V10.11Z" fill="black"/>
<path d="M18.7299 49.7C18.0235 49.7053 17.3437 49.4304 16.8395 48.9356C16.3353 48.4408 16.0478 47.7663 16.0399 47.0599C16.0419 46.4759 16.239 45.9092 16.5999 45.45L16.7799 45.5999C16.4536 46.0165 16.2775 46.5309 16.2799 47.0599C16.2765 47.4439 16.3635 47.8234 16.5337 48.1676C16.7039 48.5118 16.9527 48.8112 17.2599 49.0416C17.5671 49.272 17.9242 49.4269 18.3023 49.4939C18.6804 49.5609 19.069 49.5381 19.4367 49.4273C19.8044 49.3165 20.1409 49.1208 20.419 48.8561C20.6972 48.5913 20.9092 48.2649 21.038 47.9031C21.1667 47.5413 21.2086 47.1543 21.1603 46.7734C21.112 46.3924 20.9749 46.0281 20.7599 45.7099L20.9499 45.58C21.249 46.0156 21.4093 46.5315 21.4099 47.0599C21.402 47.7646 21.1159 48.4375 20.6138 48.9321C20.1118 49.4266 19.4346 49.7026 18.7299 49.7Z" fill="black"/>
<path d="M18.72 48.5001C19.5319 48.5001 20.19 47.8419 20.19 47.0301C20.19 46.2182 19.5319 45.5601 18.72 45.5601C17.9082 45.5601 17.25 46.2182 17.25 47.0301C17.25 47.8419 17.9082 48.5001 18.72 48.5001Z" fill="black"/>
<path d="M20.2899 47.3101C20.2873 47.4409 20.2334 47.5655 20.14 47.6572C20.0465 47.7488 19.9208 47.8001 19.7899 47.8C19.6573 47.8 19.5301 47.7474 19.4363 47.6536C19.3426 47.5599 19.2899 47.4327 19.2899 47.3C19.2899 47.1674 19.3426 47.0403 19.4363 46.9465C19.5301 46.8527 19.6573 46.8 19.7899 46.8C19.8564 46.8 19.9223 46.8133 19.9836 46.8391C20.0449 46.8648 20.1005 46.9025 20.147 46.95C20.1936 46.9975 20.2302 47.0538 20.2548 47.1157C20.2793 47.1775 20.2912 47.2436 20.2899 47.3101Z" fill="white"/>
<path d="M18.3699 46.6201C18.3792 46.6786 18.3755 46.7384 18.3594 46.7954C18.3433 46.8524 18.3151 46.9053 18.2766 46.9503C18.2381 46.9953 18.1903 47.0315 18.1365 47.0563C18.0827 47.0811 18.0241 47.0939 17.9649 47.0939C17.9057 47.0939 17.8471 47.0811 17.7933 47.0563C17.7395 47.0315 17.6918 46.9953 17.6533 46.9503C17.6148 46.9053 17.5865 46.8524 17.5704 46.7954C17.5543 46.7384 17.5507 46.6786 17.5599 46.6201C17.5507 46.5615 17.5543 46.5017 17.5704 46.4447C17.5865 46.3877 17.6148 46.3349 17.6533 46.2898C17.6918 46.2448 17.7395 46.2087 17.7933 46.1839C17.8471 46.1591 17.9057 46.1462 17.9649 46.1462C18.0241 46.1462 18.0827 46.1591 18.1365 46.1839C18.1903 46.2087 18.2381 46.2448 18.2766 46.2898C18.3151 46.3349 18.3433 46.3877 18.3594 46.4447C18.3755 46.5017 18.3792 46.5615 18.3699 46.6201Z" fill="white"/>
<path d="M44.0399 49.8199C43.3944 49.8206 42.77 49.59 42.2799 49.1699C42.0161 48.9434 41.7998 48.6667 41.6436 48.356C41.4874 48.0454 41.3944 47.7068 41.3699 47.3599C41.3257 46.7791 41.481 46.2006 41.8099 45.7199L42.0099 45.8499C41.6779 46.3322 41.5371 46.9206 41.6147 47.5009C41.6924 48.0811 41.9829 48.6118 42.4299 48.9899C42.9232 49.412 43.5622 49.6238 44.2099 49.5799C44.853 49.5413 45.4544 49.2489 45.8819 48.7669C46.3095 48.285 46.5282 47.653 46.4899 47.0099C46.4556 46.4921 46.2792 45.9939 45.9799 45.5699L46.1699 45.4199C46.4994 45.8838 46.6901 46.4317 46.7199 46.9999C46.7609 47.704 46.5206 48.3956 46.0517 48.9225C45.5829 49.4495 44.924 49.7687 44.2199 49.8099L44.0399 49.8199Z" fill="black"/>
<path d="M45.4699 46.98C45.4871 47.27 45.418 47.5586 45.2713 47.8093C45.1247 48.0601 44.9069 48.2618 44.6457 48.3889C44.3845 48.516 44.0915 48.5629 43.8036 48.5236C43.5158 48.4843 43.2461 48.3606 43.0285 48.1681C42.8109 47.9756 42.6552 47.723 42.5811 47.4421C42.507 47.1612 42.5178 46.8646 42.6121 46.5899C42.7064 46.3151 42.88 46.0744 43.111 45.8982C43.342 45.7221 43.62 45.6183 43.9099 45.6C44.2993 45.5781 44.6816 45.7107 44.9737 45.9691C45.2659 46.2276 45.4442 46.5908 45.4699 46.98Z" fill="black"/>
<path d="M45.5798 47.2499C45.5853 47.3151 45.5776 47.3807 45.5573 47.4429C45.537 47.505 45.5045 47.5625 45.4616 47.6119C45.4187 47.6613 45.3664 47.7016 45.3077 47.7305C45.249 47.7593 45.1852 47.7761 45.1199 47.7799C45.0547 47.7854 44.9891 47.7777 44.9269 47.7574C44.8647 47.7371 44.8073 47.7046 44.7579 47.6617C44.7085 47.6188 44.6681 47.5665 44.6393 47.5078C44.6104 47.4491 44.5936 47.3852 44.5898 47.3199C44.5853 47.2543 44.5936 47.1883 44.6145 47.1259C44.6354 47.0635 44.6684 47.0058 44.7116 46.9561C44.7547 46.9064 44.8072 46.8657 44.8662 46.8364C44.9251 46.807 44.9892 46.7895 45.0549 46.7849C45.1205 46.7803 45.1864 46.7887 45.2488 46.8096C45.3113 46.8305 45.369 46.8634 45.4186 46.9066C45.4683 46.9498 45.509 47.0023 45.5384 47.0612C45.5678 47.1201 45.5853 47.1843 45.5898 47.2499H45.5798Z" fill="white"/>
<path d="M43.63 46.6899C43.6357 46.7707 43.6173 46.8514 43.5772 46.9217C43.5371 46.9921 43.477 47.049 43.4046 47.0853C43.3322 47.1216 43.2507 47.1356 43.1703 47.1256C43.0899 47.1156 43.0143 47.082 42.953 47.029C42.8917 46.9761 42.8475 46.9062 42.8259 46.8281C42.8043 46.7501 42.8063 46.6673 42.8316 46.5904C42.857 46.5135 42.9045 46.4458 42.9683 46.3959C43.0321 46.3459 43.1093 46.316 43.19 46.3099C43.2982 46.3043 43.4044 46.3406 43.4864 46.4115C43.5684 46.4823 43.6199 46.582 43.63 46.6899Z" fill="white"/>
<path d="M37.94 78.8999C37.6026 79.3548 37.1406 79.7021 36.61 79.8999C34.67 80.7691 32.5979 81.3066 30.48 81.4899C31.7876 81.8108 33.1509 81.8308 34.4673 81.5484C35.7838 81.2661 37.019 80.6888 38.08 79.8599L37.94 78.8999Z" fill="#F0CDC6"/>
<path d="M34.5399 82.6199C34.4699 82.6199 34.3899 82.6199 34.3699 82.7299C34.3499 82.8399 34.4699 82.8799 34.5599 82.8999C35.1242 82.9938 35.7037 82.9245 36.2299 82.6999C36.7536 82.4844 37.2558 82.2199 37.7299 81.9099L34.5399 82.6199Z" fill="#F0CDC6"/>
<path d="M30.7 82.8501C31.4661 82.8063 32.2348 82.8533 32.99 82.9901C32.9001 83.1201 32.7785 83.2251 32.6368 83.295C32.4951 83.365 32.3379 83.3978 32.18 83.3901C31.87 83.3901 30.85 83.1301 30.7 82.8501Z" fill="#F0CDC6"/>
<path d="M52.1899 51.9099C49.7181 51.6148 47.2152 52.086 45.0199 53.2599C47.4199 52.8799 49.8099 52.4299 52.1899 51.9099Z" fill="#F0CDC6"/>
<path d="M52.5499 52.78C51.1914 52.6028 49.8102 52.7927 48.5499 53.33C50.2814 53.3182 52.0083 53.1509 53.7099 52.83L52.5499 52.78Z" fill="#ECC1B6"/>
<path d="M12.0399 67.5699L28.6599 58.8699C22.6599 60.7599 16.3899 62.9799 12.0399 67.5699Z" fill="#F0CDC6"/>
<path d="M19.1899 61.04C18.1024 61.4225 17.088 61.9872 16.1899 62.71C17.2506 62.27 18.2572 61.7097 19.1899 61.04Z" fill="#ECC1B6"/>
<path d="M19.9099 65.3401C22.3044 64.8589 24.5851 63.9256 26.6299 62.5901C24.1521 62.7584 21.7949 63.723 19.9099 65.3401Z" fill="#F0CDC6"/>
<path d="M12.0399 59.6C11.4131 59.7171 10.8196 59.9704 10.3012 60.3419C9.78286 60.7133 9.35231 61.194 9.03992 61.75C10.7503 61.3941 12.341 60.6056 13.6599 59.46L12.0399 59.6Z" fill="#F0CDC6"/>
<path d="M22.6299 53.6099C20.6097 53.7541 18.6382 54.2979 16.8298 55.2099C20.4298 54.5699 24.1198 53.9399 27.7198 54.5899C26.3998 53.3899 24.4099 53.4099 22.6299 53.5899" fill="#F0CDC6"/>
<path d="M18.0399 52.71C16.0786 53.2309 14.2399 54.1349 12.6299 55.37C16.0499 54.07 19.5598 52.75 23.2198 52.71C21.6998 51.78 19.7399 52.18 18.0399 52.71Z" fill="#F0CDC6"/>
<path d="M41.49 65.82C44.2967 64.2 47.1567 62.68 50.07 61.26C46.9382 62.2016 44.0227 63.7511 41.49 65.82Z" fill="#F0CDC6"/>
<path d="M51.5199 62.54C49.156 63.2329 46.958 64.3999 45.0599 65.97C47.5699 64.89 49.0599 63.62 51.5199 62.54Z" fill="#F0CDC6"/>
<path d="M43.8399 61.07C42.1036 61.5111 40.5202 62.4168 39.2599 63.69C41.4139 63.1915 43.4512 62.2815 45.2599 61.01L43.8399 61.07Z" fill="#F0CDC6"/>
<path d="M41.1799 59.8599C40.8352 59.857 40.4953 59.9405 40.1913 60.103C39.8873 60.2655 39.629 60.5017 39.4399 60.7899C39.4091 60.8228 39.3873 60.8631 39.3768 60.907C39.3663 60.9508 39.3674 60.9966 39.3799 61.0399C39.4399 61.1599 39.6199 61.1299 39.7499 61.0399C40.7275 60.6603 41.6681 60.1916 42.5599 59.6399L41.1799 59.8599Z" fill="#F0CDC6"/>
<path d="M47.3599 70.5901C45.8539 71.2127 44.5073 72.1663 43.4199 73.3801C44.8559 72.6367 46.1819 71.6977 47.3599 70.5901Z" fill="#F0CDC6"/>
<path d="M48.5299 71.1901C47.8055 71.6277 47.1344 72.1478 46.5299 72.7401C46.4199 72.8401 46.2999 72.9801 46.3299 73.1301C46.3599 73.2801 46.8099 73.3701 47.0699 73.2301C48.5648 72.4516 49.8248 71.2882 50.7199 69.8601L48.5299 71.1901Z" fill="#F0CDC6"/>
</svg>
