<svg width="64" height="105" viewBox="0 0 64 105" fill="none" xmlns="http://www.w3.org/2000/svg">
<path d="M43.6301 99.6401C43.0946 97.2288 42.876 94.7579 42.98 92.2901C43.0597 87.9591 43.6675 83.6539 44.79 79.4701C45.79 78.4701 46.1701 77.8901 46.0801 77.5401C46.0584 77.4673 46.0153 77.4026 45.9565 77.3545C45.8977 77.3063 45.8258 77.2769 45.7501 77.2701H45.6801C45.4801 77.2701 45.1701 77.4201 44.6801 78.7301L44.4901 79.3101C43.9701 79.8401 43.39 80.3701 43.04 80.6801L42.5801 81.1101C39.8201 83.7001 36.7 86.1101 32.66 86.1101C32.1816 86.1113 31.7037 86.0779 31.23 86.0101C28.49 85.6401 25.0801 83.6501 22.7001 82.0101C20.916 80.8567 19.2423 79.5412 17.7001 78.0801C16.4508 76.8629 15.3036 75.5451 14.2701 74.1401C12.146 71.4276 10.6746 68.2625 9.97003 64.8901C9.81003 63.8901 9.64004 62.8901 9.48004 61.9401C8.58998 57.4354 8.0517 52.8683 7.87006 48.2801C8.29674 48.415 8.74264 48.4792 9.19006 48.4701C10.5721 48.4812 11.931 48.1147 13.1201 47.4101C13.7259 48.3163 14.535 49.0684 15.483 49.6066C16.4309 50.1448 17.4915 50.4542 18.5801 50.5101C19.9515 50.4985 21.2973 50.137 22.4901 49.4601C22.9622 49.162 23.4954 48.974 24.05 48.9101C24.3348 48.9173 24.6118 49.0039 24.85 49.1601C24.9205 49.35 24.9806 49.5436 25.03 49.7401L25.1 50.0301L25.3 49.8101C25.8349 49.1407 26.099 48.2949 26.04 47.4401C26.0188 46.4574 25.6901 45.5062 25.1 44.7201C24.0217 43.7444 22.7512 43.0052 21.3701 42.5501C19.5937 41.8378 17.7034 41.4516 15.79 41.4101C15.5002 41.3947 15.2098 41.3947 14.92 41.4101C13.291 41.4419 11.7011 41.9154 10.3201 42.7801C10.8529 41.9879 11.5487 41.3185 12.361 40.8167C13.1732 40.3149 14.0831 39.9921 15.03 39.8701C15.5463 39.7923 16.0679 39.7555 16.59 39.7601C18.6102 39.816 20.61 40.1802 22.5201 40.8401C27.0001 42.2701 29.1001 45.4301 28.9501 50.5001C28.9501 55.3001 28.51 58.8801 27.61 60.3201C27.14 61.0701 26.79 62.9501 27.61 63.6501C27.7889 63.8216 28.0228 63.9243 28.2701 63.9401C28.4235 63.9218 28.5714 63.8714 28.704 63.7921C28.8367 63.7129 28.9512 63.6066 29.04 63.4801C29.28 63.2201 29.43 63.0801 29.66 63.1701C29.9232 63.2978 30.1686 63.4591 30.3901 63.6501C30.8237 64.0731 31.3875 64.3374 31.9901 64.4001C32.5032 64.3717 32.9876 64.1545 33.35 63.7901C33.5917 63.519 33.9281 63.3508 34.29 63.3201C34.57 63.3201 34.87 63.5401 35.29 63.9901C34.6943 64.0472 34.1178 64.2323 33.6001 64.5326C33.0824 64.8329 32.6355 65.2413 32.29 65.7301C32.0772 66.2668 31.9831 66.8433 32.0142 67.4198C32.0452 67.9963 32.2007 68.5594 32.47 69.0701C32.5171 69.1671 32.5572 69.2674 32.59 69.3701L32.66 69.6001L32.8701 69.4201C33.6254 68.9614 34.4868 68.7064 35.3701 68.6801C36.4402 68.7458 37.4745 69.0905 38.3701 69.6801C39.0245 70.0655 39.7229 70.371 40.4501 70.5901C39.7801 70.7501 39.0701 70.9701 38.3201 71.2101C36.5331 71.8637 34.6597 72.2512 32.7601 72.3601C32.7601 72.2201 32.7601 72.0701 32.7601 71.9201C32.8461 71.4649 32.8409 70.9971 32.7448 70.5439C32.6486 70.0908 32.4635 69.6612 32.2001 69.2801C31.9617 69.0561 31.6797 68.8837 31.3717 68.7736C31.0637 68.6635 30.7364 68.6181 30.41 68.6401C29.1845 68.6882 27.981 68.9806 26.8701 69.5001C25.9185 69.9307 24.9069 70.214 23.8701 70.3401L22.4001 70.4601L23.86 70.6501C25.2509 70.8748 26.6219 71.2091 27.9601 71.6501C29.3575 72.1579 30.8115 72.4937 32.29 72.6501C32.2277 72.9453 32.0952 73.2212 31.9037 73.4545C31.7123 73.6877 31.4675 73.8714 31.1901 73.9901C30.8728 74.1187 30.5323 74.1801 30.1901 74.1701C28.1794 73.951 26.298 73.0718 24.84 71.6701L23.7101 70.6701L24.61 71.8801C25.5984 73.1888 26.7744 74.3445 28.1 75.3101C29.343 76.3163 30.8649 76.9167 32.4601 77.0301C35.5901 77.0301 37.9701 74.5301 40.0601 72.3301L41.1201 71.2301L40.9001 71.0101L39.8901 72.1901C37.8901 74.3501 35.5201 76.7901 32.5201 76.7901C30.9601 76.7901 28.3901 75.7901 25.8101 72.8501C27.1016 73.8284 28.6453 74.4181 30.2601 74.5501C30.6298 74.5562 30.997 74.4882 31.34 74.3501C31.6752 74.2093 31.9704 73.9877 32.199 73.705C32.4276 73.4223 32.5826 73.0873 32.6501 72.7301H32.7401C34.6729 72.6194 36.5795 72.2287 38.4001 71.5701C39.3561 71.238 40.3355 70.9773 41.3301 70.7901L42.7601 70.5801L41.3101 70.4801C40.3109 70.3592 39.351 70.0176 38.5001 69.4801C37.568 68.8899 36.5014 68.5458 35.4001 68.4801C34.5026 68.499 33.6248 68.7468 32.85 69.2001V69.1001C32.5919 68.6349 32.4402 68.1184 32.4056 67.5875C32.371 67.0567 32.4545 66.5248 32.6501 66.0301C33.1001 65.2101 34.1301 64.6601 35.6501 64.4001L35.9301 64.3501L35.7401 64.1401C35.2501 63.5701 34.82 63.1401 34.34 63.1401C34.1179 63.1477 33.8997 63.2004 33.6985 63.295C33.4974 63.3895 33.3176 63.5239 33.17 63.6901C32.8641 64.001 32.4552 64.1894 32.0201 64.2201C31.4869 64.1517 30.9912 63.9091 30.61 63.5301C30.3641 63.3191 30.0919 63.1409 29.8 63.0001C29.7173 62.9865 29.6328 62.9865 29.55 63.0001C29.407 63.0179 29.2695 63.0665 29.1469 63.1424C29.0244 63.2184 28.9197 63.3199 28.84 63.4401C28.66 63.6301 28.5 63.8001 28.3 63.8001C28.1274 63.7768 27.9665 63.6999 27.84 63.5801C27.16 63.0201 27.46 61.3201 27.84 60.6601C28.39 59.7801 29.3 57.3101 29.23 50.6601C29.39 45.4401 27.2301 42.1801 22.5801 40.7101C20.6483 40.0379 18.6247 39.6669 16.5801 39.6101C16.0515 39.6102 15.5235 39.6469 15.0001 39.7201C10.1601 40.4201 9.59008 44.0601 9.58008 44.0901V44.2801L9.68005 44.1201C10.4601 42.8501 12.2001 42.1201 14.9901 41.8801C15.2601 41.8801 15.5501 41.8801 15.8301 41.8801C19.8301 41.8801 24.1801 44.1501 24.8901 45.0701C25.3811 45.6931 25.6804 46.4455 25.7514 47.2357C25.8224 48.0258 25.6621 48.8195 25.29 49.5201C25.25 49.3934 25.21 49.2734 25.17 49.1601C25.02 47.4101 23.5301 45.8301 21.2701 45.0501C20.274 44.72 19.2292 44.5611 18.1801 44.5801C16.9284 44.5718 15.6843 44.7746 14.5001 45.1801C13.9644 45.3877 13.4544 45.6561 12.98 45.9801C12.3114 46.4922 11.5095 46.8012 10.67 46.8701H10.1L10.61 47.1401C10.9174 47.3052 11.2611 47.3911 11.61 47.3901C12.2974 47.3345 12.9636 47.1261 13.5601 46.7801C13.884 46.6158 14.218 46.4722 14.5601 46.3501C15.9311 45.881 17.371 45.6444 18.8201 45.6501C20.2352 45.6382 21.6238 46.0339 22.8201 46.7901C23.5975 47.2877 24.2345 47.9763 24.67 48.7901C24.4777 48.7198 24.2749 48.6825 24.0701 48.6801C23.4633 48.7406 22.8784 48.939 22.36 49.2601C21.2072 49.9045 19.9107 50.2484 18.59 50.2601C17.545 50.2012 16.5282 49.8993 15.6203 49.3785C14.7124 48.8578 13.9385 48.1324 13.36 47.2601C13.28 47.1601 13.2701 47.1401 13.2401 47.1201L13.1401 47.0601L13.05 47.1401C11.8962 47.8687 10.5545 48.244 9.19006 48.2201C8.7104 48.2453 8.23134 48.1597 7.79004 47.9701L7.56006 47.8601V48.1201C7.72501 52.8027 8.26675 57.4644 9.18005 62.0601L9.67004 65.0101C10.3803 68.4343 11.8725 71.6479 14.03 74.4001C15.0697 75.8277 16.2271 77.1657 17.4901 78.4001C19.0477 79.889 20.7418 81.2282 22.55 82.4001C24.95 84.0201 28.4001 86.0301 31.2101 86.4001C31.6976 86.4629 32.1885 86.4963 32.6801 86.5001C36.8301 86.5001 40.0001 84.0501 42.8201 81.4201L43.28 80.9801C43.61 80.6901 43.99 80.3401 44.34 79.9801C43.3236 84.0246 42.7668 88.1708 42.6801 92.3401C42.5743 94.8383 42.7962 97.3395 43.34 99.7801C43.93 102.11 44.9 103.64 46.23 104.32L46.3801 104.03C45.1201 103.34 44.2001 101.89 43.6301 99.6401ZM45.0201 78.7801C45.4401 77.6001 45.6701 77.5701 45.6901 77.5701C45.7101 77.5701 45.77 77.6201 45.78 77.6301C45.79 77.6401 45.7001 78.0401 45.0201 78.7801ZM23.0201 46.4101C21.776 45.6139 20.327 45.1969 18.85 45.2101C17.3671 45.2099 15.8942 45.4531 14.4901 45.9301C14.1483 46.0606 13.8144 46.2108 13.4901 46.3801C12.9333 46.7047 12.3119 46.9027 11.67 46.9601C11.587 46.9699 11.5031 46.9699 11.42 46.9601C12.0575 46.785 12.6597 46.5008 13.2001 46.1201C13.6575 45.8086 14.1469 45.5472 14.66 45.3401C15.8095 44.9505 17.0164 44.7578 18.23 44.7701C19.2474 44.752 20.2608 44.9006 21.23 45.2101C22.6305 45.6271 23.8206 46.5598 24.5601 47.8201C24.1212 47.2601 23.5861 46.7827 22.98 46.4101H23.0201ZM32.4901 71.9401C32.4812 72.0914 32.4612 72.2418 32.4301 72.3901C30.9578 72.2346 29.5103 71.8987 28.1201 71.3901C27.1201 71.0701 26 70.7401 24.92 70.5201C25.6385 70.335 26.3434 70.1012 27.03 69.8201C28.0977 69.3109 29.2581 69.0251 30.4401 68.9801C30.7248 68.9575 31.0111 68.9938 31.2812 69.0867C31.5514 69.1796 31.7995 69.3271 32.0101 69.5201C32.4681 70.238 32.6261 71.1069 32.4501 71.9401H32.4901Z" fill="black"/>
<path d="M58.39 45.44C58.1932 45.3517 57.9783 45.3111 57.7628 45.3215C57.5473 45.3319 57.3374 45.3931 57.15 45.5C56.2583 46.0261 55.5923 46.863 55.2799 47.85C54.5852 48.0145 53.8739 48.0984 53.1599 48.1C52.6059 48.1466 52.0481 48.0821 51.5192 47.9104C50.9903 47.7387 50.5011 47.4632 50.08 47.1L50 47.02L49.89 47.08C49.89 47.08 49.89 47.08 49.77 47.22C49.191 48.0918 48.4169 48.8167 47.5091 49.3375C46.6013 49.8582 45.5848 50.1603 44.54 50.22C43.2191 50.21 41.9222 49.866 40.77 49.22C40.2517 48.8989 39.6667 48.7005 39.06 48.64C38.8551 48.6417 38.6521 48.6789 38.46 48.75C38.8956 47.9362 39.5325 47.2476 40.31 46.75C41.5057 45.9928 42.8947 45.597 44.31 45.61C45.7624 45.6032 47.2058 45.8398 48.58 46.31C48.9215 46.4337 49.2554 46.5772 49.58 46.74C50.1927 47.0903 50.8761 47.2988 51.58 47.35C51.9286 47.3486 52.2717 47.2628 52.58 47.1L53.0899 46.83H52.51C51.674 46.7592 50.8759 46.4504 50.21 45.94C49.7333 45.614 49.2197 45.3455 48.68 45.14C47.4992 44.7345 46.2584 44.5317 45.01 44.54C43.9576 44.522 42.9097 44.6809 41.9099 45.01C39.6599 45.79 38.16 47.37 38.02 49.12C37.969 49.2371 37.9256 49.3574 37.89 49.48C37.5685 48.762 37.4382 47.973 37.5118 47.1898C37.5854 46.4065 37.8603 45.6556 38.31 45.01C39.2858 43.9186 40.5571 43.1336 41.9699 42.75C43.6258 42.1547 45.3704 41.8437 47.13 41.83C47.49 41.83 47.85 41.83 48.2 41.88C49.82 42.02 53.2 42.73 54.2 44.46L54.65 45.2L54.48 44.35C54.3035 43.6133 53.9664 42.9246 53.4927 42.3334C53.019 41.7422 52.4205 41.2629 51.74 40.93C49.8323 39.94 47.709 39.4384 45.56 39.47C44.341 39.4517 43.1275 39.6376 41.9699 40.02C41.4599 40.2 40.97 40.4 40.49 40.6C39.0372 41.3108 37.4552 41.7191 35.8399 41.8H35.73C32.8487 41.7675 30.0283 40.9666 27.56 39.48C25.0398 37.995 22.9026 35.9401 21.32 33.48C20.8497 32.7375 20.4766 31.9376 20.21 31.1C21.21 29.91 21.55 28.83 21.13 27.89C20.9 27.39 20.63 27.29 20.43 27.29H20.32C20.0777 27.3976 19.8715 27.5727 19.726 27.7944C19.5806 28.016 19.5021 28.2749 19.5 28.54C19.4955 29.3728 19.6134 30.2016 19.8499 31C19.0147 31.8623 18.0818 32.6241 17.07 33.27C15.7804 34.0593 14.4447 34.7706 13.07 35.4C10.78 36.48 8.61999 37.51 7.32999 39.25C5.88999 41.19 5.70994 43.76 6.77994 47.33C6.98994 48.04 6.29 50 5.4 52.48C3.86 56.78 1.51996 63.27 1.66996 69.65C1.67409 72.9103 2.52157 76.1141 4.12998 78.95C6.17072 82.2836 9.13343 84.9546 12.6599 86.64L12.8 86.36C9.32783 84.7006 6.41043 82.0714 4.4 78.79C2.8254 75.9967 1.99223 72.8466 1.97995 69.64C1.83995 63.33 4.15999 56.86 5.69999 52.58C6.63999 49.95 7.32999 48.05 7.07999 47.24C6.07999 43.77 6.19999 41.29 7.57999 39.44C8.82999 37.76 10.95 36.75 13.2 35.68C14.5964 35.0544 15.9494 34.3361 17.25 33.53C18.2379 32.9109 19.1506 32.1794 19.9699 31.35C20.2464 32.1535 20.6156 32.922 21.07 33.64C22.6764 36.1392 24.8482 38.2254 27.4099 39.73C29.9235 41.2438 32.7959 42.0585 35.73 42.09H35.86C37.5091 42.0063 39.1246 41.5914 40.61 40.87C41.09 40.68 41.61 40.48 42.08 40.3C43.2073 39.9216 44.3911 39.739 45.58 39.76C47.6658 39.7374 49.7256 40.2249 51.58 41.18C52.6191 41.7185 53.4494 42.5875 53.94 43.65C52.5 42.26 49.67 41.65 48.19 41.55C47.8236 41.5298 47.4563 41.5298 47.0899 41.55C43.0899 41.55 38.96 43.34 38.01 44.88C36.92 46.64 36.84 48.88 37.81 49.96L38.01 50.18L38.08 49.89C38.1294 49.6936 38.1895 49.5 38.26 49.31C38.4989 49.1553 38.7755 49.0688 39.06 49.06C39.6179 49.1235 40.1544 49.3115 40.63 49.61C41.8228 50.287 43.1685 50.6484 44.54 50.66C45.626 50.6037 46.684 50.2951 47.63 49.7588C48.576 49.2224 49.384 48.473 49.99 47.57C50.9474 48.3157 52.1508 48.6728 53.36 48.57C54.0685 48.5508 54.7728 48.4535 55.46 48.28H55.55V48.18C55.8211 47.2461 56.4356 46.4495 57.27 45.95C57.4185 45.8575 57.5877 45.8036 57.7624 45.7931C57.937 45.7826 58.1115 45.8159 58.27 45.89C59.68 46.56 58.87 49.27 58.77 49.58C58.67 49.89 58.58 50.17 58.48 50.45C58.0646 51.5497 57.7794 52.6941 57.63 53.86C57.63 54.17 57.63 54.46 57.56 54.74C57.5819 55.7955 57.3046 56.8356 56.76 57.74C56.6033 57.5742 56.414 57.4424 56.2041 57.3529C55.9942 57.2634 55.7681 57.2182 55.54 57.22C55.3221 57.2225 55.1061 57.2596 54.9 57.33C54.4742 57.468 54.1016 57.7343 53.833 58.0923C53.5645 58.4504 53.4133 58.8827 53.4 59.33C53.3984 59.6397 53.4596 59.9464 53.5799 60.2318C53.7002 60.5171 53.8771 60.775 54.0999 60.99V61.05C54.2304 61.9093 54.4345 62.7558 54.71 63.58C53.2803 66.2296 52.4989 69.1802 52.43 72.19C52.43 78.07 53.99 78.94 54.92 78.94C55.85 78.94 57.4 78.07 57.4 72.19C57.2983 69.4492 56.6702 66.7535 55.55 64.25L55.23 63.56V64.32C55.1951 64.8558 55.045 65.3776 54.79 65.85C54.5344 66.2424 54.3829 66.6934 54.3496 67.1605C54.3164 67.6276 54.4025 68.0954 54.5999 68.52C54.7199 68.75 54.84 68.97 54.96 69.17C55.2693 69.5438 55.4678 69.9966 55.5332 70.4772C55.5986 70.9579 55.5282 71.4473 55.33 71.89C55.18 72.25 54.9999 72.58 54.8399 72.89C54.4035 73.4444 54.1516 74.1214 54.1193 74.8261C54.087 75.5309 54.276 76.2281 54.6599 76.82C54.9129 77.1958 55.0676 77.629 55.11 78.08H55.43C55.3824 77.5744 55.2144 77.0874 54.94 76.66C54.7304 76.3314 54.5783 75.9696 54.49 75.59C54.3684 74.6923 54.5898 73.7817 55.11 73.04C55.28 72.72 55.46 72.39 55.62 72.04C55.834 71.5518 55.9108 71.0144 55.8421 70.4858C55.7734 69.9572 55.5617 69.4573 55.23 69.04C55.12 68.84 55 68.63 54.88 68.4C54.707 68.0181 54.6337 67.5985 54.667 67.1805C54.7002 66.7626 54.8389 66.3599 55.07 66.01C55.2386 65.671 55.3725 65.3159 55.4699 64.95C56.4367 67.2572 56.9788 69.7201 57.07 72.22C57.07 76.31 56.28 78.66 54.9 78.66C53.52 78.66 52.7199 76.31 52.7199 72.22C52.7823 69.2378 53.5646 66.3148 55 63.7V63.64V63.55C54.7557 62.8114 54.5652 62.0561 54.43 61.29C54.5586 61.3721 54.6961 61.4392 54.8399 61.49C55.2165 61.6227 55.6271 61.6227 56.0036 61.4899C56.3802 61.3571 56.6999 61.0996 56.9099 60.76C57.1785 60.4353 57.3099 60.0186 57.2763 59.5985C57.2427 59.1784 57.0467 58.788 56.73 58.51C56.4578 58.2597 56.0997 58.1236 55.73 58.13C55.2876 58.1463 54.8685 58.3326 54.56 58.65C54.3435 58.901 54.1812 59.194 54.0832 59.5106C53.9851 59.8272 53.9533 60.1606 53.99 60.49C53.762 60.1573 53.64 59.7634 53.64 59.36C53.6545 58.9785 53.7862 58.6108 54.0169 58.3066C54.2477 58.0025 54.5665 57.7768 54.93 57.66C55.1039 57.6011 55.2863 57.5707 55.4699 57.57C55.6848 57.5704 55.8966 57.6202 56.0891 57.7156C56.2816 57.8109 56.4496 57.9493 56.58 58.12L56.71 58.29L56.83 58.12C57.5036 57.1345 57.8531 55.9635 57.83 54.77C57.83 54.51 57.83 54.21 57.9 53.9C58.0508 52.7581 58.3327 51.6374 58.74 50.56C58.83 50.28 58.93 49.98 59.02 49.69C59.2429 49.0088 59.3576 48.2968 59.36 47.58C59.4447 47.1666 59.3966 46.737 59.2223 46.3526C59.0481 45.9682 58.7568 45.6488 58.39 45.44ZM40.14 46.44C39.5686 46.8126 39.0676 47.2832 38.6599 47.83C39.3994 46.5698 40.5895 45.637 41.99 45.22C42.9591 44.9099 43.9726 44.7612 44.99 44.78C46.2036 44.7677 47.4105 44.9604 48.56 45.35C49.0721 45.5592 49.5614 45.8206 50.02 46.13C50.5568 46.5106 51.1557 46.7949 51.79 46.97C51.7069 46.9805 51.623 46.9805 51.54 46.97C50.9012 46.9125 50.2832 46.7144 49.73 46.39C49.4047 46.2228 49.0709 46.0726 48.73 45.94C47.3258 45.4631 45.8529 45.2198 44.37 45.22C42.8669 45.1882 41.388 45.6023 40.12 46.41L40.14 46.44ZM20.14 30.65C19.945 29.9435 19.8507 29.2129 19.86 28.48C19.86 28.09 20.16 27.59 20.42 27.54C20.61 27.54 20.75 27.77 20.83 27.96C21.18 28.69 20.93 29.6 20.12 30.62L20.14 30.65ZM54.89 58.72C55.0094 58.5918 55.153 58.4886 55.3127 58.4165C55.4724 58.3444 55.6448 58.3048 55.82 58.3C56.105 58.3012 56.3793 58.4081 56.5899 58.6C56.8454 58.8256 57.003 59.1418 57.0291 59.4816C57.0553 59.8214 56.9479 60.1581 56.73 60.42C56.5933 60.6287 56.4083 60.8013 56.1907 60.9231C55.9731 61.045 55.7293 61.1125 55.48 61.12C55.32 61.1186 55.1614 61.0916 55.01 61.04C54.8019 60.9695 54.6086 60.861 54.44 60.72C54.3531 60.3731 54.344 60.0112 54.4131 59.6603C54.4823 59.3094 54.628 58.9781 54.8399 58.69L54.89 58.72Z" fill="black"/>
<path d="M61.31 20.19C61.0159 19.7795 60.642 19.4324 60.2107 19.1696C59.7795 18.9067 59.2997 18.7334 58.8 18.66C58.5941 18.6352 58.3859 18.6352 58.18 18.66C58.1169 17.0648 57.7182 15.5008 57.01 14.07C55.281 10.4077 52.6568 7.24014 49.38 4.86002C47.4114 3.41491 45.2417 2.26604 42.94 1.45001C40.3135 0.539268 37.5595 0.0498704 34.78 0H34.28C29.43 0 25.35 1.54 22.81 4.34C21.5885 5.63318 20.7746 7.25737 20.47 9.01001C19.6808 8.57811 18.8075 8.32224 17.91 8.26001C17.61 8.26001 17.3 8.26001 16.99 8.26001C13.12 8.26001 8.82002 10.26 5.49002 13.58C2.43002 16.58 0.490033 21.76 0.0700334 27.68C-0.299967 33.29 0.810033 38.8 3.07003 42.42C4.04843 43.9981 4.70122 45.7559 4.99002 47.59C5.17701 48.551 5.16523 49.54 4.95541 50.4962C4.74559 51.4525 4.3422 52.3556 3.77005 53.15L4.02005 53.34C4.62336 52.5164 5.04942 51.5766 5.27145 50.5801C5.49347 49.5836 5.50662 48.5518 5.31002 47.55C5.00348 45.6707 4.32342 43.872 3.31002 42.26C1.11002 38.69 0.0200309 33.26 0.380031 27.7C0.770031 21.86 2.71005 16.79 5.71005 13.8C8.98005 10.53 13.2 8.57001 16.99 8.57001C17.2873 8.57144 17.5844 8.58811 17.88 8.62C18.7762 8.66941 19.6473 8.93352 20.42 9.39001C20.375 9.8322 20.375 10.2778 20.42 10.72C20.53 11.63 20.99 12.15 21.42 12.25C21.5255 12.2809 21.638 12.2783 21.7419 12.2425C21.8458 12.2066 21.936 12.1394 22 12.05C22.28 11.65 22.06 10.84 21.42 9.89999C21.2395 9.64092 21.0164 9.41439 20.76 9.23001C21.0377 7.48976 21.8321 5.87314 23.04 4.59C25.61 1.77 29.78 0.250016 34.77 0.360016C37.5186 0.408057 40.2423 0.890683 42.84 1.79001C45.1135 2.59154 47.2566 3.72369 49.2 5.14999C52.4263 7.50309 55.0145 10.624 56.73 14.23C57.4154 15.6493 57.8001 17.195 57.86 18.77C57.1957 18.9885 56.595 19.3662 56.11 19.87C55.9038 20.05 55.7463 20.279 55.6519 20.5359C55.5576 20.7928 55.5294 21.0693 55.57 21.34C55.5923 21.4403 55.6427 21.5321 55.7153 21.6047C55.7879 21.6773 55.8798 21.7277 55.98 21.75C56.39 21.83 56.98 21.49 57.57 20.75C57.951 20.2529 58.1614 19.6462 58.17 19.02C58.3722 18.9902 58.5778 18.9902 58.78 19.02C59.2355 19.0853 59.6728 19.2433 60.0649 19.484C60.457 19.7248 60.7957 20.0434 61.06 20.42C62.34 22.07 62.92 25.64 62.68 30.47C62.51 34.15 60.3 39.78 57.31 42.31L57.51 42.55C59.1754 40.9989 60.4795 39.1008 61.33 36.99C62.2591 34.9365 62.8242 32.7371 63 30.49C63.3 24.11 62.25 21.36 61.31 20.19ZM57.84 19.11C57.8264 19.6318 57.6479 20.1359 57.33 20.55C56.64 21.36 56.24 21.44 56.1 21.44H56.04C55.9967 21.4275 55.9578 21.403 55.9277 21.3694C55.8976 21.3358 55.8776 21.2944 55.87 21.25C55.845 21.0352 55.8739 20.8175 55.9543 20.6167C56.0346 20.4159 56.1638 20.2383 56.33 20.1C56.7471 19.6447 57.2639 19.2922 57.84 19.07V19.11ZM21.16 10.11C21.79 11.03 21.9 11.68 21.74 11.91C21.7239 11.938 21.7005 11.9611 21.6723 11.9769C21.6442 11.9928 21.6123 12.0007 21.58 12H21.49C21.19 11.92 20.83 11.49 20.74 10.73C20.7048 10.3709 20.7048 10.0091 20.74 9.64999C20.8789 9.76385 21.0062 9.89114 21.12 10.03L21.16 10.11Z" fill="black"/>
<path d="M18.73 49.7C18.0236 49.7053 17.3439 49.4304 16.8397 48.9356C16.3355 48.4408 16.048 47.7663 16.04 47.0599C16.042 46.4759 16.2391 45.9092 16.6 45.45L16.78 45.5999C16.4538 46.0165 16.2776 46.5309 16.28 47.0599C16.2766 47.4439 16.3636 47.8234 16.5338 48.1676C16.704 48.5118 16.9529 48.8112 17.2601 49.0416C17.5673 49.272 17.9244 49.4269 18.3025 49.4939C18.6806 49.5609 19.0691 49.5381 19.4368 49.4273C19.8045 49.3165 20.141 49.1208 20.4192 48.8561C20.6973 48.5913 20.9093 48.2649 21.0381 47.9031C21.1669 47.5413 21.2088 47.1543 21.1605 46.7734C21.1122 46.3924 20.9751 46.0281 20.7601 45.7099L20.9501 45.58C21.2492 46.0156 21.4095 46.5315 21.41 47.0599C21.4074 47.4093 21.3361 47.7546 21.2 48.0764C21.0639 48.3981 20.8657 48.6898 20.6168 48.935C20.368 49.1801 20.0732 49.3739 19.7495 49.5051C19.4258 49.6364 19.0794 49.7026 18.73 49.7Z" fill="black"/>
<path d="M18.73 48.5001C19.5419 48.5001 20.2 47.8419 20.2 47.0301C20.2 46.2182 19.5419 45.5601 18.73 45.5601C17.9182 45.5601 17.26 46.2182 17.26 47.0301C17.26 47.8419 17.9182 48.5001 18.73 48.5001Z" fill="black"/>
<path d="M20.29 47.3101C20.2874 47.4409 20.2336 47.5655 20.1401 47.6572C20.0467 47.7488 19.9209 47.8001 19.79 47.8C19.6574 47.8 19.5303 47.7474 19.4365 47.6536C19.3428 47.5599 19.29 47.4327 19.29 47.3C19.29 47.1674 19.3428 47.0403 19.4365 46.9465C19.5303 46.8527 19.6574 46.8 19.79 46.8C19.8565 46.8 19.9224 46.8133 19.9838 46.8391C20.0451 46.8648 20.1007 46.9025 20.1472 46.95C20.1938 46.9975 20.2304 47.0538 20.2549 47.1157C20.2794 47.1775 20.2914 47.2436 20.29 47.3101Z" fill="white"/>
<path d="M18.3701 46.6201C18.3793 46.6786 18.3757 46.7384 18.3596 46.7954C18.3435 46.8524 18.3152 46.9053 18.2767 46.9503C18.2382 46.9953 18.1905 47.0315 18.1367 47.0563C18.0829 47.0811 18.0243 47.0939 17.965 47.0939C17.9058 47.0939 17.8473 47.0811 17.7935 47.0563C17.7397 47.0315 17.6919 46.9953 17.6534 46.9503C17.6149 46.9053 17.5866 46.8524 17.5705 46.7954C17.5544 46.7384 17.5508 46.6786 17.5601 46.6201C17.5508 46.5615 17.5544 46.5017 17.5705 46.4447C17.5866 46.3877 17.6149 46.3349 17.6534 46.2898C17.6919 46.2448 17.7397 46.2087 17.7935 46.1839C17.8473 46.1591 17.9058 46.1462 17.965 46.1462C18.0243 46.1462 18.0829 46.1591 18.1367 46.1839C18.1905 46.2087 18.2382 46.2448 18.2767 46.2898C18.3152 46.3349 18.3435 46.3877 18.3596 46.4447C18.3757 46.5017 18.3793 46.5615 18.3701 46.6201Z" fill="white"/>
<path d="M44 49.8199C43.3545 49.8206 42.7301 49.59 42.24 49.1699C41.9762 48.9434 41.7599 48.6667 41.6037 48.356C41.4475 48.0454 41.3545 47.7068 41.33 47.3599C41.2896 46.778 41.4482 46.1997 41.78 45.7199L41.97 45.8499C41.6381 46.3322 41.4972 46.9206 41.5749 47.5009C41.6525 48.0811 41.943 48.6118 42.39 48.9899C42.8833 49.412 43.5223 49.6238 44.17 49.5799C44.8131 49.5413 45.4145 49.2489 45.8421 48.7669C46.2696 48.285 46.4883 47.653 46.45 47.0099C46.4158 46.4921 46.2393 45.9939 45.94 45.5699L46.13 45.4199C46.4595 45.8838 46.6502 46.4317 46.68 46.9999C46.721 47.704 46.4807 48.3956 46.0119 48.9225C45.5431 49.4495 44.8841 49.7687 44.18 49.8099L44 49.8199Z" fill="black"/>
<path d="M45.48 46.98C45.4992 47.2723 45.4313 47.5637 45.2848 47.8173C45.1383 48.0709 44.9199 48.2754 44.6572 48.4048C44.3944 48.5342 44.0992 48.5827 43.8088 48.5443C43.5185 48.5058 43.246 48.3821 43.0261 48.1887C42.8061 47.9953 42.6484 47.7411 42.5731 47.4581C42.4977 47.175 42.508 46.876 42.6026 46.5988C42.6972 46.3217 42.8719 46.0788 43.1047 45.901C43.3374 45.7232 43.6177 45.6185 43.91 45.6C44.3004 45.578 44.6839 45.7104 44.9776 45.9685C45.2713 46.2267 45.4517 46.59 45.48 46.98Z" fill="black"/>
<path d="M45.5801 47.2499C45.5894 47.3825 45.5456 47.5134 45.4584 47.6137C45.3712 47.714 45.2477 47.7756 45.1151 47.7849C44.9824 47.7942 44.8516 47.7504 44.7513 47.6632C44.651 47.576 44.5894 47.4525 44.5801 47.3199C44.5755 47.2543 44.5839 47.1883 44.6047 47.1259C44.6256 47.0635 44.6586 47.0058 44.7018 46.9561C44.745 46.9064 44.7975 46.8657 44.8564 46.8364C44.9153 46.807 44.9794 46.7895 45.045 46.7849C45.1107 46.7803 45.1767 46.7887 45.2391 46.8096C45.3015 46.8305 45.3592 46.8634 45.4089 46.9066C45.4586 46.9498 45.4993 47.0023 45.5286 47.0612C45.558 47.1201 45.5755 47.1843 45.5801 47.2499Z" fill="white"/>
<g opacity="0.7">
<g opacity="0.7">
<path opacity="0.7" d="M17.7601 55.19C18.1601 55.38 19.1201 56.19 22.1701 55.7C25.0501 55.19 25.36 56.03 25.28 58.37C25.2 60.71 21.77 72.1601 17.28 71.8301C12.79 71.5001 11.0801 55.6 12.0101 54.02C13.1001 52.18 16.09 54.39 17.78 55.19" fill="#F7D06F"/>
<path opacity="0.7" d="M27.5401 59.4301C27.5401 59.4301 31.1301 50.5701 27.3701 44.5501C23.6101 38.5301 16.5001 41.5501 13.3701 44.8001C13.3701 44.8001 13.5401 37.6101 14.1201 32.8501C14.7001 28.0901 21.2301 25.5801 26.5801 27.5001C31.9301 29.4201 34.7701 29.4201 40.5801 27.5001C46.3901 25.5801 50.5201 28.5901 50.9401 33.1801C51.3601 37.7701 51.6901 43.0501 52.1101 43.8001C52.1101 43.8001 47.1801 39.9501 42.5901 40.8001C38.0001 41.6501 33.5901 48.7401 36.5901 59.8001C36.5901 59.8001 31.6601 61.8901 27.4801 59.4701" fill="#BCF1D3"/>
<path opacity="0.7" d="M27.9601 75.5601C30.7544 76.2155 33.6521 76.3005 36.48 75.8101C37.2645 78.0772 38.424 80.1967 39.91 82.0801C39.91 82.0801 33.39 86.4201 24.28 81.6601C25.7058 79.7537 26.9386 77.7103 27.9601 75.5601Z" fill="#F2A4A2"/>
<path opacity="0.7" d="M47.17 55.19C46.77 55.38 45.81 56.19 42.76 55.7C39.88 55.19 39.57 56.03 39.65 58.37C39.73 60.71 43.16 72.1601 47.65 71.8301C52.14 71.5001 53.85 55.6 52.92 54.02C51.83 52.18 48.84 54.39 47.15 55.19" fill="#F19E85"/>
</g>
</g>
<path d="M43.63 46.6899C43.6357 46.7707 43.6173 46.8514 43.5772 46.9217C43.5371 46.9921 43.4771 47.049 43.4047 47.0853C43.3323 47.1216 43.2507 47.1356 43.1703 47.1256C43.0899 47.1156 43.0143 47.082 42.953 47.029C42.8917 46.9761 42.8475 46.9062 42.8259 46.8281C42.8043 46.7501 42.8063 46.6673 42.8316 46.5904C42.857 46.5135 42.9046 46.4458 42.9684 46.3959C43.0321 46.3459 43.1093 46.316 43.19 46.3099C43.2982 46.3043 43.4044 46.3406 43.4864 46.4115C43.5684 46.4823 43.6199 46.582 43.63 46.6899Z" fill="white"/>
</svg>
