<svg width="64" height="105" viewBox="0 0 64 105" fill="none" xmlns="http://www.w3.org/2000/svg">
<path d="M43.63 99.6401C43.0996 97.228 42.8811 94.7578 42.98 92.2901C43.0647 87.9594 43.6724 83.6549 44.79 79.4701C45.79 78.4701 46.18 77.8901 46.08 77.5401C46.0615 77.4673 46.0207 77.4022 45.9633 77.3538C45.9059 77.3053 45.8349 77.2761 45.76 77.2701H45.68C45.49 77.2701 45.17 77.4201 44.68 78.7301C44.62 78.9101 44.55 79.1001 44.49 79.3101C43.96 79.8401 43.38 80.3701 43.04 80.6801L42.57 81.1101C39.81 83.7001 36.69 86.1101 32.65 86.1101C32.1748 86.1116 31.7003 86.0782 31.23 86.0101C28.48 85.6401 25.07 83.6501 22.7 82.0101C20.916 80.8567 19.2422 79.5411 17.7 78.0801C16.4425 76.8678 15.2915 75.5496 14.26 74.1401C12.1399 71.4251 10.669 68.261 9.96002 64.8901C9.81002 63.8901 9.64003 62.8901 9.47003 61.9401C8.57997 57.4354 8.04166 52.8683 7.86002 48.2801C8.2867 48.415 8.7326 48.4792 9.18002 48.4701C10.5623 48.4827 11.9216 48.116 13.11 47.4101C13.7159 48.3162 14.525 49.0684 15.473 49.6066C16.4209 50.1448 17.4814 50.4542 18.57 50.5101C19.9414 50.4984 21.2872 50.137 22.48 49.4601C22.9556 49.1615 23.4921 48.9735 24.05 48.9101C24.3345 48.9189 24.6111 49.0053 24.85 49.1601C24.9205 49.35 24.9806 49.5436 25.03 49.7401L25.1 50.0301L25.3 49.8101C25.8313 49.1392 26.0918 48.2936 26.03 47.4401C26.0136 46.4566 25.6843 45.5039 25.09 44.7201C24.0117 43.7444 22.7411 43.0052 21.36 42.55C19.5842 41.836 17.6936 41.4498 15.78 41.4101C15.4902 41.3947 15.1998 41.3947 14.91 41.4101C13.2809 41.4419 11.6911 41.9154 10.31 42.7801C10.8449 41.9876 11.5425 41.3181 12.3564 40.8164C13.1703 40.3146 14.0817 39.992 15.03 39.8701C15.5462 39.7915 16.0679 39.7547 16.59 39.7601C18.607 39.8152 20.6035 40.1795 22.51 40.8401C26.99 42.2701 29.09 45.4301 28.94 50.5001C28.99 55.3001 28.5 58.8801 27.6 60.3201C27.13 61.0701 26.78 62.9501 27.6 63.6501C27.782 63.823 28.0194 63.9258 28.27 63.9401C28.4221 63.9217 28.5685 63.8711 28.6995 63.7918C28.8305 63.7125 28.9432 63.6063 29.03 63.4801C29.27 63.2201 29.42 63.0801 29.65 63.1701C29.9132 63.2977 30.1585 63.4591 30.38 63.6501C30.8163 64.0693 31.3787 64.3329 31.98 64.4001C32.4936 64.3736 32.9787 64.156 33.34 63.7901C33.5829 63.5206 33.9186 63.3527 34.28 63.3201C34.56 63.3201 34.86 63.5401 35.28 63.9901C34.6835 64.0446 34.1062 64.2285 33.588 64.529C33.0699 64.8295 32.6235 65.2394 32.28 65.7301C32.0625 66.2658 31.9658 66.8428 31.9969 67.4202C32.0281 67.9975 32.1861 68.5609 32.46 69.0701C32.46 69.2001 32.55 69.3001 32.57 69.3701L32.64 69.6001L32.85 69.4201C33.6059 68.9626 34.4669 68.7078 35.35 68.6801C36.403 68.7543 37.419 69.0987 38.3 69.6801C38.9545 70.0654 39.6528 70.371 40.38 70.5901C39.71 70.7501 39 70.9701 38.26 71.2101C36.4696 71.8638 34.593 72.2513 32.69 72.3601C32.7171 72.2148 32.7338 72.0677 32.74 71.9201C32.8275 71.4655 32.8239 70.9981 32.7295 70.545C32.6351 70.0918 32.4517 69.6619 32.19 69.2801C31.9505 69.0548 31.6669 68.8817 31.3571 68.7715C31.0473 68.6614 30.718 68.6166 30.39 68.6401C29.1645 68.6882 27.961 68.9806 26.85 69.5001C25.8988 69.9317 24.8871 70.215 23.85 70.3401L22.37 70.4601L23.84 70.6501C25.2274 70.8759 26.5949 71.2103 27.93 71.6501C29.3311 72.1569 30.7883 72.4927 32.27 72.6501C32.2076 72.9453 32.0752 73.2212 31.8837 73.4544C31.6922 73.6877 31.4474 73.8714 31.17 73.9901C30.8527 74.1184 30.5122 74.1797 30.17 74.1701C28.1594 73.9509 26.278 73.0718 24.82 71.6701L23.7 70.6701L24.59 71.8801C25.5784 73.1888 26.7544 74.3445 28.08 75.3101C29.323 76.3162 30.8449 76.9166 32.44 77.0301C35.57 77.0301 37.95 74.5301 40.04 72.3301L41.11 71.2301L40.89 71.0101C40.54 71.3601 40.19 71.7301 39.82 72.1201C37.77 74.2801 35.44 76.7201 32.44 76.7201C30.88 76.7201 28.31 75.7201 25.73 72.7801C27.0252 73.7586 28.5721 74.3483 30.19 74.4801C30.5596 74.4841 30.9264 74.4161 31.27 74.2801C31.6029 74.1372 31.8955 73.9148 32.1222 73.6323C32.3489 73.3498 32.5027 73.0159 32.57 72.6601H32.67C34.5997 72.5498 36.503 72.1591 38.32 71.5001C39.2761 71.168 40.2554 70.9072 41.25 70.7201L42.68 70.5101L41.24 70.4101C40.2373 70.2909 39.2738 69.9492 38.42 69.4101C37.4893 68.817 36.4219 68.4727 35.32 68.4101C34.4228 68.4303 33.5453 68.678 32.77 69.1301V69.0301C32.5145 68.564 32.3643 68.0476 32.3297 67.5172C32.2952 66.9869 32.3772 66.4553 32.57 65.9601C32.9241 65.4775 33.3819 65.0805 33.9098 64.7984C34.4376 64.5163 35.0221 64.3563 35.62 64.3301L35.9 64.2801L35.71 64.0701C35.22 63.5001 34.79 63.0701 34.31 63.0701C34.088 63.0783 33.87 63.1312 33.6689 63.2257C33.4679 63.3202 33.288 63.4543 33.14 63.6201C32.8554 63.9328 32.4693 64.1348 32.05 64.1901C31.52 64.121 31.0277 63.8784 30.65 63.5001C30.4007 63.2888 30.1251 63.1106 29.83 62.9701C29.7473 62.9557 29.6627 62.9557 29.58 62.9701C29.4369 62.9879 29.2994 63.0364 29.1769 63.1124C29.0543 63.1883 28.9497 63.2899 28.87 63.4101C28.69 63.6001 28.54 63.7701 28.33 63.7701C28.1574 63.7468 27.9965 63.6698 27.87 63.55C27.19 62.99 27.49 61.2901 27.87 60.6301C28.42 59.7501 29.33 57.2801 29.25 50.6301C29.41 45.4101 27.25 42.1501 22.61 40.6801C20.678 40.0087 18.6545 39.6378 16.61 39.5801C16.0781 39.5801 15.5469 39.6169 15.02 39.6901C10.18 40.3901 9.61001 44.0301 9.60001 44.0601V44.2501L9.70001 44.0901C10.48 42.8201 12.21 42.0901 15 41.8501C15.28 41.8501 15.56 41.8501 15.85 41.8501C19.85 41.8501 24.2 44.1201 24.9 45.0401C25.3903 45.6632 25.6899 46.4149 25.7627 47.2045C25.8354 47.994 25.6782 48.7878 25.31 49.4901C25.2744 49.3674 25.231 49.2472 25.18 49.1301C25.04 47.3801 23.54 45.8 21.28 45.0201C20.284 44.69 19.2392 44.5311 18.19 44.55C16.9416 44.5417 15.7008 44.7445 14.52 45.1501C13.9803 45.3555 13.4667 45.6241 12.99 45.9501C12.3241 46.4604 11.526 46.7693 10.69 46.8401H10.11L10.62 47.1101C10.9283 47.2729 11.2714 47.3587 11.62 47.3601C12.3239 47.3088 13.0073 47.1004 13.62 46.7501C13.9429 46.5836 14.2771 46.4399 14.62 46.3201C15.9943 45.8498 17.4376 45.6132 18.89 45.6201C20.3053 45.607 21.6943 46.0029 22.89 46.7601C23.6675 47.2577 24.3044 47.9462 24.74 48.7601C24.5479 48.689 24.3449 48.6517 24.14 48.6501C23.5333 48.7105 22.9484 48.9089 22.43 49.2301C21.2772 49.8745 19.9807 50.2184 18.66 50.2301C17.6152 50.1704 16.5986 49.8682 15.6909 49.3475C14.7831 48.8268 14.009 48.1018 13.43 47.2301C13.36 47.1301 13.34 47.1101 13.31 47.0901L13.21 47.0301L13.12 47.1101C11.969 47.8368 10.6311 48.2121 9.27002 48.1901C8.78713 48.215 8.3049 48.1295 7.86002 47.9401L7.63 47.8301V48.0901C7.79495 52.7727 8.33673 57.4344 9.25003 62.0301C9.42003 63.0301 9.59002 64.0301 9.74002 64.9801C10.4548 68.4028 11.9465 71.6154 14.1 74.3701C15.1396 75.7976 16.297 77.1357 17.56 78.3701C19.12 79.8563 20.8138 81.1953 22.62 82.3701C25.02 83.9901 28.48 86.0001 31.28 86.3701C31.7676 86.4329 32.2585 86.4663 32.75 86.4701C36.9 86.4701 40.08 84.0201 42.89 81.3901L43.36 80.9501L44.42 79.9501C43.3996 83.994 42.8394 88.1403 42.75 92.3101C42.6443 94.8082 42.8662 97.3095 43.41 99.7501C44 102.08 44.97 103.61 46.3 104.29L46.44 104C45.12 103.34 44.2 101.89 43.63 99.6401ZM45.05 78.7801C45.48 77.6001 45.71 77.5701 45.72 77.5701C45.73 77.5701 45.81 77.6201 45.81 77.6301C45.81 77.6401 45.7 78.0401 45.05 78.7801ZM23.05 46.4101C21.8059 45.6139 20.357 45.1969 18.88 45.2101C17.4003 45.2099 15.9307 45.4531 14.53 45.9301C14.1891 46.0626 13.8553 46.2128 13.53 46.3801C12.9768 46.7045 12.3587 46.9025 11.72 46.9601C11.6336 46.97 11.5464 46.97 11.46 46.9601C12.0974 46.785 12.6997 46.5008 13.24 46.1201C13.6986 45.8106 14.1879 45.5493 14.7 45.3401C15.8494 44.9504 17.0564 44.7577 18.27 44.7701C19.2874 44.7513 20.3009 44.8999 21.27 45.2101C22.6705 45.627 23.8605 46.5598 24.6 47.8201C24.1527 47.2532 23.6032 46.7749 22.98 46.4101H23.05ZM32.52 71.9401C32.52 72.1001 32.52 72.2501 32.52 72.3901C31.0443 72.2361 29.5933 71.9002 28.2 71.3901C27.2 71.0701 26.09 70.74 25 70.5201C25.7185 70.335 26.4234 70.1011 27.11 69.8201C28.1777 69.3109 29.338 69.0251 30.52 68.9801C30.8049 68.9556 31.0917 68.991 31.3621 69.084C31.6325 69.177 31.8804 69.3255 32.09 69.5201C32.5248 70.2476 32.6542 71.1175 32.45 71.9401H32.52Z" fill="black"/>
<path d="M58.3901 45.44C58.1933 45.3517 57.9784 45.3111 57.7629 45.3215C57.5474 45.3319 57.3374 45.3931 57.15 45.5C56.2615 46.0273 55.5991 46.8642 55.2901 47.85C54.5918 48.0135 53.8772 48.0974 53.16 48.1C52.6074 48.1481 52.0507 48.0843 51.5233 47.9125C50.9958 47.7407 50.5084 47.4644 50.09 47.1L50.0001 47.02L49.8901 47.08C49.8901 47.08 49.89 47.08 49.77 47.22C49.191 48.0918 48.417 48.8167 47.5092 49.3375C46.6015 49.8582 45.5849 50.1603 44.5401 50.22C43.2194 50.2083 41.9229 49.8644 40.77 49.22C40.2517 48.8989 39.6668 48.7005 39.0601 48.64C38.8553 48.6425 38.6524 48.6797 38.46 48.75C38.8956 47.9362 39.5326 47.2476 40.3101 46.75C41.5058 45.9928 42.8948 45.597 44.3101 45.61C45.7592 45.6043 47.199 45.8409 48.5701 46.31C48.9122 46.4321 49.2462 46.5757 49.5701 46.74C50.1815 47.0932 50.8656 47.3019 51.5701 47.35C51.919 47.3511 52.2627 47.2652 52.5701 47.1L53.0801 46.83H52.5101C51.6707 46.7611 50.8688 46.4522 50.2001 45.94C49.7257 45.616 49.2157 45.3476 48.6801 45.14C47.4959 44.7345 46.2518 44.5317 45.0001 44.54C43.9509 44.5211 42.9061 44.68 41.91 45.01C39.6501 45.79 38.1601 47.37 38.0101 49.12C37.9625 49.2374 37.9225 49.3576 37.8901 49.48C37.2001 48.41 37.3701 46.48 38.3001 45.01C39.2777 43.9208 40.5483 43.1362 41.96 42.75C43.6159 42.1547 45.3605 41.8437 47.1201 41.83C47.4901 41.83 47.8401 41.83 48.1901 41.88C49.8101 42.02 53.1901 42.73 54.1901 44.46L54.65 45.2L54.4801 44.35C54.3017 43.6141 53.9638 42.9263 53.4904 42.3354C53.0169 41.7444 52.4194 41.2646 51.7401 40.93C49.8311 39.9435 47.7087 39.4421 45.5601 39.47C44.3378 39.4509 43.1209 39.6368 41.96 40.02C41.46 40.2 40.9601 40.4 40.4801 40.6C39.0309 41.3108 37.4521 41.7191 35.84 41.8H35.7301C32.8454 41.7693 30.0213 40.9683 27.5501 39.48C25.0328 37.9947 22.899 35.9397 21.3201 33.48C20.8426 32.74 20.466 31.9396 20.2001 31.1C21.2001 29.91 21.5401 28.83 21.1201 27.89C20.9001 27.39 20.6201 27.29 20.4201 27.29H20.3101C20.0673 27.396 19.8611 27.5709 19.7171 27.7932C19.573 28.0155 19.4976 28.2752 19.5001 28.54C19.4906 29.3731 19.6086 30.2027 19.8501 31C19.0062 31.8377 18.0664 32.5728 17.0501 33.19C15.7628 33.9833 14.4268 34.6947 13.0501 35.32C10.7601 36.4 8.61007 37.43 7.31007 39.17C5.87007 41.11 5.69006 43.68 6.76006 47.25C6.98006 47.96 6.27005 49.92 5.38005 52.4C3.84005 56.7 1.51007 63.19 1.65007 69.57C1.66363 72.8291 2.51045 76.0305 4.11006 78.87C6.15347 82.2014 9.11547 84.8717 12.6401 86.56L12.7901 86.28C9.32017 84.6173 6.40359 81.9888 4.39006 78.71C2.81546 75.9166 1.98235 72.7666 1.97008 69.56C1.83008 63.25 4.15008 56.78 5.69008 52.5C6.64008 49.87 7.32006 47.97 7.08006 47.16C6.08006 43.69 6.20006 41.21 7.58006 39.36C8.82006 37.68 10.9501 36.67 13.2001 35.6C14.5785 34.9707 15.9147 34.2525 17.2001 33.45C18.1912 32.8313 19.1074 32.0997 19.9301 31.27C20.1989 32.0748 20.5649 32.8439 21.0201 33.56C22.6265 36.0592 24.7983 38.1454 27.3601 39.65C29.8766 41.1655 32.7526 41.9803 35.6901 42.01H35.8101C37.4623 41.9252 39.0808 41.5104 40.5701 40.79C41.0401 40.6 41.5701 40.4 42.0401 40.22C43.1637 39.8408 44.3443 39.6582 45.53 39.68C47.616 39.6562 49.6761 40.1437 51.53 41.1C52.5715 41.6354 53.4027 42.5053 53.8901 43.57C52.4501 42.18 49.63 41.57 48.15 41.47C47.7803 41.4499 47.4098 41.4499 47.0401 41.47C43.0901 41.47 38.91 43.26 37.96 44.8C36.88 46.56 36.79 48.8 37.77 49.88L37.96 50.1L38.0401 49.81C38.0803 49.6111 38.1406 49.4168 38.22 49.23C38.4582 49.0739 38.7353 48.9873 39.02 48.98C39.5747 49.044 40.108 49.2319 40.5801 49.53C41.7729 50.207 43.1186 50.5684 44.4901 50.58C45.5761 50.5237 46.634 50.2151 47.58 49.6788C48.526 49.1424 49.3341 48.393 49.9401 47.49C50.8979 48.2348 52.101 48.5918 53.3101 48.49C54.0186 48.4708 54.7228 48.3735 55.41 48.2H55.5001V48.1C55.7748 47.168 56.3883 46.3724 57.22 45.87C57.3685 45.7775 57.5378 45.7236 57.7124 45.7131C57.8871 45.7026 58.0616 45.7359 58.22 45.81C59.64 46.48 58.82 49.19 58.72 49.5C58.62 49.81 58.5301 50.09 58.4401 50.37C58.0214 51.4693 57.7328 52.6137 57.5801 53.78C57.5801 54.09 57.5301 54.38 57.5101 54.66C57.5321 55.7155 57.2546 56.7556 56.71 57.66C56.5533 57.4942 56.3642 57.3624 56.1543 57.2729C55.9443 57.1834 55.7182 57.1382 55.4901 57.14C55.2723 57.1433 55.0564 57.1804 54.8501 57.25C54.4258 57.3905 54.0548 57.6574 53.7866 58.015C53.5185 58.3725 53.3662 58.8034 53.3501 59.25C53.3507 59.5593 53.413 59.8654 53.5332 60.1504C53.6533 60.4354 53.829 60.6937 54.0501 60.91V60.97C54.1805 61.8293 54.3846 62.6757 54.66 63.5C53.2304 66.1495 52.449 69.1002 52.3801 72.11C52.3801 77.99 53.9401 78.86 54.8701 78.86C55.8001 78.86 57.3601 77.99 57.3601 72.11C57.2603 69.3679 56.6286 66.6712 55.5001 64.17L55.1901 63.48V64.19C55.1601 64.7266 55.0097 65.2495 54.7501 65.72C54.4945 66.1124 54.3429 66.5634 54.3097 67.0305C54.2765 67.4975 54.3626 67.9654 54.5601 68.39C54.6801 68.62 54.8001 68.84 54.9201 69.04C55.231 69.4128 55.4313 69.8651 55.4985 70.3458C55.5656 70.8265 55.4969 71.3164 55.3001 71.76C55.1401 72.12 54.9701 72.45 54.8001 72.76C54.3637 73.3144 54.1116 73.9914 54.0794 74.6961C54.0471 75.4009 54.2362 76.0981 54.6201 76.69C54.8758 77.0652 55.0339 77.4983 55.0801 77.95H55.3901C55.3473 77.4433 55.1788 76.9553 54.9 76.53C54.6947 76.1993 54.5429 75.8381 54.4501 75.46C54.3373 74.5614 54.5618 73.6528 55.0801 72.91C55.2501 72.59 55.43 72.26 55.59 71.91C55.8041 71.4218 55.8809 70.8844 55.8122 70.3558C55.7435 69.8272 55.5319 69.3273 55.2001 68.91C55.0801 68.71 54.96 68.5 54.84 68.27C54.6667 67.8877 54.5941 67.4674 54.6291 67.049C54.6641 66.6307 54.8056 66.2282 55.0401 65.88C55.2044 65.5392 55.3382 65.1845 55.4401 64.82C56.4034 67.1279 56.942 69.5907 57.03 72.09C57.03 76.18 56.2401 78.53 54.8601 78.53C53.4801 78.53 52.6901 76.18 52.6901 72.09C52.7572 69.1097 53.5354 66.1886 54.96 63.57V63.51V63.42C54.712 62.6818 54.5182 61.9265 54.3801 61.16C54.5095 61.2406 54.6469 61.3076 54.7901 61.36C54.9774 61.4218 55.1729 61.4555 55.3701 61.46C55.6673 61.4473 55.9575 61.3658 56.2178 61.2217C56.4782 61.0777 56.7014 60.8751 56.8701 60.63C57.1374 60.304 57.2671 59.8866 57.2316 59.4665C57.1962 59.0464 56.9983 58.6566 56.6801 58.38C56.4079 58.1297 56.0498 57.9936 55.6801 58C55.2372 58.0143 54.8174 58.2008 54.5101 58.52C54.2903 58.7692 54.1252 59.0617 54.0253 59.3786C53.9254 59.6955 53.8929 60.0299 53.9301 60.36C53.7054 60.0257 53.5838 59.6328 53.5801 59.23C53.5947 58.8485 53.7262 58.4808 53.957 58.1766C54.1878 57.8725 54.5066 57.6467 54.8701 57.53C55.044 57.4711 55.2264 57.4407 55.41 57.44C55.625 57.4396 55.8371 57.4891 56.0297 57.5845C56.2223 57.68 56.3901 57.8188 56.52 57.99L56.65 58.16L56.77 57.99C57.4436 57.0045 57.7931 55.8335 57.77 54.64C57.77 54.38 57.77 54.08 57.84 53.77C57.9957 52.629 58.2774 51.5089 58.6801 50.43C58.7701 50.15 58.87 49.85 58.96 49.56C59.1829 48.8788 59.2977 48.1668 59.3001 47.45C59.3622 47.0627 59.3091 46.6656 59.1473 46.3082C58.9855 45.9508 58.7222 45.6489 58.3901 45.44ZM40.1401 46.44C39.5714 46.8159 39.0708 47.286 38.66 47.83C39.3995 46.5698 40.5896 45.637 41.9901 45.22C42.9593 44.9106 43.9728 44.762 44.9901 44.78C46.2037 44.7677 47.4106 44.9604 48.5601 45.35C49.0732 45.5571 49.5626 45.8186 50.02 46.13C50.5604 46.5108 51.1627 46.795 51.8001 46.97C51.717 46.9795 51.6331 46.9795 51.5501 46.97C50.9082 46.9126 50.2868 46.7146 49.7301 46.39C49.4057 46.2208 49.0718 46.0705 48.7301 45.94C47.3257 45.4639 45.8529 45.2207 44.3701 45.22C42.8737 45.1921 41.4024 45.6061 40.1401 46.41V46.44ZM20.0501 30.62C19.86 29.9125 19.7658 29.1827 19.7701 28.45C19.7701 28.06 20.0701 27.56 20.3401 27.51C20.5301 27.51 20.6701 27.74 20.7501 27.93C21.1801 28.69 20.9301 29.6 20.0501 30.62ZM54.8501 58.69C54.9676 58.5621 55.1095 58.459 55.2675 58.3869C55.4255 58.3148 55.5964 58.275 55.77 58.27C56.0554 58.2692 56.3305 58.3764 56.5401 58.57C56.797 58.7942 56.9564 59.1097 56.9845 59.4496C57.0125 59.7894 56.9069 60.1268 56.6901 60.39C56.55 60.5977 56.3629 60.7694 56.1439 60.891C55.925 61.0127 55.6804 61.0808 55.4301 61.09C55.2702 61.0878 55.1116 61.0608 54.96 61.01C54.7538 60.9354 54.5613 60.8272 54.3901 60.69C54.3162 60.3433 54.3191 59.9846 54.3986 59.6391C54.478 59.2936 54.6321 58.9697 54.8501 58.69Z" fill="black"/>
<path d="M61.3101 20.19C61.0159 19.7795 60.642 19.4324 60.2108 19.1696C59.7795 18.9067 59.2997 18.7334 58.8 18.66C58.5941 18.6355 58.386 18.6355 58.18 18.66C58.1159 17.0661 57.7208 15.503 57.02 14.07C55.2877 10.4098 52.6642 7.24298 49.3901 4.86002C47.4165 3.41709 45.2438 2.26843 42.9401 1.45001C40.3138 0.538451 37.5596 0.0490301 34.78 0H34.28C29.43 0 25.3501 1.54 22.8101 4.34C21.5962 5.63855 20.7836 7.26032 20.4701 9.01001C19.6809 8.57811 18.8075 8.32224 17.91 8.26001C17.6036 8.24433 17.2965 8.24433 16.99 8.26001C13.12 8.26001 8.82005 10.26 5.49005 13.58C2.44005 16.58 0.490033 21.76 0.0700334 27.68C-0.299967 33.29 0.810033 38.8 3.07003 42.42C4.04131 44.0006 4.69043 45.7576 4.98004 47.59C5.17004 48.5508 5.15977 49.5405 4.94986 50.4972C4.73994 51.4539 4.33488 52.357 3.76004 53.15L4.01004 53.34C4.61 52.5148 5.03333 51.5747 5.25357 50.5784C5.4738 49.5822 5.48622 48.5512 5.29003 47.55C4.98828 45.6695 4.30787 43.8698 3.29003 42.26C1.09003 38.69 5.1707e-05 33.26 0.370052 27.7C0.750052 21.86 2.69006 16.79 5.69006 13.8C8.97006 10.53 13.1801 8.57001 16.9701 8.57001C17.2674 8.57085 17.5645 8.58753 17.86 8.62C18.759 8.67128 19.6329 8.9352 20.41 9.39001C20.36 9.83194 20.36 10.2781 20.41 10.72C20.41 11.0446 20.5046 11.3622 20.6822 11.6339C20.8598 11.9057 21.1127 12.1198 21.41 12.25C21.5154 12.2825 21.6284 12.2806 21.7327 12.2447C21.837 12.2087 21.9271 12.1405 21.99 12.05C22.27 11.65 22.06 10.84 21.41 9.89999C21.2322 9.63868 21.0087 9.41171 20.7501 9.23001C21.0277 7.48976 21.8221 5.87314 23.0301 4.59C25.6001 1.77 29.7801 0.250016 34.7601 0.360016C37.5088 0.407048 40.2326 0.889702 42.8301 1.79001C45.1036 2.59154 47.2466 3.72369 49.1901 5.14999C52.4164 7.50309 55.0045 10.624 56.72 14.23C57.415 15.6459 57.8002 17.1936 57.85 18.77C57.1888 18.9889 56.5914 19.3666 56.11 19.87C55.9013 20.0483 55.7413 20.2768 55.6451 20.5339C55.5489 20.7911 55.5197 21.0684 55.5601 21.34C55.5834 21.4397 55.6342 21.531 55.7066 21.6034C55.779 21.6759 55.8703 21.7266 55.97 21.75C56.38 21.83 56.9701 21.49 57.5601 20.75C57.941 20.2529 58.1514 19.6462 58.16 19.02C58.3623 18.9904 58.5678 18.9904 58.77 19.02C59.2255 19.0853 59.6628 19.2433 60.0549 19.484C60.4471 19.7248 60.7857 20.0434 61.05 20.42C62.33 22.07 62.91 25.64 62.68 30.47C62.5 34.15 60.3 39.78 57.3 42.31L57.5101 42.55C59.1688 40.9954 60.469 39.0981 61.3201 36.99C62.2491 34.9365 62.8142 32.7371 62.99 30.49C63.31 24.11 62.2501 21.36 61.3101 20.19ZM57.85 19.11C57.8283 19.6319 57.6468 20.1346 57.3301 20.55C56.6501 21.36 56.24 21.44 56.1 21.44C56.0549 21.4292 56.0138 21.4054 55.9819 21.3717C55.9499 21.338 55.9284 21.2957 55.92 21.25C55.8971 21.0344 55.928 20.8165 56.0101 20.6158C56.0921 20.415 56.2227 20.2378 56.3901 20.1C56.7902 19.648 57.29 19.2954 57.85 19.07V19.11ZM21.16 10.11C21.79 11.03 21.9101 11.68 21.7501 11.91C21.7316 11.9381 21.7063 11.961 21.6766 11.9768C21.6469 11.9925 21.6137 12.0005 21.58 12H21.5001C21.2001 11.92 20.83 11.49 20.74 10.73C20.7099 10.3706 20.7099 10.0094 20.74 9.64999C20.8946 9.75957 21.0356 9.88713 21.16 10.03V10.11Z" fill="black"/>
<path d="M18.7301 49.7C18.3807 49.7026 18.0343 49.6364 17.7106 49.5051C17.3868 49.3739 17.0921 49.1801 16.8433 48.935C16.5944 48.6898 16.3963 48.3981 16.2602 48.0764C16.1241 47.7546 16.0527 47.4093 16.0501 47.0599C16.0484 46.4769 16.242 45.9101 16.6 45.45L16.79 45.5999C16.4609 46.0155 16.2813 46.5298 16.2801 47.0599C16.2767 47.4439 16.3636 47.8234 16.5338 48.1676C16.7041 48.5118 16.9528 48.8112 17.2601 49.0416C17.5673 49.272 17.9243 49.4269 18.3025 49.4939C18.6806 49.5609 19.0692 49.5381 19.4368 49.4273C19.8045 49.3165 20.141 49.1208 20.4192 48.8561C20.6973 48.5913 20.9093 48.2649 21.0381 47.9031C21.1669 47.5413 21.2088 47.1543 21.1605 46.7734C21.1122 46.3924 20.975 46.0281 20.7601 45.7099L20.9501 45.58C21.2491 46.0156 21.4095 46.5315 21.41 47.0599C21.4074 47.4093 21.336 47.7546 21.1999 48.0764C21.0638 48.3981 20.8657 48.6898 20.6168 48.935C20.368 49.1801 20.0733 49.3739 19.7495 49.5051C19.4258 49.6364 19.0794 49.7026 18.7301 49.7Z" fill="black"/>
<path d="M18.7301 48.5001C19.542 48.5001 20.2001 47.8419 20.2001 47.0301C20.2001 46.2182 19.542 45.5601 18.7301 45.5601C17.9183 45.5601 17.2601 46.2182 17.2601 47.0301C17.2601 47.8419 17.9183 48.5001 18.7301 48.5001Z" fill="black"/>
<path d="M20.2901 47.3101C20.2901 47.3752 20.2771 47.4398 20.2518 47.4999C20.2266 47.56 20.1896 47.6145 20.143 47.6601C20.0965 47.7058 20.0412 47.7416 19.9806 47.7657C19.92 47.7897 19.8552 47.8014 19.7901 47.8C19.6907 47.8 19.5937 47.7704 19.5113 47.715C19.4288 47.6597 19.3648 47.581 19.3273 47.489C19.2897 47.3971 19.2804 47.296 19.3005 47.1988C19.3206 47.1015 19.3693 47.0125 19.4402 46.943C19.5111 46.8734 19.6012 46.8266 19.6988 46.8085C19.7964 46.7903 19.8973 46.8017 19.9884 46.8411C20.0796 46.8804 20.157 46.9461 20.2107 47.0296C20.2644 47.1131 20.292 47.2108 20.2901 47.3101Z" fill="white"/>
<path d="M18.38 46.62C18.3775 46.7279 18.3335 46.8307 18.2571 46.9071C18.1808 46.9834 18.078 47.0274 17.9701 47.03C17.8613 47.03 17.757 46.9868 17.6801 46.9099C17.6033 46.833 17.5601 46.7287 17.5601 46.62C17.5601 46.5112 17.6033 46.4069 17.6801 46.33C17.757 46.2532 17.8613 46.21 17.9701 46.21C18.0788 46.21 18.1831 46.2532 18.2599 46.33C18.3368 46.4069 18.38 46.5112 18.38 46.62Z" fill="white"/>
<path d="M44.0501 49.8199C43.4046 49.8206 42.7802 49.59 42.2901 49.1699C42.0263 48.9434 41.81 48.6667 41.6538 48.356C41.4976 48.0454 41.4046 47.7068 41.3801 47.3599C41.3396 46.778 41.4983 46.1997 41.8301 45.7199L42.02 45.8499C41.6936 46.3348 41.5571 46.9228 41.6364 47.5019C41.7157 48.081 42.0054 48.6106 42.4501 48.9899C42.9403 49.4104 43.5756 49.6222 44.2201 49.5799C44.8631 49.5413 45.4646 49.2489 45.8921 48.7669C46.3197 48.285 46.5384 47.653 46.5001 47.0099C46.4735 46.4922 46.3001 45.9927 46.0001 45.5699L46.1801 45.4199C46.5102 45.8842 46.7041 46.4314 46.7401 46.9999C46.7784 47.7034 46.5371 48.3935 46.0688 48.9198C45.6005 49.4461 44.9432 49.7661 44.2401 49.8099L44.0501 49.8199Z" fill="black"/>
<path d="M45.4801 46.9801C45.4971 47.2697 45.4282 47.5578 45.2818 47.8082C45.1355 48.0586 44.9183 48.2602 44.6577 48.3874C44.397 48.5147 44.1046 48.562 43.8171 48.5234C43.5296 48.4849 43.26 48.3621 43.0421 48.1706C42.8243 47.9791 42.6679 47.7275 42.5928 47.4473C42.5177 47.1672 42.527 46.8711 42.6198 46.5963C42.7126 46.3215 42.8847 46.0802 43.1143 45.903C43.3439 45.7257 43.6207 45.6203 43.9101 45.6001C44.3011 45.5754 44.6861 45.7069 44.9804 45.9656C45.2747 46.2243 45.4544 46.5891 45.4801 46.9801Z" fill="black"/>
<path d="M45.5801 47.25C45.5856 47.3152 45.5779 47.3808 45.5576 47.4429C45.5373 47.5051 45.5047 47.5626 45.4619 47.612C45.419 47.6614 45.3667 47.7017 45.308 47.7305C45.2493 47.7594 45.1854 47.7762 45.1201 47.78C45.0545 47.7846 44.9885 47.7762 44.9261 47.7553C44.8637 47.7344 44.806 47.7015 44.7563 47.6583C44.7066 47.6151 44.6659 47.5626 44.6365 47.5037C44.6072 47.4448 44.5897 47.3806 44.5851 47.315C44.5805 47.2493 44.5889 47.1834 44.6098 47.121C44.6307 47.0586 44.6636 47.0009 44.7068 46.9512C44.75 46.9015 44.8025 46.8608 44.8614 46.8314C44.9204 46.8021 44.9844 46.7846 45.0501 46.78C45.1161 46.7745 45.1825 46.7825 45.2453 46.8034C45.3081 46.8243 45.3661 46.8578 45.4156 46.9017C45.4651 46.9456 45.5052 46.9991 45.5335 47.059C45.5618 47.1189 45.5777 47.1838 45.5801 47.25Z" fill="white"/>
<path d="M43.6301 46.69C43.6357 46.7982 43.5993 46.9044 43.5285 46.9864C43.4577 47.0684 43.358 47.1198 43.2501 47.13C43.1963 47.1333 43.1423 47.1259 43.0913 47.1084C43.0403 47.0908 42.9932 47.0633 42.9529 47.0276C42.9125 46.9918 42.8795 46.9485 42.8559 46.9C42.8322 46.8515 42.8184 46.7988 42.8151 46.745C42.8118 46.6911 42.8191 46.6372 42.8367 46.5862C42.8543 46.5352 42.8818 46.4881 42.9175 46.4477C42.9533 46.4073 42.9966 46.3744 43.0451 46.3508C43.0936 46.3271 43.1463 46.3133 43.2001 46.31C43.3066 46.307 43.4102 46.3446 43.4901 46.4151C43.5699 46.4857 43.62 46.5839 43.6301 46.69Z" fill="white"/>
<g opacity="0.7">
<g opacity="0.7">
<path opacity="0.7" d="M23.4402 56.4801C23.3902 55.9201 22.5801 55.4801 22.1001 55.3301C21.0618 55.1351 20.0003 55.0946 18.9501 55.2101C17.4715 55.2896 16.0061 55.531 14.5802 55.9301C13.6701 56.0401 12.7502 56.0401 11.8402 55.9301C10.9812 55.2155 10.3171 54.2952 9.90974 53.2548C9.50234 52.2145 9.36485 51.0879 9.51014 49.9801C9.76723 49.0739 9.84871 48.1269 9.75017 47.1901C9.42899 46.4463 9.06502 45.7218 8.66014 45.0201C8.06014 43.5201 8.71014 41.8401 9.35014 40.3501C8.75609 40.2755 8.15391 40.3962 7.63441 40.6938C7.11491 40.9914 6.70629 41.4499 6.47017 42.0001C6.02374 43.1184 5.96389 44.3539 6.30015 45.5101C6.58015 46.6701 7.05015 47.7801 7.30015 48.9401C7.69879 51.1404 7.78297 53.3862 7.55015 55.6101C7.48632 56.2269 7.53375 56.8501 7.69017 57.4501C7.76867 57.6853 7.88704 57.9051 8.04014 58.1001C8.16008 59.2582 8.37073 60.405 8.67015 61.5301C9.45331 65.2596 10.7137 68.8727 12.4201 72.2801C14.1472 75.7032 16.9607 78.4569 20.4201 80.1101C17.9601 74.9501 15.4802 69.7301 14.3402 64.1101C14.3402 63.9101 14.2602 63.7001 14.2202 63.5001C14.208 62.601 14.4507 61.7169 14.9201 60.9501C15.5401 59.5901 16.4902 57.6201 18.0002 56.9501C19.1502 56.4701 20.3302 57.0601 21.5002 57.1901C22.0102 57.2401 22.8501 57.3401 23.2301 56.8601C23.3402 56.7328 23.3974 56.5682 23.3902 56.4001" fill="#FBC3B8"/>
<path opacity="0.7" d="M29.7602 59.52C29.4876 60.2137 29.3996 60.9663 29.5048 61.7042C29.6099 62.4421 29.9047 63.1401 30.3602 63.73C30.5704 63.9825 30.8655 64.1496 31.1902 64.2C31.4886 64.1845 31.7758 64.0814 32.0159 63.9035C32.256 63.7256 32.4383 63.481 32.5402 63.2C32.858 62.5457 32.988 61.8159 32.9156 61.092C32.8432 60.3681 32.5713 59.6785 32.1302 59.1C31.7402 58.6 31.0802 58.17 30.5002 58.44C30.3092 58.5571 30.1447 58.7127 30.0173 58.897C29.8898 59.0812 29.8023 59.29 29.7602 59.51" fill="#FBC3B8"/>
<path opacity="0.7" d="M33.4101 57.43C33.3001 57 32.9901 56.52 32.5501 56.57C32.1101 56.62 31.9101 57.2 31.9501 57.67C31.9651 57.9691 32.0735 58.2559 32.2602 58.49C32.3533 58.6064 32.4802 58.6911 32.6235 58.7323C32.7668 58.7735 32.9194 58.7692 33.0601 58.72C33.5101 58.54 33.5401 57.91 33.4101 57.43Z" fill="#FBC3B8"/>
<path opacity="0.7" d="M15.2301 43.7501C15.0556 43.7216 14.8767 43.74 14.7115 43.8032C14.5464 43.8664 14.401 43.9724 14.2901 44.1101C14.0801 44.4017 13.9649 44.7508 13.9601 45.1101C13.9601 45.5601 14.1101 46.1101 14.5501 46.2101C14.7446 46.2387 14.9431 46.2094 15.1209 46.1258C15.2988 46.0422 15.4481 45.908 15.5501 45.7401C15.8029 45.4293 15.9407 45.0407 15.9402 44.6401C15.9259 44.4414 15.8526 44.2514 15.7296 44.0946C15.6067 43.9379 15.4397 43.8214 15.2502 43.7601" fill="#FBC3B8"/>
<path opacity="0.7" d="M42.0502 42.9802C41.5695 43.3077 41.2357 43.8101 41.1202 44.3802C41.0772 44.5314 41.0675 44.6901 41.0917 44.8455C41.1159 45.0008 41.1733 45.1491 41.2602 45.2802C41.4091 45.4264 41.6001 45.5224 41.8063 45.5547C42.0125 45.587 42.2237 45.5539 42.4102 45.4601C43.0035 45.0782 43.4509 44.5075 43.6802 43.8401C43.7185 43.7021 43.7267 43.5575 43.7043 43.416C43.6819 43.2745 43.6293 43.1395 43.5502 43.0201C43.3415 42.8406 43.0754 42.7419 42.8002 42.7419C42.5249 42.7419 42.2588 42.8406 42.0502 43.0201" fill="#FBC3B8"/>
<path opacity="0.7" d="M44.3001 56.65C44.4801 57.96 45.9401 58.58 47.0101 59.34C49.7901 61.34 50.4201 65.08 51.7001 68.24C52.0201 69.05 52.5901 69.97 53.4701 69.96C53.7722 69.9181 54.0617 69.8116 54.3188 69.6476C54.5759 69.4837 54.7947 69.2662 54.9601 69.01C56.0485 67.6574 56.7329 66.0249 56.9345 64.3005C57.1361 62.5761 56.8467 60.8299 56.0997 59.2627C55.3526 57.6955 54.1783 56.3711 52.7118 55.4418C51.2453 54.5125 49.5462 54.0162 47.8101 54.01C46.9737 53.9713 46.143 54.1651 45.4101 54.57C45.0492 54.7809 44.7542 55.0881 44.5582 55.4572C44.3621 55.8264 44.2727 56.2429 44.3001 56.66" fill="#FBC3B8"/>
<path opacity="0.7" d="M40.1801 54.73C43.3201 54.35 46.4601 53.86 49.5701 53.28C49.1213 52.8752 48.5441 52.6415 47.9401 52.62C45.7527 52.3596 43.5347 52.6095 41.4601 53.35C41.1281 53.4436 40.8185 53.6034 40.5501 53.82C40.4153 53.9271 40.3105 54.0671 40.2456 54.2265C40.1808 54.3859 40.1582 54.5593 40.1801 54.73Z" fill="#FBC3B8"/>
<path opacity="0.7" d="M33.8102 81.56C33.3465 81.262 32.8282 81.0591 32.2854 80.9632C31.7425 80.8672 31.1861 80.8801 30.6483 81.0011C30.1105 81.122 29.6021 81.3486 29.1526 81.6678C28.7032 81.9869 28.3217 82.3922 28.0302 82.8601C27.8498 83.0933 27.7382 83.3724 27.7082 83.6658C27.6781 83.9592 27.7308 84.255 27.8602 84.52C28.0496 84.7331 28.3015 84.8807 28.58 84.9418C28.8584 85.0029 29.149 84.9743 29.4102 84.8601C29.9303 84.6239 30.4177 84.3213 30.8602 83.96C31.5163 83.5225 32.2546 83.2231 33.0302 83.0801C33.3201 83.0401 33.6029 82.9593 33.8702 82.84C34.0045 82.779 34.1168 82.6782 34.192 82.5512C34.2671 82.4242 34.3013 82.2772 34.2902 82.1301C34.2538 82.0071 34.1924 81.893 34.1098 81.7949C34.0272 81.6968 33.9252 81.6168 33.8102 81.56Z" fill="#FBC3B8"/>
<path opacity="0.7" d="M28.4202 31.5901C27.2379 31.795 26.1169 32.2632 25.1402 32.96L21.0502 35.4101C24.9186 36.4471 28.9051 36.9782 32.9102 36.99C35.2892 36.841 37.6531 36.5067 39.9802 35.99L46.1202 34.77C44.3102 33.37 41.9002 33.0501 39.6102 33.0101C37.3279 33.1284 35.0395 32.9841 32.7902 32.5801C31.3302 32.2001 29.8902 31.4901 28.3902 31.5801" fill="#FBC3B8"/>
</g>
</g>
<path d="M17.7101 55.72C17.7101 55.9189 17.6311 56.1097 17.4904 56.2503C17.3498 56.391 17.159 56.47 16.9601 56.47C16.7612 56.47 16.5704 56.391 16.4297 56.2503C16.2891 56.1097 16.2101 55.9189 16.2101 55.72C16.2101 55.5211 16.2891 55.3303 16.4297 55.1896C16.5704 55.049 16.7612 54.97 16.9601 54.97C17.159 54.97 17.3498 55.049 17.4904 55.1896C17.6311 55.3303 17.7101 55.5211 17.7101 55.72Z" fill="#EE8270"/>
<path d="M23.8401 53.66C23.8401 53.8459 23.785 54.0276 23.6817 54.1822C23.5784 54.3368 23.4316 54.4573 23.2598 54.5284C23.088 54.5996 22.899 54.6182 22.7167 54.5819C22.5344 54.5456 22.3669 54.4561 22.2354 54.3246C22.1039 54.1932 22.0144 54.0257 21.9781 53.8434C21.9419 53.661 21.9605 53.472 22.0316 53.3003C22.1028 53.1285 22.2233 52.9817 22.3778 52.8784C22.5324 52.7751 22.7142 52.72 22.9001 52.72C23.1494 52.72 23.3885 52.819 23.5648 52.9953C23.741 53.1716 23.8401 53.4107 23.8401 53.66Z" fill="#DE806B"/>
<path d="M54.7101 54.4699C54.7121 54.6448 54.6619 54.8163 54.566 54.9625C54.4701 55.1088 54.3327 55.2231 54.1715 55.2909C54.0103 55.3588 53.8326 55.377 53.661 55.3434C53.4893 55.3098 53.3316 55.2258 53.2079 55.1021C53.0842 54.9784 53.0003 54.8207 52.9666 54.6491C52.933 54.4775 52.9512 54.2997 53.0191 54.1385C53.0869 53.9773 53.2013 53.84 53.3475 53.744C53.4937 53.6481 53.6652 53.5979 53.8401 53.5999C54.07 53.6025 54.2898 53.695 54.4524 53.8576C54.615 54.0202 54.7075 54.24 54.7101 54.4699Z" fill="#EE8270"/>
<path d="M46.46 58.91C46.46 59.0964 46.4047 59.2785 46.3009 59.4333C46.1972 59.5881 46.0498 59.7085 45.8775 59.7794C45.7051 59.8502 45.5156 59.8683 45.333 59.8312C45.1504 59.7941 44.9829 59.7036 44.8518 59.5711C44.7208 59.4386 44.6321 59.2702 44.5969 59.0872C44.5618 58.9042 44.5818 58.7149 44.6545 58.5433C44.7272 58.3717 44.8493 58.2256 45.0052 58.1236C45.161 58.0215 45.3437 57.968 45.5301 57.97C45.7776 57.9727 46.0142 58.0729 46.1883 58.2489C46.3624 58.4249 46.4601 58.6624 46.46 58.91Z" fill="#DE806B"/>
<path d="M57.4601 67.1899C57.4601 67.3889 57.3811 67.5796 57.2404 67.7203C57.0998 67.8609 56.909 67.9399 56.7101 67.9399C56.5112 67.9399 56.3205 67.8609 56.1798 67.7203C56.0392 67.5796 55.9601 67.3889 55.9601 67.1899C55.9601 66.991 56.0392 66.8003 56.1798 66.6596C56.3205 66.519 56.5112 66.4399 56.7101 66.4399C56.909 66.4399 57.0998 66.519 57.2404 66.6596C57.3811 66.8003 57.4601 66.991 57.4601 67.1899Z" fill="#EE8270"/>
<path d="M18.8401 74.1C18.8401 74.3235 18.7738 74.542 18.6496 74.7278C18.5254 74.9136 18.349 75.0585 18.1425 75.144C17.936 75.2295 17.7088 75.2519 17.4896 75.2083C17.2704 75.1647 17.0691 75.0571 16.911 74.8991C16.753 74.741 16.6454 74.5397 16.6018 74.3205C16.5582 74.1013 16.5806 73.8741 16.6661 73.6676C16.7516 73.4611 16.8964 73.2846 17.0823 73.1604C17.2681 73.0363 17.4866 72.97 17.7101 72.97C17.8588 72.9687 18.0064 72.997 18.1441 73.0533C18.2818 73.1096 18.4069 73.1928 18.5121 73.298C18.6173 73.4032 18.7004 73.5283 18.7568 73.666C18.8131 73.8037 18.8414 73.9513 18.8401 74.1Z" fill="#EE8270"/>
<path d="M7.21008 52.78C7.21008 52.9285 7.15107 53.0709 7.04605 53.176C6.94103 53.281 6.79861 53.34 6.65009 53.34C6.50156 53.34 6.35911 53.281 6.25409 53.176C6.14907 53.0709 6.09009 52.9285 6.09009 52.78C6.09009 52.6314 6.14907 52.489 6.25409 52.384C6.35911 52.279 6.50156 52.22 6.65009 52.22C6.79861 52.22 6.94103 52.279 7.04605 52.384C7.15107 52.489 7.21008 52.6314 7.21008 52.78Z" fill="#DE806B"/>
<path d="M15.21 60.0299C15.212 60.3155 15.129 60.5953 14.9715 60.8337C14.8141 61.072 14.5893 61.2581 14.3257 61.3683C14.0622 61.4785 13.7719 61.5079 13.4916 61.4527C13.2113 61.3974 12.9538 61.2601 12.7519 61.0581C12.5499 60.8561 12.4125 60.5986 12.3573 60.3183C12.302 60.0381 12.3314 59.7477 12.4416 59.4842C12.5518 59.2207 12.7379 58.9958 12.9763 58.8384C13.2146 58.6809 13.4944 58.5979 13.7801 58.5999C14.1593 58.5999 14.523 58.7505 14.7912 59.0187C15.0594 59.2869 15.21 59.6506 15.21 60.0299Z" fill="#DE806B"/>
<path d="M20.4601 61.1001C20.4601 61.2251 20.4228 61.3473 20.3532 61.4511C20.2835 61.5549 20.1845 61.6356 20.0688 61.683C19.9531 61.7304 19.8259 61.7423 19.7035 61.7171C19.581 61.692 19.4687 61.631 19.381 61.5419C19.2933 61.4527 19.2342 61.3396 19.211 61.2167C19.1878 61.0939 19.2017 60.9669 19.2509 60.8519C19.3002 60.737 19.3825 60.6393 19.4874 60.5713C19.5923 60.5033 19.7151 60.4681 19.8401 60.4701C19.9223 60.47 20.0038 60.4864 20.0797 60.5182C20.1556 60.55 20.2244 60.5965 20.2821 60.6552C20.3398 60.7138 20.3852 60.7833 20.4158 60.8597C20.4463 60.9361 20.4614 61.0178 20.4601 61.1001Z" fill="#EE8270"/>
<path d="M60.0501 57.19C60.0501 57.3759 59.9949 57.5577 59.8916 57.7122C59.7883 57.8668 59.6416 57.9873 59.4698 58.0584C59.298 58.1296 59.109 58.1482 58.9266 58.1119C58.7443 58.0757 58.5768 57.9861 58.4454 57.8547C58.3139 57.7232 58.2244 57.5557 58.1881 57.3734C58.1518 57.191 58.1704 57.0021 58.2416 56.8303C58.3127 56.6585 58.4332 56.5117 58.5878 56.4084C58.7424 56.3051 58.9241 56.25 59.11 56.25C59.3594 56.25 59.5984 56.349 59.7747 56.5253C59.951 56.7016 60.0501 56.9407 60.0501 57.19Z" fill="#DE806B"/>
<path d="M54.71 60.0299C54.712 60.3155 54.629 60.5953 54.4716 60.8337C54.3141 61.072 54.0893 61.2581 53.8258 61.3683C53.5622 61.4785 53.2719 61.5079 52.9916 61.4527C52.7113 61.3974 52.4538 61.2601 52.2519 61.0581C52.0499 60.8561 51.9125 60.5986 51.8573 60.3183C51.802 60.0381 51.8314 59.7477 51.9416 59.4842C52.0518 59.2207 52.2379 58.9958 52.4763 58.8384C52.7146 58.6809 52.9944 58.5979 53.2801 58.5999C53.6593 58.5999 54.023 58.7505 54.2912 59.0187C54.5594 59.2869 54.71 59.6506 54.71 60.0299Z" fill="#EE8270"/>
<path d="M47.5901 54.66C47.5901 54.747 47.5643 54.8321 47.5159 54.9044C47.4676 54.9768 47.3989 55.0332 47.3185 55.0665C47.2381 55.0998 47.1496 55.1085 47.0642 55.0915C46.9789 55.0745 46.9005 55.0326 46.839 54.9711C46.7774 54.9096 46.7355 54.8312 46.7185 54.7458C46.7016 54.6605 46.7103 54.572 46.7436 54.4916C46.7769 54.4112 46.8333 54.3425 46.9056 54.2941C46.978 54.2458 47.063 54.22 47.1501 54.22C47.2078 54.22 47.2651 54.2314 47.3185 54.2535C47.3718 54.2756 47.4204 54.308 47.4612 54.3488C47.5021 54.3897 47.5345 54.4382 47.5566 54.4916C47.5787 54.545 47.5901 54.6022 47.5901 54.66Z" fill="#EE8270"/>
<path d="M41.2101 55.7799C41.2114 55.8701 41.1948 55.9596 41.1613 56.0432C41.1277 56.1269 41.0778 56.203 41.0145 56.2672C40.9513 56.3314 40.8758 56.3824 40.7927 56.4172C40.7095 56.452 40.6202 56.4699 40.5301 56.4699C40.3471 56.4699 40.1716 56.3972 40.0422 56.2678C39.9128 56.1384 39.8401 55.9629 39.8401 55.7799C39.8401 55.6898 39.858 55.6005 39.8928 55.5174C39.9276 55.4342 39.9786 55.3588 40.0428 55.2955C40.107 55.2322 40.1831 55.1824 40.2668 55.1488C40.3504 55.1152 40.44 55.0986 40.5301 55.0999C40.6198 55.0986 40.7088 55.1152 40.7919 55.1489C40.875 55.1826 40.9506 55.2327 41.014 55.2961C41.0774 55.3595 41.1274 55.435 41.1611 55.5181C41.1948 55.6012 41.2114 55.6903 41.2101 55.7799Z" fill="#DE806B"/>
</svg>
