<svg width="64" height="105" viewBox="0 0 64 105" fill="none" xmlns="http://www.w3.org/2000/svg">
<path d="M43.6301 99.64C43.0986 97.2282 42.8834 94.7574 42.9901 92.29C43.0673 87.9595 43.6717 83.6544 44.79 79.47C45.79 78.47 46.1801 77.89 46.0801 77.54C46.0616 77.4673 46.0208 77.4021 45.9634 77.3537C45.906 77.3053 45.835 77.276 45.7601 77.27H45.7201C45.5301 77.27 45.2201 77.42 44.7201 78.73C44.6601 78.91 44.5902 79.1 44.5302 79.31C44.0002 79.84 43.4201 80.37 43.0801 80.68L42.6201 81.11C39.8501 83.7 36.7301 86.11 32.6901 86.11C32.2149 86.1116 31.7404 86.0781 31.2701 86.01C28.5201 85.64 25.1101 83.65 22.7401 82.01C20.9561 80.8567 19.2823 79.5411 17.7401 78.08C16.4826 76.8678 15.3316 75.5496 14.3 74.14C12.1799 71.4251 10.7091 68.261 10.0001 64.89C9.85012 63.89 9.68013 62.89 9.51013 61.94C8.62007 57.4353 8.08179 52.8682 7.90015 48.28C8.32699 48.4143 8.77272 48.4784 9.22009 48.47C10.6024 48.4826 11.9617 48.116 13.1501 47.41C13.756 48.3162 14.5651 49.0683 15.5131 49.6065C16.461 50.1447 17.5215 50.4541 18.6101 50.51C19.9815 50.4984 21.3274 50.137 22.5201 49.46C22.9957 49.1615 23.5322 48.9735 24.0901 48.91C24.3746 48.9188 24.6513 49.0053 24.8901 49.16C24.9606 49.35 25.0206 49.5436 25.0701 49.74L25.1401 50.03L25.3401 49.81C25.8714 49.1392 26.1318 48.2935 26.0701 47.44C26.0536 46.4565 25.7244 45.5038 25.1301 44.72C24.0518 43.7443 22.7813 43.0052 21.4001 42.55C19.6243 41.836 17.7337 41.4498 15.8201 41.41C15.5336 41.3944 15.2465 41.3944 14.9601 41.41C13.3276 41.4401 11.734 41.9136 10.3501 42.78C10.885 41.9875 11.5826 41.3181 12.3965 40.8163C13.2104 40.3146 14.1218 39.992 15.0701 39.87C15.5863 39.7915 16.108 39.7547 16.6301 39.76C18.6471 39.8152 20.6435 40.1794 22.55 40.84C27.03 42.27 29.1401 45.43 28.9801 50.5C28.9801 55.3 28.5401 58.88 27.6401 60.32C27.1701 61.07 26.8201 62.95 27.6401 63.65C27.8221 63.823 28.0594 63.9258 28.3101 63.94C28.4621 63.9216 28.6086 63.8711 28.7396 63.7918C28.8707 63.7125 28.9832 63.6062 29.0701 63.48C29.3101 63.22 29.4601 63.08 29.6901 63.17C29.9532 63.2977 30.1986 63.459 30.42 63.65C30.8563 64.0692 31.4188 64.3328 32.0201 64.4C32.5337 64.3736 33.0188 64.156 33.3801 63.79C33.6231 63.5205 33.9587 63.3527 34.3201 63.32C34.6001 63.32 34.9001 63.54 35.3201 63.99C34.7236 64.0445 34.1462 64.2285 33.6281 64.529C33.1099 64.8295 32.6636 65.2394 32.3201 65.73C32.1025 66.2657 32.0059 66.8428 32.037 67.4201C32.0681 67.9975 32.2263 68.5608 32.5001 69.07C32.5001 69.2 32.5901 69.3 32.6101 69.37L32.6801 69.6L32.8901 69.42C33.646 68.9626 34.5071 68.7077 35.3901 68.68C36.4607 68.7439 37.4954 69.0888 38.3901 69.68C39.0446 70.0654 39.7429 70.3709 40.4701 70.59C39.8001 70.75 39.0901 70.97 38.3501 71.21C36.5597 71.8638 34.6831 72.2513 32.7802 72.36C32.7905 72.2136 32.7905 72.0665 32.7802 71.92C32.8676 71.4655 32.8639 70.9981 32.7695 70.5449C32.6751 70.0918 32.4918 69.6618 32.2301 69.28C31.9906 69.0548 31.7069 68.8817 31.3971 68.7715C31.0873 68.6614 30.758 68.6166 30.4301 68.64C29.2046 68.6882 28.0011 68.9805 26.8901 69.5C25.9389 69.9317 24.9272 70.215 23.8901 70.34L22.41 70.46L23.8801 70.65C25.2678 70.8747 26.6353 71.2091 27.9701 71.65C29.3712 72.1569 30.8284 72.4927 32.3101 72.65C32.2477 72.9453 32.1153 73.2212 31.9238 73.4544C31.7324 73.6876 31.4875 73.8713 31.2101 73.99C30.8927 74.1184 30.5523 74.1797 30.2101 74.17C28.202 73.9524 26.3233 73.0729 24.8701 71.67L23.7401 70.67L24.6401 71.88C25.6224 73.1907 26.7953 74.3469 28.1201 75.31C29.3658 76.3181 30.8915 76.9186 32.4901 77.03C35.6201 77.03 37.9901 74.53 40.0901 72.33L41.16 71.23L40.9301 71.01C40.5701 71.36 40.2201 71.73 39.8501 72.12C37.8501 74.28 35.4701 76.72 32.4701 76.72C30.9101 76.72 28.3501 75.72 25.7601 72.78C27.0553 73.7586 28.6022 74.3482 30.2201 74.48C30.5897 74.4851 30.9567 74.4171 31.3 74.28C31.6329 74.1372 31.9255 73.9148 32.1522 73.6323C32.3789 73.3498 32.5328 73.0159 32.6001 72.66H32.7001C34.6297 72.5498 36.5331 72.159 38.3501 71.5C39.3065 71.1691 40.2858 70.9084 41.2802 70.72L42.7101 70.51L41.2701 70.41C40.2678 70.2892 39.3046 69.9477 38.4501 69.41C37.5193 68.817 36.452 68.4727 35.3501 68.41C34.453 68.4316 33.5759 68.6792 32.8 69.13V69.03C32.5446 68.5639 32.3944 68.0476 32.3599 67.5172C32.3253 66.9868 32.4073 66.4553 32.6001 65.96C32.9489 65.4838 33.3988 65.0907 33.9175 64.8089C34.4362 64.5271 35.0108 64.3635 35.6001 64.33L35.8801 64.28L35.6901 64.07C35.2001 63.5 34.77 63.07 34.29 63.07C34.068 63.0782 33.85 63.1312 33.6489 63.2257C33.4479 63.3202 33.2681 63.4543 33.1201 63.62C32.8142 63.9309 32.4052 64.1194 31.9701 64.15C31.44 64.081 30.9477 63.8383 30.5701 63.46C30.3207 63.2487 30.0452 63.0706 29.7501 62.93C29.6708 62.9156 29.5895 62.9156 29.5101 62.93C29.3653 62.9465 29.2258 62.9944 29.1014 63.0704C28.9771 63.1464 28.8707 63.2486 28.79 63.37C28.61 63.56 28.4601 63.73 28.2501 63.73C28.0775 63.7068 27.9165 63.6298 27.79 63.51C27.11 62.95 27.41 61.25 27.79 60.59C28.34 59.71 29.25 57.24 29.17 50.59C29.33 45.37 27.1702 42.11 22.5302 40.64C20.5982 39.9687 18.5746 39.5978 16.5302 39.54C15.9983 39.5401 15.4669 39.5768 14.9401 39.65C10.1001 40.35 9.53014 43.99 9.52014 44.02V44.21L9.62012 44.05C10.4001 42.78 12.13 42.05 14.92 41.81C15.2 41.81 15.4801 41.81 15.7701 41.81C19.7701 41.81 24.1201 44.08 24.8201 45C25.3104 45.6232 25.61 46.3749 25.6827 47.1644C25.7555 47.954 25.5983 48.7478 25.2301 49.45C25.1945 49.3274 25.1511 49.2071 25.1001 49.09C24.9601 47.34 23.4601 45.76 21.2001 44.98C20.204 44.65 19.1593 44.4911 18.1101 44.51C16.8617 44.5017 15.6208 44.7045 14.4401 45.11C13.9003 45.3155 13.3867 45.584 12.91 45.91C12.2442 46.4204 11.4461 46.7292 10.6101 46.8H10.0302L10.54 47.07C10.8483 47.2329 11.1914 47.3186 11.54 47.32C12.2439 47.2688 12.9274 47.0603 13.54 46.71C13.863 46.5436 14.1971 46.3999 14.54 46.28C15.9143 45.8098 17.3576 45.5732 18.8101 45.58C20.2253 45.567 21.6143 45.9628 22.8101 46.72C23.5875 47.2176 24.2244 47.9062 24.66 48.72C24.4679 48.6489 24.2649 48.6117 24.0601 48.61C23.4533 48.6705 22.8684 48.8689 22.3501 49.19C21.1979 49.836 19.901 50.18 18.5801 50.19C17.5353 50.1303 16.5187 49.8282 15.611 49.3075C14.7032 48.7867 13.9291 48.0618 13.3501 47.19C13.2801 47.09 13.2601 47.07 13.2301 47.05L13.1301 46.99L13.04 47.07C11.889 47.7967 10.5511 48.172 9.19006 48.15C8.70717 48.175 8.22503 48.0895 7.78015 47.9L7.55005 47.79V48.05C7.715 52.7326 8.25674 57.3944 9.17004 61.99C9.34004 62.99 9.51003 63.99 9.66003 64.94C10.3789 68.3614 11.8703 71.5732 14.0201 74.33C15.0598 75.7576 16.2171 77.0956 17.4801 78.33C19.0401 79.8163 20.7338 81.1553 22.54 82.33C24.94 83.95 28.4001 85.96 31.2001 86.33C31.6877 86.3925 32.1785 86.4259 32.67 86.43C36.82 86.43 40.0001 83.98 42.8101 81.35L43.2802 80.91L44.3401 79.91C43.3197 83.954 42.7594 88.1003 42.67 92.27C42.5643 94.7682 42.7862 97.2695 43.3301 99.71C43.9201 102.04 44.8901 103.57 46.2201 104.25L46.3601 103.96C45.1201 103.34 44.2001 101.89 43.6301 99.64ZM45.0201 78.78C45.4501 77.6 45.6801 77.57 45.6901 77.57C45.7001 77.57 45.7802 77.62 45.7802 77.63C45.7802 77.64 45.7201 78.04 45.0201 78.78ZM23.0201 46.41C21.7761 45.6138 20.3271 45.1969 18.8501 45.21C17.3671 45.2091 15.8941 45.4524 14.4901 45.93C14.1492 46.0626 13.8154 46.2128 13.4901 46.38C12.9369 46.7044 12.3188 46.9025 11.6801 46.96C11.597 46.9705 11.5131 46.9705 11.4301 46.96C12.0636 46.7828 12.6622 46.4987 13.2001 46.12C13.6587 45.8106 14.1479 45.5492 14.66 45.34C15.8095 44.9504 17.0165 44.7577 18.2301 44.77C19.2475 44.7512 20.261 44.8999 21.2301 45.21C22.6305 45.627 23.8206 46.5598 24.5601 47.82C24.1246 47.2569 23.589 46.7789 22.9801 46.41H23.0201ZM32.4901 71.94C32.4901 72.1 32.4901 72.25 32.4901 72.39C31.0176 72.2366 29.5697 71.9007 28.1801 71.39C27.1801 71.07 26.0601 70.74 24.9801 70.52C25.6948 70.3334 26.3964 70.0996 27.0801 69.82C28.1477 69.3109 29.3081 69.025 30.4901 68.98C30.775 68.9556 31.0618 68.991 31.3322 69.084C31.6025 69.177 31.8505 69.3255 32.0601 69.52C32.283 69.8771 32.4323 70.2751 32.4993 70.6907C32.5662 71.1062 32.5495 71.531 32.4501 71.94H32.4901Z" fill="black"/>
<path d="M58.4002 45.44C58.2017 45.3516 57.9851 45.311 57.768 45.3214C57.5509 45.3318 57.3394 45.393 57.1502 45.5C56.2617 46.0273 55.5991 46.8642 55.2901 47.85C54.5918 48.0135 53.8772 48.0974 53.1601 48.1C52.6074 48.1481 52.0508 48.0843 51.5234 47.9125C50.9959 47.7407 50.5085 47.4644 50.0901 47.1L50.0002 47.02L49.8902 47.08C49.8902 47.08 49.8902 47.08 49.7702 47.22C49.1918 48.0923 48.4178 48.8177 47.5099 49.3385C46.602 49.8593 45.5851 50.1611 44.5401 50.22C43.2194 50.2083 41.923 49.8644 40.7702 49.22C40.2518 48.8989 39.6669 48.7005 39.0601 48.64C38.8553 48.6425 38.6525 48.6797 38.4601 48.75C38.8957 47.9362 39.5326 47.2476 40.3101 46.75C41.5059 45.9928 42.8948 45.597 44.3101 45.61C45.7592 45.6043 47.1991 45.8409 48.5701 46.31C48.9122 46.4321 49.2462 46.5757 49.5701 46.74C50.1815 47.0932 50.8657 47.3019 51.5701 47.35C51.919 47.3511 52.2627 47.2652 52.5701 47.1L53.0801 46.83H52.5102C51.6707 46.7611 50.8688 46.4522 50.2001 45.94C49.7258 45.616 49.2157 45.3476 48.6801 45.14C47.4959 44.7345 46.2518 44.5317 45.0002 44.54C43.951 44.5211 42.9061 44.68 41.9101 45.01C39.6501 45.79 38.1602 47.37 38.0102 49.12C37.9626 49.2374 37.9225 49.3576 37.8902 49.48C37.2002 48.41 37.3701 46.48 38.3001 45.01C39.2777 43.9208 40.5484 43.1362 41.9601 42.75C43.616 42.1547 45.3606 41.8437 47.1202 41.83C47.4902 41.83 47.8501 41.83 48.1901 41.88C49.8101 42.02 53.1901 42.73 54.1901 44.46L54.6502 45.2L54.4801 44.35C54.3018 43.6141 53.9639 42.9263 53.4904 42.3354C53.0169 41.7444 52.4195 41.2646 51.7402 40.93C49.8312 39.9435 47.7087 39.4421 45.5601 39.47C44.3379 39.4521 43.1212 39.6379 41.9601 40.02C41.4601 40.2 40.9601 40.4 40.4801 40.6C39.031 41.3108 37.4522 41.7191 35.8401 41.8H35.7201C32.8355 41.7693 30.0114 40.9683 27.5401 39.48C25.0228 37.9947 22.8891 35.9397 21.3101 33.48C20.8327 32.74 20.456 31.9396 20.1901 31.1C21.1901 29.91 21.5302 28.83 21.1102 27.89C20.8902 27.39 20.6101 27.29 20.4101 27.29H20.3001C20.0574 27.396 19.8512 27.5709 19.7072 27.7932C19.5632 28.0155 19.4877 28.2752 19.4902 28.54C19.4807 29.3731 19.5987 30.2027 19.8401 31C19.0039 31.8652 18.0672 32.6272 17.0501 33.27C15.7628 34.0633 14.4268 34.7747 13.0501 35.4C10.7701 36.48 8.6101 37.51 7.3101 39.25C5.8701 41.19 5.70019 43.76 6.77019 47.33C6.98019 48.04 6.28018 50 5.39018 52.48C3.84018 56.78 1.51019 63.27 1.65019 69.65C1.66375 72.9091 2.51054 76.1105 4.11015 78.95C6.15356 82.2814 9.11559 84.9517 12.6402 86.64L12.7901 86.36C9.3202 84.6973 6.40371 82.0689 4.39018 78.79C2.81558 75.9967 1.98241 72.8466 1.97014 69.64C1.83014 63.33 4.15011 56.86 5.69011 52.58C6.69011 49.95 7.32012 48.05 7.08012 47.24C6.08012 43.77 6.20012 41.29 7.58012 39.44C8.82012 37.76 10.9501 36.75 13.2001 35.68C14.5786 35.0507 15.9147 34.3325 17.2001 33.53C18.1913 32.9113 19.1074 32.1797 19.9301 31.35C20.1989 32.1549 20.5651 32.9239 21.0202 33.64C22.6312 36.1389 24.8062 38.2248 27.3702 39.73C29.8826 41.2465 32.7556 42.0614 35.6901 42.09H35.8101C37.4623 42.0052 39.0808 41.5904 40.5701 40.87C41.0401 40.68 41.5701 40.48 42.0401 40.3C43.1637 39.9208 44.3445 39.7382 45.5302 39.76C47.6162 39.7362 49.6762 40.2237 51.5302 41.18C52.5716 41.7153 53.4028 42.5853 53.8902 43.65C52.4502 42.26 49.6302 41.65 48.1502 41.55C47.7805 41.5299 47.4098 41.5299 47.0401 41.55C43.0901 41.55 38.9201 43.34 37.9601 44.88C36.8801 46.64 36.7902 48.88 37.7702 49.96L37.9601 50.18L38.0401 49.89C38.0849 49.6923 38.1451 49.4984 38.2201 49.31C38.4583 49.1539 38.7354 49.0673 39.0202 49.06C39.5749 49.124 40.108 49.312 40.5801 49.61C41.7729 50.287 43.1187 50.6484 44.4902 50.66C45.5762 50.6037 46.6341 50.2951 47.5801 49.7588C48.5261 49.2224 49.3341 48.473 49.9401 47.57C50.9015 48.3155 52.1079 48.6724 53.3201 48.57C54.0253 48.5502 54.7261 48.453 55.4101 48.28H55.5002V48.18C55.7749 47.248 56.3884 46.4525 57.2201 45.95C57.3686 45.8575 57.5379 45.8036 57.7126 45.7931C57.8872 45.7826 58.0617 45.8159 58.2201 45.89C59.6401 46.56 58.8201 49.27 58.7201 49.58C58.6201 49.89 58.5301 50.17 58.4401 50.45C58.0214 51.5493 57.7328 52.6937 57.5801 53.86C57.5801 54.17 57.5302 54.46 57.5102 54.74C57.5321 55.7955 57.2547 56.8356 56.7101 57.74C56.5534 57.5742 56.3643 57.4424 56.1543 57.3529C55.9444 57.2634 55.7183 57.2182 55.4902 57.22C55.2724 57.2233 55.0565 57.2604 54.8501 57.33C54.4259 57.4706 54.0548 57.7375 53.7867 58.095C53.5185 58.4525 53.3662 58.8835 53.3501 59.33C53.3508 59.6394 53.4131 59.9454 53.5332 60.2304C53.6534 60.5154 53.8291 60.7736 54.0501 60.99V61.05C54.1788 61.9106 54.3863 62.7575 54.6701 63.58C53.2305 66.2261 52.4453 69.1784 52.3802 72.19C52.3802 78.07 53.9402 78.94 54.8702 78.94C55.8002 78.94 57.3602 78.07 57.3602 72.19C57.2603 69.4479 56.6286 66.7512 55.5002 64.25L55.1901 63.56V64.19C55.1601 64.7266 55.0098 65.2495 54.7502 65.72C54.4946 66.1124 54.343 66.5634 54.3097 67.0305C54.2765 67.4975 54.3627 67.9654 54.5601 68.39C54.6801 68.62 54.8101 68.84 54.9201 69.04C55.231 69.4128 55.4314 69.8651 55.4986 70.3458C55.5657 70.8265 55.497 71.3164 55.3001 71.76C55.1401 72.12 54.9701 72.45 54.8001 72.76C54.2399 73.5599 54.0074 74.544 54.1502 75.51C54.2367 75.9278 54.3957 76.3272 54.6202 76.69C54.8759 77.0652 55.034 77.4983 55.0801 77.95H55.3902C55.3474 77.4433 55.179 76.9553 54.9002 76.53C54.6936 76.201 54.5448 75.8391 54.4601 75.46C54.3386 74.5623 54.56 73.6517 55.0801 72.91C55.2501 72.59 55.4301 72.26 55.5901 71.91C55.8042 71.4218 55.881 70.8844 55.8123 70.3558C55.7436 69.8272 55.5319 69.3273 55.2001 68.91C55.0801 68.71 54.9601 68.5 54.8401 68.27C54.6668 67.8877 54.5942 67.4674 54.6292 67.049C54.6642 66.6307 54.8056 66.2282 55.0401 65.88C55.2044 65.5392 55.3383 65.1845 55.4401 64.82C56.4035 67.1279 56.9422 69.5907 57.0302 72.09C57.0302 76.18 56.2402 78.53 54.8602 78.53C53.4802 78.53 52.6901 76.18 52.6901 72.09C52.7572 69.1097 53.5355 66.1886 54.9601 63.57V63.51V63.42C54.7121 62.6818 54.5182 61.9265 54.3802 61.16C54.5096 61.2406 54.6469 61.3076 54.7901 61.36C54.9774 61.4218 55.173 61.4555 55.3702 61.46C55.6674 61.4473 55.9576 61.3658 56.2179 61.2217C56.4783 61.0777 56.7015 60.8751 56.8702 60.63C57.1375 60.304 57.2672 59.8866 57.2317 59.4665C57.1963 59.0464 56.9983 58.6566 56.6801 58.38C56.4079 58.1297 56.0499 57.9936 55.6801 58C55.2372 58.0143 54.8175 58.2008 54.5102 58.52C54.29 58.7687 54.1253 59.0614 54.027 59.3787C53.9287 59.6959 53.8991 60.0305 53.9401 60.36C53.7497 60.0014 53.673 59.5933 53.7201 59.19C53.7347 58.8085 53.8663 58.4408 54.0971 58.1366C54.3279 57.8325 54.6467 57.6067 55.0102 57.49C55.1841 57.431 55.3664 57.4007 55.5501 57.4C55.765 57.3996 55.9772 57.4491 56.1698 57.5446C56.3624 57.64 56.5302 57.7788 56.6601 57.95L56.7901 58.12L56.9101 57.95C57.5783 56.962 57.9273 55.7927 57.9101 54.6C57.9101 54.34 57.9101 54.04 57.9701 53.73C58.1258 52.5891 58.4075 51.4689 58.8101 50.39C58.9001 50.11 59.0001 49.81 59.0901 49.52C59.313 48.8388 59.4277 48.1268 59.4301 47.41C59.4726 47.0166 59.3974 46.6194 59.214 46.2687C59.0307 45.9181 58.7475 45.6297 58.4002 45.44ZM40.1402 46.44C39.5715 46.8159 39.0709 47.286 38.6601 47.83C39.3996 46.5698 40.5897 45.637 41.9902 45.22C42.9594 44.9106 43.9728 44.762 44.9902 44.78C46.2038 44.7677 47.4107 44.9604 48.5601 45.35C49.0733 45.5571 49.5628 45.8186 50.0202 46.13C50.5605 46.5108 51.1627 46.795 51.8001 46.97C51.7171 46.9799 51.6331 46.9799 51.5501 46.97C50.9082 46.9126 50.2869 46.7146 49.7301 46.39C49.4058 46.2208 49.0719 46.0705 48.7301 45.94C47.326 45.4631 45.8531 45.2198 44.3702 45.22C42.8738 45.1921 41.4025 45.6061 40.1402 46.41V46.44ZM20.0901 30.65C19.9 29.9425 19.8058 29.2126 19.8101 28.48C19.8101 28.09 20.1102 27.59 20.3802 27.54C20.5602 27.54 20.7002 27.77 20.7802 27.96C21.1802 28.69 20.9301 29.6 20.0901 30.62V30.65ZM54.8501 58.72C54.9684 58.593 55.1105 58.4905 55.2684 58.4184C55.4262 58.3464 55.5968 58.3061 55.7702 58.3C56.0555 58.2992 56.3305 58.4064 56.5401 58.6C56.7971 58.8242 56.9565 59.1397 56.9845 59.4796C57.0126 59.8194 56.9069 60.1568 56.6901 60.42C56.5513 60.6289 56.3644 60.8014 56.1452 60.9232C55.926 61.045 55.6808 61.1125 55.4301 61.12C55.2703 61.117 55.1119 61.09 54.9601 61.04C54.7562 60.967 54.5667 60.8587 54.4002 60.72C54.3182 60.3696 54.3159 60.0052 54.3938 59.6538C54.4717 59.3024 54.6277 58.973 54.8501 58.69V58.72Z" fill="black"/>
<path d="M61.31 20.19C61.0159 19.7795 60.642 19.4324 60.2108 19.1696C59.7795 18.9067 59.2997 18.7334 58.8 18.66C58.5941 18.6355 58.386 18.6355 58.18 18.66C58.1159 17.0661 57.7209 15.503 57.0201 14.07C55.2878 10.4098 52.6642 7.24298 49.3901 4.86002C47.4178 3.41503 45.2448 2.26621 42.94 1.45001C40.3138 0.538451 37.5597 0.0490301 34.7801 0H34.29C29.43 0 25.35 1.54 22.81 4.34C21.5962 5.63855 20.7836 7.26032 20.4701 9.01001C19.6809 8.57811 18.8075 8.32224 17.91 8.26001C17.6035 8.24433 17.2965 8.24433 16.9901 8.26001C13.1201 8.26001 8.82008 10.26 5.49008 13.58C2.49008 16.58 0.490033 21.76 0.0700334 27.68C-0.299967 33.29 0.810033 38.8 3.07003 42.42C4.04131 44.0006 4.69046 45.7576 4.98007 47.59C5.17007 48.5508 5.15984 49.5405 4.94992 50.4972C4.74 51.4539 4.33494 52.357 3.7601 53.15L4.0101 53.34C4.60911 52.5141 5.03262 51.5744 5.25448 50.5786C5.47635 49.5827 5.49178 48.552 5.30001 47.55C4.99294 45.6709 4.31292 43.8723 3.30001 42.26C1.10001 38.69 0.010092 33.26 0.380092 27.7C0.760092 21.86 2.70004 16.79 5.70004 13.8C8.98004 10.53 13.1901 8.57001 16.9801 8.57001C17.2774 8.57085 17.5745 8.58753 17.8701 8.62C18.769 8.67128 19.6429 8.9352 20.42 9.39001C20.37 9.83194 20.37 10.2781 20.42 10.72C20.42 11.0446 20.5145 11.3622 20.6921 11.6339C20.8697 11.9057 21.1227 12.1198 21.42 12.25C21.5254 12.2825 21.6384 12.2806 21.7426 12.2447C21.8469 12.2087 21.9371 12.1405 22.0001 12.05C22.2901 11.65 22.07 10.84 21.42 9.89999C21.2422 9.63868 21.0187 9.41171 20.7601 9.23001C21.0378 7.48976 21.8321 5.87314 23.04 4.59C25.61 1.77 29.7901 0.250016 34.7701 0.360016C37.5188 0.407048 40.2426 0.889702 42.8401 1.79001C45.1136 2.59154 47.2566 3.72369 49.2 5.14999C52.4175 7.49313 55.0018 10.5997 56.7201 14.19C57.415 15.6059 57.8002 17.1536 57.8501 18.73C57.1889 18.9489 56.5914 19.3266 56.1101 19.83C55.9028 20.0095 55.7439 20.2381 55.6478 20.4949C55.5517 20.7517 55.5215 21.0285 55.56 21.3C55.5834 21.3997 55.6342 21.491 55.7066 21.5634C55.7791 21.6359 55.8703 21.6866 55.9701 21.71C56.3801 21.79 56.97 21.45 57.56 20.71C57.941 20.2129 58.1514 19.6062 58.16 18.98C58.3623 18.9505 58.5678 18.9505 58.7701 18.98C59.2256 19.0453 59.6628 19.2033 60.0549 19.444C60.447 19.6848 60.7857 20.0034 61.05 20.38C62.34 22.03 62.91 25.6 62.68 30.43C62.5 34.11 60.3 39.74 57.3 42.27L57.5101 42.51C59.1721 40.9582 60.4727 39.0601 61.32 36.95C62.2491 34.8965 62.8142 32.6971 62.9901 30.45C63.3101 24.11 62.25 21.36 61.31 20.19ZM57.8501 19.11C57.8283 19.6319 57.6468 20.1346 57.33 20.55C56.65 21.36 56.2501 21.44 56.1001 21.44H56.05C56.0048 21.4292 55.9638 21.4054 55.9319 21.3717C55.8999 21.338 55.8785 21.2957 55.8701 21.25C55.8471 21.0344 55.878 20.8165 55.96 20.6158C56.0421 20.415 56.1727 20.2378 56.3401 20.1C56.7544 19.6416 57.2721 19.2885 57.8501 19.07V19.11ZM21.16 10.11C21.79 11.03 21.9101 11.68 21.7501 11.91C21.7316 11.9381 21.7063 11.961 21.6766 11.9768C21.6469 11.9925 21.6137 12.0005 21.58 12H21.5001C21.2001 11.92 20.8301 11.49 20.7501 10.73C20.7148 10.3709 20.7148 10.0091 20.7501 9.64999C20.9011 9.76019 21.0387 9.88773 21.16 10.03V10.11Z" fill="black"/>
<path d="M18.7201 49.7C18.3708 49.7026 18.0243 49.6364 17.7006 49.5051C17.3768 49.3739 17.0821 49.1801 16.8333 48.935C16.5844 48.6898 16.3864 48.3981 16.2503 48.0764C16.1142 47.7546 16.0427 47.4093 16.04 47.0599C16.0384 46.4769 16.2321 45.9101 16.5901 45.45L16.7802 45.5999C16.451 46.0155 16.2713 46.5298 16.2702 47.0599C16.2668 47.4439 16.3537 47.8234 16.5239 48.1676C16.6942 48.5118 16.9429 48.8112 17.2501 49.0416C17.5574 49.272 17.9144 49.4269 18.2925 49.4939C18.6706 49.5609 19.0592 49.5381 19.4269 49.4273C19.7946 49.3165 20.131 49.1208 20.4092 48.8561C20.6873 48.5913 20.8993 48.2649 21.0281 47.9031C21.1569 47.5413 21.1988 47.1543 21.1505 46.7734C21.1022 46.3924 20.9651 46.0281 20.7501 45.7099L20.9401 45.58C21.2392 46.0156 21.3996 46.5315 21.4002 47.0599C21.3975 47.4093 21.3261 47.7546 21.19 48.0764C21.0539 48.3981 20.8558 48.6898 20.6069 48.935C20.3581 49.1801 20.0634 49.3739 19.7396 49.5051C19.4159 49.6364 19.0694 49.7026 18.7201 49.7Z" fill="black"/>
<path d="M18.7301 48.5001C19.542 48.5001 20.2001 47.8419 20.2001 47.0301C20.2001 46.2182 19.542 45.5601 18.7301 45.5601C17.9182 45.5601 17.2601 46.2182 17.2601 47.0301C17.2601 47.8419 17.9182 48.5001 18.7301 48.5001Z" fill="black"/>
<path d="M20.29 47.3099C20.29 47.4088 20.2607 47.5055 20.2058 47.5877C20.1508 47.6699 20.0728 47.734 19.9814 47.7719C19.89 47.8097 19.7895 47.8196 19.6925 47.8003C19.5955 47.781 19.5064 47.7334 19.4365 47.6635C19.3666 47.5935 19.3189 47.5045 19.2996 47.4075C19.2804 47.3105 19.2902 47.2099 19.3281 47.1186C19.3659 47.0272 19.4301 46.9491 19.5123 46.8942C19.5945 46.8392 19.6911 46.8099 19.79 46.8099C19.856 46.8086 19.9217 46.8206 19.983 46.8452C20.0443 46.8698 20.1 46.9066 20.1467 46.9534C20.1934 47.0001 20.2301 47.0557 20.2547 47.117C20.2794 47.1783 20.2914 47.2439 20.29 47.3099Z" fill="white"/>
<path d="M18.3801 46.62C18.3801 46.6738 18.3695 46.7271 18.3489 46.7769C18.3283 46.8266 18.2981 46.8718 18.26 46.9099C18.2219 46.948 18.1767 46.9781 18.127 46.9987C18.0772 47.0194 18.0239 47.03 17.9701 47.03C17.8622 47.0274 17.7593 46.9834 17.683 46.9071C17.6066 46.8307 17.5626 46.7279 17.5601 46.62C17.5601 46.5112 17.6033 46.4069 17.6802 46.33C17.7571 46.2532 17.8614 46.21 17.9701 46.21C18.0239 46.21 18.0772 46.2206 18.127 46.2412C18.1767 46.2618 18.2219 46.292 18.26 46.33C18.2981 46.3681 18.3283 46.4133 18.3489 46.4631C18.3695 46.5128 18.3801 46.5661 18.3801 46.62Z" fill="white"/>
<path d="M44.0001 49.8199C43.3548 49.8197 42.7307 49.5892 42.2401 49.1699C41.7505 48.7534 41.4326 48.1703 41.3476 47.5332C41.2627 46.8961 41.4168 46.2501 41.7801 45.7199L41.9701 45.8499C41.6437 46.3348 41.5071 46.9228 41.5864 47.5019C41.6657 48.081 41.9554 48.6106 42.4001 48.9899C42.8903 49.4104 43.5256 49.6222 44.17 49.5799C44.8131 49.5413 45.4146 49.2489 45.8421 48.7669C46.2697 48.285 46.4883 47.653 46.4501 47.0099C46.4235 46.4922 46.2501 45.9927 45.9501 45.5699L46.1301 45.4199C46.4602 45.8842 46.6541 46.4314 46.69 46.9999C46.7283 47.7034 46.4871 48.3935 46.0188 48.9198C45.5505 49.4461 44.8932 49.7661 44.19 49.8099L44.0001 49.8199Z" fill="black"/>
<path d="M45.4801 46.9801C45.4972 47.2697 45.4282 47.5578 45.2819 47.8082C45.1355 48.0586 44.9183 48.2602 44.6577 48.3874C44.3971 48.5147 44.1046 48.562 43.8171 48.5234C43.5297 48.4849 43.26 48.3621 43.0421 48.1706C42.8243 47.9791 42.6679 47.7275 42.5928 47.4473C42.5176 47.1672 42.5271 46.8711 42.6199 46.5963C42.7127 46.3215 42.8847 46.0802 43.1143 45.903C43.3438 45.7257 43.6207 45.6203 43.91 45.6001C44.3011 45.5754 44.686 45.7069 44.9803 45.9656C45.2747 46.2243 45.4544 46.5891 45.4801 46.9801Z" fill="black"/>
<path d="M45.5801 47.25C45.5855 47.3152 45.5779 47.3808 45.5576 47.4429C45.5373 47.5051 45.5047 47.5626 45.4618 47.612C45.4189 47.6614 45.3667 47.7017 45.308 47.7305C45.2493 47.7594 45.1854 47.7762 45.1201 47.78C44.9875 47.7893 44.8567 47.7455 44.7564 47.6583C44.656 47.5711 44.5944 47.4476 44.5851 47.315C44.5758 47.1824 44.6196 47.0515 44.7068 46.9512C44.794 46.8509 44.9174 46.7893 45.0501 46.78C45.116 46.7745 45.1824 46.7825 45.2452 46.8034C45.3081 46.8243 45.366 46.8578 45.4155 46.9017C45.4651 46.9456 45.5052 46.9991 45.5335 47.059C45.5617 47.1189 45.5776 47.1838 45.5801 47.25Z" fill="white"/>
<path d="M43.6301 46.69C43.6357 46.7982 43.5993 46.9044 43.5285 46.9864C43.4577 47.0684 43.3579 47.1198 43.2501 47.13C43.1429 47.1355 43.0379 47.0988 42.9575 47.0278C42.8771 46.9567 42.8277 46.857 42.82 46.75C42.8159 46.6961 42.8225 46.642 42.8394 46.5907C42.8563 46.5393 42.8832 46.4919 42.9185 46.451C42.9538 46.4101 42.9969 46.3766 43.0452 46.3524C43.0935 46.3282 43.1461 46.3138 43.2 46.31C43.3065 46.307 43.4102 46.3446 43.4901 46.4151C43.5699 46.4857 43.62 46.5839 43.6301 46.69Z" fill="white"/>
<path opacity="0.4" d="M17.2501 65.5401C20.4865 65.5401 23.1101 62.9165 23.1101 59.6801C23.1101 56.4437 20.4865 53.8201 17.2501 53.8201C14.0137 53.8201 11.3901 56.4437 11.3901 59.6801C11.3901 62.9165 14.0137 65.5401 17.2501 65.5401Z" fill="#BE0B76"/>
<path opacity="0.4" d="M45.7802 65.5401C49.0165 65.5401 51.6402 62.9165 51.6402 59.6801C51.6402 56.4437 49.0165 53.8201 45.7802 53.8201C42.5438 53.8201 39.9202 56.4437 39.9202 59.6801C39.9202 62.9165 42.5438 65.5401 45.7802 65.5401Z" fill="#BE0B76"/>
</svg>
