<svg width="38" height="13" viewBox="0 0 38 13" fill="none" xmlns="http://www.w3.org/2000/svg">
<path d="M10.5 12.2L8.99997 10.8C8.49997 11.2 7.99996 11.5 7.39996 11.7C6.79996 11.9 6.19997 12 5.49997 12C4.69997 12 3.89996 11.8 3.29996 11.5C2.69996 11.2 2.09998 10.8 1.59998 10.3C1.09998 9.79999 0.799969 9.19999 0.499969 8.49999C0.199969 7.79999 0.0999756 7.09999 0.0999756 6.39999C0.0999756 5.69999 0.199969 4.99999 0.499969 4.29999C0.799969 3.59999 1.09998 2.99999 1.59998 2.49999C2.09998 1.99999 2.59996 1.59999 3.29996 1.29999C3.99996 0.999988 4.69997 0.799988 5.49997 0.799988C6.29997 0.799988 6.99998 0.999988 7.69998 1.29999C8.39998 1.59999 8.89996 1.99999 9.39996 2.49999C9.89996 2.99999 10.2 3.59999 10.5 4.29999C10.8 4.99999 10.9 5.69999 10.9 6.39999C10.9 7.09999 10.8 7.79999 10.5 8.39999C10.3 8.99999 9.89997 9.59999 9.49997 10.1L11 11.4L10.5 12.2ZM10.1 6.49999C10.1 5.79999 9.99996 5.19999 9.79996 4.59999C9.59996 3.99999 9.29996 3.49999 8.89996 3.09999C8.49996 2.69999 7.99997 2.29999 7.49997 2.09999C6.89997 1.79999 6.29998 1.69999 5.69998 1.69999C4.99998 1.69999 4.39996 1.79999 3.89996 2.09999C3.29996 2.29999 2.89997 2.69999 2.49997 3.09999C2.09997 3.49999 1.79998 3.99999 1.59998 4.59999C1.39998 5.19999 1.29996 5.79999 1.29996 6.49999C1.29996 7.19999 1.39998 7.79999 1.59998 8.39999C1.79998 8.99999 2.09997 9.49999 2.49997 9.89999C2.89997 10.3 3.39996 10.7 3.89996 10.9C4.39996 11.1 5.09998 11.3 5.69998 11.3C6.29998 11.3 6.79996 11.2 7.29996 11C7.79996 10.8 8.19998 10.6 8.59998 10.3L6.49997 8.49999L7.09998 7.89999L9.09998 9.79999C9.49998 9.39999 9.79997 8.89999 9.99997 8.29999C10.2 7.69999 10.1 7.19999 10.1 6.49999Z" fill="#242536"/>
<path d="M21.9 9.40001C21.7 10 21.4 10.5 21 10.9C20.6 11.3 20.2 11.6 19.6 11.8C19.1 12 18.5 12.1 17.8 12.1C17.2 12.1 16.6 12 16 11.8C15.4 11.6 15 11.3 14.6 10.9C14.2 10.5 13.9 10 13.7 9.50001C13.5 8.90001 13.4 8.30001 13.4 7.50001V1.20001H14.2V7.40001C14.2 8.70001 14.5 9.70001 15.2 10.3C15.8 11 16.7 11.3 17.9 11.3C18.4 11.3 18.9 11.2 19.4 11.1C19.9 11 20.2 10.7 20.5 10.4C20.8 10.1 21.1 9.70001 21.2 9.20001C21.3 8.70001 21.5 8.10001 21.5 7.50001V1.20001H22.3V7.40001C22.2 8.10001 22.1 8.80001 21.9 9.40001Z" fill="#242536"/>
<path d="M25.4 11.9V1.20001H26.2V11.9H25.4Z" fill="#242536"/>
<path d="M28.9 11.9V11.5L36.2 2.00001H29.1V1.20001H37.3V1.60001L30 11.1H37.3V11.8H28.9V11.9Z" fill="#242536"/>
</svg>
