<svg width="124" height="146" viewBox="0 0 124 146" fill="none" xmlns="http://www.w3.org/2000/svg">
<path d="M120 123.1C117.4 128.1 113.8 132.2 109 135.5C104.2 138.8 98.5 141.3 91.8 143C85.1 144.7 77.7 145.5 69.5 145.5H0.599976V0.5H67.9C82.8 0.5 94.5 3.9 103 10.6C111.5 17.4 115.7 26.5 115.7 37.9V38.3C115.7 42.4 115.2 46.1 114.2 49.3C113.2 52.5 111.8 55.3 110.1 57.9C108.4 60.5 106.4 62.7 104.1 64.6C101.8 66.5 99.4 68.2 96.8 69.6C105.2 72.8 111.8 77.1 116.6 82.5C121.4 88 123.8 95.5 123.8 105.2V105.6C123.8 112.3 122.5 118.1 120 123.1ZM84.2 43.3C84.2 38.5 82.4 34.8 78.8 32.2C75.2 29.6 70 28.4 63.2 28.4H31.7V59H61.1C68.1 59 73.7 57.8 77.9 55.4C82 53 84.1 49.1 84.1 43.7V43.3H84.2ZM92.3 101.3C92.3 96.5 90.4 92.6 86.7 89.8C83 87 77 85.6 68.7 85.6H31.8V117.5H69.7C76.8 117.5 82.3 116.2 86.3 113.7C90.3 111.1 92.3 107.2 92.3 101.8V101.3Z" fill="black"/>
</svg>
