<svg width="100" height="20" viewBox="0 0 100 20" fill="none" xmlns="http://www.w3.org/2000/svg">
<path d="M9.99984 14.3917L15.1498 17.5001L13.7832 11.6417L18.3332 7.70008L12.3415 7.19175L9.99984 1.66675L7.65817 7.19175L1.6665 7.70008L6.2165 11.6417L4.84984 17.5001L9.99984 14.3917Z" fill="#F1CC59"/>
<path d="M29.9998 14.3917L35.1498 17.5001L33.7832 11.6417L38.3332 7.70008L32.3415 7.19175L29.9998 1.66675L27.6582 7.19175L21.6665 7.70008L26.2165 11.6417L24.8498 17.5001L29.9998 14.3917Z" fill="#F1CC59"/>
<path d="M49.9998 14.3917L55.1498 17.5001L53.7832 11.6417L58.3332 7.70008L52.3415 7.19175L49.9998 1.66675L47.6582 7.19175L41.6665 7.70008L46.2165 11.6417L44.8498 17.5001L49.9998 14.3917Z" fill="#F1CC59"/>
<path d="M69.9998 14.3917L75.1498 17.5001L73.7832 11.6417L78.3332 7.70008L72.3415 7.19175L69.9998 1.66675L67.6582 7.19175L61.6665 7.70008L66.2165 11.6417L64.8498 17.5001L69.9998 14.3917Z" fill="#F1CC59"/>
<path d="M89.9998 14.3917L95.1498 17.5001L93.7832 11.6417L98.3332 7.70008L92.3415 7.19175L89.9998 1.66675L87.6582 7.19175L81.6665 7.70008L86.2165 11.6417L84.8498 17.5001L89.9998 14.3917Z" fill="#F1CC59"/>
</svg>
