<svg width="186" height="77" viewBox="0 0 186 77" fill="none" xmlns="http://www.w3.org/2000/svg">
<path d="M16.6802 34.4954H2.08496V0H15.3861C16.8959 0 18.4058 0.0702555 19.9156 0.281022C21.4974 0.491788 22.8635 0.913321 24.1576 1.54562C25.4518 2.17792 26.4584 3.09124 27.2492 4.28558C28.0401 5.47993 28.4715 7.02555 28.4715 8.9927C28.4715 11.0301 27.8963 12.7162 26.746 14.0511C25.9551 14.9644 24.9485 15.7372 23.7981 16.2993C24.3733 16.4398 24.8766 16.6505 25.3799 16.9316C26.3865 17.4234 27.1773 18.0557 27.8963 18.8285C28.6153 19.6013 29.1186 20.4443 29.55 21.4982C29.9095 22.4818 30.1252 23.6058 30.1252 24.7299C30.1252 26.5566 29.6938 28.1724 28.9029 29.437C28.112 30.7016 27.0335 31.6852 25.7394 32.458C24.4452 33.2308 23.0073 33.7226 21.4255 34.0739C19.7719 34.3549 18.1901 34.4954 16.6802 34.4954ZM3.23533 33.4416H16.6802C18.1182 33.4416 19.6281 33.3011 21.1379 32.9498C22.5759 32.6688 23.9419 32.177 25.0923 31.4745C26.2427 30.7719 27.1773 29.9288 27.8963 28.8047C28.6153 27.7509 28.9748 26.3458 28.9748 24.6597C28.9748 23.6761 28.831 22.6925 28.4715 21.8495C28.112 21.0064 27.6806 20.2336 27.0335 19.531C26.3865 18.8987 25.6675 18.3367 24.8047 17.9151C23.9419 17.4936 23.0073 17.2126 21.9288 17.0721L21.4255 17.0018V16.0182L21.785 15.8777C23.4386 15.3859 24.8047 14.5429 25.8113 13.3485C26.8179 12.2245 27.3211 10.7491 27.3211 8.9927C27.3211 7.30657 26.9616 5.90146 26.3146 4.91788C25.5956 3.93431 24.7328 3.09124 23.6543 2.5292C22.504 1.96715 21.2098 1.54562 19.7719 1.33485C18.3339 1.12409 16.824 1.05383 15.3861 1.05383H3.16343V33.4416H3.23533ZM16.9678 28.2427H9.63424V19.6013H15.8894C16.5364 19.6013 17.1835 19.6715 17.9744 19.7418C18.6934 19.812 19.4124 20.0228 20.1313 20.3038C20.8503 20.5849 21.4255 21.0064 21.8569 21.5684C22.3602 22.1305 22.5759 22.9033 22.5759 23.8166C22.5759 24.6597 22.3602 25.3622 22.0726 25.9243C21.7131 26.4863 21.2817 26.9781 20.7065 27.3294C20.1313 27.6807 19.5562 27.9617 18.9091 28.1022C18.1901 28.1724 17.6149 28.2427 16.9678 28.2427ZM10.7846 27.1889H16.9678C17.4711 27.1889 18.0463 27.1186 18.6215 26.9781C19.1248 26.8376 19.6281 26.6971 20.0594 26.4161C20.4908 26.135 20.7784 25.7838 21.066 25.3622C21.3536 24.9407 21.4255 24.4489 21.4255 23.8166C21.4255 23.1843 21.2817 22.6223 20.9222 22.271C20.5627 21.8495 20.1313 21.5684 19.6281 21.2874C19.0529 21.0766 18.4777 20.8659 17.7587 20.7956C17.1116 20.7254 16.4645 20.6551 15.8894 20.6551H10.7846V27.1889ZM15.6737 14.4726H9.63424V6.25274H15.3142C15.8894 6.25274 16.5364 6.32299 17.1835 6.39325C17.8306 6.53376 18.4777 6.74453 18.981 7.02555C19.5562 7.30657 19.9875 7.7281 20.347 8.29015C20.7065 8.85219 20.9222 9.48449 20.9222 10.3276C20.9222 11.1004 20.7784 11.7327 20.4189 12.2947C20.1313 12.8568 19.7 13.2783 19.1248 13.6296C18.6215 13.9808 18.0463 14.1916 17.3992 14.3321C16.8959 14.4024 16.2489 14.4726 15.6737 14.4726ZM10.7846 13.3485H15.6737C16.177 13.3485 16.7521 13.2783 17.2554 13.208C17.7587 13.0675 18.1901 12.927 18.6215 12.646C18.981 12.4352 19.2686 12.0839 19.5562 11.7327C19.7719 11.3111 19.9156 10.8896 19.9156 10.3276C19.9156 9.76551 19.7719 9.27372 19.5562 8.92245C19.2686 8.57117 18.981 8.21989 18.5496 8.00912C18.1182 7.79836 17.6149 7.58759 17.0397 7.51734C16.4645 7.44708 15.8894 7.37682 15.3861 7.37682H10.7846V13.3485Z" fill="black"/>
<path d="M35.7334 1.12402H58.9564V7.86855H43.2108V14.1213H58.0937V20.9361H43.2108V27.6806H59.8192V34.4954H35.7334V1.12402Z" fill="black"/>
<path d="M77.7216 1.12402H83.9767L98.8596 34.5656H90.3756L87.3559 27.3996H74.0548L71.1789 34.4954H62.9106L77.7216 1.12402ZM80.5975 10.8193L76.4275 21.2171H84.7676L80.5975 10.8193Z" fill="black"/>
<path d="M127.619 21.1468C127.619 23.114 127.331 24.8704 126.756 26.4862C126.181 28.1021 125.246 29.5072 124.096 30.7016C122.945 31.8959 121.436 32.8092 119.71 33.5118C117.985 34.2143 115.899 34.4954 113.599 34.4954C111.298 34.4954 109.213 34.1441 107.487 33.5118C105.762 32.8092 104.252 31.8959 103.102 30.7016C101.951 29.5072 101.017 28.1021 100.441 26.4862C99.8662 24.8704 99.5786 23.0437 99.5786 21.1468V1.12402H106.912V20.8658C106.912 21.8494 107.056 22.833 107.415 23.676C107.775 24.5191 108.206 25.2919 108.782 25.9242C109.357 26.5565 110.076 27.0483 110.939 27.3996C111.801 27.7508 112.664 27.9616 113.671 27.9616C114.677 27.9616 115.54 27.7508 116.331 27.3996C117.122 27.0483 117.841 26.5565 118.488 25.9242C119.063 25.2919 119.566 24.5191 119.854 23.676C120.213 22.833 120.357 21.8494 120.357 20.8658V1.12402H127.691V21.1468H127.619Z" fill="black"/>
<path d="M139.985 7.58753H130.207V1.12402H157.313V7.58753H147.534V34.4954H139.985V7.58753Z" fill="black"/>
<path d="M165.653 20.2335L152.783 1.12402H162.202L169.392 13.5592L177.085 1.12402H186L173.202 20.2335V34.4954H165.653V20.2335Z" fill="black"/>
<path d="M18.9811 76.9999C16.2489 76.9999 13.7325 76.5783 11.4318 75.7353C9.13104 74.8922 7.1179 73.6979 5.39235 72.082C3.6668 70.5364 2.37263 68.5692 1.43796 66.321C0.503286 64.0729 0 61.6139 0 58.874C0 56.134 0.503286 53.6048 1.43796 51.4269C2.37263 49.1787 3.6668 47.2818 5.39235 45.6659C7.046 44.1203 9.13104 42.8557 11.4318 42.0126C13.7325 41.1696 16.3208 40.748 18.9811 40.748C19.9876 40.748 20.9942 40.8183 22.0727 41.0291C23.1511 41.2398 24.2296 41.5209 25.2362 41.8721C26.3146 42.2937 27.3212 42.7855 28.2559 43.4178C29.2625 44.0501 30.1252 44.8931 30.9161 45.8064L31.2756 46.228L24.5891 51.5674L24.2296 51.1459C23.5106 50.3028 22.7198 49.6705 21.7132 49.249C20.7066 48.8274 19.5562 48.6167 18.1902 48.6167C16.896 48.6167 15.6019 48.8977 14.4515 49.3895C13.3011 49.8813 12.2945 50.5838 11.5037 51.4971C10.6409 52.4105 9.99381 53.4643 9.56243 54.7289C9.05914 55.9935 8.84345 57.3986 8.84345 58.8037C8.84345 60.2791 9.05914 61.6842 9.56243 62.9488C10.0657 64.2134 10.7128 65.2672 11.5037 66.1805C12.2945 67.0938 13.3011 67.7964 14.3796 68.2882C15.4581 68.78 16.6803 69.061 17.9026 69.061C19.3405 69.061 20.6347 68.78 21.7132 68.2179C22.7917 67.6559 23.7263 66.8128 24.4453 65.759L24.8048 65.2672L31.9946 70.5364L31.707 70.9579C30.1971 72.9953 28.2559 74.5409 25.9552 75.5245C23.7982 76.5081 21.4256 76.9999 18.9811 76.9999ZM18.9811 41.8721C16.3927 41.8721 13.9482 42.2937 11.7913 43.0665C9.63433 43.8393 7.69308 45.0336 6.11133 46.4387C4.52957 47.9141 3.30731 49.7407 2.37263 51.7782C1.50986 53.8858 1.00657 56.2745 1.00657 58.8037C1.00657 61.4032 1.43796 63.7918 2.37263 65.8293C3.23541 67.9369 4.52957 69.6933 6.11133 71.1687C7.69308 72.644 9.56243 73.7681 11.7913 74.5409C13.9482 75.3137 16.3927 75.7353 18.9811 75.7353C21.2099 75.7353 23.5106 75.2435 25.5957 74.3302C27.5369 73.4871 29.1906 72.2225 30.5566 70.5364L25.1643 66.6021C24.3734 67.5856 23.4387 68.3584 22.3603 68.9205C21.0661 69.623 19.6281 69.9041 17.9745 69.9041C16.5365 69.9041 15.1705 69.6231 13.9482 69.061C12.7259 68.499 11.6475 67.7262 10.7128 66.6723C9.77812 65.6887 9.05914 64.4944 8.55586 63.0893C8.05257 61.7544 7.76498 60.2088 7.76498 58.5929C7.76498 56.9771 8.05257 55.5017 8.55586 54.0966C9.05914 52.6915 9.77812 51.4971 10.7128 50.5136C11.6475 49.53 12.7978 48.6869 14.0201 48.1249C15.3143 47.5628 16.6803 47.2818 18.1902 47.2818C19.7 47.2818 20.9942 47.5628 22.1446 48.0546C23.1511 48.4762 24.0139 49.1084 24.7329 49.811L29.6939 45.8767C29.0468 45.1741 28.3997 44.6121 27.6807 44.1203C26.8179 43.488 25.8114 42.9962 24.8767 42.6449C23.8701 42.2937 22.8635 42.0126 21.857 41.8721C20.9223 41.9424 19.9157 41.8721 18.9811 41.8721Z" fill="black"/>
<path d="M35.0859 41.8721H42.7071V68.9204H56.9429V75.8757H35.0859V41.8721Z" fill="black"/>
<path d="M88.65 62.4569C88.65 64.4241 88.3625 66.2507 87.7154 67.9369C87.0683 69.623 86.2055 71.0281 84.9832 72.2927C83.761 73.487 82.2511 74.4706 80.4537 75.1732C78.6562 75.8757 76.5712 76.227 74.1986 76.227C71.8259 76.227 69.7409 75.8757 67.9434 75.1732C66.146 74.4706 64.6361 73.487 63.4139 72.2927C62.1916 71.0984 61.3288 69.623 60.6817 67.9369C60.0347 66.2507 59.7471 64.4241 59.7471 62.4569V41.8721H67.2964V62.1057C67.2964 63.1595 67.4402 64.0728 67.7996 64.9861C68.1591 65.8994 68.5905 66.602 69.2376 67.3046C69.8847 67.9369 70.6037 68.4286 71.4664 68.7799C72.3292 69.1312 73.2639 69.342 74.2705 69.342C75.277 69.342 76.2117 69.1312 77.0026 68.7799C77.8654 68.4286 78.5843 67.9369 79.1595 67.3046C79.7347 66.6723 80.238 65.8994 80.5975 64.9861C80.957 64.0728 81.1008 63.1595 81.1008 62.1057V41.8721H88.65V62.4569Z" fill="black"/>
<path d="M91.814 41.8721H104.756C106.265 41.8721 107.775 41.9423 109.285 42.1531C110.795 42.3639 112.161 42.7854 113.383 43.4177C114.606 44.05 115.54 44.8931 116.331 46.0171C117.05 47.1412 117.482 48.6166 117.482 50.5135C117.482 52.4104 116.906 54.0263 115.828 55.2909C114.749 56.5555 113.311 57.4688 111.514 58.0308V58.1011C112.664 58.2416 113.671 58.5929 114.606 59.0144C115.54 59.5062 116.331 60.0682 116.978 60.7708C117.625 61.4733 118.201 62.3164 118.56 63.3C118.919 64.2836 119.135 65.2671 119.135 66.3912C119.135 68.1476 118.776 69.6932 117.985 70.8876C117.194 72.0819 116.187 73.0655 114.965 73.768C113.743 74.4706 112.305 75.0326 110.795 75.3839C109.213 75.7352 107.703 75.8757 106.122 75.8757H91.8859V41.8721H91.814ZM99.507 55.5016H105.043C105.618 55.5016 106.194 55.4314 106.769 55.2909C107.344 55.1504 107.847 54.9396 108.35 54.6586C108.782 54.3775 109.141 53.956 109.429 53.5345C109.717 53.0427 109.86 52.4806 109.86 51.7781C109.86 51.0755 109.717 50.5135 109.429 50.0217C109.141 49.5299 108.71 49.1786 108.207 48.9679C107.703 48.6868 107.128 48.5463 106.553 48.4058C105.906 48.2653 105.331 48.2653 104.756 48.2653H99.5789V55.5016H99.507ZM99.507 69.5527H106.409C106.984 69.5527 107.56 69.4825 108.207 69.342C108.782 69.2014 109.357 68.9907 109.86 68.6394C110.364 68.2881 110.723 67.9368 111.083 67.3748C111.37 66.883 111.514 66.2507 111.514 65.4779C111.514 64.7051 111.298 64.0025 110.867 63.5108C110.436 63.019 109.932 62.6677 109.285 62.3867C108.638 62.1056 107.991 61.9651 107.272 61.8246C106.553 61.7544 105.906 61.6841 105.259 61.6841H99.4352V69.5527H99.507Z" fill="black"/>
</svg>
