<svg width="24" height="24" viewBox="0 0 24 24" fill="none" xmlns="http://www.w3.org/2000/svg">
<path d="M19 22H3C2.46957 22 1.96086 21.7893 1.58579 21.4142C1.21071 21.0391 1 20.5304 1 20V9.04899C1.01662 8.71844 1.11378 8.39695 1.28301 8.11252C1.45224 7.82808 1.68842 7.58932 1.971 7.41699L9.971 2.61699C10.2817 2.43069 10.6372 2.33228 10.9995 2.33228C11.3618 2.33228 11.7173 2.43069 12.028 2.61699L20.028 7.41699C20.629 7.77999 20.998 8.42999 21 9.13199V20C21 20.5304 20.7893 21.0391 20.4142 21.4142C20.0391 21.7893 19.5304 22 19 22ZM3 9.86799V20H19V9.86799L11 15.201L3 9.86799ZM11 4.33199L4.316 8.34199L11 12.798L17.683 8.34199L11 4.33199Z" fill="black"/>
</svg>
