<svg width="19" height="20" viewBox="0 0 19 20" fill="none" xmlns="http://www.w3.org/2000/svg">
<path fill-rule="evenodd" clip-rule="evenodd" d="M7.54625 0.508252C8.10728 0.157609 8.69938 0 9.372 0C10.8308 0 11.7524 0.791718 12.643 1.85951C12.6658 1.88693 12.6872 1.91555 12.707 1.94525C15.423 6.01871 16.786 9.08481 17.8035 11.6286C18.3016 12.8738 18.75 14.1613 18.75 15.375C18.75 16.6898 18.2268 17.8611 16.975 18.8C15.8266 19.6613 14.7453 20 13.75 20C12.7734 20 11.9844 19.6727 11.4278 19.3944C10.5648 18.9629 10.0103 18.5148 9.375 17.9057C8.73973 18.5148 8.18517 18.9629 7.32221 19.3944C6.76561 19.6727 5.97658 20 5 20C4.00469 20 2.92342 19.6613 1.775 18.8C0.523194 17.8611 0 16.6898 0 15.375C0 14.1613 0.448444 12.8738 0.946523 11.6286C1.96404 9.08481 3.327 6.01871 6.04298 1.94525C6.06261 1.91581 6.08378 1.88744 6.10642 1.86025C6.56209 1.31281 7.01829 0.838225 7.54625 0.508252ZM10.7022 16.4064C11.2783 15.6399 11.8435 14.8509 12.2986 14.0879C12.876 13.1197 13.375 12.0369 13.375 11C13.375 9.84586 13.0858 8.79657 12.3321 8.04289C11.5784 7.28921 10.5291 7 9.375 7C8.22086 7 7.17157 7.28921 6.41789 8.04289C5.66421 8.79657 5.375 9.84586 5.375 11C5.375 12.0369 5.87397 13.1197 6.4514 14.0879C6.90649 14.8509 7.47167 15.6399 8.04775 16.4064C7.45208 16.9821 7.06899 17.285 6.42779 17.6056C5.98439 17.8273 5.52342 18 5 18C4.49531 18 3.82658 17.8387 2.975 17.2C2.22681 16.6389 2 16.0602 2 15.375C2 14.5887 2.30156 13.6262 2.80348 12.3714C3.78221 9.92455 5.07907 7.00364 7.67715 3.09959C8.07764 2.62242 8.361 2.35753 8.60625 2.20425C8.82522 2.06739 9.04462 2 9.372 2C9.91119 2 10.3175 2.20224 11.0732 3.10007C13.671 7.00388 14.9678 9.92465 15.9465 12.3714C16.4484 13.6262 16.75 14.5887 16.75 15.375C16.75 16.0602 16.5232 16.6389 15.775 17.2C14.9234 17.8387 14.2547 18 13.75 18C13.2266 18 12.7656 17.8273 12.3222 17.6056C11.681 17.285 11.2979 16.9821 10.7022 16.4064ZM9.375 14.8402C9.82806 14.226 10.243 13.63 10.5809 13.0634C11.127 12.1478 11.375 11.4631 11.375 11C11.375 10.1541 11.1642 9.70343 10.9179 9.45711C10.6716 9.21079 10.2209 9 9.375 9C8.52914 9 8.07843 9.21079 7.83211 9.45711C7.58579 9.70343 7.375 10.1541 7.375 11C7.375 11.4631 7.62303 12.1478 8.1691 13.0634C8.50702 13.63 8.92194 14.226 9.375 14.8402Z" fill="black"/>
</svg>
