<svg width="31" height="30" viewBox="0 0 31 30" fill="none" xmlns="http://www.w3.org/2000/svg">
<path d="M15.76 2.68018C19.76 2.68018 20.21 2.67977 21.76 2.75977C22.7021 2.77396 23.6351 2.94662 24.52 3.27002C25.1602 3.52029 25.742 3.90005 26.2289 4.38525C26.7158 4.87046 27.0975 5.45051 27.35 6.08984C27.6734 6.97478 27.8458 7.90802 27.86 8.8501C27.93 10.4101 27.95 10.8501 27.95 14.8501C27.95 18.8501 27.95 19.2801 27.86 20.8501C27.8451 21.7888 27.6727 22.7184 27.35 23.6001C27.1078 24.246 26.7253 24.83 26.23 25.3101C25.7511 25.8044 25.1665 26.1837 24.52 26.4199C23.6351 26.7433 22.7021 26.916 21.76 26.9302C20.19 27.0002 19.76 27.0098 15.76 27.0098C11.76 27.0098 11.31 27.0102 9.76001 26.9302C8.81794 26.916 7.88494 26.7433 7 26.4199C6.35354 26.1837 5.76893 25.8044 5.29001 25.3101C4.79472 24.83 4.41217 24.246 4.17 23.6001C3.84733 22.7184 3.67494 21.7888 3.66 20.8501C3.59 19.2801 3.57001 18.8501 3.57001 14.8501C3.57001 10.8501 3.57 10.4201 3.66 8.8501C3.6742 7.90802 3.8466 6.97478 4.17 6.08984C4.42253 5.45051 4.80418 4.87046 5.29111 4.38525C5.77803 3.90005 6.35977 3.52029 7 3.27002C7.88494 2.94662 8.81794 2.77396 9.76001 2.75977C11.33 2.68977 11.76 2.68018 15.76 2.68018ZM15.76 1.87083e-09C11.76 1.87083e-09 11.21 -0.000156254 9.62001 0.0898438C8.3871 0.121477 7.16767 0.354495 6.01001 0.779785C5.02091 1.15935 4.12209 1.74186 3.37125 2.48926C2.6204 3.23666 2.03412 4.13278 1.65001 5.12012C1.22028 6.27308 0.987043 7.49007 0.960007 8.72021C0.890007 10.3102 0.87001 10.8098 0.87001 14.8398C0.87001 18.8698 0.870007 19.38 0.960007 20.96C0.987043 22.1901 1.22028 23.4071 1.65001 24.5601C2.03412 25.5474 2.6204 26.4435 3.37125 27.1909C4.12209 27.9383 5.02091 28.5203 6.01001 28.8999C7.16613 29.3307 8.3865 29.5639 9.62001 29.5898C11.21 29.6598 11.72 29.6802 15.76 29.6802C19.8 29.6802 20.31 29.6798 21.9 29.5898C23.1335 29.5639 24.3539 29.3307 25.51 28.8999C26.4991 28.5203 27.3979 27.9383 28.1488 27.1909C28.8996 26.4435 29.4859 25.5474 29.87 24.5601C30.305 23.4086 30.5384 22.1907 30.56 20.96C30.63 19.38 30.65 18.8698 30.65 14.8398C30.65 10.8098 30.65 10.3102 30.56 8.72021C30.5374 7.4896 30.304 6.27187 29.87 5.12012C29.4859 4.13278 28.8996 3.23666 28.1488 2.48926C27.3979 1.74186 26.4991 1.15935 25.51 0.779785C24.3523 0.354495 23.1329 0.121477 21.9 0.0898438C20.31 0.0198437 19.8 1.87083e-09 15.76 1.87083e-09Z" fill="white"/>
<path d="M15.76 7.22022C14.2542 7.22615 12.7839 7.67767 11.5348 8.51856C10.2856 9.35945 9.31361 10.5519 8.74147 11.9448C8.16932 13.3377 8.0227 14.8686 8.32009 16.3447C8.61749 17.8209 9.34558 19.1761 10.4124 20.2388C11.4793 21.3015 12.8371 22.0243 14.3144 22.3159C15.7917 22.6075 17.3223 22.4546 18.7129 21.877C20.1036 21.2993 21.2919 20.3228 22.1278 19.0703C22.9638 17.8179 23.41 16.3457 23.41 14.8399C23.4047 12.8153 22.5961 10.876 21.1617 9.44727C19.7273 8.01853 17.7845 7.21756 15.76 7.22022ZM15.76 19.79C14.7711 19.79 13.8044 19.4967 12.9821 18.9473C12.1599 18.3979 11.519 17.6173 11.1406 16.7036C10.7622 15.79 10.6631 14.7844 10.8561 13.8145C11.049 12.8446 11.5252 11.9537 12.2245 11.2544C12.9237 10.5551 13.8146 10.0792 14.7845 9.88624C15.7544 9.69331 16.7598 9.79198 17.6734 10.1704C18.587 10.5489 19.3679 11.19 19.9174 12.0122C20.4668 12.8345 20.76 13.8011 20.76 14.79C20.76 16.1161 20.2332 17.388 19.2955 18.3257C18.3578 19.2634 17.0861 19.79 15.76 19.79Z" fill="white"/>
<path d="M23.7 8.70014C24.6886 8.70014 25.49 7.9032 25.49 6.92014C25.49 5.93707 24.6886 5.14014 23.7 5.14014C22.7114 5.14014 21.91 5.93707 21.91 6.92014C21.91 7.9032 22.7114 8.70014 23.7 8.70014Z" fill="white"/>
</svg>
