<svg width="34" height="28" viewBox="0 0 34 28" fill="none" xmlns="http://www.w3.org/2000/svg">
<path d="M33 0.980062C32.9725 0.85898 32.9136 0.747087 32.8294 0.655843C32.7452 0.564598 32.6385 0.497174 32.52 0.460042C32.0896 0.374952 31.6444 0.40586 31.23 0.549886C31.23 0.549886 2.49001 10.8498 0.850012 11.9898C0.500012 12.2298 0.380014 12.3701 0.320014 12.5401C0.0300137 13.3501 0.920005 13.71 0.920005 13.71L8.33001 16.1202C8.45124 16.1524 8.57878 16.1524 8.7 16.1202C10.39 15.0602 25.7 5.4502 26.54 5.1202C26.68 5.1202 26.78 5.1203 26.75 5.2203C26.4 6.4603 13.14 18.2203 13.14 18.2203C13.1053 18.2638 13.0751 18.3103 13.05 18.3599L12.36 25.6803C12.36 25.6803 12.07 27.9203 14.36 25.6803C15.95 24.1003 17.48 22.77 18.25 22.13C20.8 23.88 23.54 25.8199 24.72 26.8399C24.9195 27.03 25.155 27.1786 25.4125 27.2764C25.6701 27.3743 25.9446 27.4198 26.22 27.4102C26.561 27.371 26.8819 27.2281 27.1393 27.0011C27.3968 26.774 27.5785 26.4737 27.66 26.1402C27.66 26.1402 32.9 5.13991 33.07 2.31991C33.07 2.03991 33.07 1.87026 33.07 1.68026C33.0791 1.44481 33.0556 1.20904 33 0.980062Z" fill="white"/>
</svg>
