<svg width="29" height="30" viewBox="0 0 29 30" fill="none" xmlns="http://www.w3.org/2000/svg">
<path d="M14.46 2.83021C16.3077 2.83369 18.1292 3.2676 19.7799 4.09779C21.4306 4.92797 22.8651 6.13166 23.9695 7.61292C25.074 9.09418 25.8181 10.8125 26.1427 12.6315C26.4673 14.4504 26.3635 16.3201 25.8396 18.0919C25.3156 19.8638 24.3859 21.4891 23.1243 22.839C21.8626 24.1889 20.3037 25.2259 18.5713 25.8683C16.8388 26.5107 14.9805 26.7407 13.1438 26.5397C11.3071 26.3386 9.54245 25.712 7.99001 24.7101C7.92914 24.6851 7.86087 24.6851 7.8 24.7101L5.9 25.2203L3.54 25.8502L4.17001 23.4899L4.66 21.6803C4.67439 21.6489 4.68183 21.6147 4.68183 21.5802C4.68183 21.5457 4.67439 21.5115 4.66 21.4801C3.43223 19.6919 2.71701 17.6022 2.59179 15.4367C2.46657 13.2712 2.93612 11.1123 3.94961 9.19446C4.96309 7.27667 6.48188 5.67284 8.34155 4.55628C10.2012 3.43972 12.3309 2.85305 14.5 2.85999L14.46 2.83021ZM14.5 0.370246C11.9748 0.359547 9.49143 1.01414 7.29993 2.26868C5.10842 3.52323 3.28619 5.33331 2.01678 7.51624C0.747378 9.69917 0.0756182 12.1781 0.0691605 14.7033C0.0627027 17.2284 0.721779 19.7106 1.98 21.9C1.99269 21.9283 1.99925 21.9589 1.99925 21.9899C1.99925 22.0209 1.99269 22.0519 1.98 22.0802L1.78001 22.8502L1.14 25.2101L0.0200043 29.3702L4.2 28.2501L6.57 27.6202L7.45 27.3903C7.47847 27.3782 7.50907 27.3717 7.54 27.3717C7.57093 27.3717 7.60154 27.3782 7.63 27.3903C9.55748 28.4565 11.7039 29.0664 13.904 29.173C16.1042 29.2795 18.2995 28.8796 20.3209 28.0045C22.3424 27.1295 24.1362 25.8022 25.5642 24.1251C26.9923 22.448 28.0166 20.4658 28.5583 18.3307C29.1 16.1956 29.1446 13.9648 28.6888 11.8097C28.2329 9.65464 27.2888 7.63293 25.929 5.90003C24.5691 4.16714 22.8299 2.76931 20.845 1.81409C18.8602 0.858876 16.6827 0.371839 14.48 0.390266L14.5 0.370246Z" fill="white"/>
<path d="M8.96001 8.16C9.39772 8.04609 9.85502 8.02873 10.3 8.1097C10.406 8.12966 10.5056 8.17449 10.5908 8.24056C10.676 8.30663 10.7443 8.39194 10.79 8.48959C11.33 9.64959 11.52 10.0998 11.91 10.9798C12.0466 11.296 12.0815 11.6469 12.0098 11.9837C11.9381 12.3206 11.7635 12.6265 11.51 12.8597L10.95 13.39C10.67 13.69 12.46 17.2596 16.18 18.2596C16.2655 18.2795 16.3548 18.2752 16.4379 18.2469C16.5209 18.2186 16.5944 18.1678 16.65 18.0999C17.03 17.6499 17.39 17.1698 17.76 16.7098C17.8539 16.6007 17.9797 16.5237 18.1195 16.4896C18.2594 16.4555 18.4064 16.4662 18.54 16.5199C19.77 16.9999 20.12 17.2698 21.35 17.7498C21.4927 17.7827 21.6192 17.8651 21.707 17.9823C21.7949 18.0994 21.8385 18.2438 21.83 18.39C21.8896 19.0556 21.7252 19.7219 21.3628 20.2835C21.0005 20.8451 20.461 21.2695 19.83 21.4896C19.5743 21.5556 19.3133 21.5994 19.05 21.62C14.23 21.92 7.88 16.8599 7.22 12.0599C7.02 9.4899 8.50001 8.35 8.96001 8.16Z" fill="white"/>
</svg>
