<svg width="182" height="44" viewBox="0 0 182 44" fill="none" xmlns="http://www.w3.org/2000/svg">
<path d="M23.4002 16.7L22.6673 15.3912L19.8729 16.9561L22.8641 18.1009L23.4002 16.7ZM0.200244 -2.38419e-06V-1.5H-1.29976V-2.38419e-06H0.200244ZM0.200244 35H-1.29976V36.5H0.200244V35ZM7.70024 14.15H6.20024V15.65H7.70024V14.15ZM7.70024 6.75V5.25H6.20024V6.75H7.70024ZM7.70024 28.25H6.20024V29.75H7.70024V28.25ZM7.70024 20.55V19.05H6.20024V20.55H7.70024ZM31.4502 25.4V25.3H28.4502V25.4H31.4502ZM31.4502 25.3C31.4502 22.6624 30.7398 20.5445 29.3502 18.8632C27.9883 17.2153 26.0835 16.1208 23.9364 15.2991L22.8641 18.1009C24.767 18.8292 26.1372 19.6847 27.0378 20.7743C27.9107 21.8305 28.4502 23.2376 28.4502 25.3H31.4502ZM24.1332 18.0088C25.5134 17.2358 26.867 16.1961 27.874 14.7308C28.8933 13.2474 29.5002 11.4101 29.5002 9.15H26.5002C26.5002 10.8399 26.0572 12.0776 25.4015 13.0317C24.7335 14.0039 23.7871 14.7642 22.6673 15.3912L24.1332 18.0088ZM29.5002 9.15V9.05H26.5002V9.15H29.5002ZM29.5002 9.05C29.5002 5.86031 28.205 3.15664 25.8363 1.28546C23.5048 -0.556369 20.2561 -1.5 16.4502 -1.5V1.5C19.7943 1.5 22.3207 2.33137 23.9767 3.63954C25.5955 4.91836 26.5002 6.73968 26.5002 9.05H29.5002ZM16.4502 -1.5H0.200244V1.5H16.4502V-1.5ZM-1.29976 -2.38419e-06V35H1.70024V-2.38419e-06H-1.29976ZM0.200244 36.5H16.8502V33.5H0.200244V36.5ZM16.8502 36.5C20.9702 36.5 24.5898 35.6706 27.2225 33.8292C29.9283 31.9366 31.4502 29.0685 31.4502 25.4H28.4502C28.4502 28.1315 27.3722 30.0634 25.503 31.3708C23.5607 32.7294 20.6303 33.5 16.8502 33.5V36.5ZM18.8502 10.45C18.8502 11.2529 18.5625 11.6868 18.0567 12.0021C17.4411 12.3859 16.3838 12.65 14.8002 12.65V15.65C16.6167 15.65 18.3344 15.3641 19.6438 14.5479C21.063 13.6632 21.8502 12.2471 21.8502 10.45H18.8502ZM14.8002 12.65H7.70024V15.65H14.8002V12.65ZM9.20024 14.15V6.75H6.20024V14.15H9.20024ZM7.70024 8.25H15.3002V5.25H7.70024V8.25ZM15.3002 8.25C16.7586 8.25 17.6672 8.5469 18.1713 8.9075C18.6034 9.21661 18.8502 9.64541 18.8502 10.35H21.8502C21.8502 8.75459 21.1971 7.38339 19.9167 6.4675C18.7083 5.6031 17.0919 5.25 15.3002 5.25V8.25ZM18.8502 10.35V10.45H21.8502V10.35H18.8502ZM20.8002 24.45C20.8002 25.2885 20.5062 25.7516 20.0182 26.0769C19.4339 26.4665 18.4157 26.75 16.8502 26.75V29.75C18.6848 29.75 20.3916 29.4335 21.6823 28.5731C23.0693 27.6484 23.8002 26.2115 23.8002 24.45H20.8002ZM16.8502 26.75H7.70024V29.75H16.8502V26.75ZM9.20024 28.25V20.55H6.20024V28.25H9.20024ZM7.70024 22.05H16.6002V19.05H7.70024V22.05ZM16.6002 22.05C18.4325 22.05 19.4977 22.3934 20.0674 22.7949C20.5504 23.1352 20.8002 23.5989 20.8002 24.35H23.8002C23.8002 22.7511 23.1751 21.3148 21.7956 20.3426C20.5028 19.4316 18.718 19.05 16.6002 19.05V22.05ZM20.8002 24.35V24.45H23.8002V24.35H20.8002ZM60.8842 30.6L62.0518 31.5416L62.9513 30.4263L61.8784 29.4768L60.8842 30.6ZM56.5342 26.75L57.5284 25.6268L56.5101 24.7255L55.5136 25.6508L56.5342 26.75ZM43.4842 24.25V22.75H41.6231L42.0185 24.5686L43.4842 24.25ZM62.1342 24.25V25.75H63.5309L63.6304 24.3569L62.1342 24.25ZM54.8342 19.5V21H56.5458L56.3213 19.3032L54.8342 19.5ZM43.3842 19.5L41.9064 19.243L41.6008 21H43.3842V19.5ZM63.7342 22.35V22.25H60.7342V22.35H63.7342ZM63.7342 22.25C63.7342 18.2018 62.6446 14.2066 60.2381 11.1896C57.7956 8.1276 54.0925 6.2 49.1842 6.2V9.2C53.226 9.2 56.0478 10.7474 57.8928 13.0604C59.7738 15.4184 60.7342 18.6982 60.7342 22.25H63.7342ZM49.1842 6.2C40.4456 6.2 34.4342 13.2863 34.4342 21.65H37.4342C37.4342 14.7137 42.3229 9.2 49.1842 9.2V6.2ZM34.4342 21.65V21.75H37.4342V21.65H34.4342ZM34.4342 21.75C34.4342 30.8105 41.0882 37.1 49.9342 37.1V34.1C42.6802 34.1 37.4342 29.0895 37.4342 21.75H34.4342ZM49.9342 37.1C55.2306 37.1 59.2626 35.0003 62.0518 31.5416L59.7166 29.6584C57.5059 32.3997 54.3378 34.1 49.9342 34.1V37.1ZM61.8784 29.4768L57.5284 25.6268L55.5401 27.8732L59.8901 31.7232L61.8784 29.4768ZM55.5136 25.6508C53.6457 27.3853 52.148 28 50.0342 28V31C53.0205 31 55.2228 30.0147 57.5549 27.8492L55.5136 25.6508ZM50.0342 28C48.6009 28 47.4977 27.6237 46.6937 26.9904C45.8938 26.3604 45.2643 25.3772 44.95 23.9314L42.0185 24.5686C42.4542 26.5728 43.3996 28.2146 44.8373 29.3471C46.2708 30.4763 48.0675 31 50.0342 31V28ZM43.4842 25.75H62.1342V22.75H43.4842V25.75ZM63.6304 24.3569C63.6774 23.6994 63.7342 23.1697 63.7342 22.35H60.7342C60.7342 23.0303 60.6911 23.4006 60.638 24.1431L63.6304 24.3569ZM54.8342 18H43.3842V21H54.8342V18ZM44.862 19.757C45.1241 18.2503 45.6813 17.1333 46.3953 16.4102C47.0857 15.711 47.9973 15.3 49.1842 15.3V12.3C47.2212 12.3 45.5328 13.014 44.2606 14.3023C43.0121 15.5667 42.2444 17.2997 41.9064 19.243L44.862 19.757ZM49.1842 15.3C50.3942 15.3 51.2962 15.7213 51.9564 16.4117C52.6403 17.1269 53.1528 18.2281 53.3472 19.6968L56.3213 19.3032C56.0657 17.3719 55.3532 15.6231 54.1246 14.3383C52.8722 13.0286 51.1743 12.3 49.1842 12.3V15.3ZM92.6983 35V36.5H94.1983V35H92.6983ZM70.3483 10.05L69.7434 8.67737L68.4997 9.22543L68.9228 10.517L70.3483 10.05ZM72.2483 15.85L70.8228 16.317L71.3067 17.7939L72.7655 17.258L72.2483 15.85ZM85.3983 19.75L84.9128 21.1692L86.8983 21.8485V19.75H85.3983ZM85.3483 32.1H86.8483V28.1989L84.2347 31.0951L85.3483 32.1ZM85.3483 35H83.8483V36.5H85.3483V35ZM85.4983 24.2H86.9983V23.2403L86.1269 22.8381L85.4983 24.2ZM94.1983 35V19.45H91.1983V35H94.1983ZM94.1983 19.45C94.1983 15.5915 93.226 12.2624 90.9049 9.90405C88.5792 7.54111 85.1434 6.4 80.7483 6.4V9.4C84.6532 9.4 87.1924 10.4089 88.7667 12.0084C90.3455 13.6126 91.1983 16.0585 91.1983 19.45H94.1983ZM80.7483 6.4C75.9617 6.4 72.8563 7.30557 69.7434 8.67737L70.9532 11.4226C73.7403 10.1944 76.4348 9.4 80.7483 9.4V6.4ZM68.9228 10.517L70.8228 16.317L73.6738 15.383L71.7738 9.58304L68.9228 10.517ZM72.7655 17.258C75.1176 16.394 76.9848 15.9 79.6483 15.9V12.9C76.5118 12.9 74.279 13.506 71.7311 14.442L72.7655 17.258ZM79.6483 15.9C81.3443 15.9 82.3764 16.2931 82.9679 16.804C83.5224 17.2829 83.8983 18.046 83.8983 19.3H86.8983C86.8983 17.404 86.2992 15.7171 84.9287 14.5335C83.5952 13.3819 81.7522 12.9 79.6483 12.9V15.9ZM83.8983 19.3V19.75H86.8983V19.3H83.8983ZM85.8838 18.3308C83.8588 17.638 81.7435 17.15 78.8483 17.15V20.15C81.353 20.15 83.1378 20.562 84.9128 21.1692L85.8838 18.3308ZM78.8483 17.15C75.4922 17.15 72.4339 17.8589 70.1766 19.5242C67.8516 21.2393 66.5483 23.8445 66.5483 27.2H69.5483C69.5483 24.7055 70.47 23.0357 71.9575 21.9383C73.5126 20.7911 75.8544 20.15 78.8483 20.15V17.15ZM66.5483 27.2V27.3H69.5483V27.2H66.5483ZM66.5483 27.3C66.5483 30.3793 67.7716 32.8581 69.7955 34.5409C71.7877 36.1973 74.4503 37 77.2483 37V34C74.9963 34 73.0589 33.3527 71.7135 32.2341C70.4 31.1419 69.5483 29.5207 69.5483 27.3H66.5483ZM77.2483 37C81.3755 37 84.3292 35.4681 86.4619 33.1049L84.2347 31.0951C82.6673 32.8319 80.5211 34 77.2483 34V37ZM83.8483 32.1V35H86.8483V32.1H83.8483ZM85.3483 36.5H92.6983V33.5H85.3483V36.5ZM83.9983 25.55C83.9983 26.4495 83.6213 27.1994 82.9201 27.7579C82.1956 28.3349 81.0595 28.75 79.5483 28.75V31.75C81.5871 31.75 83.426 31.1901 84.789 30.1046C86.1753 29.0006 86.9983 27.4005 86.9983 25.55H83.9983ZM79.5483 28.75C78.5481 28.75 77.8611 28.503 77.4627 28.1999C77.108 27.9301 76.8983 27.5611 76.8983 27H73.8983C73.8983 28.4889 74.5386 29.7449 75.6464 30.5876C76.7105 31.397 78.0985 31.75 79.5483 31.75V28.75ZM76.8983 27V26.9H73.8983V27H76.8983ZM76.8983 26.9C76.8983 26.1818 77.1652 25.7234 77.6561 25.3848C78.2193 24.9964 79.1911 24.7 80.6483 24.7V21.7C78.8555 21.7 77.2023 22.0536 75.9529 22.9152C74.6314 23.8266 73.8983 25.2182 73.8983 26.9H76.8983ZM80.6483 24.7C82.2929 24.7 83.7771 25.0577 84.8697 25.5619L86.1269 22.8381C84.6195 22.1423 82.7037 21.7 80.6483 21.7V24.7ZM83.9983 24.2V25.55H86.9983V24.2H83.9983ZM125.338 35V36.5H126.838V35H125.338ZM125.338 8.2H126.838V6.7H125.338V8.2ZM117.738 8.2V6.7H116.238V8.2H117.738ZM108.388 8.2H109.888V6.7H108.388V8.2ZM100.788 8.2V6.7H99.2881V8.2H100.788ZM117.738 31.2H119.238V26.8282L116.554 30.2791L117.738 31.2ZM117.738 35H116.238V36.5H117.738V35ZM126.838 35V8.2H123.838V35H126.838ZM125.338 6.7H117.738V9.7H125.338V6.7ZM116.238 8.2V23.15H119.238V8.2H116.238ZM116.238 23.15C116.238 24.7074 115.839 25.665 115.338 26.219C114.855 26.7527 114.109 27.1 112.988 27.1V30.1C114.767 30.1 116.396 29.5223 117.563 28.231C118.712 26.96 119.238 25.1926 119.238 23.15H116.238ZM112.988 27.1C111.871 27.1 111.178 26.7566 110.736 26.245C110.265 25.6986 109.888 24.7371 109.888 23.15H106.888C106.888 25.1629 107.362 26.9264 108.465 28.205C109.598 29.5184 111.205 30.1 112.988 30.1V27.1ZM109.888 23.15V8.2H106.888V23.15H109.888ZM108.388 6.7H100.788V9.7H108.388V6.7ZM99.2881 8.2V25.55H102.288V8.2H99.2881ZM99.2881 25.55C99.2881 28.8867 100.199 31.7713 102.07 33.838C103.959 35.9246 106.668 37 109.888 37V34C107.358 34 105.517 33.1754 104.294 31.8245C103.053 30.4537 102.288 28.3633 102.288 25.55H99.2881ZM109.888 37C114.412 37 117.049 34.5294 118.922 32.1209L116.554 30.2791C114.927 32.3706 113.065 34 109.888 34V37ZM116.238 31.2V35H119.238V31.2H116.238ZM117.738 36.5H125.338V33.5H117.738V36.5ZM148.94 33.9L149.706 35.1898L150.44 34.7539V33.9H148.94ZM148.94 27.8H150.44V25.2732L148.222 26.4832L148.94 27.8ZM142.74 14.7V13.2H141.24V14.7H142.74ZM149.04 14.7V16.2H150.54V14.7H149.04ZM149.04 8.2H150.54V6.7H149.04V8.2ZM142.74 8.2H141.24V9.7H142.74V8.2ZM142.74 1.35H144.24V-0.150002H142.74V1.35ZM135.14 1.35V-0.150002H133.64V1.35H135.14ZM135.14 8.2V9.7H136.64V8.2H135.14ZM131.94 8.2V6.7H130.44V8.2H131.94ZM131.94 14.7H130.44V16.2H131.94V14.7ZM135.14 14.7H136.64V13.2H135.14V14.7ZM150.44 33.9V27.8H147.44V33.9H150.44ZM148.222 26.4832C147.334 26.9677 146.33 27.25 145.19 27.25V30.25C146.851 30.25 148.347 29.8323 149.659 29.1168L148.222 26.4832ZM145.19 27.25C144.572 27.25 144.438 27.0974 144.428 27.0862C144.395 27.0514 144.24 26.8485 144.24 26.15H141.24C141.24 27.2015 141.46 28.2986 142.228 29.1263C143.018 29.9776 144.109 30.25 145.19 30.25V27.25ZM144.24 26.15V14.7H141.24V26.15H144.24ZM142.74 16.2H149.04V13.2H142.74V16.2ZM150.54 14.7V8.2H147.54V14.7H150.54ZM149.04 6.7H142.74V9.7H149.04V6.7ZM144.24 8.2V1.35H141.24V8.2H144.24ZM142.74 -0.150002H135.14V2.85H142.74V-0.150002ZM133.64 1.35V8.2H136.64V1.35H133.64ZM135.14 6.7H131.94V9.7H135.14V6.7ZM130.44 8.2V14.7H133.44V8.2H130.44ZM131.94 16.2H135.14V13.2H131.94V16.2ZM133.64 14.7V27.4H136.64V14.7H133.64ZM133.64 27.4C133.64 30.735 134.49 33.2348 136.291 34.8627C138.062 36.4637 140.459 36.95 142.94 36.95V33.95C140.772 33.95 139.269 33.5113 138.303 32.6373C137.366 31.7902 136.64 30.265 136.64 27.4H133.64ZM142.94 36.95C145.759 36.95 147.874 36.278 149.706 35.1898L148.175 32.6102C146.807 33.422 145.222 33.95 142.94 33.95V36.95ZM181.892 8.2L183.297 8.72696L184.057 6.7H181.892V8.2ZM173.992 8.2V6.7H172.898L172.564 7.74213L173.992 8.2ZM168.142 26.45L166.72 26.9255L168.172 31.271L169.571 26.9079L168.142 26.45ZM162.042 8.2L163.465 7.72449L163.123 6.7H162.042V8.2ZM153.992 8.2V6.7H151.797L152.595 8.74542L153.992 8.2ZM164.492 35.1L165.844 35.7507L166.127 35.1626L165.89 34.5546L164.492 35.1ZM158.592 35.8L159.364 34.5138L157.933 33.6553L157.232 35.1691L158.592 35.8ZM156.042 41.3L154.682 40.6691L154.11 41.9018L155.28 42.592L156.042 41.3ZM171.592 35.65L172.996 36.1781L172.997 36.177L171.592 35.65ZM181.892 6.7H173.992V9.7H181.892V6.7ZM172.564 7.74213L166.714 25.9921L169.571 26.9079L175.421 8.65787L172.564 7.74213ZM169.565 25.9745L163.465 7.72449L160.62 8.67551L166.72 26.9255L169.565 25.9745ZM162.042 6.7H153.992V9.7H162.042V6.7ZM152.595 8.74542L163.095 35.6454L165.89 34.5546L155.39 7.65458L152.595 8.74542ZM163.141 34.4493C162.874 35.003 162.69 35.1619 162.601 35.2189C162.522 35.2697 162.349 35.35 161.842 35.35V38.35C162.636 38.35 163.463 38.2303 164.221 37.7436C164.97 37.2631 165.461 36.547 165.844 35.7507L163.141 34.4493ZM161.842 35.35C161.211 35.35 160.231 35.034 159.364 34.5138L157.821 37.0862C158.954 37.766 160.474 38.35 161.842 38.35V35.35ZM157.232 35.1691L154.682 40.6691L157.403 41.9309L159.953 36.4309L157.232 35.1691ZM155.28 42.592C157.433 43.8613 159.743 44.65 162.792 44.65V41.65C160.342 41.65 158.552 41.0387 156.804 40.0079L155.28 42.592ZM162.792 44.65C165.311 44.65 167.388 44.0742 169.113 42.5764C170.776 41.1332 171.946 38.971 172.996 36.1781L170.188 35.1219C169.189 37.779 168.234 39.3668 167.147 40.3111C166.122 41.2008 164.824 41.65 162.792 41.65V44.65ZM172.997 36.177L183.297 8.72696L180.488 7.67303L170.188 35.123L172.997 36.177Z" fill="#2B96F9"/>
</svg>
