<svg width="177" height="38" viewBox="0 0 177 38" fill="none" xmlns="http://www.w3.org/2000/svg">
<path d="M32.9502 31.35L34.0459 32.3745L35.0316 31.3204L34.0163 30.2947L32.9502 31.35ZM28.0502 26.4L29.1163 25.3447L28.1049 24.3231L27.0412 25.2901L28.0502 26.4ZM27.8002 12.45L26.7923 13.5608L27.9283 14.5917L28.9334 13.4328L27.8002 12.45ZM32.7002 6.8L33.8334 7.78278L34.756 6.71904L33.7527 5.73115L32.7002 6.8ZM34.0163 30.2947L29.1163 25.3447L26.9842 27.4553L31.8842 32.4053L34.0163 30.2947ZM27.0412 25.2901C24.4157 27.677 22.3132 29 18.8502 29V32C23.3873 32 26.1848 30.123 29.0593 27.5099L27.0412 25.2901ZM18.8502 29C13.8327 29 10.2002 24.8345 10.2002 19.5H7.20024C7.20024 26.1655 11.8678 32 18.8502 32V29ZM10.2002 19.5V19.4H7.20024V19.5H10.2002ZM10.2002 19.4C10.2002 14.0944 13.9066 10 18.8502 10V7C11.9939 7 7.20024 12.7056 7.20024 19.4H10.2002ZM18.8502 10C21.8457 10 24.2518 11.2556 26.7923 13.5608L28.8082 11.3392C25.9487 8.74436 22.8548 7 18.8502 7V10ZM28.9334 13.4328L33.8334 7.78278L31.567 5.81722L26.667 11.4672L28.9334 13.4328ZM33.7527 5.73115C30.2467 2.27917 25.9274 -0.1 18.9002 -0.1V2.9C25.0731 2.9 28.6538 4.92083 31.6478 7.86885L33.7527 5.73115ZM18.9002 -0.1C7.29475 -0.1 -0.849756 8.7489 -0.849756 19.5H2.15024C2.15024 10.3511 9.00574 2.9 18.9002 2.9V-0.1ZM-0.849756 19.5V19.6H2.15024V19.5H-0.849756ZM-0.849756 19.6C-0.849756 30.4592 7.45268 39.1 18.6002 39.1V36.1C9.14781 36.1 2.15024 28.8408 2.15024 19.6H-0.849756ZM18.6002 39.1C22.1612 39.1 25.0728 38.465 27.5961 37.2756C30.1135 36.0889 32.1623 34.3889 34.0459 32.3745L31.8546 30.3255C30.1382 32.1611 28.387 33.5861 26.3169 34.5619C24.2527 35.535 21.7893 36.1 18.6002 36.1V39.1ZM64.6143 37V38.5H66.1143V37H64.6143ZM47.6643 14H46.1643V18.3718L48.8483 14.9209L47.6643 14ZM47.6643 0.499999H49.1643V-1H47.6643V0.499999ZM40.0643 0.499999V-1H38.5643V0.499999H40.0643ZM40.0643 37H38.5643V38.5H40.0643V37ZM47.6643 37V38.5H49.1643V37H47.6643ZM57.0143 37H55.5143V38.5H57.0143V37ZM66.1143 37V19.65H63.1143V37H66.1143ZM66.1143 19.65C66.1143 16.3133 65.2038 13.4287 63.3325 11.362C61.4432 9.27544 58.7346 8.2 55.5143 8.2V11.2C58.044 11.2 59.8854 12.0246 61.1086 13.3755C62.3498 14.7463 63.1143 16.8367 63.1143 19.65H66.1143ZM55.5143 8.2C50.9907 8.2 48.3535 10.6706 46.4803 13.0791L48.8483 14.9209C50.4751 12.8294 52.3379 11.2 55.5143 11.2V8.2ZM49.1643 14V0.499999H46.1643V14H49.1643ZM47.6643 -1H40.0643V2H47.6643V-1ZM38.5643 0.499999V37H41.5643V0.499999H38.5643ZM40.0643 38.5H47.6643V35.5H40.0643V38.5ZM49.1643 37V22.05H46.1643V37H49.1643ZM49.1643 22.05C49.1643 20.4926 49.5636 19.535 50.0645 18.981C50.547 18.4473 51.2933 18.1 52.4143 18.1V15.1C50.6354 15.1 49.0066 15.6777 47.8391 16.969C46.69 18.24 46.1643 20.0074 46.1643 22.05H49.1643ZM52.4143 18.1C53.5311 18.1 54.2246 18.4434 54.6662 18.955C55.1377 19.5014 55.5143 20.4629 55.5143 22.05H58.5143C58.5143 20.0371 58.0409 18.2736 56.9374 16.995C55.804 15.6816 54.1975 15.1 52.4143 15.1V18.1ZM55.5143 22.05V37H58.5143V22.05H55.5143ZM57.0143 38.5H64.6143V35.5H57.0143V38.5ZM102.167 23.65V23.55H99.1666V23.65H102.167ZM102.167 23.55C102.167 14.9801 95.303 8.2 86.2167 8.2V11.2C93.7303 11.2 99.1666 16.7199 99.1666 23.55H102.167ZM86.2167 8.2C77.0765 8.2 70.1666 15.0838 70.1666 23.65H73.1666C73.1666 16.8162 78.6568 11.2 86.2167 11.2V8.2ZM70.1666 23.65V23.75H73.1666V23.65H70.1666ZM70.1666 23.75C70.1666 32.3199 77.0303 39.1 86.1167 39.1V36.1C78.603 36.1 73.1666 30.5801 73.1666 23.75H70.1666ZM86.1167 39.1C95.2568 39.1 102.167 32.2162 102.167 23.65H99.1666C99.1666 30.4838 93.6765 36.1 86.1167 36.1V39.1ZM91.6666 23.75C91.6666 25.4022 91.1236 26.8568 90.2061 27.8798C89.3056 28.8841 87.9787 29.55 86.2167 29.55V32.55C88.8046 32.55 90.9527 31.5409 92.4397 29.8827C93.9098 28.2432 94.6666 26.0478 94.6666 23.75H91.6666ZM86.2167 29.55C82.9715 29.55 80.6666 26.9039 80.6666 23.65H77.6666C77.6666 28.2961 81.0618 32.55 86.2167 32.55V29.55ZM80.6666 23.65V23.55H77.6666V23.65H80.6666ZM80.6666 23.55C80.6666 21.8978 81.2098 20.4432 82.1272 19.4202C83.0277 18.4159 84.3546 17.75 86.1167 17.75V14.75C83.5287 14.75 81.3806 15.7591 79.8936 17.4173C78.4235 19.0567 77.6666 21.2522 77.6666 23.55H80.6666ZM86.1167 17.75C89.3618 17.75 91.6666 20.3961 91.6666 23.65H94.6666C94.6666 19.0039 91.2715 14.75 86.1167 14.75V17.75ZM91.6666 23.65V23.75H94.6666V23.65H91.6666ZM116.07 7.25V8.75H117.57V7.25H116.07ZM116.07 0.499999H117.57V-1H116.07V0.499999ZM108.07 0.499999V-1H106.57V0.499999H108.07ZM108.07 7.25H106.57V8.75H108.07V7.25ZM115.87 37V38.5H117.37V37H115.87ZM115.87 10.2H117.37V8.7H115.87V10.2ZM108.27 10.2V8.7H106.77V10.2H108.27ZM108.27 37H106.77V38.5H108.27V37ZM117.57 7.25V0.499999H114.57V7.25H117.57ZM116.07 -1H108.07V2H116.07V-1ZM106.57 0.499999V7.25H109.57V0.499999H106.57ZM108.07 8.75H116.07V5.75H108.07V8.75ZM117.37 37V10.2H114.37V37H117.37ZM115.87 8.7H108.27V11.7H115.87V8.7ZM106.77 10.2V37H109.77V10.2H106.77ZM108.27 38.5H115.87V35.5H108.27V38.5ZM136.308 20.8L135.819 22.2181L135.826 22.2206L135.833 22.223L136.308 20.8ZM140.908 18.15L140.15 19.4448L141.477 20.221L142.221 18.8753L140.908 18.15ZM143.808 12.9L145.121 13.6253L145.785 12.4222L144.645 11.6552L143.808 12.9ZM132.008 26.45L132.445 25.0153L132.438 25.0129L132.43 25.0106L132.008 26.45ZM125.908 28.45L126.787 27.2351L125.51 26.3099L124.65 27.6325L125.908 28.45ZM122.658 33.45L121.4 32.6325L120.654 33.7801L121.729 34.6278L122.658 33.45ZM145.908 28.85V28.75H142.908V28.85H145.908ZM145.908 28.75C145.908 25.763 144.544 23.678 142.689 22.2253C140.908 20.8309 138.658 20.0023 136.782 19.377L135.833 22.223C137.707 22.8477 139.507 23.5441 140.839 24.5872C142.097 25.572 142.908 26.837 142.908 28.75H145.908ZM136.797 19.3819C135.265 18.8537 134.044 18.474 133.152 18.0392C132.717 17.8268 132.485 17.6578 132.376 17.546C132.296 17.463 132.358 17.4954 132.358 17.6H129.358C129.358 18.4546 129.738 19.137 130.226 19.6384C130.686 20.1109 131.273 20.4607 131.838 20.7358C132.946 21.276 134.451 21.7463 135.819 22.2181L136.797 19.3819ZM132.358 17.6V17.5H129.358V17.6H132.358ZM132.358 17.5C132.358 17.4824 132.36 17.4736 132.36 17.4716C132.36 17.4704 132.361 17.47 132.36 17.4702C132.36 17.4704 132.36 17.4705 132.36 17.4702C132.361 17.47 132.361 17.4688 132.363 17.4667C132.364 17.4645 132.367 17.4608 132.372 17.4557C132.381 17.4458 132.398 17.4284 132.43 17.4062C132.564 17.3113 132.926 17.15 133.658 17.15V14.15C132.54 14.15 131.501 14.3887 130.698 14.9563C129.849 15.5563 129.358 16.4669 129.358 17.5H132.358ZM133.658 17.15C135.214 17.15 137.587 17.9456 140.15 19.4448L141.665 16.8552C138.928 15.2544 136.001 14.15 133.658 14.15V17.15ZM142.221 18.8753L145.121 13.6253L142.495 12.1747L139.595 17.4247L142.221 18.8753ZM144.645 11.6552C141.506 9.54453 137.516 8.3 133.808 8.3V11.3C136.9 11.3 140.31 12.3555 142.971 14.1448L144.645 11.6552ZM133.808 8.3C130.84 8.3 128.033 9.13702 125.936 10.8426C123.806 12.5751 122.508 15.1299 122.508 18.3H125.508C125.508 16.0201 126.409 14.3249 127.829 13.1699C129.282 11.988 131.375 11.3 133.808 11.3V8.3ZM122.508 18.3V18.4H125.508V18.3H122.508ZM122.508 18.4C122.508 21.4912 123.806 23.6471 125.664 25.1338C127.442 26.5559 129.69 27.3333 131.585 27.8894L132.43 25.0106C130.575 24.4667 128.823 23.8191 127.538 22.7912C126.334 21.8279 125.508 20.5088 125.508 18.4H122.508ZM131.57 27.8847C133.149 28.3665 134.371 28.6825 135.276 29.0877C135.712 29.2832 135.932 29.4416 136.031 29.5426C136.072 29.5846 136.074 29.599 136.067 29.584C136.059 29.5649 136.058 29.5479 136.058 29.55H139.058C139.058 27.7381 137.569 26.8277 136.502 26.3498C135.369 25.8425 133.816 25.4335 132.445 25.0153L131.57 27.8847ZM136.058 29.55V29.65H139.058V29.55H136.058ZM136.058 29.65C136.058 29.7377 136.041 29.7681 136.039 29.7708C136.039 29.772 136.025 29.8024 135.951 29.8519C135.774 29.97 135.313 30.15 134.358 30.15V33.15C135.602 33.15 136.742 32.93 137.615 32.3481C138.571 31.7106 139.058 30.7345 139.058 29.65H136.058ZM134.358 30.15C132.261 30.15 129.512 29.2083 126.787 27.2351L125.028 29.6649C128.103 31.8917 131.455 33.15 134.358 33.15V30.15ZM124.65 27.6325L121.4 32.6325L123.915 34.2675L127.165 29.2675L124.65 27.6325ZM121.729 34.6278C125.557 37.6473 130.089 39 134.158 39V36C130.727 36 126.858 34.8527 123.587 32.2723L121.729 34.6278ZM134.158 39C137.264 39 140.19 38.2804 142.374 36.5935C144.615 34.8633 145.908 32.2429 145.908 28.85H142.908C142.908 31.4071 141.975 33.1117 140.541 34.219C139.051 35.3696 136.852 36 134.158 36V39ZM175.255 32.6L176.423 33.5416L177.322 32.4263L176.249 31.4768L175.255 32.6ZM170.905 28.75L171.899 27.6268L170.881 26.7255L169.885 27.6508L170.905 28.75ZM157.855 26.25V24.75H155.994L156.39 26.5686L157.855 26.25ZM176.505 26.25V27.75H177.902L178.002 26.3569L176.505 26.25ZM169.205 21.5V23H170.917L170.692 21.3032L169.205 21.5ZM157.755 21.5L156.278 21.243L155.972 23H157.755V21.5ZM178.105 24.35V24.25H175.105V24.35H178.105ZM178.105 24.25C178.105 20.2018 177.016 16.2066 174.609 13.1896C172.167 10.1276 168.464 8.2 163.555 8.2V11.2C167.597 11.2 170.419 12.7474 172.264 15.0604C174.145 17.4184 175.105 20.6982 175.105 24.25H178.105ZM163.555 8.2C154.817 8.2 148.805 15.2863 148.805 23.65H151.805C151.805 16.7137 156.694 11.2 163.555 11.2V8.2ZM148.805 23.65V23.75H151.805V23.65H148.805ZM148.805 23.75C148.805 32.8105 155.459 39.1 164.305 39.1V36.1C157.051 36.1 151.805 31.0895 151.805 23.75H148.805ZM164.305 39.1C169.602 39.1 173.634 37.0003 176.423 33.5416L174.088 31.6584C171.877 34.3997 168.709 36.1 164.305 36.1V39.1ZM176.249 31.4768L171.899 27.6268L169.911 29.8732L174.261 33.7232L176.249 31.4768ZM169.885 27.6508C168.017 29.3853 166.519 30 164.405 30V33C167.392 33 169.594 32.0147 171.926 29.8492L169.885 27.6508ZM164.405 30C162.972 30 161.869 29.6237 161.065 28.9904C160.265 28.3604 159.635 27.3772 159.321 25.9314L156.39 26.5686C156.825 28.5728 157.771 30.2146 159.208 31.3471C160.642 32.4763 162.439 33 164.405 33V30ZM157.855 27.75H176.505V24.75H157.855V27.75ZM178.002 26.3569C178.048 25.6994 178.105 25.1697 178.105 24.35H175.105C175.105 25.0303 175.062 25.4006 175.009 26.1431L178.002 26.3569ZM169.205 20H157.755V23H169.205V20ZM159.233 21.757C159.495 20.2503 160.052 19.1333 160.766 18.4102C161.457 17.711 162.368 17.3 163.555 17.3V14.3C161.592 14.3 159.904 15.014 158.632 16.3023C157.383 17.5667 156.615 19.2997 156.278 21.243L159.233 21.757ZM163.555 17.3C164.765 17.3 165.667 17.7213 166.327 18.4117C167.011 19.1269 167.524 20.2281 167.718 21.6968L170.692 21.3032C170.437 19.3719 169.724 17.6231 168.496 16.3383C167.243 15.0286 165.545 14.3 163.555 14.3V17.3Z" fill="#2B96F9"/>
</svg>
