<svg width="144" height="38" viewBox="0 0 144 38" fill="none" xmlns="http://www.w3.org/2000/svg">
<path d="M17.4002 16.05L17.9045 14.1146L17.8965 14.1126L17.4002 16.05ZM23.4502 11.75L22.3104 13.3934L23.9581 14.5362L25.0966 12.8855L23.4502 11.75ZM27.4502 5.95L29.0966 7.08546L30.1524 5.55459L28.7022 4.39041L27.4502 5.95ZM13.8002 22.85L14.2969 20.9127L14.2949 20.9122L13.8002 22.85ZM5.35018 26.45L6.62331 24.9076L5.08949 23.6415L3.8149 25.1682L5.35018 26.45ZM0.800183 31.9L-0.735104 30.6182L-1.97498 32.1034L-0.531848 33.3919L0.800183 31.9ZM30.5002 26.65V26.55H26.5002V26.65H30.5002ZM30.5002 26.55C30.5002 22.9837 29.2942 20.2446 26.9204 18.1931C24.6704 16.2485 21.5196 15.0566 17.9045 14.1146L16.8959 17.9854C20.3807 18.8934 22.78 19.9015 24.3049 21.2194C25.7061 22.4304 26.5002 24.0163 26.5002 26.55H30.5002ZM17.8965 14.1126C14.8026 13.3199 13.2133 12.8056 12.3742 12.3096C12.0115 12.0952 11.9358 11.9646 11.9222 11.9404C11.9085 11.9161 11.8502 11.8088 11.8502 11.45H7.85018C7.85018 12.2412 7.97941 13.0902 8.43603 13.9018C8.89271 14.7135 9.57012 15.2986 10.3387 15.7529C11.762 16.5944 13.9478 17.2301 16.9038 17.9874L17.8965 14.1126ZM11.8502 11.45V11.35H7.85018V11.45H11.8502ZM11.8502 11.35C11.8502 11.1732 11.9039 10.9987 12.1703 10.805C12.4848 10.5763 13.1548 10.3 14.3502 10.3V6.3C12.5956 6.3 11.0156 6.69875 9.81759 7.57003C8.57144 8.47632 7.85018 9.82676 7.85018 11.35H11.8502ZM14.3502 10.3C16.7204 10.3 19.368 11.3528 22.3104 13.3934L24.59 10.1066C21.3323 7.84724 17.88 6.3 14.3502 6.3V10.3ZM25.0966 12.8855L29.0966 7.08546L25.8038 4.81453L21.8038 10.6145L25.0966 12.8855ZM28.7022 4.39041C24.7912 1.25059 19.9978 -0.500002 14.4502 -0.500002V3.5C19.1026 3.5 23.0091 4.94941 26.1981 7.50959L28.7022 4.39041ZM14.4502 -0.500002C10.4938 -0.500002 6.94411 0.663347 4.34851 2.86998C1.72545 5.09995 0.200183 8.298 0.200183 12.05H4.20018C4.20018 9.45199 5.22492 7.37504 6.93936 5.91752C8.68126 4.43665 11.2565 3.5 14.4502 3.5V-0.500002ZM0.200183 12.05V12.15H4.20018V12.05H0.200183ZM0.200183 12.15C0.200183 16.1515 1.55491 18.9941 4.12316 21.0057C6.51243 22.8772 9.80197 23.8933 13.3054 24.7878L14.2949 20.9122C10.7484 20.0067 8.23794 19.1478 6.58971 17.8568C5.12045 16.7059 4.20018 15.0985 4.20018 12.15H0.200183ZM13.3034 24.7873C16.2466 25.542 17.6999 26.1016 18.4165 26.575C18.7265 26.7798 18.7886 26.8999 18.7975 26.917C18.8074 26.9358 18.8502 27.0189 18.8502 27.3H22.8502C22.8502 26.6061 22.743 25.8329 22.345 25.0689C21.9461 24.3033 21.3426 23.714 20.6213 23.2375C19.2754 22.3484 17.2038 21.658 14.2969 20.9127L13.3034 24.7873ZM18.8502 27.3V27.4H22.8502V27.3H18.8502ZM18.8502 27.4C18.8502 27.7042 18.755 27.9202 18.411 28.1454C17.9822 28.4262 17.15 28.7 15.8002 28.7V32.7C17.6004 32.7 19.2932 32.3488 20.6019 31.4921C21.9953 30.5798 22.8502 29.1458 22.8502 27.4H18.8502ZM15.8002 28.7C12.4213 28.7 9.55775 27.3296 6.62331 24.9076L4.07705 27.9924C7.44261 30.7704 11.1791 32.7 15.8002 32.7V28.7ZM3.8149 25.1682L-0.735104 30.6182L2.33547 33.1818L6.88547 27.7318L3.8149 25.1682ZM-0.531848 33.3919C4.05794 37.4899 9.89095 39.5 15.6502 39.5V35.5C10.8094 35.5 5.94242 33.8101 2.13221 30.4081L-0.531848 33.3919ZM15.6502 39.5C19.7465 39.5 23.4484 38.4434 26.1678 36.2333C28.9373 33.9826 30.5002 30.6827 30.5002 26.65H26.5002C26.5002 29.5673 25.413 31.6924 23.6451 33.1292C21.827 34.6066 19.1038 35.5 15.6502 35.5V39.5ZM60.6826 37V39H62.6826V37H60.6826ZM43.7326 14H41.7326V19.8291L45.3113 15.2279L43.7326 14ZM43.7326 0.499999H45.7326V-1.5H43.7326V0.499999ZM36.1326 0.499999V-1.5H34.1326V0.499999H36.1326ZM36.1326 37H34.1326V39H36.1326V37ZM43.7326 37V39H45.7326V37H43.7326ZM53.0826 37H51.0826V39H53.0826V37ZM62.6826 37V19.65H58.6826V37H62.6826ZM62.6826 19.65C62.6826 16.226 61.7478 13.2091 59.7714 11.0264C57.7712 8.81726 54.9181 7.7 51.5826 7.7V11.7C53.9972 11.7 55.694 12.4827 56.8063 13.7111C57.9424 14.9659 58.6826 16.924 58.6826 19.65H62.6826ZM51.5826 7.7C46.8345 7.7 44.0682 10.3109 42.1539 12.7721L45.3113 15.2279C46.897 13.1891 48.6307 11.7 51.5826 11.7V7.7ZM45.7326 14V0.499999H41.7326V14H45.7326ZM43.7326 -1.5H36.1326V2.5H43.7326V-1.5ZM34.1326 0.499999V37H38.1326V0.499999H34.1326ZM36.1326 39H43.7326V35H36.1326V39ZM45.7326 37V22.05H41.7326V37H45.7326ZM45.7326 22.05C45.7326 20.5735 46.1108 19.7508 46.5037 19.3163C46.872 18.9088 47.4712 18.6 48.4826 18.6V14.6C46.594 14.6 44.8182 15.2162 43.5366 16.6337C42.2794 18.0242 41.7326 19.9265 41.7326 22.05H45.7326ZM48.4826 18.6C49.4883 18.6 50.0297 18.9036 50.356 19.2817C50.7222 19.706 51.0826 20.5338 51.0826 22.05H55.0826C55.0826 19.9662 54.593 18.069 53.3842 16.6683C52.1355 15.2214 50.3769 14.6 48.4826 14.6V18.6ZM51.0826 22.05V37H55.0826V22.05H51.0826ZM53.0826 39H60.6826V35H53.0826V39ZM77.185 7.25V9.25H79.185V7.25H77.185ZM77.185 0.499999H79.185V-1.5H77.185V0.499999ZM69.185 0.499999V-1.5H67.185V0.499999H69.185ZM69.185 7.25H67.185V9.25H69.185V7.25ZM76.9849 37V39H78.9849V37H76.9849ZM76.9849 10.2H78.9849V8.2H76.9849V10.2ZM69.3849 10.2V8.2H67.3849V10.2H69.3849ZM69.3849 37H67.3849V39H69.3849V37ZM79.185 7.25V0.499999H75.185V7.25H79.185ZM77.185 -1.5H69.185V2.5H77.185V-1.5ZM67.185 0.499999V7.25H71.185V0.499999H67.185ZM69.185 9.25H77.185V5.25H69.185V9.25ZM78.9849 37V10.2H74.9849V37H78.9849ZM76.9849 8.2H69.3849V12.2H76.9849V8.2ZM67.3849 10.2V37H71.3849V10.2H67.3849ZM69.3849 39H76.9849V35H69.3849V39ZM110.423 37V39H112.423V37H110.423ZM93.4728 14H91.4728V19.8291L95.0515 15.2279L93.4728 14ZM93.4728 10.2H95.4728V8.2H93.4728V10.2ZM85.8728 10.2V8.2H83.8728V10.2H85.8728ZM85.8728 37H83.8728V39H85.8728V37ZM93.4728 37V39H95.4728V37H93.4728ZM102.823 37H100.823V39H102.823V37ZM112.423 37V19.65H108.423V37H112.423ZM112.423 19.65C112.423 16.226 111.488 13.2091 109.512 11.0264C107.511 8.81726 104.658 7.7 101.323 7.7V11.7C103.737 11.7 105.434 12.4827 106.547 13.7111C107.683 14.9659 108.423 16.924 108.423 19.65H112.423ZM101.323 7.7C96.5748 7.7 93.8085 10.3109 91.8941 12.7721L95.0515 15.2279C96.6372 13.1891 98.3709 11.7 101.323 11.7V7.7ZM95.4728 14V10.2H91.4728V14H95.4728ZM93.4728 8.2H85.8728V12.2H93.4728V8.2ZM83.8728 10.2V37H87.8728V10.2H83.8728ZM85.8728 39H93.4728V35H85.8728V39ZM95.4728 37V22.05H91.4728V37H95.4728ZM95.4728 22.05C95.4728 20.5735 95.851 19.7508 96.2439 19.3163C96.6123 18.9088 97.2114 18.6 98.2228 18.6V14.6C96.3343 14.6 94.5584 15.2162 93.2768 16.6337C92.0196 18.0242 91.4728 19.9265 91.4728 22.05H95.4728ZM98.2228 18.6C99.2286 18.6 99.77 18.9036 100.096 19.2817C100.462 19.706 100.823 20.5338 100.823 22.05H104.823C104.823 19.9662 104.333 18.069 103.124 16.6683C101.876 15.2214 100.117 14.6 98.2228 14.6V18.6ZM100.823 22.05V37H104.823V22.05H100.823ZM102.823 39H110.423V35H102.823V39ZM142.425 32.6L143.982 33.8555L145.181 32.3685L143.751 31.1023L142.425 32.6ZM138.075 28.75L139.401 27.2523L138.043 26.0506L136.714 27.2844L138.075 28.75ZM125.025 26.25V24.25H122.544L123.071 26.6749L125.025 26.25ZM143.675 26.25V28.25H145.537L145.67 26.3925L143.675 26.25ZM136.375 21.5V23.5H138.657L138.358 21.2376L136.375 21.5ZM124.925 21.5L122.955 21.1573L122.547 23.5H124.925V21.5ZM145.775 24.35V24.25H141.775V24.35H145.775ZM145.775 24.25C145.775 20.119 144.664 16.0046 142.17 12.8778C139.628 9.69097 135.778 7.7 130.725 7.7V11.7C134.622 11.7 137.298 13.184 139.043 15.3722C140.836 17.6204 141.775 20.781 141.775 24.25H145.775ZM130.725 7.7C121.674 7.7 115.475 15.0484 115.475 23.65H119.475C119.475 16.9516 124.177 11.7 130.725 11.7V7.7ZM115.475 23.65V23.75H119.475V23.65H115.475ZM115.475 23.75C115.475 33.0973 122.364 39.6 131.475 39.6V35.6C124.486 35.6 119.475 30.8027 119.475 23.75H115.475ZM131.475 39.6C136.92 39.6 141.096 37.4338 143.982 33.8555L140.868 31.3445C138.754 33.9662 135.73 35.6 131.475 35.6V39.6ZM143.751 31.1023L139.401 27.2523L136.75 30.2477L141.1 34.0977L143.751 31.1023ZM136.714 27.2844C134.924 28.947 133.544 29.5 131.575 29.5V33.5C134.707 33.5 137.027 32.453 139.436 30.2156L136.714 27.2844ZM131.575 29.5C130.231 29.5 129.243 29.1483 128.544 28.5976C127.851 28.0514 127.274 27.1779 126.98 25.8251L123.071 26.6749C123.527 28.7721 124.525 30.5236 126.069 31.7399C127.607 32.9517 129.52 33.5 131.575 33.5V29.5ZM125.025 28.25H143.675V24.25H125.025V28.25ZM145.67 26.3925C145.716 25.7493 145.775 25.193 145.775 24.35H141.775C141.775 25.007 141.734 25.3507 141.68 26.1075L145.67 26.3925ZM136.375 19.5H124.925V23.5H136.375V19.5ZM126.896 21.8427C127.145 20.4088 127.667 19.3943 128.292 18.7615C128.885 18.1605 129.668 17.8 130.725 17.8V13.8C128.633 13.8 126.815 14.5645 125.446 15.951C124.108 17.3057 123.305 19.1412 122.955 21.1573L126.896 21.8427ZM130.725 17.8C131.805 17.8 132.575 18.1701 133.136 18.7572C133.729 19.3775 134.208 20.3708 134.392 21.7624L138.358 21.2376C138.092 19.2292 137.346 17.3725 136.027 15.9928C134.676 14.5799 132.845 13.8 130.725 13.8V17.8Z" fill="#2B96F9"/>
</svg>
