<svg width="146" height="38" viewBox="0 0 146 38" fill="none" xmlns="http://www.w3.org/2000/svg">
<path d="M35.3002 2L36.6922 2.55879L37.5187 0.499998H35.3002V2ZM27.0002 2V0.499998H25.957L25.5939 1.478L27.0002 2ZM17.8502 26.65L16.4439 27.172L17.8502 30.9604L19.2564 27.172L17.8502 26.65ZM8.70018 2L10.1064 1.478L9.74339 0.499998H8.70018V2ZM0.200183 2V0.499998H-2.01829L-1.19185 2.55879L0.200183 2ZM14.3502 37.25L12.9582 37.8088L13.336 38.75H14.3502V37.25ZM21.1502 37.25V38.75H22.1644L22.5422 37.8088L21.1502 37.25ZM35.3002 0.499998H27.0002V3.5H35.3002V0.499998ZM25.5939 1.478L16.4439 26.128L19.2564 27.172L28.4064 2.52199L25.5939 1.478ZM19.2564 26.128L10.1064 1.478L7.29394 2.52199L16.4439 27.172L19.2564 26.128ZM8.70018 0.499998H0.200183V3.5H8.70018V0.499998ZM-1.19185 2.55879L12.9582 37.8088L15.7422 36.6912L1.59222 1.44121L-1.19185 2.55879ZM14.3502 38.75H21.1502V35.75H14.3502V38.75ZM22.5422 37.8088L36.6922 2.55879L33.9081 1.44121L19.7582 36.6912L22.5422 37.8088ZM48.8236 7.25V8.75H50.3236V7.25H48.8236ZM48.8236 0.499999H50.3236V-1H48.8236V0.499999ZM40.8236 0.499999V-1H39.3236V0.499999H40.8236ZM40.8236 7.25H39.3236V8.75H40.8236V7.25ZM48.6236 37V38.5H50.1236V37H48.6236ZM48.6236 10.2H50.1236V8.7H48.6236V10.2ZM41.0236 10.2V8.7H39.5236V10.2H41.0236ZM41.0236 37H39.5236V38.5H41.0236V37ZM50.3236 7.25V0.499999H47.3236V7.25H50.3236ZM48.8236 -1H40.8236V2H48.8236V-1ZM39.3236 0.499999V7.25H42.3236V0.499999H39.3236ZM40.8236 8.75H48.8236V5.75H40.8236V8.75ZM50.1236 37V10.2H47.1236V37H50.1236ZM48.6236 8.7H41.0236V11.7H48.6236V8.7ZM39.5236 10.2V37H42.5236V10.2H39.5236ZM41.0236 38.5H48.6236V35.5H41.0236V38.5ZM65.1115 14.05H63.6115V18.5987L66.3173 14.9423L65.1115 14.05ZM65.1115 0.499999H66.6115V-1H65.1115V0.499999ZM57.5115 0.499999V-1H56.0115V0.499999H57.5115ZM57.5115 37H56.0115V38.5H57.5115V37ZM65.1115 37V38.5H66.6115V37H65.1115ZM65.1115 33.5L66.2617 32.5371L63.6115 29.3717V33.5H65.1115ZM87.1615 23.65V23.55H84.1615V23.65H87.1615ZM87.1615 23.55C87.1615 13.8179 80.5855 8.2 73.4615 8.2V11.2C78.8375 11.2 84.1615 15.3821 84.1615 23.55H87.1615ZM73.4615 8.2C68.929 8.2 65.9683 10.3705 63.9057 13.1577L66.3173 14.9423C67.9547 12.7295 70.094 11.2 73.4615 11.2V8.2ZM66.6115 14.05V0.499999H63.6115V14.05H66.6115ZM65.1115 -1H57.5115V2H65.1115V-1ZM56.0115 0.499999V37H59.0115V0.499999H56.0115ZM57.5115 38.5H65.1115V35.5H57.5115V38.5ZM66.6115 37V33.5H63.6115V37H66.6115ZM63.9614 34.4629C65.9598 36.8499 68.8483 39 73.4615 39V36C69.9747 36 67.8633 34.4501 66.2617 32.5371L63.9614 34.4629ZM73.4615 39C77.0262 39 80.4721 37.6218 83.0234 34.9715C85.5817 32.3141 87.1615 28.4627 87.1615 23.65H84.1615C84.1615 27.7873 82.8164 30.8609 80.8621 32.891C78.9009 34.9282 76.2468 36 73.4615 36V39ZM76.5615 23.65C76.5615 27.4304 74.1283 29.55 71.5115 29.55V32.55C75.9947 32.55 79.5615 28.8696 79.5615 23.65H76.5615ZM71.5115 29.55C68.9155 29.55 66.5115 27.4029 66.5115 23.65H63.5115C63.5115 28.7971 67.0076 32.55 71.5115 32.55V29.55ZM66.5115 23.65V23.55H63.5115V23.65H66.5115ZM66.5115 23.55C66.5115 19.7971 68.9155 17.65 71.5115 17.65V14.65C67.0076 14.65 63.5115 18.4029 63.5115 23.55H66.5115ZM71.5115 17.65C74.1218 17.65 76.5615 19.8125 76.5615 23.55H79.5615C79.5615 18.3875 76.0013 14.65 71.5115 14.65V17.65ZM76.5615 23.55V23.65H79.5615V23.55H76.5615ZM116.652 32.6L117.819 33.5416L118.719 32.4263L117.646 31.4768L116.652 32.6ZM112.302 28.75L113.296 27.6268L112.278 26.7255L111.281 27.6508L112.302 28.75ZM99.2517 26.25V24.75H97.3906L97.786 26.5686L99.2517 26.25ZM117.902 26.25V27.75H119.298L119.398 26.3569L117.902 26.25ZM110.602 21.5V23H112.313L112.089 21.3032L110.602 21.5ZM99.1517 21.5L97.6739 21.243L97.3684 23H99.1517V21.5ZM119.502 24.35V24.25H116.502V24.35H119.502ZM119.502 24.25C119.502 20.2018 118.412 16.2066 116.006 13.1896C113.563 10.1276 109.86 8.2 104.952 8.2V11.2C108.993 11.2 111.815 12.7474 113.66 15.0604C115.541 17.4184 116.502 20.6982 116.502 24.25H119.502ZM104.952 8.2C96.2131 8.2 90.2017 15.2863 90.2017 23.65H93.2017C93.2017 16.7137 98.0904 11.2 104.952 11.2V8.2ZM90.2017 23.65V23.75H93.2017V23.65H90.2017ZM90.2017 23.75C90.2017 32.8105 96.8558 39.1 105.702 39.1V36.1C98.4477 36.1 93.2017 31.0895 93.2017 23.75H90.2017ZM105.702 39.1C110.998 39.1 115.03 37.0003 117.819 33.5416L115.484 31.6584C113.273 34.3997 110.105 36.1 105.702 36.1V39.1ZM117.646 31.4768L113.296 27.6268L111.308 29.8732L115.658 33.7232L117.646 31.4768ZM111.281 27.6508C109.413 29.3853 107.916 30 105.802 30V33C108.788 33 110.99 32.0147 113.322 29.8492L111.281 27.6508ZM105.802 30C104.368 30 103.265 29.6237 102.461 28.9904C101.661 28.3604 101.032 27.3772 100.718 25.9314L97.786 26.5686C98.2217 28.5728 99.1671 30.2146 100.605 31.3471C102.038 32.4763 103.835 33 105.802 33V30ZM99.2517 27.75H117.902V24.75H99.2517V27.75ZM119.398 26.3569C119.445 25.6994 119.502 25.1697 119.502 24.35H116.502C116.502 25.0303 116.459 25.4006 116.406 26.1431L119.398 26.3569ZM110.602 20H99.1517V23H110.602V20ZM100.63 21.757C100.892 20.2503 101.449 19.1333 102.163 18.4102C102.853 17.711 103.765 17.3 104.952 17.3V14.3C102.989 14.3 101.3 15.014 100.028 16.3023C98.7796 17.5667 98.0119 19.2997 97.6739 21.243L100.63 21.757ZM104.952 17.3C106.162 17.3 107.064 17.7213 107.724 18.4117C108.408 19.1269 108.92 20.2281 109.115 21.6968L112.089 21.3032C111.833 19.3719 111.121 17.6231 109.892 16.3383C108.64 15.0286 106.942 14.3 104.952 14.3V17.3ZM136.966 20.8L136.477 22.2181L136.484 22.2206L136.491 22.223L136.966 20.8ZM141.566 18.15L140.808 19.4448L142.135 20.221L142.879 18.8753L141.566 18.15ZM144.466 12.9L145.779 13.6253L146.443 12.4222L145.303 11.6552L144.466 12.9ZM132.666 26.45L133.104 25.0153L133.096 25.0129L133.088 25.0106L132.666 26.45ZM126.566 28.45L127.446 27.2351L126.168 26.3099L125.308 27.6325L126.566 28.45ZM123.316 33.45L122.058 32.6325L121.312 33.7801L122.387 34.6278L123.316 33.45ZM146.566 28.85V28.75H143.566V28.85H146.566ZM146.566 28.75C146.566 25.763 145.202 23.678 143.347 22.2253C141.566 20.8309 139.316 20.0023 137.44 19.377L136.491 22.223C138.365 22.8477 140.165 23.5441 141.497 24.5872C142.755 25.572 143.566 26.837 143.566 28.75H146.566ZM137.455 19.3819C135.923 18.8537 134.702 18.474 133.811 18.0392C133.375 17.8268 133.143 17.6578 133.034 17.546C132.954 17.463 133.016 17.4954 133.016 17.6H130.016C130.016 18.4546 130.397 19.137 130.885 19.6384C131.345 20.1109 131.932 20.4607 132.496 20.7358C133.604 21.276 135.109 21.7463 136.477 22.2181L137.455 19.3819ZM133.016 17.6V17.5H130.016V17.6H133.016ZM133.016 17.5C133.016 17.4824 133.018 17.4736 133.018 17.4716C133.019 17.4704 133.019 17.47 133.019 17.4702C133.019 17.4704 133.018 17.4705 133.019 17.4702C133.019 17.47 133.019 17.4688 133.021 17.4667C133.022 17.4645 133.025 17.4608 133.03 17.4557C133.039 17.4458 133.056 17.4284 133.088 17.4062C133.222 17.3113 133.584 17.15 134.316 17.15V14.15C133.198 14.15 132.16 14.3887 131.356 14.9563C130.507 15.5563 130.016 16.4669 130.016 17.5H133.016ZM134.316 17.15C135.872 17.15 138.245 17.9456 140.808 19.4448L142.323 16.8552C139.586 15.2544 136.659 14.15 134.316 14.15V17.15ZM142.879 18.8753L145.779 13.6253L143.153 12.1747L140.253 17.4247L142.879 18.8753ZM145.303 11.6552C142.164 9.54453 138.174 8.3 134.466 8.3V11.3C137.558 11.3 140.968 12.3555 143.629 14.1448L145.303 11.6552ZM134.466 8.3C131.498 8.3 128.691 9.13702 126.594 10.8426C124.464 12.5751 123.166 15.1299 123.166 18.3H126.166C126.166 16.0201 127.067 14.3249 128.487 13.1699C129.94 11.988 132.033 11.3 134.466 11.3V8.3ZM123.166 18.3V18.4H126.166V18.3H123.166ZM123.166 18.4C123.166 21.4912 124.464 23.6471 126.323 25.1338C128.1 26.5559 130.348 27.3333 132.244 27.8894L133.088 25.0106C131.234 24.4667 129.482 23.8191 128.197 22.7912C126.992 21.8279 126.166 20.5088 126.166 18.4H123.166ZM132.228 27.8847C133.807 28.3665 135.029 28.6825 135.934 29.0877C136.37 29.2832 136.59 29.4416 136.689 29.5426C136.73 29.5846 136.732 29.599 136.725 29.584C136.717 29.5649 136.716 29.5479 136.716 29.55H139.716C139.716 27.7381 138.227 26.8277 137.16 26.3498C136.027 25.8425 134.474 25.4335 133.104 25.0153L132.228 27.8847ZM136.716 29.55V29.65H139.716V29.55H136.716ZM136.716 29.65C136.716 29.7377 136.699 29.7681 136.697 29.7708C136.697 29.772 136.683 29.8024 136.609 29.8519C136.432 29.97 135.971 30.15 135.016 30.15V33.15C136.26 33.15 137.4 32.93 138.273 32.3481C139.229 31.7106 139.716 30.7345 139.716 29.65H136.716ZM135.016 30.15C132.919 30.15 130.171 29.2083 127.446 27.2351L125.686 29.6649C128.761 31.8917 132.113 33.15 135.016 33.15V30.15ZM125.308 27.6325L122.058 32.6325L124.573 34.2675L127.823 29.2675L125.308 27.6325ZM122.387 34.6278C126.215 37.6473 130.747 39 134.816 39V36C131.385 36 127.516 34.8527 124.245 32.2723L122.387 34.6278ZM134.816 39C137.922 39 140.848 38.2804 143.033 36.5935C145.273 34.8633 146.566 32.2429 146.566 28.85H143.566C143.566 31.4071 142.633 33.1117 141.199 34.219C139.709 35.3696 137.51 36 134.816 36V39Z" fill="#2B96F9"/>
</svg>
