<svg width="121" height="122" viewBox="0 0 121 122" fill="none" xmlns="http://www.w3.org/2000/svg">
<g clip-path="url(#clip0_2026_547)">
<g filter="url(#filter0_d_2026_547)">
<path d="M33.7694 96.5022L35.414 97.5657C45.1658 103.869 56.9148 106.355 68.3969 104.544C79.8791 102.732 90.2819 96.752 97.6008 87.7551C104.92 78.7583 108.637 67.3817 108.035 55.8175C107.434 44.2533 102.557 33.32 94.3446 25.1243C86.1319 16.9287 75.1645 12.0507 63.5559 11.4304C51.9473 10.8101 40.519 14.4913 31.4731 21.7647C22.4272 29.0381 16.404 39.389 14.5641 50.8227C12.7242 62.2564 15.1979 73.9638 21.5084 83.689L22.5847 85.3357L16.5575 102.489L33.7694 96.5022Z" fill="url(#paint0_radial_2026_547)"/>
<g style="mix-blend-mode:overlay" opacity="0.35">
<path d="M94.2997 25.0432C86.0714 16.8778 75.1034 12.0301 63.504 11.4321C51.9046 10.834 40.4927 14.5279 31.4621 21.8036C22.4315 29.0793 16.4197 39.4233 14.5823 50.8469C12.745 62.2705 15.2117 73.9674 21.5085 83.689L22.5848 85.3357L16.5576 102.489L33.7781 96.528L35.4227 97.5915C45.1839 103.89 56.9399 106.366 68.4253 104.544C79.9106 102.722 90.3125 96.7295 97.6261 87.7222C104.94 78.7149 108.647 67.33 108.035 55.7615C107.422 44.1931 102.533 33.2599 94.3083 25.069L94.2997 25.0432ZM93.1803 90.2243C85.8135 97.5543 76.1473 102.148 65.7926 103.241C55.4378 104.333 45.02 101.858 36.2751 96.2278L33.9761 94.7441L19.132 99.8899L24.2982 85.0956L22.8086 82.8057C18.1357 75.6206 15.6008 67.2645 15.4971 58.7041C15.3934 50.1438 17.7252 41.7292 22.2227 34.4339C26.7202 27.1386 33.1995 21.2609 40.911 17.4808C48.6225 13.7007 57.2509 12.1728 65.7978 13.0738C74.3448 13.9748 82.4609 17.268 89.2072 22.5722C95.9534 27.8765 101.054 34.9749 103.919 43.0464C106.783 51.1178 107.295 59.8321 105.395 68.1812C103.495 76.5303 99.2596 84.1727 93.1803 90.2243Z" fill="#075C5C"/>
</g>
<path d="M73.17 71.3475C85.2846 58.8602 88.0141 50.8069 88.238 45.5152C88.5135 39.0314 83.3646 32.4876 80.4887 32.3761C77.6129 32.2646 75.1676 31.8272 74.2808 33.594C73.3939 35.3607 70.0703 43.0881 69.6226 44.2974C69.1749 45.5066 68.6238 47.059 69.9584 48.8257C71.293 50.5925 72.0334 51.2872 72.7997 52.1705C73.566 53.0539 74.0655 54.349 72.6189 56.2186C71.1724 58.0883 68.3138 62.2736 66.0234 64.2548C63.7331 66.2359 57.4132 70.3526 55.4329 71.013C53.4525 71.6734 52.669 71.8706 51.455 70.4641C50.2409 69.0576 48.7858 67.1536 47.9075 66.0472C47.0293 64.9409 46.0219 63.9546 43.6885 65.0524C41.3551 66.1502 35.7067 68.6973 34.1655 69.5807C32.6242 70.4641 31.9182 70.5156 32.0129 72.7283C32.0069 73.8591 32.1459 74.9859 32.4263 76.0817C33.7092 80.1469 37.248 84.0234 45.0231 84.3751C52.6862 84.7181 66.7726 77.9685 73.17 71.3475Z" fill="white"/>
<path d="M3.50439 115.473L13.6818 86.3649C7.38272 75.8676 4.78346 63.5757 6.29653 51.4395C7.80959 39.3033 13.3483 28.0179 22.0337 19.3742C28.444 12.999 36.3334 8.29615 45.0034 5.68195C53.6734 3.06775 62.8567 2.62281 71.7405 4.38653C80.6243 6.15024 88.9345 10.0682 95.9358 15.7937C102.937 21.5191 108.413 28.8754 111.88 37.2115C115.346 45.5477 116.696 54.6064 115.81 63.5861C114.924 72.5658 111.829 81.1895 106.8 88.6938C101.77 96.1981 94.9607 102.352 86.9743 106.61C78.9879 110.868 70.0709 113.099 61.0124 113.106C51.0554 113.116 41.2826 110.433 32.7363 105.345L3.50439 115.473ZM33.7695 96.5022L35.4141 97.5657C45.1658 103.869 56.9148 106.355 68.397 104.544C79.8792 102.732 90.282 96.752 97.6008 87.7552C104.92 78.7584 108.637 67.3817 108.035 55.8175C107.434 44.2534 102.557 33.32 94.3447 25.1244C86.132 16.9287 75.1646 12.0508 63.5559 11.4304C51.9473 10.8101 40.519 14.4913 31.4731 21.7647C22.4273 29.0381 16.404 39.389 14.5641 50.8227C12.7243 62.2565 15.198 73.9639 21.5085 83.689L22.5848 85.3357L16.5576 102.489L33.7695 96.5022Z" fill="white"/>
<path d="M2.66058 116.314L13.1048 86.4163C6.19337 74.7939 3.77696 61.059 6.30901 47.7882C8.84106 34.5175 16.1475 22.6231 26.8576 14.3366C37.5677 6.05005 50.9453 1.94091 64.4806 2.78009C78.0159 3.61928 90.7788 9.34912 100.375 18.8946C109.97 28.4401 115.74 41.1452 116.6 54.6263C117.46 68.1073 113.353 81.4378 105.048 92.1167C96.7425 102.796 84.8107 110.089 71.4911 112.629C58.1714 115.168 44.3791 112.78 32.7018 105.911L2.66058 116.314ZM61.0123 3.78222C51.3539 3.7856 41.869 6.33895 33.5238 11.1822C25.1786 16.0254 18.2713 22.9854 13.5056 31.3532C8.73992 39.721 6.28618 49.1975 6.39425 58.8173C6.50233 68.4372 9.16841 77.8567 14.1209 86.1161L14.25 86.322L14.1725 86.5536L4.34816 114.65L32.762 104.796L32.9688 104.916C40.1885 109.195 48.302 111.758 56.6783 112.404C65.0546 113.049 73.4676 111.762 81.2625 108.64C89.0575 105.518 96.0243 100.648 101.621 94.4062C107.217 88.1648 111.292 80.7213 113.529 72.655C115.766 64.5887 116.104 56.1171 114.517 47.8994C112.93 39.6817 109.46 31.9396 104.379 25.2755C99.2975 18.6114 92.7408 13.2051 85.2191 9.4772C77.6975 5.74933 69.4136 3.80043 61.0123 3.78222Z" fill="url(#paint1_linear_2026_547)"/>
<path style="mix-blend-mode:screen" opacity="0.4" d="M61.0124 17.5045C53.0085 17.5045 45.1844 19.8686 38.5294 24.2978C31.8745 28.7271 26.6875 35.0225 23.6246 42.3881C20.5617 49.7537 19.7603 57.8586 21.3217 65.6778C22.8832 73.497 26.7375 80.6795 32.397 86.3168C38.0566 91.9542 45.2674 95.7933 53.1175 97.3486C60.9675 98.904 69.1043 98.1057 76.4989 95.0548C83.8935 92.0039 90.2138 86.8373 94.6605 80.2085C99.1072 73.5797 101.481 65.7863 101.481 57.8138C101.481 47.1231 97.217 36.8703 89.6277 29.3109C82.0385 21.7514 71.7452 17.5045 61.0124 17.5045ZM61.0124 85.6187C55.4852 85.6187 50.0822 83.9858 45.4869 80.9266C40.8916 77.8674 37.3104 73.5194 35.1964 68.4325C33.0825 63.3456 32.5307 57.7485 33.6109 52.3492C34.6911 46.9499 37.3547 41.991 41.2648 38.0998C45.1749 34.2087 50.1558 31.5601 55.5774 30.4892C60.999 29.4182 66.6176 29.973 71.7226 32.0834C76.8275 34.1938 81.1894 37.7649 84.2564 42.345C87.3234 46.9251 88.9578 52.3084 88.9527 57.8138C88.9538 61.4693 88.232 65.0892 86.8284 68.4668C85.4247 71.8443 83.3668 74.9134 80.7722 77.4986C78.1776 80.0838 75.0971 82.1346 71.7067 83.5337C68.3163 84.9329 64.6823 85.653 61.0124 85.653V85.6187Z" fill="url(#paint2_radial_2026_547)"/>
</g>
</g>
<defs>
<filter id="filter0_d_2026_547" x="-1.33942" y="2.67288" width="122.052" height="121.641" filterUnits="userSpaceOnUse" color-interpolation-filters="sRGB">
<feFlood flood-opacity="0" result="BackgroundImageFix"/>
<feColorMatrix in="SourceAlpha" type="matrix" values="0 0 0 0 0 0 0 0 0 0 0 0 0 0 0 0 0 0 127 0" result="hardAlpha"/>
<feOffset dy="4"/>
<feGaussianBlur stdDeviation="2"/>
<feComposite in2="hardAlpha" operator="out"/>
<feColorMatrix type="matrix" values="0 0 0 0 0 0 0 0 0 0 0 0 0 0 0 0 0 0 0.25 0"/>
<feBlend mode="normal" in2="BackgroundImageFix" result="effect1_dropShadow_2026_547"/>
<feBlend mode="normal" in="SourceGraphic" in2="effect1_dropShadow_2026_547" result="shape"/>
</filter>
<radialGradient id="paint0_radial_2026_547" cx="0" cy="0" r="1" gradientUnits="userSpaceOnUse" gradientTransform="translate(28.3363 26.8271) scale(94.5923 94.2209)">
<stop stop-color="#00EC00"/>
<stop offset="1" stop-color="#00AA22"/>
</radialGradient>
<linearGradient id="paint1_linear_2026_547" x1="12.1663" y1="28.4738" x2="90.5459" y2="107.162" gradientUnits="userSpaceOnUse">
<stop stop-color="white"/>
<stop offset="1" stop-color="#DEDEDE"/>
</linearGradient>
<radialGradient id="paint2_radial_2026_547" cx="0" cy="0" r="1" gradientUnits="userSpaceOnUse" gradientTransform="translate(39.039 30.0776) scale(50.4303 50.2323)">
<stop stop-color="#A5FF00"/>
<stop offset="0.09" stop-color="#9EF400"/>
<stop offset="0.24" stop-color="#8BD700"/>
<stop offset="0.43" stop-color="#6DA800"/>
<stop offset="0.67" stop-color="#426600"/>
<stop offset="0.94" stop-color="#0D1400"/>
<stop offset="1"/>
</radialGradient>
<clipPath id="clip0_2026_547">
<rect width="121" height="122" fill="white"/>
</clipPath>
</defs>
</svg>
