<svg width="100" height="50" viewBox="0 0 100 50" fill="none" xmlns="http://www.w3.org/2000/svg">
<g clip-path="url(#clip0_1209_594)">
<path d="M99.2765 18.42C97.6535 19.9257 96.0501 21.4118 94.388 22.9566C94.1924 23.1521 93.8796 23.1521 93.684 22.9566C89.5972 19.0849 85.2757 15.0176 80.8956 10.8721C80.7001 10.6766 80.3872 10.6766 80.1917 10.8721C75.3031 15.4282 70.4537 19.9648 65.526 24.56C65.3305 24.7556 65.0176 24.7556 64.8221 24.56C59.9335 19.9844 55.0645 15.4478 50.1369 10.8526C49.9414 10.657 49.6285 10.657 49.4329 10.8526C44.5444 15.4282 39.6754 19.9648 34.7478 24.56C34.5522 24.7556 34.2394 24.7556 34.0438 24.56L19.3782 10.8526C19.1827 10.657 18.8698 10.657 18.6743 10.8526C14.3137 14.9785 9.97265 19.0653 5.61207 23.1913C5.39698 23.3868 5.06456 23.3868 4.86901 23.1717C3.30468 21.5096 1.7599 19.9062 0.195569 18.2636C2.71797e-05 18.0485 2.71797e-05 17.7161 0.215123 17.5205C6.29647 11.7325 12.4169 5.96403 18.5765 0.136891C18.772 -0.058651 19.0849 -0.058651 19.2804 0.136891C24.1885 4.71256 29.0575 9.24913 33.9852 13.8639C34.1807 14.0595 34.4936 14.0595 34.6891 13.8639C39.5776 9.28824 44.4466 4.75167 49.3743 0.156445C49.5698 -0.0390969 49.8827 -0.0390969 50.0782 0.156445C54.9668 4.71256 59.8358 9.26869 64.7634 13.8639C64.959 14.0595 65.2718 14.0595 65.4674 13.8639C70.3559 9.30779 75.2249 4.75167 80.1525 0.156445C80.3481 -0.0195427 80.6609 -0.0390969 80.8565 0.156445C81.0129 0.293324 81.1498 0.410649 81.2867 0.547528C87.2703 6.19868 93.2343 11.8498 99.2178 17.4814C99.257 17.853 99.257 18.029 99.2765 18.42Z" fill="white"/>
<path d="M99.1205 43.86C97.5757 45.2679 96.0114 46.6954 94.408 48.1424C94.1538 48.377 93.7431 48.377 93.4889 48.1424C89.5194 44.388 85.2957 40.3989 80.9743 36.3121C80.72 36.0579 80.3094 36.0579 80.0552 36.3121C75.2449 40.79 70.4541 45.2679 65.6047 49.8045C65.3505 50.0391 64.9398 50.0391 64.6856 49.8045C59.8753 45.307 55.065 40.8291 50.2155 36.2926C49.9613 36.0579 49.5507 36.0579 49.2965 36.2926C44.4862 40.79 39.6954 45.2679 34.8264 49.8045C34.5722 50.0391 34.1616 50.0391 33.9074 49.8045C29.0971 45.307 24.3063 40.8291 19.4569 36.3121C19.2026 36.0775 18.792 36.0775 18.5378 36.3121C14.2554 40.3598 9.99263 44.388 5.69072 48.4553C5.41696 48.7095 4.98677 48.6899 4.73256 48.4357C3.22689 46.8518 1.77988 45.307 0.274214 43.7427C0.0200101 43.4689 0.0200101 43.0387 0.293768 42.7845C6.35556 37.0552 12.3978 31.3454 18.4791 25.5769C18.7333 25.3227 19.144 25.3227 19.3982 25.5769C24.2281 30.0743 29.0188 34.5522 33.8878 39.1084C34.142 39.343 34.5527 39.343 34.8069 39.1084C39.6172 34.6109 44.4275 30.133 49.277 25.5964C49.5312 25.3618 49.9418 25.3618 50.196 25.5964C55.0063 30.0939 59.7971 34.5718 64.6661 39.1084C64.9203 39.343 65.3309 39.343 65.5851 39.1084C70.3954 34.6109 75.2058 30.133 80.0748 25.5769C80.329 25.3422 80.7396 25.3422 80.9938 25.5769C81.1698 25.7333 81.3458 25.8898 81.5022 26.0657C87.3685 31.5996 93.2152 37.1334 99.0814 42.6672C99.1205 43.1561 99.1205 43.3907 99.1205 43.86Z" fill="white"/>
</g>
<defs>
<clipPath id="clip0_1209_594">
<rect width="99.2765" height="50" fill="white"/>
</clipPath>
</defs>
</svg>
