<svg version="1.2" xmlns="http://www.w3.org/2000/svg" viewBox="0 0 16 11" width="16" height="11"><style>.s0{fill:#ffffff}</style><path class="s0" d="m14.9 2.7h-13.4c-0.6 0-1-0.5-1-1c0-0.5 0.4-1 1-1h13.4c0.6 0 1 0.5 1 1c0 0.5-0.4 1-1 1z" /><path class="s0" d="m14.9 5.3h-13.4c-0.6 0-1-0.4-1-0.9c0-0.6 0.4-1 1-1h13.4c0.6 0 1 0.4 1 1c0 0.5-0.4 0.9-1 0.9z" /><path class="s0" d="m14.9 8h-13.4c-0.6 0-1-0.4-1-1c0-0.5 0.4-0.9 1-0.9h13.4c0.6 0 1 0.4 1 0.9c0 0.6-0.4 1-1 1z" /><path class="s0" d="m14.9 10.7h-13.4c-0.6 0-1-0.4-1-1c0-0.5 0.4-0.9 1-0.9h13.4c0.6 0 1 0.4 1 0.9c0 0.6-0.4 1-1 1z" /></svg>