<svg width="21" height="21" viewBox="0 0 21 21" fill="none" xmlns="http://www.w3.org/2000/svg">
<path d="M14.55 11.5145C15.3 11.5145 15.96 11.1085 16.3 10.4945L19.88 4.06755C20.25 3.41396 19.77 2.60192 19.01 2.60192H4.21L3.27 0.621338H0V2.60192H2L5.60001 10.1182L4.25 12.5345C3.52 13.8615 4.48 15.4757 6.00001 15.4757H18V13.4951H6.00001L7.10001 11.5145H14.55ZM5.16 4.5825H17.31L14.55 9.53396H7.53001L5.16 4.5825ZM6.00001 16.466C4.9 16.466 4.01 17.3573 4.01 18.4466C4.01 19.5359 4.9 20.4272 6.00001 20.4272C7.10001 20.4272 8.00001 19.5359 8.00001 18.4466C8.00001 17.3573 7.10001 16.466 6.00001 16.466ZM16 16.466C14.9 16.466 14.01 17.3573 14.01 18.4466C14.01 19.5359 14.9 20.4272 16 20.4272C17.1 20.4272 18 19.5359 18 18.4466C18 17.3573 17.1 16.466 16 16.466Z" fill="white"/>
</svg>
