<svg width="18" height="16" viewBox="0 0 18 16" fill="none" xmlns="http://www.w3.org/2000/svg">
<g clip-path="url(#clip0_2026_520)">
<path d="M8.50998 9.89C9.23311 9.41995 9.78497 8.72877 10.0832 7.91951C10.3815 7.11026 10.4102 6.22627 10.1651 5.39937C9.91994 4.57247 9.41411 3.84695 8.72299 3.33098C8.03188 2.81502 7.19246 2.53625 6.32999 2.53625C5.46752 2.53625 4.62816 2.81502 3.93704 3.33098C3.24593 3.84695 2.7401 4.57247 2.49496 5.39937C2.24983 6.22627 2.27856 7.11026 2.57681 7.91951C2.87507 8.72877 3.42687 9.41995 4.14999 9.89C2.93502 10.3357 1.88585 11.1431 1.14383 12.2033C0.401811 13.2636 0.00264198 14.5259 3.05176e-05 15.82H1.06003C1.06003 15.1279 1.19631 14.4426 1.46115 13.8033C1.72599 13.1639 2.11418 12.5829 2.60355 12.0935C3.09291 11.6042 3.67388 11.216 4.31326 10.9512C4.95265 10.6863 5.63792 10.55 6.32999 10.55C7.02205 10.55 7.70739 10.6863 8.34677 10.9512C8.98616 11.216 9.56712 11.6042 10.0565 12.0935C10.5459 12.5829 10.934 13.1639 11.1989 13.8033C11.4637 14.4426 11.6 15.1279 11.6 15.82H12.66C12.6574 14.5259 12.2582 13.2636 11.5161 12.2033C10.7741 11.1431 9.72495 10.3357 8.50998 9.89ZM6.32999 9.49C5.75642 9.49 5.19574 9.31992 4.71884 9.00126C4.24194 8.68261 3.87028 8.22969 3.65079 7.69978C3.43129 7.16988 3.37385 6.58678 3.48575 6.02424C3.59765 5.46169 3.87382 4.94496 4.27939 4.53939C4.68496 4.13382 5.20171 3.85762 5.76425 3.74572C6.3268 3.63383 6.90988 3.69126 7.43979 3.91075C7.96969 4.13025 8.42259 4.50195 8.74124 4.97885C9.0599 5.45575 9.23001 6.01643 9.23001 6.59C9.23001 7.35913 8.9245 8.09675 8.38065 8.64061C7.83679 9.18447 7.09911 9.49 6.32999 9.49Z" fill="white"/>
<path d="M13.79 7.24999C14.2518 6.94982 14.6457 6.55639 14.9464 6.09498C15.2471 5.63357 15.448 5.11436 15.5362 4.57071C15.6244 4.02705 15.5979 3.47096 15.4585 2.93814C15.319 2.40533 15.0697 1.90756 14.7265 1.4768C14.3833 1.04605 13.9538 0.691831 13.4656 0.436887C12.9774 0.181943 12.4413 0.031911 11.8917 -0.00357293C11.3421 -0.0390569 10.7911 0.0407891 10.2741 0.23084C9.75721 0.420891 9.28573 0.716949 8.88998 1.1C8.62823 1.35338 8.39974 1.639 8.20999 1.94999C8.53589 2.08118 8.84751 2.24537 9.13998 2.44C9.3277 2.13932 9.56825 1.87507 9.85001 1.65999C10.3535 1.26954 10.9729 1.05837 11.61 1.06C12.3791 1.06 13.1168 1.36553 13.6606 1.90938C14.2045 2.45324 14.51 3.19087 14.51 3.95999C14.51 4.72912 14.2045 5.46675 13.6606 6.0106C13.1168 6.55446 12.3791 6.85999 11.61 6.85999H11.34C11.3212 7.23222 11.2608 7.60118 11.16 7.95999H11.61C11.83 7.95999 12.04 7.95999 12.25 7.95999C13.5281 8.11606 14.7051 8.7338 15.5597 9.69698C16.4142 10.6602 16.8873 11.9024 16.89 13.19H17.89C17.8932 11.9001 17.5023 10.64 16.7696 9.57839C16.0368 8.51681 14.9972 7.70441 13.79 7.24999Z" fill="white"/>
</g>
<defs>
<clipPath id="clip0_2026_520">
<rect width="17.93" height="15.82" fill="white"/>
</clipPath>
</defs>
</svg>
