<svg width="116" height="48" viewBox="0 0 116 48" fill="none" xmlns="http://www.w3.org/2000/svg">
<path d="M10.4027 21.5036H1.30029V0H9.59561C10.5372 0 11.4789 0.0437956 12.4205 0.175182C13.407 0.306569 14.2589 0.569343 15.066 0.963504C15.8732 1.35766 16.5009 1.92701 16.9941 2.67153C17.4874 3.41606 17.7564 4.37956 17.7564 5.60584C17.7564 6.87591 17.3977 7.92701 16.6803 8.75912C16.187 9.32847 15.5593 9.81022 14.8418 10.1606C15.2006 10.2482 15.5144 10.3796 15.8283 10.5547C16.4561 10.8613 16.9493 11.2555 17.3977 11.7372C17.8461 12.219 18.16 12.7445 18.429 13.4015C18.6532 14.0146 18.7877 14.7153 18.7877 15.4161C18.7877 16.5547 18.5187 17.562 18.0255 18.3504C17.5322 19.1387 16.8596 19.7518 16.0525 20.2336C15.2454 20.7153 14.3486 21.0219 13.3621 21.2409C12.3308 21.4161 11.3444 21.5036 10.4027 21.5036ZM2.01773 20.8467H10.4027C11.2995 20.8467 12.2411 20.7591 13.1828 20.5401C14.0796 20.365 14.9315 20.0584 15.649 19.6204C16.3664 19.1825 16.9493 18.6569 17.3977 17.9562C17.8461 17.2993 18.0703 16.4234 18.0703 15.3723C18.0703 14.7591 17.9806 14.146 17.7564 13.6204C17.5322 13.0949 17.2632 12.6131 16.8596 12.1752C16.4561 11.781 16.0077 11.4307 15.4696 11.1679C14.9315 10.9051 14.3486 10.7299 13.676 10.6423L13.3621 10.5985V9.9854L13.5863 9.89781C14.6176 9.59124 15.4696 9.06569 16.0974 8.32117C16.7251 7.62044 17.039 6.70073 17.039 5.60584C17.039 4.55474 16.8148 3.67883 16.4112 3.06569C15.9628 2.45255 15.4248 1.92701 14.7522 1.57664C14.0347 1.22628 13.2276 0.963504 12.3308 0.832117C11.434 0.70073 10.4924 0.656934 9.59561 0.656934H1.97289V20.8467H2.01773ZM10.5821 17.6058H6.00845V12.219H9.90949C10.313 12.219 10.7166 12.2628 11.2098 12.3066C11.6582 12.3504 12.1066 12.4818 12.555 12.6569C13.0034 12.8321 13.3621 13.0949 13.6312 13.4453C13.9451 13.7956 14.0796 14.2774 14.0796 14.8467C14.0796 15.3723 13.9451 15.8102 13.7657 16.1606C13.5415 16.511 13.2725 16.8175 12.9137 17.0365C12.555 17.2555 12.1963 17.4307 11.7928 17.5182C11.3444 17.562 10.9856 17.6058 10.5821 17.6058ZM6.72588 16.9489H10.5821C10.896 16.9489 11.2547 16.9051 11.6134 16.8175C11.9273 16.7299 12.2411 16.6423 12.5102 16.4672C12.7792 16.292 12.9586 16.073 13.1379 15.8102C13.3173 15.5474 13.3621 15.2409 13.3621 14.8467C13.3621 14.4526 13.2725 14.1022 13.0483 13.8832C12.8241 13.6204 12.555 13.4453 12.2411 13.2701C11.8824 13.1387 11.5237 13.0073 11.0753 12.9635C10.6718 12.9197 10.2682 12.8759 9.90949 12.8759H6.72588V16.9489ZM9.77497 9.0219H6.00845V3.89781H9.55077C9.90949 3.89781 10.313 3.94161 10.7166 3.9854C11.1202 4.07299 11.5237 4.20438 11.8376 4.37956C12.1963 4.55474 12.4653 4.81752 12.6895 5.16788C12.9137 5.51825 13.0483 5.91241 13.0483 6.43796C13.0483 6.91971 12.9586 7.31387 12.7344 7.66423C12.555 8.0146 12.286 8.27737 11.9273 8.49635C11.6134 8.71533 11.2547 8.84671 10.8511 8.93431C10.5372 8.9781 10.1337 9.0219 9.77497 9.0219ZM6.72588 8.32117H9.77497C10.0889 8.32117 10.4476 8.27737 10.7614 8.23358C11.0753 8.14599 11.3444 8.05839 11.6134 7.88321C11.8376 7.75182 12.017 7.53285 12.1963 7.31387C12.3308 7.0511 12.4205 6.78832 12.4205 6.43796C12.4205 6.08759 12.3308 5.78102 12.1963 5.56204C12.017 5.34307 11.8376 5.12409 11.5686 4.9927C11.2995 4.86131 10.9856 4.72993 10.6269 4.68613C10.2682 4.64234 9.90949 4.59854 9.59561 4.59854H6.72588V8.32117Z" fill="white"/>
<path d="M22.2854 0.700806H36.7686V4.90518H26.9487V8.80299H36.2305V13.0512H26.9487V17.2556H37.3067V21.5037H22.2854V0.700806Z" fill="white"/>
<path d="M48.4716 0.700806H52.3726L61.6544 21.5475H56.3633L54.4801 17.0804H46.1848L44.3912 21.5037H39.2346L48.4716 0.700806ZM50.2651 6.7446L47.6645 13.2264H52.8658L50.2651 6.7446Z" fill="white"/>
<path d="M79.5902 13.1826C79.5902 14.4088 79.4109 15.5037 79.0522 16.511C78.6934 17.5183 78.1105 18.3942 77.3931 19.1388C76.6757 19.8833 75.734 20.4526 74.6579 20.8906C73.5817 21.3285 72.2814 21.5037 70.8465 21.5037C69.4116 21.5037 68.1113 21.2847 67.0351 20.8906C65.959 20.4526 65.0174 19.8833 64.2999 19.1388C63.5825 18.3942 62.9996 17.5183 62.6409 16.511C62.2821 15.5037 62.1028 14.365 62.1028 13.1826V0.700806H66.6764V13.0074C66.6764 13.6205 66.7661 14.2337 66.9903 14.7592C67.2145 15.2847 67.4835 15.7665 67.8423 16.1607C68.201 16.5548 68.6494 16.8614 69.1874 17.0804C69.7255 17.2993 70.2636 17.4307 70.8914 17.4307C71.5191 17.4307 72.0572 17.2993 72.5504 17.0804C73.0437 16.8614 73.4921 16.5548 73.8956 16.1607C74.2543 15.7665 74.5682 15.2847 74.7476 14.7592C74.9718 14.2337 75.0614 13.6205 75.0614 13.0074V0.700806H79.6351V13.1826H79.5902Z" fill="white"/>
<path d="M87.3025 4.73H81.2043V0.700806H98.1089V4.73H92.0107V21.5037H87.3025V4.73Z" fill="white"/>
<path d="M103.31 12.6132L95.2842 0.700806H101.158L105.642 8.45263L110.44 0.700806H116L108.019 12.6132V21.5037H103.31V12.6132Z" fill="white"/>
<path d="M11.8376 48C10.1337 48 8.56436 47.7373 7.12949 47.2117C5.69463 46.6862 4.43912 45.9416 3.36297 44.9343C2.28682 43.9708 1.47971 42.7446 0.896792 41.3431C0.313877 39.9416 0 38.4088 0 36.7008C0 34.9927 0.313877 33.4161 0.896792 32.0584C1.47971 30.657 2.28682 29.4745 3.36297 28.4672C4.39428 27.5037 5.69463 26.7154 7.12949 26.1898C8.56436 25.6643 10.1786 25.4015 11.8376 25.4015C12.4654 25.4015 13.0932 25.4453 13.7658 25.5767C14.4383 25.7081 15.1109 25.8832 15.7387 26.1022C16.4113 26.365 17.039 26.6716 17.622 27.0657C18.2497 27.4599 18.7878 27.9854 19.281 28.5548L19.5052 28.8175L15.3351 32.146L15.1109 31.8832C14.6625 31.3577 14.1693 30.9635 13.5416 30.7008C12.9138 30.438 12.1964 30.3066 11.3444 30.3066C10.5373 30.3066 9.73019 30.4818 9.01276 30.7884C8.29532 31.0949 7.66757 31.5329 7.17433 32.1022C6.63626 32.6716 6.2327 33.3285 5.96366 34.1168C5.64979 34.9051 5.51527 35.7811 5.51527 36.657C5.51527 37.5767 5.64979 38.4526 5.96366 39.2409C6.27754 40.0292 6.6811 40.6862 7.17433 41.2555C7.66757 41.8248 8.29532 42.2628 8.96792 42.5694C9.64051 42.8759 10.4028 43.0511 11.1651 43.0511C12.0618 43.0511 12.869 42.8759 13.5416 42.5256C14.2141 42.1752 14.7971 41.6497 15.2455 40.9927L15.4697 40.6862L19.9536 43.9708L19.7743 44.2336C18.8326 45.5037 17.622 46.4672 16.1871 47.0803C14.8419 47.6935 13.3622 48 11.8376 48ZM11.8376 26.1022C10.2234 26.1022 8.69888 26.365 7.35369 26.8467C6.0085 27.3285 4.79784 28.073 3.81136 28.9489C2.82489 29.8686 2.06262 31.0073 1.47971 32.2774C0.941631 33.5913 0.627754 35.0803 0.627754 36.657C0.627754 38.2774 0.896792 39.7665 1.47971 41.0365C2.01778 42.3504 2.82489 43.4453 3.81136 44.365C4.79784 45.2847 5.96366 45.9854 7.35369 46.4672C8.69888 46.9489 10.2234 47.2117 11.8376 47.2117C13.2277 47.2117 14.6625 46.9051 15.9629 46.3358C17.1736 45.8103 18.2049 45.0219 19.0568 43.9708L15.6939 41.5183C15.2006 42.1314 14.6177 42.6132 13.9451 42.9635C13.138 43.4015 12.2412 43.5767 11.2099 43.5767C10.3131 43.5767 9.46115 43.4015 8.69888 43.0511C7.93661 42.7008 7.26401 42.219 6.6811 41.5621C6.09818 40.9489 5.64979 40.2044 5.33591 39.3285C5.02203 38.4964 4.84267 37.5329 4.84267 36.5256C4.84267 35.5183 5.02203 34.5986 5.33591 33.7227C5.64979 32.8467 6.09818 32.1022 6.6811 31.4891C7.26401 30.8759 7.98145 30.3504 8.74372 30C9.55083 29.6497 10.4028 29.4745 11.3444 29.4745C12.286 29.4745 13.0932 29.6497 13.8106 29.9562C14.4383 30.219 14.9764 30.6132 15.4248 31.0511L18.5187 28.5986C18.1152 28.1606 17.7116 27.8102 17.2632 27.5037C16.7252 27.1095 16.0974 26.8029 15.5145 26.584C14.8867 26.365 14.259 26.1898 13.6312 26.1022C13.0483 26.146 12.4206 26.1022 11.8376 26.1022Z" fill="white"/>
<path d="M21.8816 26.1022H26.6346V42.9635H35.5128V47.2993H21.8816V26.1022Z" fill="white"/>
<path d="M55.2872 38.9343C55.2872 40.1606 55.1079 41.2993 54.7043 42.3503C54.3008 43.4014 53.7627 44.2774 53.0004 45.0657C52.2381 45.8102 51.2965 46.4233 50.1755 46.8613C49.0545 47.2993 47.7542 47.5182 46.2745 47.5182C44.7948 47.5182 43.4944 47.2993 42.3734 46.8613C41.2524 46.4233 40.3108 45.8102 39.5485 45.0657C38.7863 44.3212 38.2482 43.4014 37.8446 42.3503C37.4411 41.2993 37.2617 40.1606 37.2617 38.9343V26.1022H41.9699V38.7153C41.9699 39.3722 42.0596 39.9416 42.2838 40.5109C42.508 41.0803 42.777 41.5182 43.1805 41.9562C43.5841 42.3504 44.0325 42.6569 44.5706 42.8759C45.1086 43.0949 45.6916 43.2263 46.3193 43.2263C46.9471 43.2263 47.53 43.0949 48.0232 42.8759C48.5613 42.6569 49.0097 42.3504 49.3684 41.9562C49.7271 41.562 50.041 41.0803 50.2652 40.5109C50.4894 39.9416 50.5791 39.3722 50.5791 38.7153V26.1022H55.2872V38.9343Z" fill="white"/>
<path d="M57.2603 26.1022H65.3314C66.273 26.1022 67.2146 26.146 68.1563 26.2774C69.0979 26.4087 69.9499 26.6715 70.7121 27.0657C71.4744 27.4598 72.0573 27.9854 72.5506 28.6861C72.9989 29.3868 73.268 30.3066 73.268 31.489C73.268 32.6715 72.9093 33.6788 72.2367 34.4671C71.5641 35.2555 70.6673 35.8248 69.5463 36.1752V36.219C70.2637 36.3066 70.8915 36.5255 71.4744 36.7883C72.0573 37.0949 72.5506 37.4452 72.9541 37.8832C73.3577 38.3212 73.7164 38.8467 73.9406 39.4598C74.1648 40.073 74.2993 40.6861 74.2993 41.3868C74.2993 42.4817 74.0751 43.4452 73.5819 44.1898C73.0886 44.9343 72.4609 45.5474 71.6986 45.9854C70.9363 46.4233 70.0395 46.7737 69.0979 46.9927C68.1114 47.2117 67.1698 47.2993 66.1833 47.2993H57.3051V26.1022H57.2603ZM62.0581 34.5985H65.5107C65.8695 34.5985 66.2282 34.5547 66.5869 34.4671C66.9456 34.3795 67.2595 34.2482 67.5734 34.073C67.8424 33.8978 68.0666 33.635 68.246 33.3722C68.4253 33.0657 68.515 32.7153 68.515 32.2774C68.515 31.8394 68.4253 31.489 68.246 31.1825C68.0666 30.8759 67.7976 30.6569 67.4837 30.5255C67.1698 30.3503 66.8111 30.2628 66.4524 30.1752C66.0488 30.0876 65.6901 30.0876 65.3314 30.0876H62.1029V34.5985H62.0581ZM62.0581 43.3576H66.3627C66.7214 43.3576 67.0801 43.3139 67.4837 43.2263C67.8424 43.1387 68.2011 43.0073 68.515 42.7883C68.8289 42.5693 69.0531 42.3504 69.2773 42C69.4566 41.6934 69.5463 41.2993 69.5463 40.8175C69.5463 40.3357 69.4118 39.8978 69.1427 39.5912C68.8737 39.2847 68.5598 39.0657 68.1563 38.8905C67.7527 38.7153 67.3492 38.6277 66.9008 38.5401C66.4524 38.4963 66.0488 38.4525 65.6453 38.4525H62.0133V43.3576H62.0581Z" fill="white"/>
</svg>
