<svg width="21" height="20" viewBox="0 0 21 20" fill="none" xmlns="http://www.w3.org/2000/svg">
<path d="M0.0782677 20.0003C0.0521784 19.9742 0.0260892 19.9481 0 19.922C0.0260892 19.8646 0.0521784 19.8072 0.0730498 19.7446C0.506131 18.1845 0.928776 16.6244 1.36708 15.0642C1.40882 14.9233 1.39316 14.8085 1.32011 14.6781C0.0260892 12.2935 -0.260892 9.77854 0.464388 7.1644C1.78972 2.38485 6.63188 -0.568451 11.4532 0.0942157C13.7229 0.402069 15.6848 1.37259 17.245 3.07361C19.7808 5.83385 20.6157 9.05847 19.6034 12.6536C17.9024 18.6802 10.9888 21.597 5.43178 18.7063C5.34307 18.6593 5.21784 18.6437 5.12392 18.6697C3.94469 18.9672 2.77068 19.275 1.59666 19.5829C1.09053 19.7133 0.584399 19.8594 0.0782677 20.0003ZM2.40543 17.5949C2.48891 17.5792 2.54631 17.5688 2.6037 17.5531C3.51683 17.3183 4.42995 17.0835 5.33786 16.8383C5.47352 16.8018 5.57788 16.8226 5.69789 16.8957C7.60762 18.0384 9.6478 18.3984 11.8341 17.9288C16.1962 16.9896 19.0399 12.7005 18.1894 8.33319C17.2763 3.66322 12.6063 0.715139 7.99374 1.88915C4.39864 2.8075 1.81581 6.07908 1.76885 9.79419C1.74798 11.4743 2.2228 13.0136 3.14114 14.4172C3.20897 14.5268 3.22985 14.6155 3.19332 14.7407C3.0107 15.3721 2.83851 16.0034 2.66632 16.6348C2.58283 16.9479 2.49935 17.2609 2.40543 17.5949Z" fill="white"/>
<path d="M12.659 14.6466C12.4189 14.6153 12.1737 14.6153 11.9441 14.5526C10.6658 14.177 9.43956 13.6865 8.39077 12.8255C7.57678 12.1524 6.89846 11.3593 6.24623 10.5401C5.81837 10.0027 5.45312 9.42872 5.20788 8.78692C4.75392 7.58682 4.99916 6.5276 5.86011 5.59882C6.02186 5.42663 6.22536 5.32228 6.46016 5.31184C6.68975 5.30141 6.91411 5.30662 7.1437 5.31706C7.33676 5.32749 7.4359 5.47881 7.50373 5.63535C7.62896 5.92233 7.74897 6.20931 7.86898 6.49629C8.0203 6.86154 8.17162 7.23201 8.33337 7.59204C8.41164 7.76945 8.41164 7.93642 8.30206 8.08773C8.11422 8.34341 7.92638 8.59908 7.7281 8.84954C7.51417 9.11565 7.50373 9.18348 7.67592 9.47046C8.46903 10.7906 9.56478 11.7559 10.9997 12.3351C11.2971 12.4551 11.4067 12.4342 11.6102 12.189C11.845 11.9072 12.0746 11.6254 12.2989 11.3385C12.4816 11.1089 12.5703 11.0619 12.852 11.1663C13.1129 11.2654 13.3634 11.3854 13.6191 11.5002C14.0156 11.6724 14.4122 11.8394 14.8035 12.0168C15.0853 12.142 15.1114 12.2098 15.1061 12.5125C15.0853 13.8221 14.0991 14.4065 13.0921 14.5996C12.9512 14.6257 12.8051 14.6205 12.6642 14.6309C12.659 14.6361 12.659 14.6413 12.659 14.6466Z" fill="white"/>
</svg>
