<svg width="33" height="24" viewBox="0 0 33 24" fill="none" xmlns="http://www.w3.org/2000/svg">
<path d="M31.6482 4.35218C31.4643 3.67853 31.1075 3.06449 30.6129 2.57078C30.1183 2.07708 29.5032 1.72083 28.8284 1.53727C26.3434 0.881742 16.3906 0.881744 16.3906 0.881744C16.3906 0.881744 6.43788 0.881742 3.9529 1.53727C3.27926 1.72314 2.6654 2.08017 2.1712 2.57352C1.67701 3.06687 1.31927 3.67969 1.13308 4.35218C0.258476 9.41334 0.258476 14.5866 1.13308 19.6478C1.31578 20.322 1.67223 20.9367 2.16696 21.4306C2.66169 21.9245 3.27752 22.2803 3.9529 22.4627C6.43788 23.1311 16.3906 23.1311 16.3906 23.1311C16.3906 23.1311 26.3434 23.1311 28.8284 22.4627C29.5049 22.2827 30.1219 21.9276 30.617 21.4334C31.1121 20.9391 31.4679 20.3232 31.6482 19.6478C32.5228 14.5866 32.5228 9.41334 31.6482 4.35218ZM13.2103 16.7686V7.23136L21.4765 12L13.2103 16.7686Z" fill="white"/>
</svg>
