<svg width="100" height="59" viewBox="0 0 100 59" fill="none" xmlns="http://www.w3.org/2000/svg">
<path d="M99.8039 59C99.8039 59 100.524 52.6553 99.2039 43.9392L71.7189 53.1789C71.3889 52.4089 71.0289 51.6697 70.6386 50.9614L96.4433 33.4061C94.6731 28.6631 92.2125 24.2586 89.2119 20.3472L65.8378 44.8633C65.1778 44.2472 64.5178 43.6928 63.7975 43.1694L80.6906 11.6003C76.6697 8.33561 72.1389 5.7177 67.2181 3.83898L56.7464 39.5967C55.8161 39.3194 54.8558 39.1039 53.8958 38.9192L57.9764 1.34425C55.3661 0.91306 52.6656 0.666672 49.935 0.666672C47.2644 0.666672 44.6542 0.882255 42.1036 1.31345L45.8844 38.9497C44.9542 39.1039 44.0239 39.3194 43.1239 39.5967L32.6519 3.83898C27.7611 5.68692 23.2303 8.33561 19.1796 11.6003L36.0725 43.1694C35.3525 43.6928 34.6622 44.2781 34.0322 44.8633L10.658 20.3472C7.6575 24.2894 5.19706 28.6939 3.42672 33.4061L29.2314 50.9614C28.8414 51.6697 28.4811 52.4397 28.1511 53.1789L0.666236 43.9392C-0.293936 52.0703 0.066138 59 0.066138 59H93.3828H99.8039Z" fill="#D792F2"/>
</svg>
