<svg width="70" height="70" viewBox="0 0 70 70" fill="none" xmlns="http://www.w3.org/2000/svg">
<path d="M0 37.1909C0 35.7303 0 34.2697 0 32.8091C0.0365154 32.6082 0.0912885 32.4074 0.127804 32.2066C0.365154 30.6181 0.511215 28.9932 0.858112 27.423C5.05738 8.28899 24.3192 -3.6698 43.362 1.02242C61.4737 5.4773 72.9395 23.4611 69.3245 41.7553C66.5128 56.0146 55.3208 66.9509 40.952 69.4705C39.7105 69.6896 38.4325 69.8174 37.1727 70C35.7121 70 34.2514 70 32.7908 70C32.6448 69.9635 32.4987 69.8904 32.3344 69.8904C29.3766 69.6713 26.4554 69.1419 23.6802 68.1012C10.9911 63.3907 3.26813 54.3714 0.547731 41.0981C0.292123 39.82 0.182577 38.5055 0 37.1909ZM35.5477 57.1466C42.9421 57.037 48.9124 53.3307 54.0245 47.9082C55.3391 46.5023 54.5175 44.1654 52.6735 43.6176C51.5597 43.289 50.6468 43.6541 49.807 44.4027C48.1638 45.8268 46.5571 47.3604 44.7679 48.5655C39.9478 51.7971 34.7444 52.5821 29.2488 50.446C25.8164 49.1132 22.8952 47.0136 20.266 44.4757C18.9515 43.216 17.29 43.1247 16.1398 44.2932C14.9713 45.4799 15.0261 47.2144 16.4502 48.4376C18.3125 50.0443 20.1748 51.651 22.2196 53.0021C26.1085 55.6129 30.4538 57.0918 35.5477 57.1466ZM20.3573 30.4903C22.8221 30.4903 24.8305 28.4637 24.8487 26.0172C24.8487 23.5707 22.8404 21.5258 20.3756 21.5076C17.8925 21.4893 15.8477 23.5342 15.8659 26.0172C15.8659 28.482 17.8925 30.4903 20.3573 30.4903ZM54.1341 26.0172C54.1341 23.5524 52.1257 21.5258 49.6792 21.5076C47.1961 21.4893 45.1513 23.5524 45.1513 26.0172C45.1695 28.4637 47.1961 30.4903 49.6427 30.4903C52.1257 30.4903 54.1341 28.482 54.1341 26.0172Z" fill="#FF6F5B"/>
</svg>
