<svg width="28" height="28" viewBox="0 0 28 28" fill="none" xmlns="http://www.w3.org/2000/svg">
<path d="M14.0001 27.3C6.70006 27.3 0.800049 21.4 0.800049 14.1C0.800049 6.8 6.70006 0.899994 14.0001 0.899994C21.3001 0.899994 27.2001 6.8 27.2001 14.1C27.3001 21.4 21.3001 27.3 14.0001 27.3Z" fill="transparent"/>
<path d="M15.7002 13.8H10.4001V15.3H14.0002C13.6002 17.2 12.3002 18.3 10.5002 18.3C8.20015 18.3 6.30014 16.4 6.30014 14.1C6.30014 11.8 8.20015 9.89999 10.5002 9.89999C11.6002 9.89999 12.6001 10.3 13.4001 11L14.6002 9.99998C13.6002 8.99998 12.1002 8.29999 10.6002 8.29999C7.40016 8.29999 4.90015 10.9 4.90015 14.1C4.90015 17.3 7.50016 19.9 10.6002 19.9C13.6002 19.9 15.9001 17.6 15.9001 14.4L15.7002 13.8Z" fill="white"/>
<path d="M23.4 13.8H21.2V11.6H19.7V13.8H17.5V15.2H19.7V17.4H21.2V15.2H23.4V13.8Z" fill="white"/>
</svg>
