<svg width="49" height="49" viewBox="0 0 49 49" fill="none" xmlns="http://www.w3.org/2000/svg">
<g clip-path="url(#clip0_2242_2112)">
<path opacity="0.35" d="M38.9002 9.49998C35.1002 5.69998 30.1002 3.59998 24.8002 3.59998C19.5002 3.59998 14.4002 5.69998 10.7002 9.49998C7.40019 12.8 5.40019 17.1 4.90019 21.7C4.40019 26.2 5.50019 30.7 8.00019 34.5L8.50019 35.2L6.00019 42.5L13.3002 40L14.0002 40.5C17.2002 42.6 21.0002 43.7 24.9002 43.7C30.2002 43.7 35.3002 41.6 39.0002 37.8C42.8002 34 44.9002 29 44.9002 23.7C44.9002 18.4 42.7002 13.3 38.9002 9.49998ZM38.5002 37.3C34.8002 41 30.0002 43 24.8002 43C21.0002 43 17.4002 41.9 14.3002 39.9L13.3002 39.3L7.00019 41.4L9.20019 35.1L8.60019 34.1C6.20019 30.4 5.20019 26 5.60019 21.7C6.00019 17.3 8.00019 13.1 11.1002 9.99998C14.8002 6.29998 19.6002 4.29998 24.8002 4.29998C30.0002 4.29998 34.8002 6.29998 38.5002 9.99998C42.2002 13.7 44.2002 18.5 44.2002 23.7C44.1002 28.8 42.1002 33.7 38.5002 37.3Z" fill="#075C5C"/>
<path d="M0.399902 48.0999L4.6999 35.7C2.0999 31.4 0.999902 26.2999 1.4999 21.2999C1.9999 15.9999 4.3999 10.9 8.1999 7.09995C12.5999 2.69995 18.4999 0.199951 24.7999 0.199951C31.0999 0.199951 36.8999 2.59995 41.3999 7.09995C45.7999 11.5 48.2999 17.4 48.2999 23.7C48.2999 30 45.8999 35.7999 41.3999 40.2999C36.9999 44.7 31.0999 47.2 24.7999 47.2C20.4999 47.2 16.3999 46.1 12.7999 43.9L0.399902 48.0999ZM13.1999 40L13.8999 40.5C17.0999 42.5999 20.8999 43.7 24.7999 43.7C30.0999 43.7 35.1999 41.5999 38.8999 37.7999C42.6999 34 44.7999 29 44.7999 23.7C44.7999 18.4 42.6999 13.3 38.8999 9.59995C35.0999 5.79995 30.0999 3.69995 24.7999 3.69995C19.4999 3.69995 14.3999 5.79995 10.6999 9.59995C7.3999 12.9 5.3999 17.1999 4.8999 21.7999C4.3999 26.1999 5.4999 30.7 7.9999 34.5L8.4999 35.2L5.9999 42.5L13.1999 40Z" fill="white"/>
<path d="M30.0002 29.3C35.2002 24 36.3002 20.5 36.4002 18.3C36.5002 15.5 34.3002 12.7 33.1002 12.7C31.9002 12.7 30.8002 12.5 30.5002 13.2C30.1002 14 28.7002 17.3 28.5002 17.8C28.3002 18.3 28.1002 19 28.6002 19.7C29.2002 20.5 29.5002 20.8 29.8002 21.1C30.1002 21.5 30.3002 22 29.7002 22.8C29.1002 23.6 27.9002 25.4 26.9002 26.2C25.9002 27 23.2002 28.8 22.4002 29.1C21.6002 29.4 21.2002 29.5 20.7002 28.9C20.2002 28.3 19.6002 27.5 19.2002 27C18.8002 26.5 18.4002 26.1 17.4002 26.6C16.4002 27.1 14.0002 28.2 13.4002 28.5C12.7002 28.9 12.4002 28.9 12.5002 29.8C12.5002 30.3 12.5002 30.8 12.7002 31.2C13.2002 32.9 14.7002 34.6 18.1002 34.7C21.3002 35 27.2002 32.1 30.0002 29.3Z" fill="white"/>
<path d="M0 48.4L4.4 35.6C3.1 33.5 2.2 31.2 1.7 28.7C1.1 26.2 1 23.7 1.2 21.2C1.7 15.8 4.2 10.7 8 6.8C12.5 2.5 18.5 0 24.8 0C31.1 0 37.1 2.5 41.5 6.9C46 11.4 48.4 17.3 48.4 23.6C48.4 29.9 45.9 35.9 41.5 40.3C37 44.8 31.1 47.2 24.8 47.2C22.7 47.2 20.5 46.9 18.5 46.3C16.5 45.7 14.6 44.9 12.8 43.9L0 48.4ZM24.8 0.4C18.6 0.4 12.8 2.8 8.4 7.2C4.6 11 2.2 16 1.7 21.3C1.5 23.8 1.6 26.2 2.1 28.7C2.6 31.1 3.6 33.4 4.8 35.5L4.9 35.6V35.7L0.7 47.7L12.8 43.5L12.9 43.6C14.7 44.7 16.6 45.5 18.6 46C20.6 46.6 22.7 46.8 24.8 46.8C31 46.8 36.8 44.4 41.2 40C45.6 35.6 48 29.8 48 23.6C48 17.4 45.6 11.6 41.2 7.2C36.8 2.9 31 0.4 24.8 0.4Z" fill="url(#paint0_linear_2242_2112)"/>
</g>
<defs>
<linearGradient id="paint0_linear_2242_2112" x1="4.0379" y1="10.9643" x2="37.4811" y2="44.4075" gradientUnits="userSpaceOnUse">
<stop stop-color="white"/>
<stop offset="1" stop-color="#DEDEDE"/>
</linearGradient>
<clipPath id="clip0_2242_2112">
<rect width="48.4" height="48.4" fill="white"/>
</clipPath>
</defs>
</svg>
