<svg width="40" height="40" viewBox="0 0 40 40" fill="none" xmlns="http://www.w3.org/2000/svg">
<circle cx="20.0001" cy="20.0001" r="16.8539" transform="rotate(-180 20.0001 20.0001)" fill="white"/>
<circle cx="20" cy="20" r="19.5" transform="rotate(-180 20 20)" stroke="white"/>
<path d="M13.6747 18.6188C13.2842 19.0093 13.2842 19.6425 13.6747 20.033L20.0387 26.397C20.4292 26.7875 21.0624 26.7875 21.4529 26.397C21.8434 26.0065 21.8434 25.3733 21.4529 24.9828L15.796 19.3259L21.4529 13.6691C21.8434 13.2785 21.8434 12.6454 21.4529 12.2549C21.0624 11.8643 20.4292 11.8643 20.0387 12.2549L13.6747 18.6188ZM27.4155 18.3259L14.3818 18.3259L14.3818 20.3259L27.4155 20.3259L27.4155 18.3259Z" fill="black"/>
</svg>
