<svg width="100" height="100" viewBox="0 0 100 100" fill="none" xmlns="http://www.w3.org/2000/svg">
<g clip-path="url(#clip0_1203_540)">
<path d="M99.8039 75C99.8039 75 100.524 68.6552 99.2039 59.9391L71.7189 69.1788C71.3889 68.4088 71.0289 67.6697 70.6386 66.9613L96.4433 49.4061C94.6731 44.663 92.2125 40.2586 89.2119 36.3472L65.8378 60.8633C65.1778 60.2472 64.5178 59.6927 63.7975 59.1694L80.6906 27.6003C76.6697 24.3356 72.1389 21.7177 67.2181 19.8389L56.7464 55.5966C55.8161 55.3194 54.8558 55.1038 53.8958 54.9191L57.9764 17.3442C55.3661 16.913 52.6656 16.6666 49.935 16.6666C47.2644 16.6666 44.6542 16.8822 42.1036 17.3134L45.8844 54.9497C44.9542 55.1038 44.0239 55.3194 43.1239 55.5966L32.6519 19.8389C27.7611 21.6869 23.2303 24.3356 19.1796 27.6003L36.0725 59.1694C35.3525 59.6927 34.6622 60.278 34.0322 60.8633L10.658 36.3472C7.6575 40.2894 5.19706 44.6938 3.42672 49.4061L29.2314 66.9613C28.8414 67.6697 28.4811 68.4397 28.1511 69.1788L0.666236 59.9391C-0.293936 68.0702 0.066138 75 0.066138 75H93.3828H99.8039Z" fill="#FFE3DF"/>
</g>
<defs>
<clipPath id="clip0_1203_540">
<rect width="100" height="100" fill="white"/>
</clipPath>
</defs>
</svg>
