<svg width="40" height="83" viewBox="0 0 40 83" fill="none" xmlns="http://www.w3.org/2000/svg">
<path d="M31.6086 0.178994C30.1975 5.14903 28.8362 10.1177 27.4252 15.0878C26.0141 20.0578 24.603 25.0278 23.2417 29.9965C23.1488 30.2481 23.1057 30.4984 23.0155 30.8495C28.3922 30.7053 33.6195 30.565 39.046 30.4194C28.6539 47.8861 18.3587 65.2506 8.01235 82.5666C7.96256 82.5679 7.91144 82.5195 7.86166 82.5208C9.0697 69.9836 10.3289 57.4948 11.5342 44.8581C7.75063 44.9596 4.01683 45.0597 0.183453 45.1626C1.37983 30.334 2.58022 15.6547 3.72949 0.927C13.0391 0.677219 22.299 0.428774 31.6086 0.178994Z" fill="#B3F12D"/>
</svg>
